<?xml version="1.0" encoding="UTF-8"?>
<!DOCTYPE svg PUBLIC "-//W3C//DTD SVG 1.1//EN" "http://www.w3.org/Graphics/SVG/1.1/DTD/svg11.dtd">
<!-- Creator: CorelDRAW 2019 (64 Bit Versão de avaliação) -->
<svg xmlns="http://www.w3.org/2000/svg" xml:space="preserve" width="35.2293mm" height="35.4592mm" version="1.1" style="shape-rendering:geometricPrecision; text-rendering:geometricPrecision; image-rendering:optimizeQuality; fill-rule:evenodd; clip-rule:evenodd"
viewBox="0 0 972.91 979.26"
 xmlns:xlink="http://www.w3.org/1999/xlink">
 <defs>
  <style type="text/css">
   <![CDATA[
    .fil0 {fill:#A63795}
   ]]>
  </style>
 </defs>
 <g id="Camada_x0020_1">
  <metadata id="CorelCorpID_0Corel-Layer"/>
  <path class="fil0" d="M527.83 0l-67.12 0c-16.09,7.41 -80.2,6.45 -156.04,39.97 -24.42,10.79 -43.36,21.32 -63.95,33.89 -10.85,6.62 -19.77,12.5 -29.46,19.59 -9.42,6.9 -17.73,14.89 -27.05,21.86 -32.45,24.23 -68.62,70.56 -91.33,104.53 -93.09,139.24 -97.44,323.91 -27.03,468.6 19.23,39.5 24.08,23.52 8.51,69.48l-74.35 221.35c15.19,-1.84 43.37,-12.91 58.89,-17.81 20.04,-6.33 39.86,-12.83 60.52,-19.33 40.49,-12.73 79.06,-25.38 119.17,-38.03 35.43,-11.17 24.11,-7.37 55.51,7.07 19.59,9.01 36.2,15.36 57.59,22.21 42.67,13.67 87.26,20.66 134.89,21.85 364.94,9.1 604.38,-389.59 425.99,-709.01 -21.39,-38.3 -41.78,-62.33 -65.86,-91.31 -56.35,-67.79 -159.44,-123.5 -250.85,-143.48 -15.13,-3.3 -59.14,-7.36 -68.03,-11.44zm-407.43 861.34c24.74,-4.97 88.71,-28.03 120.15,-37.81 57.54,-17.9 21.51,-6.03 111.63,29.49 111.92,44.12 243.92,31.04 345.07,-28.78 117.09,-69.25 194.2,-190.62 198.91,-334.65 2.18,-66.54 -12.31,-123.2 -35.21,-176.26 -19.65,-45.53 -60.89,-101.28 -88.2,-125.57 -71.18,-63.31 -174.15,-122.13 -313.84,-109.47 -308.02,27.92 -467.04,379.11 -296.28,624.23 10.36,14.87 4.41,17.69 -1.57,36.36 -11.21,34.98 -33.83,93.69 -40.65,122.46z"/>
  <path class="fil0" d="M736.28 586.7c-17.9,-13.21 -58.86,-29.94 -83.75,-41.85 -48.67,-23.29 -40.83,-4.91 -71.31,31.92 -21.97,26.55 -44.1,15.76 -84.86,-9.65 -42.1,-26.24 -70.74,-54.88 -97.02,-93.67 -32.39,-47.8 -11.92,-35.27 17.01,-77.04 11.19,-16.16 1.08,-32.23 -5.57,-47.74 -8.24,-19.2 -28,-78.14 -41.12,-85.15 -13.03,-6.95 -42.15,-3.26 -54.87,2.95 -12.76,6.22 -24.66,20.24 -32.43,32.02 -42.65,64.6 -12.33,138.51 22.96,189.07 37.46,53.69 73.47,96.05 121.57,133.56 41.03,32 108.28,66.55 173.83,78.96 63.98,12.11 146.24,-25.14 135.55,-113.38z"/>
 </g>
</svg>
