<svg width="35" height="35" viewBox="0 0 35 35" fill="none" xmlns="http://www.w3.org/2000/svg">
<path d="M35 17.5C35 7.83505 27.1649 4.05358e-05 17.5 4.09583e-05C7.83501 4.13808e-05 -1.18742e-06 7.83505 -7.64948e-07 17.5C-3.42479e-07 27.165 7.83501 35 17.5 35C27.1649 35 35 27.165 35 17.5Z" fill="#F65B2B"/>
<g clip-path="url(#clip0)">
<path d="M11 12.0998C11 12.1998 12 12.3998 13.3 12.6998C14.5 12.9998 15.5 13.2998 15.6 13.1998C15.6 13.0998 15.4 12.5998 13.4 12.2998C12.1 11.9998 11 11.9998 11 12.0998Z" fill="#453401"/>
<path d="M24.3997 12.0999C24.3997 12.1999 23.3997 12.3999 22.0997 12.6999C20.8997 12.8999 19.8997 13.1999 19.8997 13.0999C19.7997 12.9999 20.0997 12.5999 21.9997 12.1999C23.2997 11.9999 24.3997 11.9999 24.3997 12.0999Z" fill="#453401"/>
</g>
<path d="M17.5121 25.4998C17.5121 25.4998 12.6121 25.4488 10.5121 26.5688C10.3721 26.5688 10.3721 26.5688 10.3721 26.4288C12.1921 24.6088 14.7121 23.4888 17.5121 23.4888C20.3121 23.4888 22.8321 24.6088 24.6521 26.4288C24.6521 26.4288 24.6521 26.5688 24.5121 26.5688C22.5521 25.4488 17.5121 25.4998 17.5121 25.4998Z" fill="#453401"/>
<path d="M20.7314 15.7889C20.7314 16.7689 21.4314 17.4689 22.4114 17.4689C23.3914 17.4689 24.0914 16.7689 24.0914 15.7889C24.0914 14.8089 23.3914 14.1089 22.4114 14.1089C21.5714 14.1089 20.7314 14.8089 20.7314 15.7889Z" fill="#453401"/>
<path d="M10.9316 15.7889C10.9316 16.7689 11.6316 17.4689 12.6116 17.4689C13.5916 17.4689 14.2916 16.7689 14.2916 15.7889C14.2916 14.8089 13.5916 14.1089 12.6116 14.1089C11.7716 14.1089 10.9316 14.8089 10.9316 15.7889Z" fill="#453401"/>
<defs>
<clipPath id="clip0">
<rect width="13.4" height="1.1" fill="white" transform="translate(11 12)"/>
</clipPath>
</defs>
</svg>
