<svg width="35" height="35" viewBox="0 0 35 35" fill="none" xmlns="http://www.w3.org/2000/svg">
<path d="M35 17.5C35 7.83502 27.165 2.87458e-06 17.5 2.77359e-06C7.83502 2.67261e-06 -1.18742e-06 7.83502 -7.64949e-07 17.5C-3.42479e-07 27.165 7.83502 35 17.5 35C27.165 35 35 27.165 35 17.5Z" fill="#F9CA55"/>
<path d="M22.4095 16.3362C23.3374 16.3362 24.0896 15.584 24.0896 14.6561C24.0896 13.7283 23.3374 12.9761 22.4095 12.9761C21.4817 12.9761 20.7295 13.7283 20.7295 14.6561C20.7295 15.584 21.4817 16.3362 22.4095 16.3362Z" fill="#453401"/>
<path d="M12.6097 16.3362C13.5376 16.3362 14.2898 15.584 14.2898 14.6561C14.2898 13.7283 13.5376 12.9761 12.6097 12.9761C11.6819 12.9761 10.9297 13.7283 10.9297 14.6561C10.9297 15.584 11.6819 16.3362 12.6097 16.3362Z" fill="#453401"/>
<path d="M26.3303 24.3164H8.82981C8.68981 24.3164 8.5498 24.1764 8.5498 24.0364V23.8964C8.5498 23.7563 8.68981 23.7563 8.82981 23.7563H26.3303C26.4703 23.7563 26.6103 23.8964 26.6103 24.0364V24.1764C26.4703 24.1764 26.4703 24.3164 26.3303 24.3164Z" fill="#453401"/>
</svg>
