<svg width="36" height="35" viewBox="0 0 36 35" fill="none" xmlns="http://www.w3.org/2000/svg">
<path d="M17.501 35.0001C27.1661 35.0001 35.0011 27.1651 35.0011 17.5001C35.0011 7.83505 27.1661 0 17.501 0C7.83602 0 0.000976562 7.83505 0.000976562 17.5001C0.000976562 27.1651 7.83602 35.0001 17.501 35.0001Z" fill="#F9CA55"/>
<path d="M17.6465 25.0532C13.7265 25.0532 10.7865 24.4932 8.82652 23.9332H8.68652C9.10652 27.2932 12.8865 29.9532 17.3665 29.9532C21.9865 29.9532 25.7665 27.2932 26.0465 23.7932C26.0465 23.7932 26.0465 23.6532 25.9065 23.7932C24.3665 24.4932 21.7065 25.0532 17.6465 25.0532Z" fill="#453401"/>
<path d="M13.3067 19.7334C13.1667 19.7334 13.0267 19.7334 12.8867 19.7334L8.40668 17.4934C8.40668 17.4934 6.72668 16.9334 6.30668 15.5334C5.74668 13.9934 6.30668 12.5934 7.98668 11.8934C8.82668 11.6134 9.94668 12.0334 10.5067 12.3134C10.7867 11.7534 11.3467 10.6334 12.1867 10.3534C13.8667 9.79335 15.1267 10.3534 15.8267 11.8934C16.2467 13.0134 15.6867 14.4134 15.5467 14.6934L13.7267 19.3134C13.5867 19.5934 13.4467 19.7334 13.3067 19.7334Z" fill="#E51E20"/>
<path d="M21.4263 19.4532L19.6063 14.8332C19.4663 14.4132 18.9063 13.1532 19.3263 12.0332C19.8863 10.4932 21.2863 9.79317 22.9663 10.4932C23.8063 10.7732 24.3663 11.8932 24.6463 12.4532C25.2063 12.1732 26.3263 11.7532 27.1663 12.0332C28.7063 12.5932 29.4063 13.9932 28.7063 15.5332C28.1463 16.9332 26.6063 17.4932 26.6063 17.4932L22.1263 19.7332C21.9863 19.7332 21.8463 19.7332 21.7063 19.7332C21.5663 19.7332 21.5663 19.5932 21.4263 19.4532Z" fill="#E51E20"/>
</svg>
