<svg width="35" height="35" viewBox="0 0 35 35" fill="none" xmlns="http://www.w3.org/2000/svg">
<path d="M17.5004 35.0008C27.1656 35.0008 35.0008 27.1656 35.0008 17.5004C35.0008 7.83519 27.1656 0 17.5004 0C7.83519 0 2.30321e-07 7.83519 5.14436e-07 17.5004C7.98551e-07 27.1656 7.8352 35.0008 17.5004 35.0008Z" fill="#F9CA55"/>
<path d="M18.14 25.6883C15.62 25.6883 13.24 25.1283 11.14 24.0083C11 24.0083 11 24.0083 11 24.1483C12.82 25.9683 15.34 27.0883 18.14 27.0883C20.94 27.0883 23.46 25.9683 25.28 24.1483C25.28 24.1483 25.28 24.0083 25.14 24.0083C23.18 25.1283 20.8 25.6883 18.14 25.6883Z" fill="#453401"/>
<path d="M21.5449 15.8077C21.5449 16.8621 22.2981 17.6153 23.3526 17.6153C24.407 17.6153 25.1602 16.8621 25.1602 15.8077C25.1602 14.7532 24.407 14 23.3526 14C22.4488 14 21.5449 14.7532 21.5449 15.8077Z" fill="#453401"/>
<path d="M11 15.8077C11 16.8621 11.7532 17.6153 12.8077 17.6153C13.8621 17.6153 14.6153 16.8621 14.6153 15.8077C14.6153 14.7532 13.8621 14 12.8077 14C11.9038 14 11 14.7532 11 15.8077Z" fill="#453401"/>
</svg>
