<svg xmlns="http://www.w3.org/2000/svg" version="1.1" xmlns:xlink="http://www.w3.org/1999/xlink" xmlns:svgjs="http://svgjs.dev/svgjs" viewBox="0 0 1920 1080" id="07394f96-d32e-4524-b675-86f68467a1a4"><g><rect width="1920" height="1080" fill="#8ee3ef"/></g><g fill="#f0c975"><path d="M716 244.687C1027.07 244.687 1278.69 -7.55189 1278.69 -318L1842 -318C1842 303.522 1338.15 807.374 716 807.374L716 244.687Z"/></g><g fill="#ffffff" opacity="0.4"><path d="M59.4553 1025.44C74.0358 1034.58 78.4304 1053.77 69.2841 1068.35C60.1377 1082.93 40.9502 1087.32 26.3697 1078.18C11.7893 1069.03 7.39469 1049.85 16.5411 1035.27C25.6874 1020.69 44.8749 1016.29 59.4553 1025.44ZM115.48 877.553C106.334 892.133 110.729 911.319 125.309 920.464C139.89 929.608 159.077 925.213 168.224 910.634C177.37 896.054 172.975 876.869 158.395 867.724C143.815 858.579 124.627 862.974 115.48 877.553ZM214.42 719.84C205.274 734.42 209.668 753.605 224.249 762.75C238.829 771.895 258.017 767.5 267.163 752.921C276.31 738.341 271.915 719.155 257.335 710.01C242.754 700.865 223.566 705.26 214.42 719.84ZM313.36 562.127C304.213 576.706 308.608 595.892 323.188 605.037C337.769 614.182 356.956 609.787 366.103 595.207C375.249 580.628 370.855 561.442 356.274 552.297C341.694 543.152 322.506 547.547 313.36 562.127ZM412.299 404.414C403.153 418.993 407.547 438.179 422.128 447.324C436.708 456.469 455.896 452.074 465.042 437.494C474.189 422.915 469.794 403.729 455.214 394.584C440.633 385.439 421.446 389.834 412.299 404.414ZM174.263 1134.19C165.117 1148.77 169.512 1167.96 184.092 1177.1C198.673 1186.25 217.86 1181.85 227.007 1167.27C236.153 1152.69 231.758 1133.51 217.178 1124.36C202.597 1115.22 183.41 1119.61 174.263 1134.19ZM273.203 976.477C264.056 991.057 268.451 1010.24 283.032 1019.39C297.612 1028.53 316.8 1024.14 325.946 1009.56C335.093 994.979 330.698 975.792 316.117 966.648C301.537 957.503 282.349 961.898 273.203 976.477ZM372.143 818.764C362.996 833.344 367.391 852.53 381.971 861.675C396.552 870.82 415.739 866.425 424.886 851.845C434.032 837.266 429.638 818.08 415.057 808.935C400.477 799.79 381.289 804.185 372.143 818.764ZM471.082 661.051C461.936 675.631 466.33 694.817 480.911 703.962C495.491 713.106 514.679 708.711 523.825 694.132C532.972 679.552 528.577 660.367 513.997 651.222C499.416 642.077 480.228 646.472 471.082 661.051ZM570.022 503.338C560.875 517.918 565.27 537.103 579.85 546.248C594.431 555.393 613.619 550.998 622.765 536.419C631.911 521.839 627.517 502.653 612.936 493.508C598.356 484.363 579.168 488.758 570.022 503.338ZM331.986 1233.11C322.84 1247.69 327.234 1266.88 341.815 1276.03C356.395 1285.17 375.583 1280.78 384.729 1266.2C393.875 1251.62 389.481 1232.43 374.9 1223.29C360.32 1214.14 341.132 1218.54 331.986 1233.11ZM430.925 1075.4C421.779 1089.98 426.174 1109.17 440.754 1118.31C455.335 1127.46 474.522 1123.06 483.669 1108.48C492.815 1093.9 488.42 1074.72 473.84 1065.57C459.26 1056.43 440.072 1060.82 430.925 1075.4ZM529.865 917.688C520.719 932.268 525.113 951.454 539.694 960.599C554.274 969.744 573.462 965.349 582.608 950.77C591.755 936.19 587.36 917.004 572.78 907.859C558.199 898.714 539.011 903.109 529.865 917.688ZM628.805 759.976C619.658 774.555 624.053 793.741 638.633 802.886C653.214 812.031 672.402 807.636 681.548 793.056C690.694 778.477 686.3 759.291 671.719 750.146C657.139 741.001 637.951 745.396 628.805 759.976ZM727.744 602.263C718.598 616.842 722.992 636.028 737.573 645.173C752.153 654.318 771.341 649.923 780.487 635.343C789.634 620.764 785.239 601.578 770.659 592.433C756.078 583.288 736.787 587.707 727.744 602.263ZM489.708 1332.04C480.562 1346.62 484.957 1365.81 499.537 1374.95C514.118 1384.1 533.305 1379.7 542.452 1365.12C551.598 1350.54 547.203 1331.35 532.623 1322.21C518.042 1313.06 498.855 1317.46 489.708 1332.04ZM588.648 1174.33C579.502 1188.91 583.896 1208.09 598.477 1217.24C613.057 1226.38 632.245 1221.99 641.391 1207.41C650.538 1192.83 646.143 1173.64 631.563 1164.5C616.982 1155.35 597.794 1159.75 588.648 1174.33ZM687.587 1016.61C678.441 1031.19 682.836 1050.38 697.416 1059.52C711.997 1068.67 731.185 1064.27 740.331 1049.69C749.477 1035.11 745.083 1015.93 730.502 1006.78C715.922 997.638 696.734 1002.03 687.587 1016.61ZM786.527 858.9C777.381 873.479 781.775 892.666 796.356 901.811C810.936 910.956 830.124 906.561 839.27 891.981C848.417 877.401 844.022 858.215 829.442 849.07C814.861 839.925 795.57 844.344 786.527 858.9ZM885.467 701.187C876.32 715.767 880.715 734.952 895.295 744.097C909.876 753.242 929.064 748.847 938.21 734.268C947.356 719.688 942.962 700.502 928.381 691.357C913.801 682.212 894.51 686.631 885.467 701.187ZM647.431 1430.96C638.285 1445.54 642.679 1464.73 657.26 1473.87C671.84 1483.02 691.028 1478.62 700.174 1464.05C709.321 1449.47 704.926 1430.28 690.345 1421.13C675.765 1411.99 656.577 1416.38 647.431 1430.96ZM746.37 1273.25C737.224 1287.83 741.619 1307.02 756.199 1316.16C770.78 1325.31 789.967 1320.91 799.114 1306.33C808.26 1291.75 803.866 1272.57 789.285 1263.42C774.705 1254.28 755.517 1258.67 746.37 1273.25ZM845.31 1115.54C836.164 1130.12 840.558 1149.3 855.139 1158.45C869.719 1167.59 888.907 1163.2 898.053 1148.62C907.2 1134.04 902.805 1114.85 888.225 1105.71C873.644 1096.56 854.353 1100.98 845.31 1115.54ZM944.25 957.824C935.103 972.404 939.498 991.59 954.078 1000.74C968.659 1009.88 987.847 1005.49 996.993 990.905C1006.14 976.326 1001.74 957.14 987.164 947.995C972.584 938.85 953.293 943.268 944.25 957.824ZM1043.09 800.135C1033.94 814.714 1038.33 833.901 1052.91 843.046C1067.5 852.19 1086.68 847.795 1095.83 833.216C1104.98 818.636 1100.58 799.45 1086 790.305C1071.52 781.136 1052.23 785.555 1043.09 800.135Z"/></g><g><path d="M178.635 139.281L184.422 144.246V166.626H215.704L219.958 172.147L215.69 177.397H184.422V198.795L178.635 203.747L173 198.795V144.232L178.635 139.281ZM195.554 195.68H219.406L223.397 200.915L219.143 206.45H195.554L191.7 201.342L195.554 195.68ZM196.382 138H219.129L223.383 143.52L219.129 148.77H196.659L192.115 143.677L196.382 138ZM323.155 148.628L328.251 154.291L323.155 159.968H246.13L241.172 154.291L246.13 148.628H323.155ZM237.043 172.147L241.849 167.893L246.669 172.147V178.393C246.669 188.879 249.417 197.515 261.668 197.515H264.14C275.147 197.515 281.197 189.86 281.197 177.952V172.005L285.879 167.75L290.699 171.862V178.379C290.699 189.007 293.723 196.946 305.56 196.946H307.618C319.178 196.946 321.235 187.869 321.373 177.952V171.578L326.056 167.608L331 171.72V178.094C330.862 191.838 327.285 207.574 308.032 207.574H305.974C294.552 207.574 288.365 202.324 285.892 195.808C283.006 202.466 275.299 208.286 264.844 208.286H262.358C242.553 208.286 237.194 195.964 237.056 178.663V172.147H237.043ZM276.391 274.744L273.642 267.089L280.796 264.969L305.974 276.721V252.491L311.07 248.095L316.291 252.491V281.829L325.641 286.226L328.251 293.311L320.959 296L276.391 274.744ZM321.235 223.011L328.113 226.27L325.917 233.497L264.002 263.119L256.571 260.146L259.596 252.776L321.235 223.011ZM231.905 263.404L237.954 268.512C237.402 286.51 222.403 296 204.669 296H202.874C194.062 296 183.759 292.6 177.157 286.083L177.834 278.855L184.298 278.002C189.118 282.256 195.858 285.229 202.183 285.229H204.117C216.091 285.229 225.303 280.136 226.27 268.085L231.905 263.404ZM226.256 251.638C225.704 239.16 216.629 234.209 204.103 234.209H202.169C194.739 234.209 189.104 237.182 184.284 241.436L177.834 240.583L177.143 233.355C183.745 226.696 192.957 223.58 202.597 223.58H204.517C222.403 223.58 237.402 232.942 237.94 251.211L231.891 256.176L226.256 251.638Z" fill="#000000"/></g><path d="M1171 781L1171 339L1187 339L1187 781L1171 781Z" fill="#000000"/><g fill="#000000" id="info-group"><path d="M160.9800 600L153.1500 600Q152.4300 600 151.8450 599.4600Q151.2600 598.9200 151.2600 598.1100L151.2600 598.1100Q151.2600 597.7500 151.4400 597.3000L151.4400 597.3000L173.1300 539.2500Q173.4000 538.3500 174.1650 537.6750Q174.9300 537 176.2800 537L176.2800 537L186.0900 537Q187.4400 537 188.1600 537.6750Q188.8800 538.3500 189.2400 539.2500L189.2400 539.2500L210.9300 597.3000Q211.0200 597.7500 211.0200 598.1100L211.0200 598.1100Q211.0200 598.9200 210.4800 599.4600Q209.9400 600 209.2200 600L209.2200 600L201.3900 600Q200.1300 600 199.5450 599.4150Q198.9600 598.8300 198.7800 598.2900L198.7800 598.2900L194.5500 587.3100L167.8200 587.3100L163.5900 598.2900Q163.4100 598.8300 162.8250 599.4150Q162.2400 600 160.9800 600L160.9800 600ZM181.1400 549.1500L170.9700 576.9600L191.4000 576.9600L181.1400 549.1500ZM235.6800 600.9000L235.6800 600.9000Q231 600.9000 227.4450 599.3250Q223.8900 597.7500 221.5500 594.8700Q219.2100 591.9900 217.9500 588.0750Q216.6900 584.1600 216.5100 579.4800L216.5100 579.4800Q216.4200 577.8600 216.4200 576.5550Q216.4200 575.2500 216.5100 573.6300L216.5100 573.6300Q216.6900 569.1300 217.9050 565.2600Q219.1200 561.3900 221.5050 558.4650Q223.8900 555.5400 227.4450 553.9200Q231 552.3000 235.6800 552.3000L235.6800 552.3000Q240.5400 552.3000 243.9150 553.9650Q247.2900 555.6300 249.5400 558.2400L249.5400 558.2400L249.5400 538.2600Q249.5400 537.3600 250.1250 536.7300Q250.7100 536.1000 251.7000 536.1000L251.7000 536.1000L259.3500 536.1000Q260.2500 536.1000 260.8800 536.7300Q261.5100 537.3600 261.5100 538.2600L261.5100 538.2600L261.5100 597.8400Q261.5100 598.7400 260.8800 599.3700Q260.2500 600 259.3500 600L259.3500 600L252.2400 600Q251.2500 600 250.6650 599.3700Q250.0800 598.7400 250.0800 597.8400L250.0800 597.8400L250.0800 594.5100Q247.8300 597.3000 244.3650 599.1000Q240.9000 600.9000 235.6800 600.9000ZM239.0100 591.2700L239.0100 591.2700Q242.7900 591.2700 245.0400 589.5600Q247.2900 587.8500 248.3700 585.1950Q249.4500 582.5400 249.5400 579.7500L249.5400 579.7500Q249.6300 578.1300 249.6300 576.2850Q249.6300 574.4400 249.5400 572.8200L249.5400 572.8200Q249.4500 570.1200 248.2800 567.6450Q247.1100 565.1700 244.8600 563.5500Q242.6100 561.9300 239.0100 561.9300L239.0100 561.9300Q235.2300 561.9300 233.0250 563.5950Q230.8200 565.2600 229.8300 567.9600Q228.8400 570.6600 228.6600 573.9000L228.6600 573.9000Q228.5700 576.6000 228.6600 579.3000L228.6600 579.3000Q228.8400 582.5400 229.8300 585.2400Q230.8200 587.9400 233.0250 589.6050Q235.2300 591.2700 239.0100 591.2700ZM296.7000 600L290.0400 600Q288.6000 600 287.9250 599.3250Q287.2500 598.6500 286.8000 597.7500L286.8000 597.7500L269.9700 555.9900Q269.7900 555.5400 269.7900 555.1800L269.7900 555.1800Q269.7900 554.3700 270.3750 553.7850Q270.9600 553.2000 271.7700 553.2000L271.7700 553.2000L279.0600 553.2000Q280.1400 553.2000 280.6800 553.7850Q281.2200 554.3700 281.4000 554.9100L281.4000 554.9100L293.3700 586.5000L305.3400 554.9100Q305.5200 554.3700 306.0600 553.7850Q306.6000 553.2000 307.6800 553.2000L307.6800 553.2000L315.0600 553.2000Q315.7800 553.2000 316.3650 553.7850Q316.9500 554.3700 316.9500 555.1800L316.9500 555.1800Q316.9500 555.5400 316.8600 555.9900L316.8600 555.9900L299.9400 597.7500Q299.5800 598.6500 298.8600 599.3250Q298.1400 600 296.7000 600L296.7000 600ZM338.7300 600.9000L338.7300 600.9000Q334.0500 600.9000 330.2700 599.0550Q326.4900 597.2100 324.2850 594.1050Q322.0800 591 322.0800 587.1300L322.0800 587.1300Q322.0800 580.8300 327.2100 577.0950Q332.3400 573.3600 340.6200 572.1000L340.6200 572.1000L352.9500 570.3000L352.9500 568.4100Q352.9500 564.6300 351.0600 562.5600Q349.1700 560.4900 344.5800 560.4900L344.5800 560.4900Q341.3400 560.4900 339.3150 561.7950Q337.2900 563.1000 336.3000 565.2600L336.3000 565.2600Q335.5800 566.4300 334.2300 566.4300L334.2300 566.4300L327.1200 566.4300Q326.1300 566.4300 325.6350 565.8900Q325.1400 565.3500 325.1400 564.4500L325.1400 564.4500Q325.2300 563.0100 326.3550 560.9400Q327.4800 558.8700 329.7750 556.9350Q332.0700 555 335.7600 553.6500Q339.4500 552.3000 344.6700 552.3000L344.6700 552.3000Q350.3400 552.3000 354.2550 553.6950Q358.1700 555.0900 360.5100 557.4300Q362.8500 559.7700 363.9300 562.9200Q365.0100 566.0700 365.0100 569.5800L365.0100 569.5800L365.0100 597.8400Q365.0100 598.7400 364.3800 599.3700Q363.7500 600 362.8500 600L362.8500 600L355.5600 600Q354.5700 600 353.9850 599.3700Q353.4000 598.7400 353.4000 597.8400L353.4000 597.8400L353.4000 594.3300Q352.2300 595.9500 350.2500 597.4800Q348.2700 599.0100 345.4350 599.9550Q342.6000 600.9000 338.7300 600.9000ZM341.7900 592.3500L341.7900 592.3500Q344.9400 592.3500 347.5050 591Q350.0700 589.6500 351.5550 586.8150Q353.0400 583.9800 353.0400 579.6600L353.0400 579.6600L353.0400 577.7700L344.0400 579.2100Q338.7300 580.0200 336.1200 581.8200Q333.5100 583.6200 333.5100 586.2300L333.5100 586.2300Q333.5100 588.2100 334.7250 589.6050Q335.9400 591 337.8300 591.6750Q339.7200 592.3500 341.7900 592.3500ZM386.6100 600L378.6900 600Q377.7900 600 377.1600 599.3700Q376.5300 598.7400 376.5300 597.8400L376.5300 597.8400L376.5300 555.3600Q376.5300 554.4600 377.1600 553.8300Q377.7900 553.2000 378.6900 553.2000L378.6900 553.2000L386.0700 553.2000Q386.9700 553.2000 387.6000 553.8300Q388.2300 554.4600 388.2300 555.3600L388.2300 555.3600L388.2300 559.0500Q390.5700 556.1700 394.2150 554.2350Q397.8600 552.3000 403.2600 552.3000L403.2600 552.3000Q408.7500 552.3000 412.8000 554.7750Q416.8500 557.2500 419.0550 561.7500Q421.2600 566.2500 421.2600 572.5500L421.2600 572.5500L421.2600 597.8400Q421.2600 598.7400 420.6300 599.3700Q420 600 419.1000 600L419.1000 600L411.1800 600Q410.2800 600 409.6500 599.3700Q409.0200 598.7400 409.0200 597.8400L409.0200 597.8400L409.0200 573.0900Q409.0200 567.8700 406.4550 564.9000Q403.8900 561.9300 399.0300 561.9300L399.0300 561.9300Q394.3500 561.9300 391.5600 564.9000Q388.7700 567.8700 388.7700 573.0900L388.7700 573.0900L388.7700 597.8400Q388.7700 598.7400 388.1400 599.3700Q387.5100 600 386.6100 600L386.6100 600ZM452.9400 600.9000L452.9400 600.9000Q446.4600 600.9000 441.5550 598.4700Q436.6500 596.0400 433.9050 591.4050Q431.1600 586.7700 430.8900 580.2000L430.8900 580.2000Q430.8000 578.8500 430.8000 576.6450Q430.8000 574.4400 430.8900 573L430.8900 573Q431.1600 566.4300 433.9050 561.7950Q436.6500 557.1600 441.5550 554.7300Q446.4600 552.3000 452.9400 552.3000L452.9400 552.3000Q458.7000 552.3000 462.7500 553.8750Q466.8000 555.4500 469.4100 557.9250Q472.0200 560.4000 473.3250 563.0550Q474.6300 565.7100 474.7200 567.8700L474.7200 567.8700Q474.8100 568.8600 474.1350 569.4450Q473.4600 570.0300 472.5600 570.0300L472.5600 570.0300L464.6400 570.0300Q463.7400 570.0300 463.2450 569.5800Q462.7500 569.1300 462.3000 568.2300L462.3000 568.2300Q460.9500 564.6300 458.7450 563.1450Q456.5400 561.6600 453.1200 561.6600L453.1200 561.6600Q448.6200 561.6600 445.9650 564.4950Q443.3100 567.3300 443.1300 573.4500L443.1300 573.4500Q442.9500 576.8700 443.1300 579.7500L443.1300 579.7500Q443.3100 585.9600 445.9650 588.7500Q448.6200 591.5400 453.1200 591.5400L453.1200 591.5400Q456.6300 591.5400 458.7900 590.0550Q460.9500 588.5700 462.3000 584.9700L462.3000 584.9700Q462.7500 584.0700 463.2450 583.6200Q463.7400 583.1700 464.6400 583.1700L464.6400 583.1700L472.5600 583.1700Q473.4600 583.1700 474.1350 583.7550Q474.8100 584.3400 474.7200 585.3300L474.7200 585.3300Q474.6300 586.9500 473.8650 588.9750Q473.1000 591 471.4350 593.1150Q469.7700 595.2300 467.2500 596.9850Q464.7300 598.7400 461.1750 599.8200Q457.6200 600.9000 452.9400 600.9000ZM504.2400 600.9000L504.2400 600.9000Q494.2500 600.9000 488.4000 595.1400Q482.5500 589.3800 482.1000 578.7600L482.1000 578.7600Q482.0100 577.8600 482.0100 576.4650Q482.0100 575.0700 482.1000 574.2600L482.1000 574.2600Q482.4600 567.4200 485.2050 562.5150Q487.9500 557.6100 492.8100 554.9550Q497.6700 552.3000 504.2400 552.3000L504.2400 552.3000Q511.5300 552.3000 516.4800 555.3150Q521.4300 558.3300 523.9500 563.6850Q526.4700 569.0400 526.4700 576.0600L526.4700 576.0600L526.4700 577.9500Q526.4700 578.8500 525.8400 579.4800Q525.2100 580.1100 524.2200 580.1100L524.2200 580.1100L494.3400 580.1100Q494.3400 580.1100 494.3400 580.3800Q494.3400 580.6500 494.3400 580.8300L494.3400 580.8300Q494.4300 583.9800 495.5550 586.6350Q496.6800 589.2900 498.8850 590.9100Q501.0900 592.5300 504.1500 592.5300L504.1500 592.5300Q506.6700 592.5300 508.3800 591.7650Q510.0900 591 511.1700 590.0100Q512.2500 589.0200 512.7000 588.3900L512.7000 588.3900Q513.5100 587.3100 514.0050 587.0850Q514.5000 586.8600 515.4900 586.8600L515.4900 586.8600L523.2300 586.8600Q524.1300 586.8600 524.7150 587.4000Q525.3000 587.9400 525.2100 588.7500L525.2100 588.7500Q525.1200 590.1900 523.7250 592.2600Q522.3300 594.3300 519.7200 596.3100Q517.1100 598.2900 513.1950 599.5950Q509.2800 600.9000 504.2400 600.9000ZM494.3400 572.2800L494.3400 572.5500L514.2300 572.5500L514.2300 572.2800Q514.2300 568.7700 513.0600 566.1150Q511.8900 563.4600 509.6400 561.9750Q507.3900 560.4900 504.2400 560.4900L504.2400 560.4900Q501.0900 560.4900 498.8400 561.9750Q496.5900 563.4600 495.4650 566.1150Q494.3400 568.7700 494.3400 572.2800L494.3400 572.2800ZM553.3800 600.9000L553.3800 600.9000Q548.7000 600.9000 545.1450 599.3250Q541.5900 597.7500 539.2500 594.8700Q536.9100 591.9900 535.6500 588.0750Q534.3900 584.1600 534.2100 579.4800L534.2100 579.4800Q534.1200 577.8600 534.1200 576.5550Q534.1200 575.2500 534.2100 573.6300L534.2100 573.6300Q534.3900 569.1300 535.6050 565.2600Q536.8200 561.3900 539.2050 558.4650Q541.5900 555.5400 545.1450 553.9200Q548.7000 552.3000 553.3800 552.3000L553.3800 552.3000Q558.2400 552.3000 561.6150 553.9650Q564.9900 555.6300 567.2400 558.2400L567.2400 558.2400L567.2400 538.2600Q567.2400 537.3600 567.8250 536.7300Q568.4100 536.1000 569.4000 536.1000L569.4000 536.1000L577.0500 536.1000Q577.9500 536.1000 578.5800 536.7300Q579.2100 537.3600 579.2100 538.2600L579.2100 538.2600L579.2100 597.8400Q579.2100 598.7400 578.5800 599.3700Q577.9500 600 577.0500 600L577.0500 600L569.9400 600Q568.9500 600 568.3650 599.3700Q567.7800 598.7400 567.7800 597.8400L567.7800 597.8400L567.7800 594.5100Q565.5300 597.3000 562.0650 599.1000Q558.6000 600.9000 553.3800 600.9000ZM556.7100 591.2700L556.7100 591.2700Q560.4900 591.2700 562.7400 589.5600Q564.9900 587.8500 566.0700 585.1950Q567.1500 582.5400 567.2400 579.7500L567.2400 579.7500Q567.3300 578.1300 567.3300 576.2850Q567.3300 574.4400 567.2400 572.8200L567.2400 572.8200Q567.1500 570.1200 565.9800 567.6450Q564.8100 565.1700 562.5600 563.5500Q560.3100 561.9300 556.7100 561.9300L556.7100 561.9300Q552.9300 561.9300 550.7250 563.5950Q548.5200 565.2600 547.5300 567.9600Q546.5400 570.6600 546.3600 573.9000L546.3600 573.9000Q546.2700 576.6000 546.3600 579.3000L546.3600 579.3000Q546.5400 582.5400 547.5300 585.2400Q548.5200 587.9400 550.7250 589.6050Q552.9300 591.2700 556.7100 591.2700ZM623.2200 600L615.0300 600Q614.1300 600 613.5000 599.4150Q612.8700 598.8300 612.8700 597.8400L612.8700 597.8400L612.8700 539.2500Q612.8700 538.2600 613.5000 537.6300Q614.1300 537 615.0300 537L615.0300 537L623.2200 537Q624.2100 537 624.7950 537.6300Q625.3800 538.2600 625.3800 539.2500L625.3800 539.2500L625.3800 562.4700L651.9300 562.4700L651.9300 539.2500Q651.9300 538.2600 652.5600 537.6300Q653.1900 537 654.0900 537L654.0900 537L662.1900 537Q663.1800 537 663.8100 537.6300Q664.4400 538.2600 664.4400 539.2500L664.4400 539.2500L664.4400 597.8400Q664.4400 598.7400 663.8100 599.3700Q663.1800 600 662.1900 600L662.1900 600L654.0900 600Q653.1900 600 652.5600 599.3700Q651.9300 598.7400 651.9300 597.8400L651.9300 597.8400L651.9300 573.7200L625.3800 573.7200L625.3800 597.8400Q625.3800 598.7400 624.7950 599.3700Q624.2100 600 623.2200 600L623.2200 600ZM702.7800 600L694.5000 600Q693.6000 600 692.9700 599.3700Q692.3400 598.7400 692.3400 597.8400L692.3400 597.8400L692.3400 548.0700L675.6900 548.0700Q674.7900 548.0700 674.1600 547.4400Q673.5300 546.8100 673.5300 545.9100L673.5300 545.9100L673.5300 539.2500Q673.5300 538.2600 674.1600 537.6300Q674.7900 537 675.6900 537L675.6900 537L721.5900 537Q722.5800 537 723.2100 537.6300Q723.8400 538.2600 723.8400 539.2500L723.8400 539.2500L723.8400 545.9100Q723.8400 546.8100 723.2100 547.4400Q722.5800 548.0700 721.5900 548.0700L721.5900 548.0700L705.0300 548.0700L705.0300 597.8400Q705.0300 598.7400 704.4000 599.3700Q703.7700 600 702.7800 600L702.7800 600ZM742.7400 600L735.1800 600Q734.1900 600 733.5600 599.3700Q732.9300 598.7400 732.9300 597.8400L732.9300 597.8400L732.9300 539.2500Q732.9300 538.2600 733.5600 537.6300Q734.1900 537 735.1800 537L735.1800 537L742.2900 537Q743.5500 537 744.1800 537.6750Q744.8100 538.3500 744.9900 538.7100L744.9900 538.7100L762.3600 571.1100L779.9100 538.7100Q780.0900 538.3500 780.7200 537.6750Q781.3500 537 782.6100 537L782.6100 537L789.6300 537Q790.6200 537 791.2500 537.6300Q791.8800 538.2600 791.8800 539.2500L791.8800 539.2500L791.8800 597.8400Q791.8800 598.7400 791.2500 599.3700Q790.6200 600 789.6300 600L789.6300 600L782.0700 600Q781.0800 600 780.4950 599.3700Q779.9100 598.7400 779.9100 597.8400L779.9100 597.8400L779.9100 558.8700L767.3100 582.9000Q766.8600 583.7100 766.1400 584.2950Q765.4200 584.8800 764.2500 584.8800L764.2500 584.8800L760.5600 584.8800Q759.3000 584.8800 758.6250 584.2950Q757.9500 583.7100 757.5000 582.9000L757.5000 582.9000L744.9000 558.8700L744.9000 597.8400Q744.9000 598.7400 744.2700 599.3700Q743.6400 600 742.7400 600L742.7400 600ZM847.1400 600L808.0800 600Q807.1800 600 806.5500 599.3700Q805.9200 598.7400 805.9200 597.8400L805.9200 597.8400L805.9200 539.1600Q805.9200 538.2600 806.5500 537.6300Q807.1800 537 808.0800 537L808.0800 537L816.4500 537Q817.3500 537 817.9800 537.6300Q818.6100 538.2600 818.6100 539.1600L818.6100 539.1600L818.6100 589.2900L847.1400 589.2900Q848.1300 589.2900 848.7600 589.9200Q849.3900 590.5500 849.3900 591.5400L849.3900 591.5400L849.3900 597.8400Q849.3900 598.7400 848.7600 599.3700Q848.1300 600 847.1400 600L847.1400 600Z" id="title"/><path d="M1475.6800 650L1454.8000 650Q1452.4000 650 1450.7200 648.3200Q1449.0400 646.6400 1449.0400 644.2400L1449.0400 644.2400L1449.0400 613.5200L1372.9600 613.5200Q1370.3200 613.5200 1368.7600 611.8400Q1367.2000 610.1600 1367.2000 607.7600L1367.2000 607.7600L1367.2000 591.4400Q1367.2000 590 1367.8000 587.9600Q1368.4000 585.9200 1369.8400 584.2400L1369.8400 584.2400L1440.6400 486.0800Q1443.7600 482 1449.5200 482L1449.5200 482L1475.6800 482Q1478.0800 482 1479.7600 483.6800Q1481.4400 485.3600 1481.4400 487.7600L1481.4400 487.7600L1481.4400 585.2000L1502.8000 585.2000Q1505.6800 585.2000 1507.2400 586.7600Q1508.8000 588.3200 1508.8000 590.9600L1508.8000 590.9600L1508.8000 607.7600Q1508.8000 610.1600 1507.1200 611.8400Q1505.4400 613.5200 1503.0400 613.5200L1503.0400 613.5200L1481.4400 613.5200L1481.4400 644.2400Q1481.4400 646.6400 1479.7600 648.3200Q1478.0800 650 1475.6800 650L1475.6800 650ZM1449.7600 516.8000L1400.5600 586.1600L1449.7600 586.1600L1449.7600 516.8000ZM1558 650L1534 650Q1531.6000 650 1529.9200 648.3200Q1528.2400 646.6400 1528.2400 644.2400L1528.2400 644.2400L1528.2400 620.4800Q1528.2400 617.8400 1529.9200 616.1600Q1531.6000 614.4800 1534 614.4800L1534 614.4800L1558 614.4800Q1560.4000 614.4800 1562.0800 616.1600Q1563.7600 617.8400 1563.7600 620.4800L1563.7600 620.4800L1563.7600 644.2400Q1563.7600 646.6400 1562.0800 648.3200Q1560.4000 650 1558 650L1558 650ZM1652.8000 652.4000L1652.8000 652.4000Q1636.0000 652.4000 1623.7600 648.3200Q1611.5200 644.2400 1603.4800 637.6400Q1595.4400 631.0400 1591.3600 623.2400Q1587.2800 615.4400 1587.0400 607.7600L1587.0400 607.7600Q1587.0400 605.6000 1588.6000 604.2800Q1590.1600 602.9600 1592.3200 602.9600L1592.3200 602.9600L1613.9200 602.9600Q1616.3200 602.9600 1618.0000 603.9200Q1619.6800 604.8800 1620.8800 607.7600L1620.8800 607.7600Q1623.0400 614.2400 1627.9600 618.0800Q1632.8800 621.9200 1639.3600 623.4800Q1645.8400 625.0400 1653.0400 625.0400L1653.0400 625.0400Q1667.4400 625.0400 1675.9600 618.2000Q1684.4800 611.3600 1684.4800 598.6400L1684.4800 598.6400Q1684.4800 585.9200 1676.5600 580.2800Q1668.6400 574.6400 1654.4800 574.6400L1654.4800 574.6400L1629.7600 574.6400Q1627.1200 574.6400 1625.4400 573.0800Q1623.7600 571.5200 1623.7600 568.8800L1623.7600 568.8800L1623.7600 558.8000Q1623.7600 556.4000 1624.8400 554.6000Q1625.9200 552.8000 1627.1200 551.6000L1627.1200 551.6000L1670.0800 509.6000L1601.4400 509.6000Q1598.8000 509.6000 1597.2400 507.9200Q1595.6800 506.2400 1595.6800 503.8400L1595.6800 503.8400L1595.6800 488Q1595.6800 485.3600 1597.2400 483.6800Q1598.8000 482 1601.4400 482L1601.4400 482L1704.4000 482Q1707.0400 482 1708.7200 483.6800Q1710.4000 485.3600 1710.4000 488L1710.4000 488L1710.4000 502.4000Q1710.4000 504.5600 1709.4400 506.2400Q1708.4800 507.9200 1707.2800 509.1200L1707.2800 509.1200L1665.7600 551.8400L1668.6400 552.0800Q1683.2800 553.2800 1694.6800 558.6800Q1706.0800 564.0800 1712.4400 574.4000Q1718.8000 584.7200 1718.8000 600.3200L1718.8000 600.3200Q1718.8000 616.6400 1710.2800 628.2800Q1701.7600 639.9200 1686.8800 646.1600Q1672.0000 652.4000 1652.8000 652.4000Z" id="lecture-full-number"/></g></svg>