<svg xmlns="http://www.w3.org/2000/svg" version="1.1" xmlns:xlink="http://www.w3.org/1999/xlink" xmlns:svgjs="http://svgjs.dev/svgjs" viewBox="0 0 1920 1080" id="hidden-cover-svg"><g><rect width="1920" height="1080" fill="#a2ad91"/></g><g fill="#b8c89f"><path d="M716 244.687C1027.07 244.687 1278.69 -7.55189 1278.69 -318L1842 -318C1842 303.522 1338.15 807.374 716 807.374L716 244.687Z"/></g><g fill="#ffffff" opacity="0.4"><path d="M59.4553 1025.44C74.0358 1034.58 78.4304 1053.77 69.2841 1068.35C60.1377 1082.93 40.9502 1087.32 26.3697 1078.18C11.7893 1069.03 7.39469 1049.85 16.5411 1035.27C25.6874 1020.69 44.8749 1016.29 59.4553 1025.44ZM115.48 877.553C106.334 892.133 110.729 911.319 125.309 920.464C139.89 929.608 159.077 925.213 168.224 910.634C177.37 896.054 172.975 876.869 158.395 867.724C143.815 858.579 124.627 862.974 115.48 877.553ZM214.42 719.84C205.274 734.42 209.668 753.605 224.249 762.75C238.829 771.895 258.017 767.5 267.163 752.921C276.31 738.341 271.915 719.155 257.335 710.01C242.754 700.865 223.566 705.26 214.42 719.84ZM313.36 562.127C304.213 576.706 308.608 595.892 323.188 605.037C337.769 614.182 356.956 609.787 366.103 595.207C375.249 580.628 370.855 561.442 356.274 552.297C341.694 543.152 322.506 547.547 313.36 562.127ZM412.299 404.414C403.153 418.993 407.547 438.179 422.128 447.324C436.708 456.469 455.896 452.074 465.042 437.494C474.189 422.915 469.794 403.729 455.214 394.584C440.633 385.439 421.446 389.834 412.299 404.414ZM174.263 1134.19C165.117 1148.77 169.512 1167.96 184.092 1177.1C198.673 1186.25 217.86 1181.85 227.007 1167.27C236.153 1152.69 231.758 1133.51 217.178 1124.36C202.597 1115.22 183.41 1119.61 174.263 1134.19ZM273.203 976.477C264.056 991.057 268.451 1010.24 283.032 1019.39C297.612 1028.53 316.8 1024.14 325.946 1009.56C335.093 994.979 330.698 975.792 316.117 966.648C301.537 957.503 282.349 961.898 273.203 976.477ZM372.143 818.764C362.996 833.344 367.391 852.53 381.971 861.675C396.552 870.82 415.739 866.425 424.886 851.845C434.032 837.266 429.638 818.08 415.057 808.935C400.477 799.79 381.289 804.185 372.143 818.764ZM471.082 661.051C461.936 675.631 466.33 694.817 480.911 703.962C495.491 713.106 514.679 708.711 523.825 694.132C532.972 679.552 528.577 660.367 513.997 651.222C499.416 642.077 480.228 646.472 471.082 661.051ZM570.022 503.338C560.875 517.918 565.27 537.103 579.85 546.248C594.431 555.393 613.619 550.998 622.765 536.419C631.911 521.839 627.517 502.653 612.936 493.508C598.356 484.363 579.168 488.758 570.022 503.338ZM331.986 1233.11C322.84 1247.69 327.234 1266.88 341.815 1276.03C356.395 1285.17 375.583 1280.78 384.729 1266.2C393.875 1251.62 389.481 1232.43 374.9 1223.29C360.32 1214.14 341.132 1218.54 331.986 1233.11ZM430.925 1075.4C421.779 1089.98 426.174 1109.17 440.754 1118.31C455.335 1127.46 474.522 1123.06 483.669 1108.48C492.815 1093.9 488.42 1074.72 473.84 1065.57C459.26 1056.43 440.072 1060.82 430.925 1075.4ZM529.865 917.688C520.719 932.268 525.113 951.454 539.694 960.599C554.274 969.744 573.462 965.349 582.608 950.77C591.755 936.19 587.36 917.004 572.78 907.859C558.199 898.714 539.011 903.109 529.865 917.688ZM628.805 759.976C619.658 774.555 624.053 793.741 638.633 802.886C653.214 812.031 672.402 807.636 681.548 793.056C690.694 778.477 686.3 759.291 671.719 750.146C657.139 741.001 637.951 745.396 628.805 759.976ZM727.744 602.263C718.598 616.842 722.992 636.028 737.573 645.173C752.153 654.318 771.341 649.923 780.487 635.343C789.634 620.764 785.239 601.578 770.659 592.433C756.078 583.288 736.787 587.707 727.744 602.263ZM489.708 1332.04C480.562 1346.62 484.957 1365.81 499.537 1374.95C514.118 1384.1 533.305 1379.7 542.452 1365.12C551.598 1350.54 547.203 1331.35 532.623 1322.21C518.042 1313.06 498.855 1317.46 489.708 1332.04ZM588.648 1174.33C579.502 1188.91 583.896 1208.09 598.477 1217.24C613.057 1226.38 632.245 1221.99 641.391 1207.41C650.538 1192.83 646.143 1173.64 631.563 1164.5C616.982 1155.35 597.794 1159.75 588.648 1174.33ZM687.587 1016.61C678.441 1031.19 682.836 1050.38 697.416 1059.52C711.997 1068.67 731.185 1064.27 740.331 1049.69C749.477 1035.11 745.083 1015.93 730.502 1006.78C715.922 997.638 696.734 1002.03 687.587 1016.61ZM786.527 858.9C777.381 873.479 781.775 892.666 796.356 901.811C810.936 910.956 830.124 906.561 839.27 891.981C848.417 877.401 844.022 858.215 829.442 849.07C814.861 839.925 795.57 844.344 786.527 858.9ZM885.467 701.187C876.32 715.767 880.715 734.952 895.295 744.097C909.876 753.242 929.064 748.847 938.21 734.268C947.356 719.688 942.962 700.502 928.381 691.357C913.801 682.212 894.51 686.631 885.467 701.187ZM647.431 1430.96C638.285 1445.54 642.679 1464.73 657.26 1473.87C671.84 1483.02 691.028 1478.62 700.174 1464.05C709.321 1449.47 704.926 1430.28 690.345 1421.13C675.765 1411.99 656.577 1416.38 647.431 1430.96ZM746.37 1273.25C737.224 1287.83 741.619 1307.02 756.199 1316.16C770.78 1325.31 789.967 1320.91 799.114 1306.33C808.26 1291.75 803.866 1272.57 789.285 1263.42C774.705 1254.28 755.517 1258.67 746.37 1273.25ZM845.31 1115.54C836.164 1130.12 840.558 1149.3 855.139 1158.45C869.719 1167.59 888.907 1163.2 898.053 1148.62C907.2 1134.04 902.805 1114.85 888.225 1105.71C873.644 1096.56 854.353 1100.98 845.31 1115.54ZM944.25 957.824C935.103 972.404 939.498 991.59 954.078 1000.74C968.659 1009.88 987.847 1005.49 996.993 990.905C1006.14 976.326 1001.74 957.14 987.164 947.995C972.584 938.85 953.293 943.268 944.25 957.824ZM1043.09 800.135C1033.94 814.714 1038.33 833.901 1052.91 843.046C1067.5 852.19 1086.68 847.795 1095.83 833.216C1104.98 818.636 1100.58 799.45 1086 790.305C1071.52 781.136 1052.23 785.555 1043.09 800.135Z"/></g><g><path d="M178.635 139.281L184.422 144.246V166.626H215.704L219.958 172.147L215.69 177.397H184.422V198.795L178.635 203.747L173 198.795V144.232L178.635 139.281ZM195.554 195.68H219.406L223.397 200.915L219.143 206.45H195.554L191.7 201.342L195.554 195.68ZM196.382 138H219.129L223.383 143.52L219.129 148.77H196.659L192.115 143.677L196.382 138ZM323.155 148.628L328.251 154.291L323.155 159.968H246.13L241.172 154.291L246.13 148.628H323.155ZM237.043 172.147L241.849 167.893L246.669 172.147V178.393C246.669 188.879 249.417 197.515 261.668 197.515H264.14C275.147 197.515 281.197 189.86 281.197 177.952V172.005L285.879 167.75L290.699 171.862V178.379C290.699 189.007 293.723 196.946 305.56 196.946H307.618C319.178 196.946 321.235 187.869 321.373 177.952V171.578L326.056 167.608L331 171.72V178.094C330.862 191.838 327.285 207.574 308.032 207.574H305.974C294.552 207.574 288.365 202.324 285.892 195.808C283.006 202.466 275.299 208.286 264.844 208.286H262.358C242.553 208.286 237.194 195.964 237.056 178.663V172.147H237.043ZM276.391 274.744L273.642 267.089L280.796 264.969L305.974 276.721V252.491L311.07 248.095L316.291 252.491V281.829L325.641 286.226L328.251 293.311L320.959 296L276.391 274.744ZM321.235 223.011L328.113 226.27L325.917 233.497L264.002 263.119L256.571 260.146L259.596 252.776L321.235 223.011ZM231.905 263.404L237.954 268.512C237.402 286.51 222.403 296 204.669 296H202.874C194.062 296 183.759 292.6 177.157 286.083L177.834 278.855L184.298 278.002C189.118 282.256 195.858 285.229 202.183 285.229H204.117C216.091 285.229 225.303 280.136 226.27 268.085L231.905 263.404ZM226.256 251.638C225.704 239.16 216.629 234.209 204.103 234.209H202.169C194.739 234.209 189.104 237.182 184.284 241.436L177.834 240.583L177.143 233.355C183.745 226.696 192.957 223.58 202.597 223.58H204.517C222.403 223.58 237.402 232.942 237.94 251.211L231.891 256.176L226.256 251.638Z" fill="#000000"/></g><path d="M1171 781L1171 339L1187 339L1187 781L1171 781Z" fill="#000000"/><g fill="#000000" id="info-group"><path d="M1584.4 652H1475.2C1470.37 652 1465.74 650.082 1462.33 646.669C1458.92 643.256 1457 638.627 1457 633.8V488.2C1457 483.373 1458.92 478.744 1462.33 475.331C1465.74 471.917 1470.37 470 1475.2 470H1584.4C1589.23 470 1593.86 471.917 1597.27 475.331C1600.68 478.744 1602.6 483.373 1602.6 488.2V633.8C1602.6 638.627 1600.68 643.256 1597.27 646.669C1593.86 650.082 1589.23 652 1584.4 652ZM1520.7 510.95C1520.7 509.743 1521.18 508.586 1522.03 507.733C1522.89 506.879 1524.04 506.4 1525.25 506.4H1579.85C1581.06 506.4 1582.21 506.879 1583.07 507.733C1583.92 508.586 1584.4 509.743 1584.4 510.95C1584.4 512.157 1583.92 513.314 1583.07 514.167C1582.21 515.021 1581.06 515.5 1579.85 515.5H1525.25C1524.04 515.5 1522.89 515.021 1522.03 514.167C1521.18 513.314 1520.7 512.157 1520.7 510.95ZM1525.25 524.6C1524.04 524.6 1522.89 525.079 1522.03 525.933C1521.18 526.786 1520.7 527.943 1520.7 529.15C1520.7 530.357 1521.18 531.514 1522.03 532.367C1522.89 533.221 1524.04 533.7 1525.25 533.7H1579.85C1581.06 533.7 1582.21 533.221 1583.07 532.367C1583.92 531.514 1584.4 530.357 1584.4 529.15C1584.4 527.943 1583.92 526.786 1583.07 525.933C1582.21 525.079 1581.06 524.6 1579.85 524.6H1525.25ZM1510.27 507.733C1511.12 508.586 1511.6 509.744 1511.6 510.95C1511.6 512.156 1511.12 513.314 1510.27 514.167L1488.85 535.584L1476.53 523.267C1476.1 522.847 1475.75 522.345 1475.51 521.79C1475.28 521.235 1475.15 520.638 1475.14 520.034C1475.14 519.429 1475.25 518.83 1475.48 518.271C1475.71 517.712 1476.05 517.204 1476.48 516.777C1476.9 516.35 1477.41 516.012 1477.97 515.783C1478.53 515.554 1479.13 515.439 1479.73 515.444C1480.34 515.45 1480.93 515.575 1481.49 515.813C1482.05 516.052 1482.55 516.399 1482.97 516.833L1488.85 522.716L1503.83 507.733C1504.69 506.88 1505.84 506.401 1507.05 506.401C1508.26 506.401 1509.41 506.88 1510.27 507.733ZM1525.25 561C1524.04 561 1522.89 561.479 1522.03 562.333C1521.18 563.186 1520.7 564.343 1520.7 565.55C1520.7 566.757 1521.18 567.914 1522.03 568.767C1522.89 569.621 1524.04 570.1 1525.25 570.1H1579.85C1581.06 570.1 1582.21 569.621 1583.07 568.767C1583.92 567.914 1584.4 566.757 1584.4 565.55C1584.4 564.343 1583.92 563.186 1583.07 562.333C1582.21 561.479 1581.06 561 1579.85 561H1525.25ZM1520.7 583.75C1520.7 582.543 1521.18 581.386 1522.03 580.533C1522.89 579.679 1524.04 579.2 1525.25 579.2H1579.85C1581.06 579.2 1582.21 579.679 1583.07 580.533C1583.92 581.386 1584.4 582.543 1584.4 583.75C1584.4 584.957 1583.92 586.114 1583.07 586.967C1582.21 587.821 1581.06 588.3 1579.85 588.3H1525.25C1524.04 588.3 1522.89 587.821 1522.03 586.967C1521.18 586.114 1520.7 584.957 1520.7 583.75ZM1502.5 561H1479.75C1478.54 561 1477.39 561.479 1476.53 562.333C1475.68 563.186 1475.2 564.343 1475.2 565.55V588.3C1475.2 589.507 1475.68 590.664 1476.53 591.517C1477.39 592.371 1478.54 592.85 1479.75 592.85H1502.5C1503.71 592.85 1504.86 592.371 1505.72 591.517C1506.57 590.664 1507.05 589.507 1507.05 588.3V565.55C1507.05 564.343 1506.57 563.186 1505.72 562.333C1504.86 561.479 1503.71 561 1502.5 561Z" id="title"/><path d="M1639 633.8L1625.35 652L1611.7 633.8V551.9H1639V633.8Z" id="title"/><path d="M1620.8 520.05H1629.9C1632.31 520.05 1634.63 521.009 1636.33 522.715C1638.04 524.422 1639 526.737 1639 529.15V547.35H1611.7V529.15C1611.7 526.737 1612.66 524.422 1614.37 522.715C1616.07 521.009 1618.39 520.05 1620.8 520.05Z" id="title"/><path d="M183.4900 620L167.3400 620Q165.6400 620 164.4500 618.8100Q163.2600 617.6200 163.2600 615.9200L163.2600 615.9200L163.2600 505.2500Q163.2600 503.3800 164.4500 502.1900Q165.6400 501 167.3400 501L167.3400 501L212.9000 501Q226.1600 501 236.0200 505.1650Q245.8800 509.3300 251.3200 517.7450Q256.7600 526.1600 256.7600 538.7400L256.7600 538.7400Q256.7600 551.4900 251.3200 559.7350Q245.8800 567.9800 236.0200 572.0600Q226.1600 576.1400 212.9000 576.1400L212.9000 576.1400L187.5700 576.1400L187.5700 615.9200Q187.5700 617.6200 186.4650 618.8100Q185.3600 620 183.4900 620L183.4900 620ZM187.2300 519.8700L187.2300 557.2700L212.0500 557.2700Q221.9100 557.2700 227.1800 552.5950Q232.4500 547.9200 232.4500 538.7400L232.4500 538.7400Q232.4500 530.2400 227.5200 525.0550Q222.5900 519.8700 212.0500 519.8700L212.0500 519.8700L187.2300 519.8700ZM311.3300 621.7000L311.3300 621.7000Q292.4600 621.7000 281.4100 610.8200Q270.3600 599.9400 269.5100 579.8800L269.5100 579.8800Q269.3400 578.1800 269.3400 575.5450Q269.3400 572.9100 269.5100 571.3800L269.5100 571.3800Q270.1900 558.4600 275.3750 549.1950Q280.5600 539.9300 289.7400 534.9150Q298.9200 529.9000 311.3300 529.9000L311.3300 529.9000Q325.1000 529.9000 334.4500 535.5950Q343.8000 541.2900 348.5600 551.4050Q353.3200 561.5200 353.3200 574.7800L353.3200 574.7800L353.3200 578.3500Q353.3200 580.0500 352.1300 581.2400Q350.9400 582.4300 349.0700 582.4300L349.0700 582.4300L292.6300 582.4300Q292.6300 582.4300 292.6300 582.9400Q292.6300 583.4500 292.6300 583.7900L292.6300 583.7900Q292.8000 589.7400 294.9250 594.7550Q297.0500 599.7700 301.2150 602.8300Q305.3800 605.8900 311.1600 605.8900L311.1600 605.8900Q315.9200 605.8900 319.1500 604.4450Q322.3800 603 324.4200 601.1300Q326.4600 599.2600 327.3100 598.0700L327.3100 598.0700Q328.8400 596.0300 329.7750 595.6050Q330.7100 595.1800 332.5800 595.1800L332.5800 595.1800L347.2000 595.1800Q348.9000 595.1800 350.0050 596.2000Q351.1100 597.2200 350.9400 598.7500L350.9400 598.7500Q350.7700 601.4700 348.1350 605.3800Q345.5000 609.2900 340.5700 613.0300Q335.6400 616.7700 328.2450 619.2350Q320.8500 621.7000 311.3300 621.7000ZM292.6300 567.6400L292.6300 568.1500L330.2000 568.1500L330.2000 567.6400Q330.2000 561.0100 327.9900 555.9950Q325.7800 550.9800 321.5300 548.1750Q317.2800 545.3700 311.3300 545.3700L311.3300 545.3700Q305.3800 545.3700 301.1300 548.1750Q296.8800 550.9800 294.7550 555.9950Q292.6300 561.0100 292.6300 567.6400L292.6300 567.6400ZM404.8300 621.7000L404.8300 621.7000Q394.6300 621.7000 387.4050 619.3200Q380.1800 616.9400 375.5900 613.3700Q371 609.8000 368.7900 606.2300Q366.5800 602.6600 366.4100 600.2800L366.4100 600.2800Q366.2400 598.4100 367.5150 597.3050Q368.7900 596.2000 370.3200 596.2000L370.3200 596.2000L383.7500 596.2000Q384.4300 596.2000 384.9400 596.3700Q385.4500 596.5400 386.3000 597.3900L386.3000 597.3900Q388.5100 599.2600 390.9750 601.3000Q393.4400 603.3400 396.8400 604.7850Q400.2400 606.2300 405.3400 606.2300L405.3400 606.2300Q411.9700 606.2300 416.4750 603.5950Q420.9800 600.9600 420.9800 596.0300L420.9800 596.0300Q420.9800 592.4600 419.0250 590.2500Q417.0700 588.0400 411.8000 586.2550Q406.5300 584.4700 396.8400 582.4300L396.8400 582.4300Q387.3200 580.2200 381.0300 576.8200Q374.7400 573.4200 371.6800 568.3200Q368.6200 563.2200 368.6200 556.4200L368.6200 556.4200Q368.6200 549.7900 372.6150 543.7550Q376.6100 537.7200 384.5150 533.8100Q392.4200 529.9000 404.1500 529.9000L404.1500 529.9000Q413.3300 529.9000 420.1300 532.1950Q426.9300 534.4900 431.4350 537.8900Q435.9400 541.2900 438.3200 544.7750Q440.7000 548.2600 440.8700 550.8100L440.8700 550.8100Q441.0400 552.6800 439.8500 553.7850Q438.6600 554.8900 437.1300 554.8900L437.1300 554.8900L424.5500 554.8900Q423.7000 554.8900 423.0200 554.5500Q422.3400 554.2100 421.6600 553.7000L421.6600 553.7000Q419.7900 552 417.5800 550.0450Q415.3700 548.0900 412.2250 546.7300Q409.0800 545.3700 403.9800 545.3700L403.9800 545.3700Q397.5200 545.3700 394.1200 548.1750Q390.7200 550.9800 390.7200 555.2300L390.7200 555.2300Q390.7200 558.1200 392.3350 560.2450Q393.9500 562.3700 398.8800 564.2400Q403.8100 566.1100 413.8400 568.1500L413.8400 568.1500Q425.2300 570.1900 431.9450 574.1850Q438.6600 578.1800 441.4650 583.3650Q444.2700 588.5500 444.2700 594.8400L444.2700 594.8400Q444.2700 602.4900 439.7650 608.6100Q435.2600 614.7300 426.5050 618.2150Q417.7500 621.7000 404.8300 621.7000ZM539.4700 652.3000L524.8500 652.3000Q523.1500 652.3000 521.9600 651.1100Q520.7700 649.9200 520.7700 648.2200L520.7700 648.2200L520.7700 609.6300Q516.6900 615.0700 510.2300 618.3850Q503.7700 621.7000 494.5900 621.7000L494.5900 621.7000Q485.9200 621.7000 479.2050 618.6400Q472.4900 615.5800 467.9850 610.2250Q463.4800 604.8700 461.1000 597.6450Q458.7200 590.4200 458.3800 581.9200L458.3800 581.9200Q458.2100 578.8600 458.2100 575.8000Q458.2100 572.7400 458.3800 569.8500L458.3800 569.8500Q458.8900 561.0100 461.1850 553.7000Q463.4800 546.3900 467.9850 541.0350Q472.4900 535.6800 479.2050 532.7900Q485.9200 529.9000 494.5900 529.9000L494.5900 529.9000Q504.4500 529.9000 511.1650 533.4700Q517.8800 537.0400 521.7900 542.4800L521.7900 542.4800L521.7900 535.6800Q521.7900 533.9800 522.9800 532.7900Q524.1700 531.6000 525.8700 531.6000L525.8700 531.6000L539.4700 531.6000Q541.1700 531.6000 542.3600 532.7900Q543.5500 533.9800 543.5500 535.6800L543.5500 535.6800L543.5500 648.2200Q543.5500 649.9200 542.3600 651.1100Q541.1700 652.3000 539.4700 652.3000L539.4700 652.3000ZM501.0500 603.5100L501.0500 603.5100Q507.8500 603.5100 512.1000 600.4500Q516.3500 597.3900 518.4750 592.7150Q520.6000 588.0400 520.7700 582.9400L520.7700 582.9400Q521.1100 579.7100 521.1100 576.3100Q521.1100 572.9100 520.7700 569.8500L520.7700 569.8500Q520.6000 564.5800 518.5600 559.5650Q516.5200 554.5500 512.2700 551.3200Q508.0200 548.0900 501.0500 548.0900L501.0500 548.0900Q493.9100 548.0900 489.6600 551.2350Q485.4100 554.3800 483.6250 559.4800Q481.8400 564.5800 481.5000 570.7000L481.5000 570.7000Q481.1600 575.8000 481.5000 580.9000L481.5000 580.9000Q481.8400 587.0200 483.6250 592.1200Q485.4100 597.2200 489.6600 600.3650Q493.9100 603.5100 501.0500 603.5100ZM598.9700 621.7000L598.9700 621.7000Q588.6000 621.7000 581.0350 617.0250Q573.4700 612.3500 569.3900 603.7650Q565.3100 595.1800 565.3100 583.4500L565.3100 583.4500L565.3100 535.6800Q565.3100 533.9800 566.5000 532.7900Q567.6900 531.6000 569.3900 531.6000L569.3900 531.6000L584.3500 531.6000Q586.2200 531.6000 587.3250 532.7900Q588.4300 533.9800 588.4300 535.6800L588.4300 535.6800L588.4300 582.4300Q588.4300 603.5100 606.9600 603.5100L606.9600 603.5100Q615.8000 603.5100 620.9850 597.9000Q626.1700 592.2900 626.1700 582.4300L626.1700 582.4300L626.1700 535.6800Q626.1700 533.9800 627.3600 532.7900Q628.5500 531.6000 630.2500 531.6000L630.2500 531.6000L645.2100 531.6000Q646.9100 531.6000 648.1000 532.7900Q649.2900 533.9800 649.2900 535.6800L649.2900 535.6800L649.2900 615.9200Q649.2900 617.6200 648.1000 618.8100Q646.9100 620 645.2100 620L645.2100 620L631.4400 620Q629.5700 620 628.4650 618.8100Q627.3600 617.6200 627.3600 615.9200L627.3600 615.9200L627.3600 608.9500Q622.7700 614.9000 615.9700 618.3000Q609.1700 621.7000 598.9700 621.7000ZM689.9200 620L675.8100 620Q674.1100 620 672.9200 618.8100Q671.7300 617.6200 671.7300 615.9200L671.7300 615.9200L671.7300 535.6800Q671.7300 533.9800 672.9200 532.7900Q674.1100 531.6000 675.8100 531.6000L675.8100 531.6000L689.9200 531.6000Q691.7900 531.6000 692.8950 532.7900Q694.0000 533.9800 694.0000 535.6800L694.0000 535.6800L694.0000 615.9200Q694.0000 617.6200 692.8950 618.8100Q691.7900 620 689.9200 620L689.9200 620ZM690.6000 516.9800L675.1300 516.9800Q673.4300 516.9800 672.2400 515.7900Q671.0500 514.6000 671.0500 512.9000L671.0500 512.9000L671.0500 500.6600Q671.0500 498.9600 672.2400 497.7700Q673.4300 496.5800 675.1300 496.5800L675.1300 496.5800L690.6000 496.5800Q692.4700 496.5800 693.6600 497.7700Q694.8500 498.9600 694.8500 500.6600L694.8500 500.6600L694.8500 512.9000Q694.8500 514.6000 693.6600 515.7900Q692.4700 516.9800 690.6000 516.9800L690.6000 516.9800ZM750.1000 621.7000L750.1000 621.7000Q739.9000 621.7000 732.6750 619.3200Q725.4500 616.9400 720.8600 613.3700Q716.2700 609.8000 714.0600 606.2300Q711.8500 602.6600 711.6800 600.2800L711.6800 600.2800Q711.5100 598.4100 712.7850 597.3050Q714.0600 596.2000 715.5900 596.2000L715.5900 596.2000L729.0200 596.2000Q729.7000 596.2000 730.2100 596.3700Q730.7200 596.5400 731.5700 597.3900L731.5700 597.3900Q733.7800 599.2600 736.2450 601.3000Q738.7100 603.3400 742.1100 604.7850Q745.5100 606.2300 750.6100 606.2300L750.6100 606.2300Q757.2400 606.2300 761.7450 603.5950Q766.2500 600.9600 766.2500 596.0300L766.2500 596.0300Q766.2500 592.4600 764.2950 590.2500Q762.3400 588.0400 757.0700 586.2550Q751.8000 584.4700 742.1100 582.4300L742.1100 582.4300Q732.5900 580.2200 726.3000 576.8200Q720.0100 573.4200 716.9500 568.3200Q713.8900 563.2200 713.8900 556.4200L713.8900 556.4200Q713.8900 549.7900 717.8850 543.7550Q721.8800 537.7200 729.7850 533.8100Q737.6900 529.9000 749.4200 529.9000L749.4200 529.9000Q758.6000 529.9000 765.4000 532.1950Q772.2000 534.4900 776.7050 537.8900Q781.2100 541.2900 783.5900 544.7750Q785.9700 548.2600 786.1400 550.8100L786.1400 550.8100Q786.3100 552.6800 785.1200 553.7850Q783.9300 554.8900 782.4000 554.8900L782.4000 554.8900L769.8200 554.8900Q768.9700 554.8900 768.2900 554.5500Q767.6100 554.2100 766.9300 553.7000L766.9300 553.7000Q765.0600 552 762.8500 550.0450Q760.6400 548.0900 757.4950 546.7300Q754.3500 545.3700 749.2500 545.3700L749.2500 545.3700Q742.7900 545.3700 739.3900 548.1750Q735.9900 550.9800 735.9900 555.2300L735.9900 555.2300Q735.9900 558.1200 737.6050 560.2450Q739.2200 562.3700 744.1500 564.2400Q749.0800 566.1100 759.1100 568.1500L759.1100 568.1500Q770.5000 570.1900 777.2150 574.1850Q783.9300 578.1800 786.7350 583.3650Q789.5400 588.5500 789.5400 594.8400L789.5400 594.8400Q789.5400 602.4900 785.0350 608.6100Q780.5300 614.7300 771.7750 618.2150Q763.0200 621.7000 750.1000 621.7000ZM832.7200 621.7000L832.7200 621.7000Q823.8800 621.7000 816.7400 618.2150Q809.6000 614.7300 805.4350 608.8650Q801.2700 603 801.2700 595.6900L801.2700 595.6900Q801.2700 583.7900 810.9600 576.7350Q820.6500 569.6800 836.2900 567.3000L836.2900 567.3000L859.5800 563.9000L859.5800 560.3300Q859.5800 553.1900 856.0100 549.2800Q852.4400 545.3700 843.7700 545.3700L843.7700 545.3700Q837.6500 545.3700 833.8250 547.8350Q830.0000 550.3000 828.1300 554.3800L828.1300 554.3800Q826.7700 556.5900 824.2200 556.5900L824.2200 556.5900L810.7900 556.5900Q808.9200 556.5900 807.9850 555.5700Q807.0500 554.5500 807.0500 552.8500L807.0500 552.8500Q807.2200 550.1300 809.3450 546.2200Q811.4700 542.3100 815.8050 538.6550Q820.1400 535 827.1100 532.4500Q834.0800 529.9000 843.9400 529.9000L843.9400 529.9000Q854.6500 529.9000 862.0450 532.5350Q869.4400 535.1700 873.8600 539.5900Q878.2800 544.0100 880.3200 549.9600Q882.3600 555.9100 882.3600 562.5400L882.3600 562.5400L882.3600 615.9200Q882.3600 617.6200 881.1700 618.8100Q879.9800 620 878.2800 620L878.2800 620L864.5100 620Q862.6400 620 861.5350 618.8100Q860.4300 617.6200 860.4300 615.9200L860.4300 615.9200L860.4300 609.2900Q858.2200 612.3500 854.4800 615.2400Q850.7400 618.1300 845.3850 619.9150Q840.0300 621.7000 832.7200 621.7000ZM838.5000 605.5500L838.5000 605.5500Q844.4500 605.5500 849.2950 603Q854.1400 600.4500 856.9450 595.0950Q859.7500 589.7400 859.7500 581.5800L859.7500 581.5800L859.7500 578.0100L842.7500 580.7300Q832.7200 582.2600 827.7900 585.6600Q822.8600 589.0600 822.8600 593.9900L822.8600 593.9900Q822.8600 597.7300 825.1550 600.3650Q827.4500 603 831.0200 604.2750Q834.5900 605.5500 838.5000 605.5500Z" id="survey-title"/></g></svg>