<svg xmlns="http://www.w3.org/2000/svg" version="1.1" xmlns:xlink="http://www.w3.org/1999/xlink" xmlns:svgjs="http://svgjs.dev/svgjs" viewBox="0 0 1920 1080" id="1967f12b-6a90-4327-a022-422e217b9718"><g><rect width="1920" height="1080" fill="#6e0e0a"/></g><g fill="#d74e09"><path d="M1772.03 -272.371L588.972 1365.72L-152.596 264.737L1772.03 -272.371Z"/></g><g fill="#ffffff" opacity="0.2"><path d="M1506.02 1200.21L1546.07 1148L1100.37 1206.71L1152.58 1246.76L1506.02 1200.21Z"/><path d="M1633.72 1033.77L1005.65 1116.8L997.065 1127.98L1038.42 1159.71L1593.67 1085.97L1633.72 1033.77Z"/><path d="M1680.72 971.813L1720.77 919.609L1093.03 1002.9L1052.98 1055.1L1680.72 971.813Z"/><path d="M1768.1 857.918L1808.15 805.715L1180.08 888.745L1140.03 940.948L1768.1 857.918Z"/><path d="M1855.49 744.015L1895.54 691.812L1267.47 774.843L1227.41 827.046L1855.49 744.015Z"/><path d="M1888.02 637.039L1835.56 597.326L1207.48 680.356L1259.95 720.069L1888.02 637.039Z"/><path d="M1773.86 549.992L1721.66 509.94L1093.59 592.97L1145.79 633.022L1773.86 549.992Z"/><path d="M1659.96 462.605L1607.76 422.554L979.688 505.584L1031.89 545.636L1659.96 462.605Z"/><path d="M1493.52 334.907L939.474 408.492L907.485 450.187L917.993 458.249L1546.07 375.219L1493.52 334.907Z"/><path d="M1431.83 287.574L1379.63 247.522L1026.86 294.596L986.809 346.799L1431.83 287.574Z"/><path d="M1317.93 200.191L1265.47 160.478L1114.17 180.102L1073.86 232.644L1317.93 200.191Z"/><path d="M1161.5 118.408L1203.77 113.145L1179.71 94.6791L1161.5 118.408Z"/><path d="M154.022 1244.21L194.074 1192L-251.626 1250.71L-199.423 1290.76L154.022 1244.21Z"/><path d="M281.72 1077.77L-346.353 1160.8L-354.935 1171.98L-313.579 1203.71L241.669 1129.97L281.72 1077.77Z"/><path d="M328.716 1015.81L368.768 963.609L-258.966 1046.9L-299.018 1099.1L328.716 1015.81Z"/><path d="M416.101 901.918L456.153 849.715L-171.92 932.745L-211.972 984.948L416.101 901.918Z"/><path d="M503.487 788.015L543.539 735.812L-84.5345 818.843L-124.586 871.046L503.487 788.015Z"/><path d="M536.02 681.039L483.557 641.326L-144.517 724.356L-92.0533 764.069L536.02 681.039Z"/><path d="M421.862 593.992L369.659 553.94L-258.414 636.97L-206.211 677.022L421.862 593.992Z"/><path d="M307.964 506.605L255.761 466.554L-372.312 549.584L-320.109 589.636L307.964 506.605Z"/><path d="M141.524 378.907L-412.526 452.492L-444.515 494.187L-434.007 502.249L194.066 419.219L141.524 378.907Z"/><path d="M79.83 331.574L27.6271 291.522L-325.139 338.596L-365.191 390.799L79.83 331.574Z"/></g><g><path d="M178.635 139.281L184.422 144.246V166.626H215.704L219.958 172.147L215.69 177.397H184.422V198.795L178.635 203.747L173 198.795V144.232L178.635 139.281ZM195.554 195.68H219.406L223.397 200.915L219.143 206.45H195.554L191.7 201.342L195.554 195.68ZM196.382 138H219.129L223.383 143.52L219.129 148.77H196.659L192.115 143.677L196.382 138ZM323.155 148.628L328.251 154.291L323.155 159.968H246.13L241.172 154.291L246.13 148.628H323.155ZM237.043 172.147L241.849 167.893L246.669 172.147V178.393C246.669 188.879 249.417 197.515 261.668 197.515H264.14C275.147 197.515 281.197 189.86 281.197 177.952V172.005L285.879 167.75L290.699 171.862V178.379C290.699 189.007 293.723 196.946 305.56 196.946H307.618C319.178 196.946 321.235 187.869 321.373 177.952V171.578L326.056 167.608L331 171.72V178.094C330.862 191.838 327.285 207.574 308.032 207.574H305.974C294.552 207.574 288.365 202.324 285.892 195.808C283.006 202.466 275.299 208.286 264.844 208.286H262.358C242.553 208.286 237.194 195.964 237.056 178.663V172.147H237.043ZM276.391 274.744L273.642 267.089L280.796 264.969L305.974 276.721V252.491L311.07 248.095L316.291 252.491V281.829L325.641 286.226L328.251 293.311L320.959 296L276.391 274.744ZM321.235 223.011L328.113 226.27L325.917 233.497L264.002 263.119L256.571 260.146L259.596 252.776L321.235 223.011ZM231.905 263.404L237.954 268.512C237.402 286.51 222.403 296 204.669 296H202.874C194.062 296 183.759 292.6 177.157 286.083L177.834 278.855L184.298 278.002C189.118 282.256 195.858 285.229 202.183 285.229H204.117C216.091 285.229 225.303 280.136 226.27 268.085L231.905 263.404ZM226.256 251.638C225.704 239.16 216.629 234.209 204.103 234.209H202.169C194.739 234.209 189.104 237.182 184.284 241.436L177.834 240.583L177.143 233.355C183.745 226.696 192.957 223.58 202.597 223.58H204.517C222.403 223.58 237.402 232.942 237.94 251.211L231.891 256.176L226.256 251.638Z" fill="#ffffff"/></g><path d="M1171 781L1171 339L1187 339L1187 781L1171 781Z" fill="#ffffff"/><g fill="#ffffff" id="info-group"><path d="M177.3600 600.9000L177.3600 600.9000Q172.5000 600.9000 168.1350 599.6850Q163.7700 598.4700 160.3500 595.9500Q156.9300 593.4300 154.9050 589.7400Q152.8800 586.0500 152.7900 581.0100L152.7900 581.0100Q152.7900 580.2000 153.3300 579.6150Q153.8700 579.0300 154.6800 579.0300L154.6800 579.0300L163.2300 579.0300Q164.4000 579.0300 164.9850 579.6600Q165.5700 580.2900 165.9300 581.3700L165.9300 581.3700Q166.3800 584.6100 168 586.6350Q169.6200 588.6600 172.0950 589.6050Q174.5700 590.5500 177.6300 590.5500L177.6300 590.5500Q183.3000 590.5500 186.3150 586.8600Q189.3300 583.1700 189.3300 576.6000L189.3300 576.6000L189.3300 547.6200L158.8200 547.6200Q157.8300 547.6200 157.2450 546.9900Q156.6600 546.3600 156.6600 545.4600L156.6600 545.4600L156.6600 539.1600Q156.6600 538.2600 157.2450 537.6300Q157.8300 537 158.8200 537L158.8200 537L199.9500 537Q200.9400 537 201.5700 537.6300Q202.2000 538.2600 202.2000 539.2500L202.2000 539.2500L202.2000 576.9600Q202.2000 584.4300 199.0950 589.8300Q195.9900 595.2300 190.4550 598.0650Q184.9200 600.9000 177.3600 600.9000ZM228.2100 600.9000L228.2100 600.9000Q223.5300 600.9000 219.7500 599.0550Q215.9700 597.2100 213.7650 594.1050Q211.5600 591 211.5600 587.1300L211.5600 587.1300Q211.5600 580.8300 216.6900 577.0950Q221.8200 573.3600 230.1000 572.1000L230.1000 572.1000L242.4300 570.3000L242.4300 568.4100Q242.4300 564.6300 240.5400 562.5600Q238.6500 560.4900 234.0600 560.4900L234.0600 560.4900Q230.8200 560.4900 228.7950 561.7950Q226.7700 563.1000 225.7800 565.2600L225.7800 565.2600Q225.0600 566.4300 223.7100 566.4300L223.7100 566.4300L216.6000 566.4300Q215.6100 566.4300 215.1150 565.8900Q214.6200 565.3500 214.6200 564.4500L214.6200 564.4500Q214.7100 563.0100 215.8350 560.9400Q216.9600 558.8700 219.2550 556.9350Q221.5500 555 225.2400 553.6500Q228.9300 552.3000 234.1500 552.3000L234.1500 552.3000Q239.8200 552.3000 243.7350 553.6950Q247.6500 555.0900 249.9900 557.4300Q252.3300 559.7700 253.4100 562.9200Q254.4900 566.0700 254.4900 569.5800L254.4900 569.5800L254.4900 597.8400Q254.4900 598.7400 253.8600 599.3700Q253.2300 600 252.3300 600L252.3300 600L245.0400 600Q244.0500 600 243.4650 599.3700Q242.8800 598.7400 242.8800 597.8400L242.8800 597.8400L242.8800 594.3300Q241.7100 595.9500 239.7300 597.4800Q237.7500 599.0100 234.9150 599.9550Q232.0800 600.9000 228.2100 600.9000ZM231.2700 592.3500L231.2700 592.3500Q234.4200 592.3500 236.9850 591Q239.5500 589.6500 241.0350 586.8150Q242.5200 583.9800 242.5200 579.6600L242.5200 579.6600L242.5200 577.7700L233.5200 579.2100Q228.2100 580.0200 225.6000 581.8200Q222.9900 583.6200 222.9900 586.2300L222.9900 586.2300Q222.9900 588.2100 224.2050 589.6050Q225.4200 591 227.3100 591.6750Q229.2000 592.3500 231.2700 592.3500ZM289.2300 600L282.5700 600Q281.1300 600 280.4550 599.3250Q279.7800 598.6500 279.3300 597.7500L279.3300 597.7500L262.5000 555.9900Q262.3200 555.5400 262.3200 555.1800L262.3200 555.1800Q262.3200 554.3700 262.9050 553.7850Q263.4900 553.2000 264.3000 553.2000L264.3000 553.2000L271.5900 553.2000Q272.6700 553.2000 273.2100 553.7850Q273.7500 554.3700 273.9300 554.9100L273.9300 554.9100L285.9000 586.5000L297.8700 554.9100Q298.0500 554.3700 298.5900 553.7850Q299.1300 553.2000 300.2100 553.2000L300.2100 553.2000L307.5900 553.2000Q308.3100 553.2000 308.8950 553.7850Q309.4800 554.3700 309.4800 555.1800L309.4800 555.1800Q309.4800 555.5400 309.3900 555.9900L309.3900 555.9900L292.4700 597.7500Q292.1100 598.6500 291.3900 599.3250Q290.6700 600 289.2300 600L289.2300 600ZM331.2600 600.9000L331.2600 600.9000Q326.5800 600.9000 322.8000 599.0550Q319.0200 597.2100 316.8150 594.1050Q314.6100 591 314.6100 587.1300L314.6100 587.1300Q314.6100 580.8300 319.7400 577.0950Q324.8700 573.3600 333.1500 572.1000L333.1500 572.1000L345.4800 570.3000L345.4800 568.4100Q345.4800 564.6300 343.5900 562.5600Q341.7000 560.4900 337.1100 560.4900L337.1100 560.4900Q333.8700 560.4900 331.8450 561.7950Q329.8200 563.1000 328.8300 565.2600L328.8300 565.2600Q328.1100 566.4300 326.7600 566.4300L326.7600 566.4300L319.6500 566.4300Q318.6600 566.4300 318.1650 565.8900Q317.6700 565.3500 317.6700 564.4500L317.6700 564.4500Q317.7600 563.0100 318.8850 560.9400Q320.0100 558.8700 322.3050 556.9350Q324.6000 555 328.2900 553.6500Q331.9800 552.3000 337.2000 552.3000L337.2000 552.3000Q342.8700 552.3000 346.7850 553.6950Q350.7000 555.0900 353.0400 557.4300Q355.3800 559.7700 356.4600 562.9200Q357.5400 566.0700 357.5400 569.5800L357.5400 569.5800L357.5400 597.8400Q357.5400 598.7400 356.9100 599.3700Q356.2800 600 355.3800 600L355.3800 600L348.0900 600Q347.1000 600 346.5150 599.3700Q345.9300 598.7400 345.9300 597.8400L345.9300 597.8400L345.9300 594.3300Q344.7600 595.9500 342.7800 597.4800Q340.8000 599.0100 337.9650 599.9550Q335.1300 600.9000 331.2600 600.9000ZM334.3200 592.3500L334.3200 592.3500Q337.4700 592.3500 340.0350 591Q342.6000 589.6500 344.0850 586.8150Q345.5700 583.9800 345.5700 579.6600L345.5700 579.6600L345.5700 577.7700L336.5700 579.2100Q331.2600 580.0200 328.6500 581.8200Q326.0400 583.6200 326.0400 586.2300L326.0400 586.2300Q326.0400 588.2100 327.2550 589.6050Q328.4700 591 330.3600 591.6750Q332.2500 592.3500 334.3200 592.3500ZM392.0100 600.9000L392.0100 600.9000Q383.6400 600.9000 378.0150 598.4250Q372.3900 595.9500 369.4650 591.9450Q366.5400 587.9400 366.3600 583.5300L366.3600 583.5300Q366.3600 582.7200 366.9000 582.1800Q367.4400 581.6400 368.2500 581.6400L368.2500 581.6400L376.2600 581.6400Q377.4300 581.6400 378.0150 582.1350Q378.6000 582.6300 379.0500 583.3500L379.0500 583.3500Q379.5900 585.0600 381.1200 586.7250Q382.6500 588.3900 385.3050 589.4700Q387.9600 590.5500 392.0100 590.5500L392.0100 590.5500Q398.4900 590.5500 401.6850 588.3900Q404.8800 586.2300 404.8800 582.5400L404.8800 582.5400Q404.8800 579.9300 403.1700 578.3550Q401.4600 576.7800 397.9050 575.4750Q394.3500 574.1700 388.5000 572.7300L388.5000 572.7300Q381.7500 571.1100 377.2050 568.8150Q372.6600 566.5200 370.3650 563.0100Q368.0700 559.5000 368.0700 554.1000L368.0700 554.1000Q368.0700 548.8800 370.9050 544.8300Q373.7400 540.7800 379.0050 538.4400Q384.2700 536.1000 391.5600 536.1000L391.5600 536.1000Q397.4100 536.1000 401.9100 537.6750Q406.4100 539.2500 409.3800 541.8150Q412.3500 544.3800 413.9250 547.3050Q415.5000 550.2300 415.5900 553.0200L415.5900 553.0200Q415.5900 553.7400 415.0950 554.3250Q414.6000 554.9100 413.7000 554.9100L413.7000 554.9100L405.3300 554.9100Q404.6100 554.9100 403.8900 554.5500Q403.1700 554.1900 402.7200 553.2000L402.7200 553.2000Q402.1800 550.4100 399.2100 548.4300Q396.2400 546.4500 391.5600 546.4500L391.5600 546.4500Q386.7000 546.4500 383.7300 548.2500Q380.7600 550.0500 380.7600 553.8300L380.7600 553.8300Q380.7600 556.3500 382.2450 558.0150Q383.7300 559.6800 387.0150 560.9400Q390.3000 562.2000 395.7000 563.6400L395.7000 563.6400Q403.3500 565.3500 408.2100 567.6000Q413.0700 569.8500 415.3200 573.3150Q417.5700 576.7800 417.5700 582.0900L417.5700 582.0900Q417.5700 588.0300 414.3750 592.2150Q411.1800 596.4000 405.4200 598.6500Q399.6600 600.9000 392.0100 600.9000ZM447.0900 600.9000L447.0900 600.9000Q440.6100 600.9000 435.7050 598.4700Q430.8000 596.0400 428.0550 591.4050Q425.3100 586.7700 425.0400 580.2000L425.0400 580.2000Q424.9500 578.8500 424.9500 576.6450Q424.9500 574.4400 425.0400 573L425.0400 573Q425.3100 566.4300 428.0550 561.7950Q430.8000 557.1600 435.7050 554.7300Q440.6100 552.3000 447.0900 552.3000L447.0900 552.3000Q452.8500 552.3000 456.9000 553.8750Q460.9500 555.4500 463.5600 557.9250Q466.1700 560.4000 467.4750 563.0550Q468.7800 565.7100 468.8700 567.8700L468.8700 567.8700Q468.9600 568.8600 468.2850 569.4450Q467.6100 570.0300 466.7100 570.0300L466.7100 570.0300L458.7900 570.0300Q457.8900 570.0300 457.3950 569.5800Q456.9000 569.1300 456.4500 568.2300L456.4500 568.2300Q455.1000 564.6300 452.8950 563.1450Q450.6900 561.6600 447.2700 561.6600L447.2700 561.6600Q442.7700 561.6600 440.1150 564.4950Q437.4600 567.3300 437.2800 573.4500L437.2800 573.4500Q437.1000 576.8700 437.2800 579.7500L437.2800 579.7500Q437.4600 585.9600 440.1150 588.7500Q442.7700 591.5400 447.2700 591.5400L447.2700 591.5400Q450.7800 591.5400 452.9400 590.0550Q455.1000 588.5700 456.4500 584.9700L456.4500 584.9700Q456.9000 584.0700 457.3950 583.6200Q457.8900 583.1700 458.7900 583.1700L458.7900 583.1700L466.7100 583.1700Q467.6100 583.1700 468.2850 583.7550Q468.9600 584.3400 468.8700 585.3300L468.8700 585.3300Q468.7800 586.9500 468.0150 588.9750Q467.2500 591 465.5850 593.1150Q463.9200 595.2300 461.4000 596.9850Q458.8800 598.7400 455.3250 599.8200Q451.7700 600.9000 447.0900 600.9000ZM488.2200 600L480.3900 600Q479.4900 600 478.8600 599.3700Q478.2300 598.7400 478.2300 597.8400L478.2300 597.8400L478.2300 555.4500Q478.2300 554.4600 478.8600 553.8300Q479.4900 553.2000 480.3900 553.2000L480.3900 553.2000L487.6800 553.2000Q488.5800 553.2000 489.2550 553.8300Q489.9300 554.4600 489.9300 555.4500L489.9300 555.4500L489.9300 559.1400Q492.0000 556.2600 495.2850 554.7300Q498.5700 553.2000 502.8900 553.2000L502.8900 553.2000L506.5800 553.2000Q507.5700 553.2000 508.1550 553.8300Q508.7400 554.4600 508.7400 555.3600L508.7400 555.3600L508.7400 561.8400Q508.7400 562.7400 508.1550 563.3700Q507.5700 564 506.5800 564L506.5800 564L499.5600 564Q495.2400 564 492.8550 566.3850Q490.4700 568.7700 490.4700 573.0900L490.4700 573.0900L490.4700 597.8400Q490.4700 598.7400 489.8400 599.3700Q489.2100 600 488.2200 600L488.2200 600ZM525.3900 600L517.9200 600Q517.0200 600 516.3900 599.3700Q515.7600 598.7400 515.7600 597.8400L515.7600 597.8400L515.7600 555.3600Q515.7600 554.4600 516.3900 553.8300Q517.0200 553.2000 517.9200 553.2000L517.9200 553.2000L525.3900 553.2000Q526.3800 553.2000 526.9650 553.8300Q527.5500 554.4600 527.5500 555.3600L527.5500 555.3600L527.5500 597.8400Q527.5500 598.7400 526.9650 599.3700Q526.3800 600 525.3900 600L525.3900 600ZM525.7500 545.4600L517.5600 545.4600Q516.6600 545.4600 516.0300 544.8300Q515.4000 544.2000 515.4000 543.3000L515.4000 543.3000L515.4000 536.8200Q515.4000 535.9200 516.0300 535.2900Q516.6600 534.6600 517.5600 534.6600L517.5600 534.6600L525.7500 534.6600Q526.7400 534.6600 527.3700 535.2900Q528.0000 535.9200 528.0000 536.8200L528.0000 536.8200L528.0000 543.3000Q528.0000 544.2000 527.3700 544.8300Q526.7400 545.4600 525.7500 545.4600L525.7500 545.4600ZM549.4200 617.1000L541.7700 617.1000Q540.8700 617.1000 540.2400 616.4700Q539.6100 615.8400 539.6100 614.9400L539.6100 614.9400L539.6100 555.3600Q539.6100 554.4600 540.2400 553.8300Q540.8700 553.2000 541.7700 553.2000L541.7700 553.2000L548.8800 553.2000Q549.8700 553.2000 550.4550 553.8300Q551.0400 554.4600 551.0400 555.3600L551.0400 555.3600L551.0400 558.9600Q553.2000 556.0800 556.7100 554.1900Q560.2200 552.3000 565.4400 552.3000L565.4400 552.3000Q570.2100 552.3000 573.7200 553.8300Q577.2300 555.3600 579.5700 558.1950Q581.9100 561.0300 583.1700 564.9000Q584.4300 568.7700 584.6100 573.4500L584.6100 573.4500Q584.7000 574.9800 584.7000 576.6000Q584.7000 578.2200 584.6100 579.8400L584.6100 579.8400Q584.5200 584.3400 583.2600 588.1650Q582.0000 591.9900 579.6150 594.8250Q577.2300 597.6600 573.7200 599.2800Q570.2100 600.9000 565.4400 600.9000L565.4400 600.9000Q560.5800 600.9000 557.1600 599.1450Q553.7400 597.3900 551.5800 594.5100L551.5800 594.5100L551.5800 614.9400Q551.5800 615.8400 550.9950 616.4700Q550.4100 617.1000 549.4200 617.1000L549.4200 617.1000ZM562.1100 591.2700L562.1100 591.2700Q565.9800 591.2700 568.1400 589.6050Q570.3000 587.9400 571.2900 585.2400Q572.2800 582.5400 572.4600 579.3000L572.4600 579.3000Q572.5500 576.6000 572.4600 573.9000L572.4600 573.9000Q572.2800 570.6600 571.2900 567.9600Q570.3000 565.2600 568.1400 563.5950Q565.9800 561.9300 562.1100 561.9300L562.1100 561.9300Q558.4200 561.9300 556.1250 563.6400Q553.8300 565.3500 552.7950 568.0050Q551.7600 570.6600 551.5800 573.4500L551.5800 573.4500Q551.4900 575.0700 551.4900 576.8700Q551.4900 578.6700 551.5800 580.3800L551.5800 580.3800Q551.6700 583.0800 552.8400 585.5550Q554.0100 588.0300 556.2600 589.6500Q558.5100 591.2700 562.1100 591.2700ZM623.2200 600L615.9300 600Q610.5300 600 606.8400 598.1100Q603.1500 596.2200 601.3500 592.4850Q599.5500 588.7500 599.5500 583.1700L599.5500 583.1700L599.5500 562.7400L592.4400 562.7400Q591.5400 562.7400 590.9100 562.1100Q590.2800 561.4800 590.2800 560.4900L590.2800 560.4900L590.2800 555.3600Q590.2800 554.4600 590.9100 553.8300Q591.5400 553.2000 592.4400 553.2000L592.4400 553.2000L599.5500 553.2000L599.5500 538.2600Q599.5500 537.3600 600.1350 536.7300Q600.7200 536.1000 601.7100 536.1000L601.7100 536.1000L609.0000 536.1000Q609.9000 536.1000 610.5300 536.7300Q611.1600 537.3600 611.1600 538.2600L611.1600 538.2600L611.1600 553.2000L622.4100 553.2000Q623.3100 553.2000 623.9400 553.8300Q624.5700 554.4600 624.5700 555.3600L624.5700 555.3600L624.5700 560.4900Q624.5700 561.4800 623.9400 562.1100Q623.3100 562.7400 622.4100 562.7400L622.4100 562.7400L611.1600 562.7400L611.1600 582.2700Q611.1600 585.9600 612.4650 588.0300Q613.7700 590.1000 617.0100 590.1000L617.0100 590.1000L623.2200 590.1000Q624.1200 590.1000 624.7500 590.7300Q625.3800 591.3600 625.3800 592.2600L625.3800 592.2600L625.3800 597.8400Q625.3800 598.7400 624.7500 599.3700Q624.1200 600 623.2200 600L623.2200 600ZM665.7000 600L657.2400 600Q656.3400 600 655.7100 599.3700Q655.0800 598.7400 655.0800 597.8400L655.0800 597.8400L655.0800 539.1600Q655.0800 538.2600 655.7100 537.6300Q656.3400 537 657.2400 537L657.2400 537L665.7000 537Q666.6900 537 667.2750 537.6300Q667.8600 538.2600 667.8600 539.1600L667.8600 539.1600L667.8600 597.8400Q667.8600 598.7400 667.2750 599.3700Q666.6900 600 665.7000 600L665.7000 600ZM692.6100 600L684.1500 600Q683.2500 600 682.6200 599.3700Q681.9900 598.7400 681.9900 597.8400L681.9900 597.8400L681.9900 539.1600Q681.9900 538.2600 682.6200 537.6300Q683.2500 537 684.1500 537L684.1500 537L692.6100 537Q693.6000 537 694.1850 537.6300Q694.7700 538.2600 694.7700 539.1600L694.7700 539.1600L694.7700 597.8400Q694.7700 598.7400 694.1850 599.3700Q693.6000 600 692.6100 600L692.6100 600Z" id="title"/><path d="M1408.9600 640L1388.9400 640Q1386.5200 640 1385.0900 638.4600Q1383.6600 636.9200 1383.6600 634.7200L1383.6600 634.7200L1383.6600 520.7600L1350.2200 546.5000Q1348.2400 547.8200 1346.2600 547.4900Q1344.2800 547.1600 1342.7400 545.1800L1342.7400 545.1800L1333.5000 533.3000Q1332.1800 531.3200 1332.5100 529.1200Q1332.8400 526.9200 1334.8200 525.6000L1334.8200 525.6000L1384.1000 487.5400Q1385.4200 486.4400 1386.7400 486.2200Q1388.0600 486 1389.6000 486L1389.6000 486L1408.9600 486Q1411.1600 486 1412.7000 487.5400Q1414.2400 489.0800 1414.2400 491.2800L1414.2400 491.2800L1414.2400 634.7200Q1414.2400 636.9200 1412.7000 638.4600Q1411.1600 640 1408.9600 640L1408.9600 640ZM1498.2800 642.2000L1498.2800 642.2000Q1482.8800 642.2000 1471.6600 638.4600Q1460.4400 634.7200 1453.0700 628.6700Q1445.7000 622.6200 1441.9600 615.4700Q1438.2200 608.3200 1438 601.2800L1438 601.2800Q1438 599.3000 1439.4300 598.0900Q1440.8600 596.8800 1442.8400 596.8800L1442.8400 596.8800L1462.6400 596.8800Q1464.8400 596.8800 1466.3800 597.7600Q1467.9200 598.6400 1469.0200 601.2800L1469.0200 601.2800Q1471 607.2200 1475.5100 610.7400Q1480.0200 614.2600 1485.9600 615.6900Q1491.9000 617.1200 1498.5000 617.1200L1498.5000 617.1200Q1511.7000 617.1200 1519.5100 610.8500Q1527.3200 604.5800 1527.3200 592.9200L1527.3200 592.9200Q1527.3200 581.2600 1520.0600 576.0900Q1512.8000 570.9200 1499.8200 570.9200L1499.8200 570.9200L1477.1600 570.9200Q1474.7400 570.9200 1473.2000 569.4900Q1471.6600 568.0600 1471.6600 565.6400L1471.6600 565.6400L1471.6600 556.4000Q1471.6600 554.2000 1472.6500 552.5500Q1473.6400 550.9000 1474.7400 549.8000L1474.7400 549.8000L1514.1200 511.3000L1451.2000 511.3000Q1448.7800 511.3000 1447.3500 509.7600Q1445.9200 508.2200 1445.9200 506.0200L1445.9200 506.0200L1445.9200 491.5000Q1445.9200 489.0800 1447.3500 487.5400Q1448.7800 486 1451.2000 486L1451.2000 486L1545.5800 486Q1548 486 1549.5400 487.5400Q1551.0800 489.0800 1551.0800 491.5000L1551.0800 491.5000L1551.0800 504.7000Q1551.0800 506.6800 1550.2000 508.2200Q1549.3200 509.7600 1548.2200 510.8600L1548.2200 510.8600L1510.1600 550.0200L1512.8000 550.2400Q1526.2200 551.3400 1536.6700 556.2900Q1547.1200 561.2400 1552.9500 570.7000Q1558.7800 580.1600 1558.7800 594.4600L1558.7800 594.4600Q1558.7800 609.4200 1550.9700 620.0900Q1543.1600 630.7600 1529.5200 636.4800Q1515.8800 642.2000 1498.2800 642.2000ZM1608.9400 640L1586.9400 640Q1584.7400 640 1583.2000 638.4600Q1581.6600 636.9200 1581.6600 634.7200L1581.6600 634.7200L1581.6600 612.9400Q1581.6600 610.5200 1583.2000 608.9800Q1584.7400 607.4400 1586.9400 607.4400L1586.9400 607.4400L1608.9400 607.4400Q1611.1400 607.4400 1612.6800 608.9800Q1614.2200 610.5200 1614.2200 612.9400L1614.2200 612.9400L1614.2200 634.7200Q1614.2200 636.9200 1612.6800 638.4600Q1611.1400 640 1608.9400 640L1608.9400 640ZM1747.7600 640L1642.6000 640Q1640.4000 640 1638.8600 638.4600Q1637.3200 636.9200 1637.3200 634.7200L1637.3200 634.7200L1637.3200 623.5000Q1637.3200 621.5200 1638.3100 618.7700Q1639.3000 616.0200 1642.8200 613.1600L1642.8200 613.1600L1677.5800 578.6200Q1692.1000 567.1800 1701.0100 559.1500Q1709.9200 551.1200 1713.9900 544.4100Q1718.0600 537.7000 1718.0600 531.1000L1718.0600 531.1000Q1718.0600 521.2000 1712.6700 515.0400Q1707.2800 508.8800 1695.6200 508.8800L1695.6200 508.8800Q1687.9200 508.8800 1682.6400 512.0700Q1677.3600 515.2600 1674.3900 520.5400Q1671.4200 525.8200 1670.3200 532.2000L1670.3200 532.2000Q1669.8800 535.0600 1667.9000 536.1600Q1665.9200 537.2600 1663.9400 537.2600L1663.9400 537.2600L1644.3600 537.2600Q1642.3800 537.2600 1641.0600 535.9400Q1639.7400 534.6200 1639.7400 532.8600L1639.7400 532.8600Q1639.9600 523.4000 1643.7000 514.4900Q1647.4400 505.5800 1654.5900 498.6500Q1661.7400 491.7200 1672.0800 487.5400Q1682.4200 483.3600 1695.4000 483.3600L1695.4000 483.3600Q1713.6600 483.3600 1725.6500 489.5200Q1737.6400 495.6800 1743.6900 506.2400Q1749.7400 516.8000 1749.7400 530L1749.7400 530Q1749.7400 540.3400 1745.7800 549.0300Q1741.8200 557.7200 1734.3400 565.7500Q1726.8600 573.7800 1716.3000 582.1400L1716.3000 582.1400L1685.0600 613.8200L1747.7600 613.8200Q1750.1800 613.8200 1751.6100 615.2500Q1753.0400 616.6800 1753.0400 619.1000L1753.0400 619.1000L1753.0400 634.7200Q1753.0400 636.9200 1751.6100 638.4600Q1750.1800 640 1747.7600 640L1747.7600 640Z" id="lecture-full-number"/></g></svg>