<svg xmlns="http://www.w3.org/2000/svg" version="1.1" xmlns:xlink="http://www.w3.org/1999/xlink" xmlns:svgjs="http://svgjs.dev/svgjs" viewBox="0 0 1920 1080" id="hidden-cover-svg"><g><rect width="1920" height="1080" fill="#114b5f"/></g><g fill="#1a936f"><path d="M716 244.687C1027.07 244.687 1278.69 -7.55189 1278.69 -318L1842 -318C1842 303.522 1338.15 807.374 716 807.374L716 244.687Z"/></g><g fill="#ffffff" opacity="0.2"><path d="M59.4553 1025.44C74.0358 1034.58 78.4304 1053.77 69.2841 1068.35C60.1377 1082.93 40.9502 1087.32 26.3697 1078.18C11.7893 1069.03 7.39469 1049.85 16.5411 1035.27C25.6874 1020.69 44.8749 1016.29 59.4553 1025.44ZM115.48 877.553C106.334 892.133 110.729 911.319 125.309 920.464C139.89 929.608 159.077 925.213 168.224 910.634C177.37 896.054 172.975 876.869 158.395 867.724C143.815 858.579 124.627 862.974 115.48 877.553ZM214.42 719.84C205.274 734.42 209.668 753.605 224.249 762.75C238.829 771.895 258.017 767.5 267.163 752.921C276.31 738.341 271.915 719.155 257.335 710.01C242.754 700.865 223.566 705.26 214.42 719.84ZM313.36 562.127C304.213 576.706 308.608 595.892 323.188 605.037C337.769 614.182 356.956 609.787 366.103 595.207C375.249 580.628 370.855 561.442 356.274 552.297C341.694 543.152 322.506 547.547 313.36 562.127ZM412.299 404.414C403.153 418.993 407.547 438.179 422.128 447.324C436.708 456.469 455.896 452.074 465.042 437.494C474.189 422.915 469.794 403.729 455.214 394.584C440.633 385.439 421.446 389.834 412.299 404.414ZM174.263 1134.19C165.117 1148.77 169.512 1167.96 184.092 1177.1C198.673 1186.25 217.86 1181.85 227.007 1167.27C236.153 1152.69 231.758 1133.51 217.178 1124.36C202.597 1115.22 183.41 1119.61 174.263 1134.19ZM273.203 976.477C264.056 991.057 268.451 1010.24 283.032 1019.39C297.612 1028.53 316.8 1024.14 325.946 1009.56C335.093 994.979 330.698 975.792 316.117 966.648C301.537 957.503 282.349 961.898 273.203 976.477ZM372.143 818.764C362.996 833.344 367.391 852.53 381.971 861.675C396.552 870.82 415.739 866.425 424.886 851.845C434.032 837.266 429.638 818.08 415.057 808.935C400.477 799.79 381.289 804.185 372.143 818.764ZM471.082 661.051C461.936 675.631 466.33 694.817 480.911 703.962C495.491 713.106 514.679 708.711 523.825 694.132C532.972 679.552 528.577 660.367 513.997 651.222C499.416 642.077 480.228 646.472 471.082 661.051ZM570.022 503.338C560.875 517.918 565.27 537.103 579.85 546.248C594.431 555.393 613.619 550.998 622.765 536.419C631.911 521.839 627.517 502.653 612.936 493.508C598.356 484.363 579.168 488.758 570.022 503.338ZM331.986 1233.11C322.84 1247.69 327.234 1266.88 341.815 1276.03C356.395 1285.17 375.583 1280.78 384.729 1266.2C393.875 1251.62 389.481 1232.43 374.9 1223.29C360.32 1214.14 341.132 1218.54 331.986 1233.11ZM430.925 1075.4C421.779 1089.98 426.174 1109.17 440.754 1118.31C455.335 1127.46 474.522 1123.06 483.669 1108.48C492.815 1093.9 488.42 1074.72 473.84 1065.57C459.26 1056.43 440.072 1060.82 430.925 1075.4ZM529.865 917.688C520.719 932.268 525.113 951.454 539.694 960.599C554.274 969.744 573.462 965.349 582.608 950.77C591.755 936.19 587.36 917.004 572.78 907.859C558.199 898.714 539.011 903.109 529.865 917.688ZM628.805 759.976C619.658 774.555 624.053 793.741 638.633 802.886C653.214 812.031 672.402 807.636 681.548 793.056C690.694 778.477 686.3 759.291 671.719 750.146C657.139 741.001 637.951 745.396 628.805 759.976ZM727.744 602.263C718.598 616.842 722.992 636.028 737.573 645.173C752.153 654.318 771.341 649.923 780.487 635.343C789.634 620.764 785.239 601.578 770.659 592.433C756.078 583.288 736.787 587.707 727.744 602.263ZM489.708 1332.04C480.562 1346.62 484.957 1365.81 499.537 1374.95C514.118 1384.1 533.305 1379.7 542.452 1365.12C551.598 1350.54 547.203 1331.35 532.623 1322.21C518.042 1313.06 498.855 1317.46 489.708 1332.04ZM588.648 1174.33C579.502 1188.91 583.896 1208.09 598.477 1217.24C613.057 1226.38 632.245 1221.99 641.391 1207.41C650.538 1192.83 646.143 1173.64 631.563 1164.5C616.982 1155.35 597.794 1159.75 588.648 1174.33ZM687.587 1016.61C678.441 1031.19 682.836 1050.38 697.416 1059.52C711.997 1068.67 731.185 1064.27 740.331 1049.69C749.477 1035.11 745.083 1015.93 730.502 1006.78C715.922 997.638 696.734 1002.03 687.587 1016.61ZM786.527 858.9C777.381 873.479 781.775 892.666 796.356 901.811C810.936 910.956 830.124 906.561 839.27 891.981C848.417 877.401 844.022 858.215 829.442 849.07C814.861 839.925 795.57 844.344 786.527 858.9ZM885.467 701.187C876.32 715.767 880.715 734.952 895.295 744.097C909.876 753.242 929.064 748.847 938.21 734.268C947.356 719.688 942.962 700.502 928.381 691.357C913.801 682.212 894.51 686.631 885.467 701.187ZM647.431 1430.96C638.285 1445.54 642.679 1464.73 657.26 1473.87C671.84 1483.02 691.028 1478.62 700.174 1464.05C709.321 1449.47 704.926 1430.28 690.345 1421.13C675.765 1411.99 656.577 1416.38 647.431 1430.96ZM746.37 1273.25C737.224 1287.83 741.619 1307.02 756.199 1316.16C770.78 1325.31 789.967 1320.91 799.114 1306.33C808.26 1291.75 803.866 1272.57 789.285 1263.42C774.705 1254.28 755.517 1258.67 746.37 1273.25ZM845.31 1115.54C836.164 1130.12 840.558 1149.3 855.139 1158.45C869.719 1167.59 888.907 1163.2 898.053 1148.62C907.2 1134.04 902.805 1114.85 888.225 1105.71C873.644 1096.56 854.353 1100.98 845.31 1115.54ZM944.25 957.824C935.103 972.404 939.498 991.59 954.078 1000.74C968.659 1009.88 987.847 1005.49 996.993 990.905C1006.14 976.326 1001.74 957.14 987.164 947.995C972.584 938.85 953.293 943.268 944.25 957.824ZM1043.09 800.135C1033.94 814.714 1038.33 833.901 1052.91 843.046C1067.5 852.19 1086.68 847.795 1095.83 833.216C1104.98 818.636 1100.58 799.45 1086 790.305C1071.52 781.136 1052.23 785.555 1043.09 800.135Z"/></g><g><path d="M178.635 139.281L184.422 144.246V166.626H215.704L219.958 172.147L215.69 177.397H184.422V198.795L178.635 203.747L173 198.795V144.232L178.635 139.281ZM195.554 195.68H219.406L223.397 200.915L219.143 206.45H195.554L191.7 201.342L195.554 195.68ZM196.382 138H219.129L223.383 143.52L219.129 148.77H196.659L192.115 143.677L196.382 138ZM323.155 148.628L328.251 154.291L323.155 159.968H246.13L241.172 154.291L246.13 148.628H323.155ZM237.043 172.147L241.849 167.893L246.669 172.147V178.393C246.669 188.879 249.417 197.515 261.668 197.515H264.14C275.147 197.515 281.197 189.86 281.197 177.952V172.005L285.879 167.75L290.699 171.862V178.379C290.699 189.007 293.723 196.946 305.56 196.946H307.618C319.178 196.946 321.235 187.869 321.373 177.952V171.578L326.056 167.608L331 171.72V178.094C330.862 191.838 327.285 207.574 308.032 207.574H305.974C294.552 207.574 288.365 202.324 285.892 195.808C283.006 202.466 275.299 208.286 264.844 208.286H262.358C242.553 208.286 237.194 195.964 237.056 178.663V172.147H237.043ZM276.391 274.744L273.642 267.089L280.796 264.969L305.974 276.721V252.491L311.07 248.095L316.291 252.491V281.829L325.641 286.226L328.251 293.311L320.959 296L276.391 274.744ZM321.235 223.011L328.113 226.27L325.917 233.497L264.002 263.119L256.571 260.146L259.596 252.776L321.235 223.011ZM231.905 263.404L237.954 268.512C237.402 286.51 222.403 296 204.669 296H202.874C194.062 296 183.759 292.6 177.157 286.083L177.834 278.855L184.298 278.002C189.118 282.256 195.858 285.229 202.183 285.229H204.117C216.091 285.229 225.303 280.136 226.27 268.085L231.905 263.404ZM226.256 251.638C225.704 239.16 216.629 234.209 204.103 234.209H202.169C194.739 234.209 189.104 237.182 184.284 241.436L177.834 240.583L177.143 233.355C183.745 226.696 192.957 223.58 202.597 223.58H204.517C222.403 223.58 237.402 232.942 237.94 251.211L231.891 256.176L226.256 251.638Z" fill="#ffffff"/></g><path d="M1171 781L1171 339L1187 339L1187 781L1171 781Z" fill="#ffffff"/><g fill="#ffffff" id="info-group"><path d="M181.3200 555.9000L181.3200 555.9000Q172.9500 555.9000 167.1450 552.9750Q161.3400 550.0500 158.2800 544.6050Q155.2200 539.1600 154.8600 531.5100L154.8600 531.5100Q154.7700 527.8200 154.7700 523.5900Q154.7700 519.3600 154.8600 515.4900L154.8600 515.4900Q155.2200 507.9300 158.3250 502.4400Q161.4300 496.9500 167.2350 494.0250Q173.0400 491.1000 181.3200 491.1000L181.3200 491.1000Q187.4400 491.1000 192.3000 492.7200Q197.1600 494.3400 200.5800 497.1750Q204 500.0100 205.8900 503.7900Q207.7800 507.5700 207.8700 511.9800L207.8700 511.9800Q207.9600 512.7900 207.3750 513.3300Q206.7900 513.8700 205.9800 513.8700L205.9800 513.8700L197.4300 513.8700Q196.4400 513.8700 195.8100 513.3750Q195.1800 512.8800 194.9100 511.7100L194.9100 511.7100Q193.4700 505.7700 189.9600 503.6100Q186.4500 501.4500 181.2300 501.4500L181.2300 501.4500Q175.2000 501.4500 171.6000 504.8250Q168 508.2000 167.7300 515.9400L167.7300 515.9400Q167.4600 523.3200 167.7300 531.0600L167.7300 531.0600Q168 538.8000 171.6000 542.1750Q175.2000 545.5500 181.2300 545.5500L181.2300 545.5500Q186.4500 545.5500 190.0050 543.3450Q193.5600 541.1400 194.9100 535.2900L194.9100 535.2900Q195.1800 534.0300 195.8100 533.5800Q196.4400 533.1300 197.4300 533.1300L197.4300 533.1300L205.9800 533.1300Q206.7900 533.1300 207.3750 533.6700Q207.9600 534.2100 207.8700 535.0200L207.8700 535.0200Q207.7800 539.4300 205.8900 543.2100Q204 546.9900 200.5800 549.8250Q197.1600 552.6600 192.3000 554.2800Q187.4400 555.9000 181.3200 555.9000ZM240.4500 555.9000L240.4500 555.9000Q232.0800 555.9000 226.4550 553.4250Q220.8300 550.9500 217.9050 546.9450Q214.9800 542.9400 214.8000 538.5300L214.8000 538.5300Q214.8000 537.7200 215.3400 537.1800Q215.8800 536.6400 216.6900 536.6400L216.6900 536.6400L224.7000 536.6400Q225.8700 536.6400 226.4550 537.1350Q227.0400 537.6300 227.4900 538.3500L227.4900 538.3500Q228.0300 540.0600 229.5600 541.7250Q231.0900 543.3900 233.7450 544.4700Q236.4000 545.5500 240.4500 545.5500L240.4500 545.5500Q246.9300 545.5500 250.1250 543.3900Q253.3200 541.2300 253.3200 537.5400L253.3200 537.5400Q253.3200 534.9300 251.6100 533.3550Q249.9000 531.7800 246.3450 530.4750Q242.7900 529.1700 236.9400 527.7300L236.9400 527.7300Q230.1900 526.1100 225.6450 523.8150Q221.1000 521.5200 218.8050 518.0100Q216.5100 514.5000 216.5100 509.1000L216.5100 509.1000Q216.5100 503.8800 219.3450 499.8300Q222.1800 495.7800 227.4450 493.4400Q232.7100 491.1000 240 491.1000L240 491.1000Q245.8500 491.1000 250.3500 492.6750Q254.8500 494.2500 257.8200 496.8150Q260.7900 499.3800 262.3650 502.3050Q263.9400 505.2300 264.0300 508.0200L264.0300 508.0200Q264.0300 508.7400 263.5350 509.3250Q263.0400 509.9100 262.1400 509.9100L262.1400 509.9100L253.7700 509.9100Q253.0500 509.9100 252.3300 509.5500Q251.6100 509.1900 251.1600 508.2000L251.1600 508.2000Q250.6200 505.4100 247.6500 503.4300Q244.6800 501.4500 240 501.4500L240 501.4500Q235.1400 501.4500 232.1700 503.2500Q229.2000 505.0500 229.2000 508.8300L229.2000 508.8300Q229.2000 511.3500 230.6850 513.0150Q232.1700 514.6800 235.4550 515.9400Q238.7400 517.2000 244.1400 518.6400L244.1400 518.6400Q251.7900 520.3500 256.6500 522.6000Q261.5100 524.8500 263.7600 528.3150Q266.0100 531.7800 266.0100 537.0900L266.0100 537.0900Q266.0100 543.0300 262.8150 547.2150Q259.6200 551.4000 253.8600 553.6500Q248.1000 555.9000 240.4500 555.9000ZM298.2300 555.9000L298.2300 555.9000Q289.8600 555.9000 284.2350 553.4250Q278.6100 550.9500 275.6850 546.9450Q272.7600 542.9400 272.5800 538.5300L272.5800 538.5300Q272.5800 537.7200 273.1200 537.1800Q273.6600 536.6400 274.4700 536.6400L274.4700 536.6400L282.4800 536.6400Q283.6500 536.6400 284.2350 537.1350Q284.8200 537.6300 285.2700 538.3500L285.2700 538.3500Q285.8100 540.0600 287.3400 541.7250Q288.8700 543.3900 291.5250 544.4700Q294.1800 545.5500 298.2300 545.5500L298.2300 545.5500Q304.7100 545.5500 307.9050 543.3900Q311.1000 541.2300 311.1000 537.5400L311.1000 537.5400Q311.1000 534.9300 309.3900 533.3550Q307.6800 531.7800 304.1250 530.4750Q300.5700 529.1700 294.7200 527.7300L294.7200 527.7300Q287.9700 526.1100 283.4250 523.8150Q278.8800 521.5200 276.5850 518.0100Q274.2900 514.5000 274.2900 509.1000L274.2900 509.1000Q274.2900 503.8800 277.1250 499.8300Q279.9600 495.7800 285.2250 493.4400Q290.4900 491.1000 297.7800 491.1000L297.7800 491.1000Q303.6300 491.1000 308.1300 492.6750Q312.6300 494.2500 315.6000 496.8150Q318.5700 499.3800 320.1450 502.3050Q321.7200 505.2300 321.8100 508.0200L321.8100 508.0200Q321.8100 508.7400 321.3150 509.3250Q320.8200 509.9100 319.9200 509.9100L319.9200 509.9100L311.5500 509.9100Q310.8300 509.9100 310.1100 509.5500Q309.3900 509.1900 308.9400 508.2000L308.9400 508.2000Q308.4000 505.4100 305.4300 503.4300Q302.4600 501.4500 297.7800 501.4500L297.7800 501.4500Q292.9200 501.4500 289.9500 503.2500Q286.9800 505.0500 286.9800 508.8300L286.9800 508.8300Q286.9800 511.3500 288.4650 513.0150Q289.9500 514.6800 293.2350 515.9400Q296.5200 517.2000 301.9200 518.6400L301.9200 518.6400Q309.5700 520.3500 314.4300 522.6000Q319.2900 524.8500 321.5400 528.3150Q323.7900 531.7800 323.7900 537.0900L323.7900 537.0900Q323.7900 543.0300 320.5950 547.2150Q317.4000 551.4000 311.6400 553.6500Q305.8800 555.9000 298.2300 555.9000ZM364.8300 555L356.9100 555Q356.0100 555 355.3800 554.3700Q354.7500 553.7400 354.7500 552.8400L354.7500 552.8400L354.7500 494.2500Q354.7500 493.2600 355.3800 492.6300Q356.0100 492 356.9100 492L356.9100 492L395.9700 492Q396.9600 492 397.5900 492.6300Q398.2200 493.2600 398.2200 494.2500L398.2200 494.2500L398.2200 500.5500Q398.2200 501.5400 397.5900 502.1250Q396.9600 502.7100 395.9700 502.7100L395.9700 502.7100L367.0800 502.7100L367.0800 519.8100L394.1700 519.8100Q395.1600 519.8100 395.7900 520.4400Q396.4200 521.0700 396.4200 522.0600L396.4200 522.0600L396.4200 528.3600Q396.4200 529.2600 395.7900 529.8900Q395.1600 530.5200 394.1700 530.5200L394.1700 530.5200L367.0800 530.5200L367.0800 552.8400Q367.0800 553.7400 366.4500 554.3700Q365.8200 555 364.8300 555L364.8300 555ZM428.4600 555.9000L428.4600 555.9000Q421.2600 555.9000 416.3550 553.3800Q411.4500 550.8600 408.8850 546.2700Q406.3200 541.6800 405.9600 535.5600L405.9600 535.5600Q405.8700 533.9400 405.8700 531.6000Q405.8700 529.2600 405.9600 527.6400L405.9600 527.6400Q406.3200 521.4300 408.9750 516.8850Q411.6300 512.3400 416.5350 509.8200Q421.4400 507.3000 428.4600 507.3000L428.4600 507.3000Q435.4800 507.3000 440.3850 509.8200Q445.2900 512.3400 447.9450 516.8850Q450.6000 521.4300 450.9600 527.6400L450.9600 527.6400Q451.0500 529.2600 451.0500 531.6000Q451.0500 533.9400 450.9600 535.5600L450.9600 535.5600Q450.6000 541.6800 448.0350 546.2700Q445.4700 550.8600 440.5650 553.3800Q435.6600 555.9000 428.4600 555.9000ZM428.4600 546.9900L428.4600 546.9900Q433.2300 546.9900 435.8400 543.9750Q438.4500 540.9600 438.7200 535.1100L438.7200 535.1100Q438.8100 533.7600 438.8100 531.6000Q438.8100 529.4400 438.7200 528.0900L438.7200 528.0900Q438.4500 522.2400 435.8400 519.2250Q433.2300 516.2100 428.4600 516.2100L428.4600 516.2100Q423.6900 516.2100 421.0800 519.2250Q418.4700 522.2400 418.2000 528.0900L418.2000 528.0900Q418.1100 529.4400 418.1100 531.6000Q418.1100 533.7600 418.2000 535.1100L418.2000 535.1100Q418.4700 540.9600 421.0800 543.9750Q423.6900 546.9900 428.4600 546.9900ZM478.4100 555.9000L478.4100 555.9000Q472.9200 555.9000 468.9150 553.4250Q464.9100 550.9500 462.7500 546.4050Q460.5900 541.8600 460.5900 535.6500L460.5900 535.6500L460.5900 510.3600Q460.5900 509.4600 461.2200 508.8300Q461.8500 508.2000 462.7500 508.2000L462.7500 508.2000L470.6700 508.2000Q471.6600 508.2000 472.2450 508.8300Q472.8300 509.4600 472.8300 510.3600L472.8300 510.3600L472.8300 535.1100Q472.8300 546.2700 482.6400 546.2700L482.6400 546.2700Q487.3200 546.2700 490.0650 543.3000Q492.8100 540.3300 492.8100 535.1100L492.8100 535.1100L492.8100 510.3600Q492.8100 509.4600 493.4400 508.8300Q494.0700 508.2000 494.9700 508.2000L494.9700 508.2000L502.8900 508.2000Q503.7900 508.2000 504.4200 508.8300Q505.0500 509.4600 505.0500 510.3600L505.0500 510.3600L505.0500 552.8400Q505.0500 553.7400 504.4200 554.3700Q503.7900 555 502.8900 555L502.8900 555L495.6000 555Q494.6100 555 494.0250 554.3700Q493.4400 553.7400 493.4400 552.8400L493.4400 552.8400L493.4400 549.1500Q491.0100 552.3000 487.4100 554.1000Q483.8100 555.9000 478.4100 555.9000ZM527.0100 555L519.0900 555Q518.1900 555 517.5600 554.3700Q516.9300 553.7400 516.9300 552.8400L516.9300 552.8400L516.9300 510.3600Q516.9300 509.4600 517.5600 508.8300Q518.1900 508.2000 519.0900 508.2000L519.0900 508.2000L526.4700 508.2000Q527.3700 508.2000 528 508.8300Q528.6300 509.4600 528.6300 510.3600L528.6300 510.3600L528.6300 514.0500Q530.9700 511.1700 534.6150 509.2350Q538.2600 507.3000 543.6600 507.3000L543.6600 507.3000Q549.1500 507.3000 553.2000 509.7750Q557.2500 512.2500 559.4550 516.7500Q561.6600 521.2500 561.6600 527.5500L561.6600 527.5500L561.6600 552.8400Q561.6600 553.7400 561.0300 554.3700Q560.4000 555 559.5000 555L559.5000 555L551.5800 555Q550.6800 555 550.0500 554.3700Q549.4200 553.7400 549.4200 552.8400L549.4200 552.8400L549.4200 528.0900Q549.4200 522.8700 546.8550 519.9000Q544.2900 516.9300 539.4300 516.9300L539.4300 516.9300Q534.7500 516.9300 531.9600 519.9000Q529.1700 522.8700 529.1700 528.0900L529.1700 528.0900L529.1700 552.8400Q529.1700 553.7400 528.5400 554.3700Q527.9100 555 527.0100 555L527.0100 555ZM590.4600 555.9000L590.4600 555.9000Q585.7800 555.9000 582.2250 554.3250Q578.6700 552.7500 576.3300 549.8700Q573.9900 546.9900 572.7300 543.0750Q571.4700 539.1600 571.2900 534.4800L571.2900 534.4800Q571.2000 532.8600 571.2000 531.5550Q571.2000 530.2500 571.2900 528.6300L571.2900 528.6300Q571.4700 524.1300 572.6850 520.2600Q573.9000 516.3900 576.2850 513.4650Q578.6700 510.5400 582.2250 508.9200Q585.7800 507.3000 590.4600 507.3000L590.4600 507.3000Q595.3200 507.3000 598.6950 508.9650Q602.0700 510.6300 604.3200 513.2400L604.3200 513.2400L604.3200 493.2600Q604.3200 492.3600 604.9050 491.7300Q605.4900 491.1000 606.4800 491.1000L606.4800 491.1000L614.1300 491.1000Q615.0300 491.1000 615.6600 491.7300Q616.2900 492.3600 616.2900 493.2600L616.2900 493.2600L616.2900 552.8400Q616.2900 553.7400 615.6600 554.3700Q615.0300 555 614.1300 555L614.1300 555L607.0200 555Q606.0300 555 605.4450 554.3700Q604.8600 553.7400 604.8600 552.8400L604.8600 552.8400L604.8600 549.5100Q602.6100 552.3000 599.1450 554.1000Q595.6800 555.9000 590.4600 555.9000ZM593.7900 546.2700L593.7900 546.2700Q597.5700 546.2700 599.8200 544.5600Q602.0700 542.8500 603.1500 540.1950Q604.2300 537.5400 604.3200 534.7500L604.3200 534.7500Q604.4100 533.1300 604.4100 531.2850Q604.4100 529.4400 604.3200 527.8200L604.3200 527.8200Q604.2300 525.1200 603.0600 522.6450Q601.8900 520.1700 599.6400 518.5500Q597.3900 516.9300 593.7900 516.9300L593.7900 516.9300Q590.0100 516.9300 587.8050 518.5950Q585.6000 520.2600 584.6100 522.9600Q583.6200 525.6600 583.4400 528.9000L583.4400 528.9000Q583.3500 531.6000 583.4400 534.3000L583.4400 534.3000Q583.6200 537.5400 584.6100 540.2400Q585.6000 542.9400 587.8050 544.6050Q590.0100 546.2700 593.7900 546.2700ZM641.8500 555.9000L641.8500 555.9000Q637.1700 555.9000 633.3900 554.0550Q629.6100 552.2100 627.4050 549.1050Q625.2000 546 625.2000 542.1300L625.2000 542.1300Q625.2000 535.8300 630.3300 532.0950Q635.4600 528.3600 643.7400 527.1000L643.7400 527.1000L656.0700 525.3000L656.0700 523.4100Q656.0700 519.6300 654.1800 517.5600Q652.2900 515.4900 647.7000 515.4900L647.7000 515.4900Q644.4600 515.4900 642.4350 516.7950Q640.4100 518.1000 639.4200 520.2600L639.4200 520.2600Q638.7000 521.4300 637.3500 521.4300L637.3500 521.4300L630.2400 521.4300Q629.2500 521.4300 628.7550 520.8900Q628.2600 520.3500 628.2600 519.4500L628.2600 519.4500Q628.3500 518.0100 629.4750 515.9400Q630.6000 513.8700 632.8950 511.9350Q635.1900 510 638.8800 508.6500Q642.5700 507.3000 647.7900 507.3000L647.7900 507.3000Q653.4600 507.3000 657.3750 508.6950Q661.2900 510.0900 663.6300 512.4300Q665.9700 514.7700 667.0500 517.9200Q668.1300 521.0700 668.1300 524.5800L668.1300 524.5800L668.1300 552.8400Q668.1300 553.7400 667.5000 554.3700Q666.8700 555 665.9700 555L665.9700 555L658.6800 555Q657.6900 555 657.1050 554.3700Q656.5200 553.7400 656.5200 552.8400L656.5200 552.8400L656.5200 549.3300Q655.3500 550.9500 653.3700 552.4800Q651.3900 554.0100 648.5550 554.9550Q645.7200 555.9000 641.8500 555.9000ZM644.9100 547.3500L644.9100 547.3500Q648.0600 547.3500 650.6250 546Q653.1900 544.6500 654.6750 541.8150Q656.1600 538.9800 656.1600 534.6600L656.1600 534.6600L656.1600 532.7700L647.1600 534.2100Q641.8500 535.0200 639.2400 536.8200Q636.6300 538.6200 636.6300 541.2300L636.6300 541.2300Q636.6300 543.2100 637.8450 544.6050Q639.0600 546 640.9500 546.6750Q642.8400 547.3500 644.9100 547.3500ZM708.0900 555L700.8000 555Q695.4000 555 691.7100 553.1100Q688.0200 551.2200 686.2200 547.4850Q684.4200 543.7500 684.4200 538.1700L684.4200 538.1700L684.4200 517.7400L677.3100 517.7400Q676.4100 517.7400 675.7800 517.1100Q675.1500 516.4800 675.1500 515.4900L675.1500 515.4900L675.1500 510.3600Q675.1500 509.4600 675.7800 508.8300Q676.4100 508.2000 677.3100 508.2000L677.3100 508.2000L684.4200 508.2000L684.4200 493.2600Q684.4200 492.3600 685.0050 491.7300Q685.5900 491.1000 686.5800 491.1000L686.5800 491.1000L693.8700 491.1000Q694.7700 491.1000 695.4000 491.7300Q696.0300 492.3600 696.0300 493.2600L696.0300 493.2600L696.0300 508.2000L707.2800 508.2000Q708.1800 508.2000 708.8100 508.8300Q709.4400 509.4600 709.4400 510.3600L709.4400 510.3600L709.4400 515.4900Q709.4400 516.4800 708.8100 517.1100Q708.1800 517.7400 707.2800 517.7400L707.2800 517.7400L696.0300 517.7400L696.0300 537.2700Q696.0300 540.9600 697.3350 543.0300Q698.6400 545.1000 701.8800 545.1000L701.8800 545.1000L708.0900 545.1000Q708.9900 545.1000 709.6200 545.7300Q710.2500 546.3600 710.2500 547.2600L710.2500 547.2600L710.2500 552.8400Q710.2500 553.7400 709.6200 554.3700Q708.9900 555 708.0900 555L708.0900 555ZM727.8900 555L720.4200 555Q719.5200 555 718.8900 554.3700Q718.2600 553.7400 718.2600 552.8400L718.2600 552.8400L718.2600 510.3600Q718.2600 509.4600 718.8900 508.8300Q719.5200 508.2000 720.4200 508.2000L720.4200 508.2000L727.8900 508.2000Q728.8800 508.2000 729.4650 508.8300Q730.0500 509.4600 730.0500 510.3600L730.0500 510.3600L730.0500 552.8400Q730.0500 553.7400 729.4650 554.3700Q728.8800 555 727.8900 555L727.8900 555ZM728.2500 500.4600L720.0600 500.4600Q719.1600 500.4600 718.5300 499.8300Q717.9000 499.2000 717.9000 498.3000L717.9000 498.3000L717.9000 491.8200Q717.9000 490.9200 718.5300 490.2900Q719.1600 489.6600 720.0600 489.6600L720.0600 489.6600L728.2500 489.6600Q729.2400 489.6600 729.8700 490.2900Q730.5000 490.9200 730.5000 491.8200L730.5000 491.8200L730.5000 498.3000Q730.5000 499.2000 729.8700 499.8300Q729.2400 500.4600 728.2500 500.4600L728.2500 500.4600ZM762.7200 555.9000L762.7200 555.9000Q755.5200 555.9000 750.6150 553.3800Q745.7100 550.8600 743.1450 546.2700Q740.5800 541.6800 740.2200 535.5600L740.2200 535.5600Q740.1300 533.9400 740.1300 531.6000Q740.1300 529.2600 740.2200 527.6400L740.2200 527.6400Q740.5800 521.4300 743.2350 516.8850Q745.8900 512.3400 750.7950 509.8200Q755.7000 507.3000 762.7200 507.3000L762.7200 507.3000Q769.7400 507.3000 774.6450 509.8200Q779.5500 512.3400 782.2050 516.8850Q784.8600 521.4300 785.2200 527.6400L785.2200 527.6400Q785.3100 529.2600 785.3100 531.6000Q785.3100 533.9400 785.2200 535.5600L785.2200 535.5600Q784.8600 541.6800 782.2950 546.2700Q779.7300 550.8600 774.8250 553.3800Q769.9200 555.9000 762.7200 555.9000ZM762.7200 546.9900L762.7200 546.9900Q767.4900 546.9900 770.1000 543.9750Q772.7100 540.9600 772.9800 535.1100L772.9800 535.1100Q773.0700 533.7600 773.0700 531.6000Q773.0700 529.4400 772.9800 528.0900L772.9800 528.0900Q772.7100 522.2400 770.1000 519.2250Q767.4900 516.2100 762.7200 516.2100L762.7200 516.2100Q757.9500 516.2100 755.3400 519.2250Q752.7300 522.2400 752.4600 528.0900L752.4600 528.0900Q752.3700 529.4400 752.3700 531.6000Q752.3700 533.7600 752.4600 535.1100L752.4600 535.1100Q752.7300 540.9600 755.3400 543.9750Q757.9500 546.9900 762.7200 546.9900ZM805.3800 555L797.4600 555Q796.5600 555 795.9300 554.3700Q795.3000 553.7400 795.3000 552.8400L795.3000 552.8400L795.3000 510.3600Q795.3000 509.4600 795.9300 508.8300Q796.5600 508.2000 797.4600 508.2000L797.4600 508.2000L804.8400 508.2000Q805.7400 508.2000 806.3700 508.8300Q807.0000 509.4600 807.0000 510.3600L807.0000 510.3600L807.0000 514.0500Q809.3400 511.1700 812.9850 509.2350Q816.6300 507.3000 822.0300 507.3000L822.0300 507.3000Q827.5200 507.3000 831.5700 509.7750Q835.6200 512.2500 837.8250 516.7500Q840.0300 521.2500 840.0300 527.5500L840.0300 527.5500L840.0300 552.8400Q840.0300 553.7400 839.4000 554.3700Q838.7700 555 837.8700 555L837.8700 555L829.9500 555Q829.0500 555 828.4200 554.3700Q827.7900 553.7400 827.7900 552.8400L827.7900 552.8400L827.7900 528.0900Q827.7900 522.8700 825.2250 519.9000Q822.6600 516.9300 817.8000 516.9300L817.8000 516.9300Q813.1200 516.9300 810.3300 519.9000Q807.5400 522.8700 807.5400 528.0900L807.5400 528.0900L807.5400 552.8400Q807.5400 553.7400 806.9100 554.3700Q806.2800 555 805.3800 555L805.3800 555ZM869.1900 555.9000L869.1900 555.9000Q863.7900 555.9000 859.9650 554.6400Q856.1400 553.3800 853.7100 551.4900Q851.2800 549.6000 850.1100 547.7100Q848.9400 545.8200 848.8500 544.5600L848.8500 544.5600Q848.7600 543.5700 849.4350 542.9850Q850.1100 542.4000 850.9200 542.4000L850.9200 542.4000L858.0300 542.4000Q858.3900 542.4000 858.6600 542.4900Q858.9300 542.5800 859.3800 543.0300L859.3800 543.0300Q860.5500 544.0200 861.8550 545.1000Q863.1600 546.1800 864.9600 546.9450Q866.7600 547.7100 869.4600 547.7100L869.4600 547.7100Q872.9700 547.7100 875.3550 546.3150Q877.7400 544.9200 877.7400 542.3100L877.7400 542.3100Q877.7400 540.4200 876.7050 539.2500Q875.6700 538.0800 872.8800 537.1350Q870.0900 536.1900 864.9600 535.1100L864.9600 535.1100Q859.9200 533.9400 856.5900 532.1400Q853.2600 530.3400 851.6400 527.6400Q850.0200 524.9400 850.0200 521.3400L850.0200 521.3400Q850.0200 517.8300 852.1350 514.6350Q854.2500 511.4400 858.4350 509.3700Q862.6200 507.3000 868.8300 507.3000L868.8300 507.3000Q873.6900 507.3000 877.2900 508.5150Q880.8900 509.7300 883.2750 511.5300Q885.6600 513.3300 886.9200 515.1750Q888.1800 517.0200 888.2700 518.3700L888.2700 518.3700Q888.3600 519.3600 887.7300 519.9450Q887.1000 520.5300 886.2900 520.5300L886.2900 520.5300L879.6300 520.5300Q879.1800 520.5300 878.8200 520.3500Q878.4600 520.1700 878.1000 519.9000L878.1000 519.9000Q877.1100 519 875.9400 517.9650Q874.7700 516.9300 873.1050 516.2100Q871.4400 515.4900 868.7400 515.4900L868.7400 515.4900Q865.3200 515.4900 863.5200 516.9750Q861.7200 518.4600 861.7200 520.7100L861.7200 520.7100Q861.7200 522.2400 862.5750 523.3650Q863.4300 524.4900 866.0400 525.4800Q868.6500 526.4700 873.9600 527.5500L873.9600 527.5500Q879.9900 528.6300 883.5450 530.7450Q887.1000 532.8600 888.5850 535.6050Q890.0700 538.3500 890.0700 541.6800L890.0700 541.6800Q890.0700 545.7300 887.6850 548.9700Q885.3000 552.2100 880.6650 554.0550Q876.0300 555.9000 869.1900 555.9000ZM165.8400 662.1000L158.1900 662.1000Q157.2900 662.1000 156.6600 661.4700Q156.0300 660.8400 156.0300 659.9400L156.0300 659.9400L156.0300 600.3600Q156.0300 599.4600 156.6600 598.8300Q157.2900 598.2000 158.1900 598.2000L158.1900 598.2000L165.3000 598.2000Q166.2900 598.2000 166.8750 598.8300Q167.4600 599.4600 167.4600 600.3600L167.4600 600.3600L167.4600 603.9600Q169.6200 601.0800 173.1300 599.1900Q176.6400 597.3000 181.8600 597.3000L181.8600 597.3000Q186.6300 597.3000 190.1400 598.8300Q193.6500 600.3600 195.9900 603.1950Q198.3300 606.0300 199.5900 609.9000Q200.8500 613.7700 201.0300 618.4500L201.0300 618.4500Q201.1200 619.9800 201.1200 621.6000Q201.1200 623.2200 201.0300 624.8400L201.0300 624.8400Q200.9400 629.3400 199.6800 633.1650Q198.4200 636.9900 196.0350 639.8250Q193.6500 642.6600 190.1400 644.2800Q186.6300 645.9000 181.8600 645.9000L181.8600 645.9000Q177 645.9000 173.5800 644.1450Q170.1600 642.3900 168 639.5100L168 639.5100L168 659.9400Q168 660.8400 167.4150 661.4700Q166.8300 662.1000 165.8400 662.1000L165.8400 662.1000ZM178.5300 636.2700L178.5300 636.2700Q182.4000 636.2700 184.5600 634.6050Q186.7200 632.9400 187.7100 630.2400Q188.7000 627.5400 188.8800 624.3000L188.8800 624.3000Q188.9700 621.6000 188.8800 618.9000L188.8800 618.9000Q188.7000 615.6600 187.7100 612.9600Q186.7200 610.2600 184.5600 608.5950Q182.4000 606.9300 178.5300 606.9300L178.5300 606.9300Q174.8400 606.9300 172.5450 608.6400Q170.2500 610.3500 169.2150 613.0050Q168.1800 615.6600 168 618.4500L168 618.4500Q167.9100 620.0700 167.9100 621.8700Q167.9100 623.6700 168 625.3800L168 625.3800Q168.0900 628.0800 169.2600 630.5550Q170.4300 633.0300 172.6800 634.6500Q174.9300 636.2700 178.5300 636.2700ZM224.7900 645.9000L224.7900 645.9000Q220.1100 645.9000 216.3300 644.0550Q212.5500 642.2100 210.3450 639.1050Q208.1400 636 208.1400 632.1300L208.1400 632.1300Q208.1400 625.8300 213.2700 622.0950Q218.4000 618.3600 226.6800 617.1000L226.6800 617.1000L239.0100 615.3000L239.0100 613.4100Q239.0100 609.6300 237.1200 607.5600Q235.2300 605.4900 230.6400 605.4900L230.6400 605.4900Q227.4000 605.4900 225.3750 606.7950Q223.3500 608.1000 222.3600 610.2600L222.3600 610.2600Q221.6400 611.4300 220.2900 611.4300L220.2900 611.4300L213.1800 611.4300Q212.1900 611.4300 211.6950 610.8900Q211.2000 610.3500 211.2000 609.4500L211.2000 609.4500Q211.2900 608.0100 212.4150 605.9400Q213.5400 603.8700 215.8350 601.9350Q218.1300 600 221.8200 598.6500Q225.5100 597.3000 230.7300 597.3000L230.7300 597.3000Q236.4000 597.3000 240.3150 598.6950Q244.2300 600.0900 246.5700 602.4300Q248.9100 604.7700 249.9900 607.9200Q251.0700 611.0700 251.0700 614.5800L251.0700 614.5800L251.0700 642.8400Q251.0700 643.7400 250.4400 644.3700Q249.8100 645 248.9100 645L248.9100 645L241.6200 645Q240.6300 645 240.0450 644.3700Q239.4600 643.7400 239.4600 642.8400L239.4600 642.8400L239.4600 639.3300Q238.2900 640.9500 236.3100 642.4800Q234.3300 644.0100 231.4950 644.9550Q228.6600 645.9000 224.7900 645.9000ZM227.8500 637.3500L227.8500 637.3500Q231 637.3500 233.5650 636Q236.1300 634.6500 237.6150 631.8150Q239.1000 628.9800 239.1000 624.6600L239.1000 624.6600L239.1000 622.7700L230.1000 624.2100Q224.7900 625.0200 222.1800 626.8200Q219.5700 628.6200 219.5700 631.2300L219.5700 631.2300Q219.5700 633.2100 220.7850 634.6050Q222 636 223.8900 636.6750Q225.7800 637.3500 227.8500 637.3500ZM272.5800 645L264.7500 645Q263.8500 645 263.2200 644.3700Q262.5900 643.7400 262.5900 642.8400L262.5900 642.8400L262.5900 600.4500Q262.5900 599.4600 263.2200 598.8300Q263.8500 598.2000 264.7500 598.2000L264.7500 598.2000L272.0400 598.2000Q272.9400 598.2000 273.6150 598.8300Q274.2900 599.4600 274.2900 600.4500L274.2900 600.4500L274.2900 604.1400Q276.3600 601.2600 279.6450 599.7300Q282.9300 598.2000 287.2500 598.2000L287.2500 598.2000L290.9400 598.2000Q291.9300 598.2000 292.5150 598.8300Q293.1000 599.4600 293.1000 600.3600L293.1000 600.3600L293.1000 606.8400Q293.1000 607.7400 292.5150 608.3700Q291.9300 609 290.9400 609L290.9400 609L283.9200 609Q279.6000 609 277.2150 611.3850Q274.8300 613.7700 274.8300 618.0900L274.8300 618.0900L274.8300 642.8400Q274.8300 643.7400 274.2000 644.3700Q273.5700 645 272.5800 645L272.5800 645ZM328.5600 645L321.2700 645Q315.8700 645 312.1800 643.1100Q308.4900 641.2200 306.6900 637.4850Q304.8900 633.7500 304.8900 628.1700L304.8900 628.1700L304.8900 607.7400L297.7800 607.7400Q296.8800 607.7400 296.2500 607.1100Q295.6200 606.4800 295.6200 605.4900L295.6200 605.4900L295.6200 600.3600Q295.6200 599.4600 296.2500 598.8300Q296.8800 598.2000 297.7800 598.2000L297.7800 598.2000L304.8900 598.2000L304.8900 583.2600Q304.8900 582.3600 305.4750 581.7300Q306.0600 581.1000 307.0500 581.1000L307.0500 581.1000L314.3400 581.1000Q315.2400 581.1000 315.8700 581.7300Q316.5000 582.3600 316.5000 583.2600L316.5000 583.2600L316.5000 598.2000L327.7500 598.2000Q328.6500 598.2000 329.2800 598.8300Q329.9100 599.4600 329.9100 600.3600L329.9100 600.3600L329.9100 605.4900Q329.9100 606.4800 329.2800 607.1100Q328.6500 607.7400 327.7500 607.7400L327.7500 607.7400L316.5000 607.7400L316.5000 627.2700Q316.5000 630.9600 317.8050 633.0300Q319.1100 635.1000 322.3500 635.1000L322.3500 635.1000L328.5600 635.1000Q329.4600 635.1000 330.0900 635.7300Q330.7200 636.3600 330.7200 637.2600L330.7200 637.2600L330.7200 642.8400Q330.7200 643.7400 330.0900 644.3700Q329.4600 645 328.5600 645L328.5600 645ZM358.8900 645.9000L358.8900 645.9000Q348.9000 645.9000 343.0500 640.1400Q337.2000 634.3800 336.7500 623.7600L336.7500 623.7600Q336.6600 622.8600 336.6600 621.4650Q336.6600 620.0700 336.7500 619.2600L336.7500 619.2600Q337.1100 612.4200 339.8550 607.5150Q342.6000 602.6100 347.4600 599.9550Q352.3200 597.3000 358.8900 597.3000L358.8900 597.3000Q366.1800 597.3000 371.1300 600.3150Q376.0800 603.3300 378.6000 608.6850Q381.1200 614.0400 381.1200 621.0600L381.1200 621.0600L381.1200 622.9500Q381.1200 623.8500 380.4900 624.4800Q379.8600 625.1100 378.8700 625.1100L378.8700 625.1100L348.9900 625.1100Q348.9900 625.1100 348.9900 625.3800Q348.9900 625.6500 348.9900 625.8300L348.9900 625.8300Q349.0800 628.9800 350.2050 631.6350Q351.3300 634.2900 353.5350 635.9100Q355.7400 637.5300 358.8000 637.5300L358.8000 637.5300Q361.3200 637.5300 363.0300 636.7650Q364.7400 636 365.8200 635.0100Q366.9000 634.0200 367.3500 633.3900L367.3500 633.3900Q368.1600 632.3100 368.6550 632.0850Q369.1500 631.8600 370.1400 631.8600L370.1400 631.8600L377.8800 631.8600Q378.7800 631.8600 379.3650 632.4000Q379.9500 632.9400 379.8600 633.7500L379.8600 633.7500Q379.7700 635.1900 378.3750 637.2600Q376.9800 639.3300 374.3700 641.3100Q371.7600 643.2900 367.8450 644.5950Q363.9300 645.9000 358.8900 645.9000ZM348.9900 617.2800L348.9900 617.5500L368.8800 617.5500L368.8800 617.2800Q368.8800 613.7700 367.7100 611.1150Q366.5400 608.4600 364.2900 606.9750Q362.0400 605.4900 358.8900 605.4900L358.8900 605.4900Q355.7400 605.4900 353.4900 606.9750Q351.2400 608.4600 350.1150 611.1150Q348.9900 613.7700 348.9900 617.2800L348.9900 617.2800ZM422.9700 645L414.5100 645Q413.6100 645 412.9800 644.3700Q412.3500 643.7400 412.3500 642.8400L412.3500 642.8400L412.3500 584.1600Q412.3500 583.2600 412.9800 582.6300Q413.6100 582 414.5100 582L414.5100 582L422.9700 582Q423.9600 582 424.5450 582.6300Q425.1300 583.2600 425.1300 584.1600L425.1300 584.1600L425.1300 642.8400Q425.1300 643.7400 424.5450 644.3700Q423.9600 645 422.9700 645L422.9700 645ZM449.8800 645L441.4200 645Q440.5200 645 439.8900 644.3700Q439.2600 643.7400 439.2600 642.8400L439.2600 642.8400L439.2600 584.1600Q439.2600 583.2600 439.8900 582.6300Q440.5200 582 441.4200 582L441.4200 582L449.8800 582Q450.8700 582 451.4550 582.6300Q452.0400 583.2600 452.0400 584.1600L452.0400 584.1600L452.0400 642.8400Q452.0400 643.7400 451.4550 644.3700Q450.8700 645 449.8800 645L449.8800 645Z" id="title"/><path d="M1379.9200 640L1359.9000 640Q1357.9200 640 1356.6000 638.5700Q1355.2800 637.1400 1355.2800 635.1600L1355.2800 635.1600Q1355.2800 634.2800 1355.7200 633.1800L1355.7200 633.1800L1408.7400 512.1800L1339.6600 512.1800Q1337.2400 512.1800 1335.8100 510.6400Q1334.3800 509.1000 1334.3800 506.9000L1334.3800 506.9000L1334.3800 491.5000Q1334.3800 489.0800 1335.8100 487.5400Q1337.2400 486 1339.6600 486L1339.6600 486L1436.2400 486Q1438.6600 486 1440.0900 487.5400Q1441.5200 489.0800 1441.5200 491.5000L1441.5200 491.5000L1441.5200 505.1400Q1441.5200 508.2200 1440.9700 510.3100Q1440.4200 512.4000 1439.5400 514.6000L1439.5400 514.6000L1386.9600 634.7200Q1386.3000 636.2600 1384.6500 638.1300Q1383 640 1379.9200 640L1379.9200 640ZM1474.5200 640L1452.5200 640Q1450.3200 640 1448.7800 638.4600Q1447.2400 636.9200 1447.2400 634.7200L1447.2400 634.7200L1447.2400 612.9400Q1447.2400 610.5200 1448.7800 608.9800Q1450.3200 607.4400 1452.5200 607.4400L1452.5200 607.4400L1474.5200 607.4400Q1476.7200 607.4400 1478.2600 608.9800Q1479.8000 610.5200 1479.8000 612.9400L1479.8000 612.9400L1479.8000 634.7200Q1479.8000 636.9200 1478.2600 638.4600Q1476.7200 640 1474.5200 640L1474.5200 640ZM1559.4400 640L1539.4200 640Q1537 640 1535.5700 638.4600Q1534.1400 636.9200 1534.1400 634.7200L1534.1400 634.7200L1534.1400 520.7600L1500.7000 546.5000Q1498.7200 547.8200 1496.7400 547.4900Q1494.7600 547.1600 1493.2200 545.1800L1493.2200 545.1800L1483.9800 533.3000Q1482.6600 531.3200 1482.9900 529.1200Q1483.3200 526.9200 1485.3000 525.6000L1485.3000 525.6000L1534.5800 487.5400Q1535.9000 486.4400 1537.2200 486.2200Q1538.5400 486 1540.0800 486L1540.0800 486L1559.4400 486Q1561.6400 486 1563.1800 487.5400Q1564.7200 489.0800 1564.7200 491.2800L1564.7200 491.2800L1564.7200 634.7200Q1564.7200 636.9200 1563.1800 638.4600Q1561.6400 640 1559.4400 640L1559.4400 640ZM1652.5000 642.2000L1652.5000 642.2000Q1636.8800 642.2000 1625.8800 637.5800Q1614.8800 632.9600 1607.8400 624.8200Q1600.8000 616.6800 1597.2800 606.0100Q1593.7600 595.3400 1593.1000 583.2400L1593.1000 583.2400Q1592.8800 577.3000 1592.7700 570.1500Q1592.6600 563 1592.7700 555.7400Q1592.8800 548.4800 1593.1000 542.3200L1593.1000 542.3200Q1593.5400 530.2200 1597.2800 519.5500Q1601.0200 508.8800 1608.1700 500.9600Q1615.3200 493.0400 1626.3200 488.4200Q1637.3200 483.8000 1652.5000 483.8000L1652.5000 483.8000Q1667.9000 483.8000 1678.9000 488.4200Q1689.9000 493.0400 1697.0500 500.9600Q1704.2000 508.8800 1707.8300 519.5500Q1711.4600 530.2200 1711.9000 542.3200L1711.9000 542.3200Q1712.3400 548.4800 1712.3400 555.7400Q1712.3400 563 1712.3400 570.1500Q1712.3400 577.3000 1711.9000 583.2400L1711.9000 583.2400Q1711.4600 595.3400 1707.9400 606.0100Q1704.4200 616.6800 1697.3800 624.8200Q1690.3400 632.9600 1679.2300 637.5800Q1668.1200 642.2000 1652.5000 642.2000ZM1652.5000 616.9000L1652.5000 616.9000Q1666.8000 616.9000 1673.5100 607.5500Q1680.2200 598.2000 1680.4400 582.1400L1680.4400 582.1400Q1680.8800 575.7600 1680.8800 569.2700Q1680.8800 562.7800 1680.8800 556.1800Q1680.8800 549.5800 1680.4400 543.6400L1680.4400 543.6400Q1680.2200 528.0200 1673.5100 518.4500Q1666.8000 508.8800 1652.5000 508.8800L1652.5000 508.8800Q1638.4200 508.8800 1631.7100 518.4500Q1625 528.0200 1624.5600 543.6400L1624.5600 543.6400Q1624.5600 549.5800 1624.4500 556.1800Q1624.3400 562.7800 1624.4500 569.2700Q1624.5600 575.7600 1624.5600 582.1400L1624.5600 582.1400Q1625 598.2000 1631.8200 607.5500Q1638.6400 616.9000 1652.5000 616.9000Z" id="lecture-full-number"/></g></svg>