<svg xmlns="http://www.w3.org/2000/svg" version="1.1" xmlns:xlink="http://www.w3.org/1999/xlink" xmlns:svgjs="http://svgjs.dev/svgjs" viewBox="0 0 1920 1080" id="hidden-cover-svg"><g><rect width="1920" height="1080" fill="#68a357"/></g><g fill="#c97064"><path d="M716 244.687C1027.07 244.687 1278.69 -7.55189 1278.69 -318L1842 -318C1842 303.522 1338.15 807.374 716 807.374L716 244.687Z"/></g><g fill="#ffffff" opacity="0.2"><path d="M59.4553 1025.44C74.0358 1034.58 78.4304 1053.77 69.2841 1068.35C60.1377 1082.93 40.9502 1087.32 26.3697 1078.18C11.7893 1069.03 7.39469 1049.85 16.5411 1035.27C25.6874 1020.69 44.8749 1016.29 59.4553 1025.44ZM115.48 877.553C106.334 892.133 110.729 911.319 125.309 920.464C139.89 929.608 159.077 925.213 168.224 910.634C177.37 896.054 172.975 876.869 158.395 867.724C143.815 858.579 124.627 862.974 115.48 877.553ZM214.42 719.84C205.274 734.42 209.668 753.605 224.249 762.75C238.829 771.895 258.017 767.5 267.163 752.921C276.31 738.341 271.915 719.155 257.335 710.01C242.754 700.865 223.566 705.26 214.42 719.84ZM313.36 562.127C304.213 576.706 308.608 595.892 323.188 605.037C337.769 614.182 356.956 609.787 366.103 595.207C375.249 580.628 370.855 561.442 356.274 552.297C341.694 543.152 322.506 547.547 313.36 562.127ZM412.299 404.414C403.153 418.993 407.547 438.179 422.128 447.324C436.708 456.469 455.896 452.074 465.042 437.494C474.189 422.915 469.794 403.729 455.214 394.584C440.633 385.439 421.446 389.834 412.299 404.414ZM174.263 1134.19C165.117 1148.77 169.512 1167.96 184.092 1177.1C198.673 1186.25 217.86 1181.85 227.007 1167.27C236.153 1152.69 231.758 1133.51 217.178 1124.36C202.597 1115.22 183.41 1119.61 174.263 1134.19ZM273.203 976.477C264.056 991.057 268.451 1010.24 283.032 1019.39C297.612 1028.53 316.8 1024.14 325.946 1009.56C335.093 994.979 330.698 975.792 316.117 966.648C301.537 957.503 282.349 961.898 273.203 976.477ZM372.143 818.764C362.996 833.344 367.391 852.53 381.971 861.675C396.552 870.82 415.739 866.425 424.886 851.845C434.032 837.266 429.638 818.08 415.057 808.935C400.477 799.79 381.289 804.185 372.143 818.764ZM471.082 661.051C461.936 675.631 466.33 694.817 480.911 703.962C495.491 713.106 514.679 708.711 523.825 694.132C532.972 679.552 528.577 660.367 513.997 651.222C499.416 642.077 480.228 646.472 471.082 661.051ZM570.022 503.338C560.875 517.918 565.27 537.103 579.85 546.248C594.431 555.393 613.619 550.998 622.765 536.419C631.911 521.839 627.517 502.653 612.936 493.508C598.356 484.363 579.168 488.758 570.022 503.338ZM331.986 1233.11C322.84 1247.69 327.234 1266.88 341.815 1276.03C356.395 1285.17 375.583 1280.78 384.729 1266.2C393.875 1251.62 389.481 1232.43 374.9 1223.29C360.32 1214.14 341.132 1218.54 331.986 1233.11ZM430.925 1075.4C421.779 1089.98 426.174 1109.17 440.754 1118.31C455.335 1127.46 474.522 1123.06 483.669 1108.48C492.815 1093.9 488.42 1074.72 473.84 1065.57C459.26 1056.43 440.072 1060.82 430.925 1075.4ZM529.865 917.688C520.719 932.268 525.113 951.454 539.694 960.599C554.274 969.744 573.462 965.349 582.608 950.77C591.755 936.19 587.36 917.004 572.78 907.859C558.199 898.714 539.011 903.109 529.865 917.688ZM628.805 759.976C619.658 774.555 624.053 793.741 638.633 802.886C653.214 812.031 672.402 807.636 681.548 793.056C690.694 778.477 686.3 759.291 671.719 750.146C657.139 741.001 637.951 745.396 628.805 759.976ZM727.744 602.263C718.598 616.842 722.992 636.028 737.573 645.173C752.153 654.318 771.341 649.923 780.487 635.343C789.634 620.764 785.239 601.578 770.659 592.433C756.078 583.288 736.787 587.707 727.744 602.263ZM489.708 1332.04C480.562 1346.62 484.957 1365.81 499.537 1374.95C514.118 1384.1 533.305 1379.7 542.452 1365.12C551.598 1350.54 547.203 1331.35 532.623 1322.21C518.042 1313.06 498.855 1317.46 489.708 1332.04ZM588.648 1174.33C579.502 1188.91 583.896 1208.09 598.477 1217.24C613.057 1226.38 632.245 1221.99 641.391 1207.41C650.538 1192.83 646.143 1173.64 631.563 1164.5C616.982 1155.35 597.794 1159.75 588.648 1174.33ZM687.587 1016.61C678.441 1031.19 682.836 1050.38 697.416 1059.52C711.997 1068.67 731.185 1064.27 740.331 1049.69C749.477 1035.11 745.083 1015.93 730.502 1006.78C715.922 997.638 696.734 1002.03 687.587 1016.61ZM786.527 858.9C777.381 873.479 781.775 892.666 796.356 901.811C810.936 910.956 830.124 906.561 839.27 891.981C848.417 877.401 844.022 858.215 829.442 849.07C814.861 839.925 795.57 844.344 786.527 858.9ZM885.467 701.187C876.32 715.767 880.715 734.952 895.295 744.097C909.876 753.242 929.064 748.847 938.21 734.268C947.356 719.688 942.962 700.502 928.381 691.357C913.801 682.212 894.51 686.631 885.467 701.187ZM647.431 1430.96C638.285 1445.54 642.679 1464.73 657.26 1473.87C671.84 1483.02 691.028 1478.62 700.174 1464.05C709.321 1449.47 704.926 1430.28 690.345 1421.13C675.765 1411.99 656.577 1416.38 647.431 1430.96ZM746.37 1273.25C737.224 1287.83 741.619 1307.02 756.199 1316.16C770.78 1325.31 789.967 1320.91 799.114 1306.33C808.26 1291.75 803.866 1272.57 789.285 1263.42C774.705 1254.28 755.517 1258.67 746.37 1273.25ZM845.31 1115.54C836.164 1130.12 840.558 1149.3 855.139 1158.45C869.719 1167.59 888.907 1163.2 898.053 1148.62C907.2 1134.04 902.805 1114.85 888.225 1105.71C873.644 1096.56 854.353 1100.98 845.31 1115.54ZM944.25 957.824C935.103 972.404 939.498 991.59 954.078 1000.74C968.659 1009.88 987.847 1005.49 996.993 990.905C1006.14 976.326 1001.74 957.14 987.164 947.995C972.584 938.85 953.293 943.268 944.25 957.824ZM1043.09 800.135C1033.94 814.714 1038.33 833.901 1052.91 843.046C1067.5 852.19 1086.68 847.795 1095.83 833.216C1104.98 818.636 1100.58 799.45 1086 790.305C1071.52 781.136 1052.23 785.555 1043.09 800.135Z"/></g><g><path d="M178.635 139.281L184.422 144.246V166.626H215.704L219.958 172.147L215.69 177.397H184.422V198.795L178.635 203.747L173 198.795V144.232L178.635 139.281ZM195.554 195.68H219.406L223.397 200.915L219.143 206.45H195.554L191.7 201.342L195.554 195.68ZM196.382 138H219.129L223.383 143.52L219.129 148.77H196.659L192.115 143.677L196.382 138ZM323.155 148.628L328.251 154.291L323.155 159.968H246.13L241.172 154.291L246.13 148.628H323.155ZM237.043 172.147L241.849 167.893L246.669 172.147V178.393C246.669 188.879 249.417 197.515 261.668 197.515H264.14C275.147 197.515 281.197 189.86 281.197 177.952V172.005L285.879 167.75L290.699 171.862V178.379C290.699 189.007 293.723 196.946 305.56 196.946H307.618C319.178 196.946 321.235 187.869 321.373 177.952V171.578L326.056 167.608L331 171.72V178.094C330.862 191.838 327.285 207.574 308.032 207.574H305.974C294.552 207.574 288.365 202.324 285.892 195.808C283.006 202.466 275.299 208.286 264.844 208.286H262.358C242.553 208.286 237.194 195.964 237.056 178.663V172.147H237.043ZM276.391 274.744L273.642 267.089L280.796 264.969L305.974 276.721V252.491L311.07 248.095L316.291 252.491V281.829L325.641 286.226L328.251 293.311L320.959 296L276.391 274.744ZM321.235 223.011L328.113 226.27L325.917 233.497L264.002 263.119L256.571 260.146L259.596 252.776L321.235 223.011ZM231.905 263.404L237.954 268.512C237.402 286.51 222.403 296 204.669 296H202.874C194.062 296 183.759 292.6 177.157 286.083L177.834 278.855L184.298 278.002C189.118 282.256 195.858 285.229 202.183 285.229H204.117C216.091 285.229 225.303 280.136 226.27 268.085L231.905 263.404ZM226.256 251.638C225.704 239.16 216.629 234.209 204.103 234.209H202.169C194.739 234.209 189.104 237.182 184.284 241.436L177.834 240.583L177.143 233.355C183.745 226.696 192.957 223.58 202.597 223.58H204.517C222.403 223.58 237.402 232.942 237.94 251.211L231.891 256.176L226.256 251.638Z" fill="#ffffff"/></g><path d="M1171 781L1171 339L1187 339L1187 781L1171 781Z" fill="#ffffff"/><g fill="#ffffff" id="info-group"><path d="M177.3600 555.9000L177.3600 555.9000Q172.5000 555.9000 168.1350 554.6850Q163.7700 553.4700 160.3500 550.9500Q156.9300 548.4300 154.9050 544.7400Q152.8800 541.0500 152.7900 536.0100L152.7900 536.0100Q152.7900 535.2000 153.3300 534.6150Q153.8700 534.0300 154.6800 534.0300L154.6800 534.0300L163.2300 534.0300Q164.4000 534.0300 164.9850 534.6600Q165.5700 535.2900 165.9300 536.3700L165.9300 536.3700Q166.3800 539.6100 168 541.6350Q169.6200 543.6600 172.0950 544.6050Q174.5700 545.5500 177.6300 545.5500L177.6300 545.5500Q183.3000 545.5500 186.3150 541.8600Q189.3300 538.1700 189.3300 531.6000L189.3300 531.6000L189.3300 502.6200L158.8200 502.6200Q157.8300 502.6200 157.2450 501.9900Q156.6600 501.3600 156.6600 500.4600L156.6600 500.4600L156.6600 494.1600Q156.6600 493.2600 157.2450 492.6300Q157.8300 492 158.8200 492L158.8200 492L199.9500 492Q200.9400 492 201.5700 492.6300Q202.2000 493.2600 202.2000 494.2500L202.2000 494.2500L202.2000 531.9600Q202.2000 539.4300 199.0950 544.8300Q195.9900 550.2300 190.4550 553.0650Q184.9200 555.9000 177.3600 555.9000ZM228.2100 555.9000L228.2100 555.9000Q223.5300 555.9000 219.7500 554.0550Q215.9700 552.2100 213.7650 549.1050Q211.5600 546 211.5600 542.1300L211.5600 542.1300Q211.5600 535.8300 216.6900 532.0950Q221.8200 528.3600 230.1000 527.1000L230.1000 527.1000L242.4300 525.3000L242.4300 523.4100Q242.4300 519.6300 240.5400 517.5600Q238.6500 515.4900 234.0600 515.4900L234.0600 515.4900Q230.8200 515.4900 228.7950 516.7950Q226.7700 518.1000 225.7800 520.2600L225.7800 520.2600Q225.0600 521.4300 223.7100 521.4300L223.7100 521.4300L216.6000 521.4300Q215.6100 521.4300 215.1150 520.8900Q214.6200 520.3500 214.6200 519.4500L214.6200 519.4500Q214.7100 518.0100 215.8350 515.9400Q216.9600 513.8700 219.2550 511.9350Q221.5500 510 225.2400 508.6500Q228.9300 507.3000 234.1500 507.3000L234.1500 507.3000Q239.8200 507.3000 243.7350 508.6950Q247.6500 510.0900 249.9900 512.4300Q252.3300 514.7700 253.4100 517.9200Q254.4900 521.0700 254.4900 524.5800L254.4900 524.5800L254.4900 552.8400Q254.4900 553.7400 253.8600 554.3700Q253.2300 555 252.3300 555L252.3300 555L245.0400 555Q244.0500 555 243.4650 554.3700Q242.8800 553.7400 242.8800 552.8400L242.8800 552.8400L242.8800 549.3300Q241.7100 550.9500 239.7300 552.4800Q237.7500 554.0100 234.9150 554.9550Q232.0800 555.9000 228.2100 555.9000ZM231.2700 547.3500L231.2700 547.3500Q234.4200 547.3500 236.9850 546Q239.5500 544.6500 241.0350 541.8150Q242.5200 538.9800 242.5200 534.6600L242.5200 534.6600L242.5200 532.7700L233.5200 534.2100Q228.2100 535.0200 225.6000 536.8200Q222.9900 538.6200 222.9900 541.2300L222.9900 541.2300Q222.9900 543.2100 224.2050 544.6050Q225.4200 546 227.3100 546.6750Q229.2000 547.3500 231.2700 547.3500ZM289.2300 555L282.5700 555Q281.1300 555 280.4550 554.3250Q279.7800 553.6500 279.3300 552.7500L279.3300 552.7500L262.5000 510.9900Q262.3200 510.5400 262.3200 510.1800L262.3200 510.1800Q262.3200 509.3700 262.9050 508.7850Q263.4900 508.2000 264.3000 508.2000L264.3000 508.2000L271.5900 508.2000Q272.6700 508.2000 273.2100 508.7850Q273.7500 509.3700 273.9300 509.9100L273.9300 509.9100L285.9000 541.5000L297.8700 509.9100Q298.0500 509.3700 298.5900 508.7850Q299.1300 508.2000 300.2100 508.2000L300.2100 508.2000L307.5900 508.2000Q308.3100 508.2000 308.8950 508.7850Q309.4800 509.3700 309.4800 510.1800L309.4800 510.1800Q309.4800 510.5400 309.3900 510.9900L309.3900 510.9900L292.4700 552.7500Q292.1100 553.6500 291.3900 554.3250Q290.6700 555 289.2300 555L289.2300 555ZM331.2600 555.9000L331.2600 555.9000Q326.5800 555.9000 322.8000 554.0550Q319.0200 552.2100 316.8150 549.1050Q314.6100 546 314.6100 542.1300L314.6100 542.1300Q314.6100 535.8300 319.7400 532.0950Q324.8700 528.3600 333.1500 527.1000L333.1500 527.1000L345.4800 525.3000L345.4800 523.4100Q345.4800 519.6300 343.5900 517.5600Q341.7000 515.4900 337.1100 515.4900L337.1100 515.4900Q333.8700 515.4900 331.8450 516.7950Q329.8200 518.1000 328.8300 520.2600L328.8300 520.2600Q328.1100 521.4300 326.7600 521.4300L326.7600 521.4300L319.6500 521.4300Q318.6600 521.4300 318.1650 520.8900Q317.6700 520.3500 317.6700 519.4500L317.6700 519.4500Q317.7600 518.0100 318.8850 515.9400Q320.0100 513.8700 322.3050 511.9350Q324.6000 510 328.2900 508.6500Q331.9800 507.3000 337.2000 507.3000L337.2000 507.3000Q342.8700 507.3000 346.7850 508.6950Q350.7000 510.0900 353.0400 512.4300Q355.3800 514.7700 356.4600 517.9200Q357.5400 521.0700 357.5400 524.5800L357.5400 524.5800L357.5400 552.8400Q357.5400 553.7400 356.9100 554.3700Q356.2800 555 355.3800 555L355.3800 555L348.0900 555Q347.1000 555 346.5150 554.3700Q345.9300 553.7400 345.9300 552.8400L345.9300 552.8400L345.9300 549.3300Q344.7600 550.9500 342.7800 552.4800Q340.8000 554.0100 337.9650 554.9550Q335.1300 555.9000 331.2600 555.9000ZM334.3200 547.3500L334.3200 547.3500Q337.4700 547.3500 340.0350 546Q342.6000 544.6500 344.0850 541.8150Q345.5700 538.9800 345.5700 534.6600L345.5700 534.6600L345.5700 532.7700L336.5700 534.2100Q331.2600 535.0200 328.6500 536.8200Q326.0400 538.6200 326.0400 541.2300L326.0400 541.2300Q326.0400 543.2100 327.2550 544.6050Q328.4700 546 330.3600 546.6750Q332.2500 547.3500 334.3200 547.3500ZM392.0100 555.9000L392.0100 555.9000Q383.6400 555.9000 378.0150 553.4250Q372.3900 550.9500 369.4650 546.9450Q366.5400 542.9400 366.3600 538.5300L366.3600 538.5300Q366.3600 537.7200 366.9000 537.1800Q367.4400 536.6400 368.2500 536.6400L368.2500 536.6400L376.2600 536.6400Q377.4300 536.6400 378.0150 537.1350Q378.6000 537.6300 379.0500 538.3500L379.0500 538.3500Q379.5900 540.0600 381.1200 541.7250Q382.6500 543.3900 385.3050 544.4700Q387.9600 545.5500 392.0100 545.5500L392.0100 545.5500Q398.4900 545.5500 401.6850 543.3900Q404.8800 541.2300 404.8800 537.5400L404.8800 537.5400Q404.8800 534.9300 403.1700 533.3550Q401.4600 531.7800 397.9050 530.4750Q394.3500 529.1700 388.5000 527.7300L388.5000 527.7300Q381.7500 526.1100 377.2050 523.8150Q372.6600 521.5200 370.3650 518.0100Q368.0700 514.5000 368.0700 509.1000L368.0700 509.1000Q368.0700 503.8800 370.9050 499.8300Q373.7400 495.7800 379.0050 493.4400Q384.2700 491.1000 391.5600 491.1000L391.5600 491.1000Q397.4100 491.1000 401.9100 492.6750Q406.4100 494.2500 409.3800 496.8150Q412.3500 499.3800 413.9250 502.3050Q415.5000 505.2300 415.5900 508.0200L415.5900 508.0200Q415.5900 508.7400 415.0950 509.3250Q414.6000 509.9100 413.7000 509.9100L413.7000 509.9100L405.3300 509.9100Q404.6100 509.9100 403.8900 509.5500Q403.1700 509.1900 402.7200 508.2000L402.7200 508.2000Q402.1800 505.4100 399.2100 503.4300Q396.2400 501.4500 391.5600 501.4500L391.5600 501.4500Q386.7000 501.4500 383.7300 503.2500Q380.7600 505.0500 380.7600 508.8300L380.7600 508.8300Q380.7600 511.3500 382.2450 513.0150Q383.7300 514.6800 387.0150 515.9400Q390.3000 517.2000 395.7000 518.6400L395.7000 518.6400Q403.3500 520.3500 408.2100 522.6000Q413.0700 524.8500 415.3200 528.3150Q417.5700 531.7800 417.5700 537.0900L417.5700 537.0900Q417.5700 543.0300 414.3750 547.2150Q411.1800 551.4000 405.4200 553.6500Q399.6600 555.9000 392.0100 555.9000ZM447.0900 555.9000L447.0900 555.9000Q440.6100 555.9000 435.7050 553.4700Q430.8000 551.0400 428.0550 546.4050Q425.3100 541.7700 425.0400 535.2000L425.0400 535.2000Q424.9500 533.8500 424.9500 531.6450Q424.9500 529.4400 425.0400 528L425.0400 528Q425.3100 521.4300 428.0550 516.7950Q430.8000 512.1600 435.7050 509.7300Q440.6100 507.3000 447.0900 507.3000L447.0900 507.3000Q452.8500 507.3000 456.9000 508.8750Q460.9500 510.4500 463.5600 512.9250Q466.1700 515.4000 467.4750 518.0550Q468.7800 520.7100 468.8700 522.8700L468.8700 522.8700Q468.9600 523.8600 468.2850 524.4450Q467.6100 525.0300 466.7100 525.0300L466.7100 525.0300L458.7900 525.0300Q457.8900 525.0300 457.3950 524.5800Q456.9000 524.1300 456.4500 523.2300L456.4500 523.2300Q455.1000 519.6300 452.8950 518.1450Q450.6900 516.6600 447.2700 516.6600L447.2700 516.6600Q442.7700 516.6600 440.1150 519.4950Q437.4600 522.3300 437.2800 528.4500L437.2800 528.4500Q437.1000 531.8700 437.2800 534.7500L437.2800 534.7500Q437.4600 540.9600 440.1150 543.7500Q442.7700 546.5400 447.2700 546.5400L447.2700 546.5400Q450.7800 546.5400 452.9400 545.0550Q455.1000 543.5700 456.4500 539.9700L456.4500 539.9700Q456.9000 539.0700 457.3950 538.6200Q457.8900 538.1700 458.7900 538.1700L458.7900 538.1700L466.7100 538.1700Q467.6100 538.1700 468.2850 538.7550Q468.9600 539.3400 468.8700 540.3300L468.8700 540.3300Q468.7800 541.9500 468.0150 543.9750Q467.2500 546 465.5850 548.1150Q463.9200 550.2300 461.4000 551.9850Q458.8800 553.7400 455.3250 554.8200Q451.7700 555.9000 447.0900 555.9000ZM488.2200 555L480.3900 555Q479.4900 555 478.8600 554.3700Q478.2300 553.7400 478.2300 552.8400L478.2300 552.8400L478.2300 510.4500Q478.2300 509.4600 478.8600 508.8300Q479.4900 508.2000 480.3900 508.2000L480.3900 508.2000L487.6800 508.2000Q488.5800 508.2000 489.2550 508.8300Q489.9300 509.4600 489.9300 510.4500L489.9300 510.4500L489.9300 514.1400Q492.0000 511.2600 495.2850 509.7300Q498.5700 508.2000 502.8900 508.2000L502.8900 508.2000L506.5800 508.2000Q507.5700 508.2000 508.1550 508.8300Q508.7400 509.4600 508.7400 510.3600L508.7400 510.3600L508.7400 516.8400Q508.7400 517.7400 508.1550 518.3700Q507.5700 519 506.5800 519L506.5800 519L499.5600 519Q495.2400 519 492.8550 521.3850Q490.4700 523.7700 490.4700 528.0900L490.4700 528.0900L490.4700 552.8400Q490.4700 553.7400 489.8400 554.3700Q489.2100 555 488.2200 555L488.2200 555ZM525.3900 555L517.9200 555Q517.0200 555 516.3900 554.3700Q515.7600 553.7400 515.7600 552.8400L515.7600 552.8400L515.7600 510.3600Q515.7600 509.4600 516.3900 508.8300Q517.0200 508.2000 517.9200 508.2000L517.9200 508.2000L525.3900 508.2000Q526.3800 508.2000 526.9650 508.8300Q527.5500 509.4600 527.5500 510.3600L527.5500 510.3600L527.5500 552.8400Q527.5500 553.7400 526.9650 554.3700Q526.3800 555 525.3900 555L525.3900 555ZM525.7500 500.4600L517.5600 500.4600Q516.6600 500.4600 516.0300 499.8300Q515.4000 499.2000 515.4000 498.3000L515.4000 498.3000L515.4000 491.8200Q515.4000 490.9200 516.0300 490.2900Q516.6600 489.6600 517.5600 489.6600L517.5600 489.6600L525.7500 489.6600Q526.7400 489.6600 527.3700 490.2900Q528.0000 490.9200 528.0000 491.8200L528.0000 491.8200L528.0000 498.3000Q528.0000 499.2000 527.3700 499.8300Q526.7400 500.4600 525.7500 500.4600L525.7500 500.4600ZM549.4200 572.1000L541.7700 572.1000Q540.8700 572.1000 540.2400 571.4700Q539.6100 570.8400 539.6100 569.9400L539.6100 569.9400L539.6100 510.3600Q539.6100 509.4600 540.2400 508.8300Q540.8700 508.2000 541.7700 508.2000L541.7700 508.2000L548.8800 508.2000Q549.8700 508.2000 550.4550 508.8300Q551.0400 509.4600 551.0400 510.3600L551.0400 510.3600L551.0400 513.9600Q553.2000 511.0800 556.7100 509.1900Q560.2200 507.3000 565.4400 507.3000L565.4400 507.3000Q570.2100 507.3000 573.7200 508.8300Q577.2300 510.3600 579.5700 513.1950Q581.9100 516.0300 583.1700 519.9000Q584.4300 523.7700 584.6100 528.4500L584.6100 528.4500Q584.7000 529.9800 584.7000 531.6000Q584.7000 533.2200 584.6100 534.8400L584.6100 534.8400Q584.5200 539.3400 583.2600 543.1650Q582.0000 546.9900 579.6150 549.8250Q577.2300 552.6600 573.7200 554.2800Q570.2100 555.9000 565.4400 555.9000L565.4400 555.9000Q560.5800 555.9000 557.1600 554.1450Q553.7400 552.3900 551.5800 549.5100L551.5800 549.5100L551.5800 569.9400Q551.5800 570.8400 550.9950 571.4700Q550.4100 572.1000 549.4200 572.1000L549.4200 572.1000ZM562.1100 546.2700L562.1100 546.2700Q565.9800 546.2700 568.1400 544.6050Q570.3000 542.9400 571.2900 540.2400Q572.2800 537.5400 572.4600 534.3000L572.4600 534.3000Q572.5500 531.6000 572.4600 528.9000L572.4600 528.9000Q572.2800 525.6600 571.2900 522.9600Q570.3000 520.2600 568.1400 518.5950Q565.9800 516.9300 562.1100 516.9300L562.1100 516.9300Q558.4200 516.9300 556.1250 518.6400Q553.8300 520.3500 552.7950 523.0050Q551.7600 525.6600 551.5800 528.4500L551.5800 528.4500Q551.4900 530.0700 551.4900 531.8700Q551.4900 533.6700 551.5800 535.3800L551.5800 535.3800Q551.6700 538.0800 552.8400 540.5550Q554.0100 543.0300 556.2600 544.6500Q558.5100 546.2700 562.1100 546.2700ZM623.2200 555L615.9300 555Q610.5300 555 606.8400 553.1100Q603.1500 551.2200 601.3500 547.4850Q599.5500 543.7500 599.5500 538.1700L599.5500 538.1700L599.5500 517.7400L592.4400 517.7400Q591.5400 517.7400 590.9100 517.1100Q590.2800 516.4800 590.2800 515.4900L590.2800 515.4900L590.2800 510.3600Q590.2800 509.4600 590.9100 508.8300Q591.5400 508.2000 592.4400 508.2000L592.4400 508.2000L599.5500 508.2000L599.5500 493.2600Q599.5500 492.3600 600.1350 491.7300Q600.7200 491.1000 601.7100 491.1000L601.7100 491.1000L609.0000 491.1000Q609.9000 491.1000 610.5300 491.7300Q611.1600 492.3600 611.1600 493.2600L611.1600 493.2600L611.1600 508.2000L622.4100 508.2000Q623.3100 508.2000 623.9400 508.8300Q624.5700 509.4600 624.5700 510.3600L624.5700 510.3600L624.5700 515.4900Q624.5700 516.4800 623.9400 517.1100Q623.3100 517.7400 622.4100 517.7400L622.4100 517.7400L611.1600 517.7400L611.1600 537.2700Q611.1600 540.9600 612.4650 543.0300Q613.7700 545.1000 617.0100 545.1000L617.0100 545.1000L623.2200 545.1000Q624.1200 545.1000 624.7500 545.7300Q625.3800 546.3600 625.3800 547.2600L625.3800 547.2600L625.3800 552.8400Q625.3800 553.7400 624.7500 554.3700Q624.1200 555 623.2200 555L623.2200 555ZM167.1000 645L159.1800 645Q158.2800 645 157.6500 644.3700Q157.0200 643.7400 157.0200 642.8400L157.0200 642.8400L157.0200 584.2500Q157.0200 583.2600 157.6500 582.6300Q158.2800 582 159.1800 582L159.1800 582L198.2400 582Q199.2300 582 199.8600 582.6300Q200.4900 583.2600 200.4900 584.2500L200.4900 584.2500L200.4900 590.5500Q200.4900 591.5400 199.8600 592.1250Q199.2300 592.7100 198.2400 592.7100L198.2400 592.7100L169.3500 592.7100L169.3500 609.8100L196.4400 609.8100Q197.4300 609.8100 198.0600 610.4400Q198.6900 611.0700 198.6900 612.0600L198.6900 612.0600L198.6900 618.3600Q198.6900 619.2600 198.0600 619.8900Q197.4300 620.5200 196.4400 620.5200L196.4400 620.5200L169.3500 620.5200L169.3500 642.8400Q169.3500 643.7400 168.7200 644.3700Q168.0900 645 167.1000 645L167.1000 645ZM230.7300 645.9000L230.7300 645.9000Q223.5300 645.9000 218.6250 643.3800Q213.7200 640.8600 211.1550 636.2700Q208.5900 631.6800 208.2300 625.5600L208.2300 625.5600Q208.1400 623.9400 208.1400 621.6000Q208.1400 619.2600 208.2300 617.6400L208.2300 617.6400Q208.5900 611.4300 211.2450 606.8850Q213.9000 602.3400 218.8050 599.8200Q223.7100 597.3000 230.7300 597.3000L230.7300 597.3000Q237.7500 597.3000 242.6550 599.8200Q247.5600 602.3400 250.2150 606.8850Q252.8700 611.4300 253.2300 617.6400L253.2300 617.6400Q253.3200 619.2600 253.3200 621.6000Q253.3200 623.9400 253.2300 625.5600L253.2300 625.5600Q252.8700 631.6800 250.3050 636.2700Q247.7400 640.8600 242.8350 643.3800Q237.9300 645.9000 230.7300 645.9000ZM230.7300 636.9900L230.7300 636.9900Q235.5000 636.9900 238.1100 633.9750Q240.7200 630.9600 240.9900 625.1100L240.9900 625.1100Q241.0800 623.7600 241.0800 621.6000Q241.0800 619.4400 240.9900 618.0900L240.9900 618.0900Q240.7200 612.2400 238.1100 609.2250Q235.5000 606.2100 230.7300 606.2100L230.7300 606.2100Q225.9600 606.2100 223.3500 609.2250Q220.7400 612.2400 220.4700 618.0900L220.4700 618.0900Q220.3800 619.4400 220.3800 621.6000Q220.3800 623.7600 220.4700 625.1100L220.4700 625.1100Q220.7400 630.9600 223.3500 633.9750Q225.9600 636.9900 230.7300 636.9900ZM280.6800 645.9000L280.6800 645.9000Q275.1900 645.9000 271.1850 643.4250Q267.1800 640.9500 265.0200 636.4050Q262.8600 631.8600 262.8600 625.6500L262.8600 625.6500L262.8600 600.3600Q262.8600 599.4600 263.4900 598.8300Q264.1200 598.2000 265.0200 598.2000L265.0200 598.2000L272.9400 598.2000Q273.9300 598.2000 274.5150 598.8300Q275.1000 599.4600 275.1000 600.3600L275.1000 600.3600L275.1000 625.1100Q275.1000 636.2700 284.9100 636.2700L284.9100 636.2700Q289.5900 636.2700 292.3350 633.3000Q295.0800 630.3300 295.0800 625.1100L295.0800 625.1100L295.0800 600.3600Q295.0800 599.4600 295.7100 598.8300Q296.3400 598.2000 297.2400 598.2000L297.2400 598.2000L305.1600 598.2000Q306.0600 598.2000 306.6900 598.8300Q307.3200 599.4600 307.3200 600.3600L307.3200 600.3600L307.3200 642.8400Q307.3200 643.7400 306.6900 644.3700Q306.0600 645 305.1600 645L305.1600 645L297.8700 645Q296.8800 645 296.2950 644.3700Q295.7100 643.7400 295.7100 642.8400L295.7100 642.8400L295.7100 639.1500Q293.2800 642.3000 289.6800 644.1000Q286.0800 645.9000 280.6800 645.9000ZM329.2800 645L321.3600 645Q320.4600 645 319.8300 644.3700Q319.2000 643.7400 319.2000 642.8400L319.2000 642.8400L319.2000 600.3600Q319.2000 599.4600 319.8300 598.8300Q320.4600 598.2000 321.3600 598.2000L321.3600 598.2000L328.7400 598.2000Q329.6400 598.2000 330.2700 598.8300Q330.9000 599.4600 330.9000 600.3600L330.9000 600.3600L330.9000 604.0500Q333.2400 601.1700 336.8850 599.2350Q340.5300 597.3000 345.9300 597.3000L345.9300 597.3000Q351.4200 597.3000 355.4700 599.7750Q359.5200 602.2500 361.7250 606.7500Q363.9300 611.2500 363.9300 617.5500L363.9300 617.5500L363.9300 642.8400Q363.9300 643.7400 363.3000 644.3700Q362.6700 645 361.7700 645L361.7700 645L353.8500 645Q352.9500 645 352.3200 644.3700Q351.6900 643.7400 351.6900 642.8400L351.6900 642.8400L351.6900 618.0900Q351.6900 612.8700 349.1250 609.9000Q346.5600 606.9300 341.7000 606.9300L341.7000 606.9300Q337.0200 606.9300 334.2300 609.9000Q331.4400 612.8700 331.4400 618.0900L331.4400 618.0900L331.4400 642.8400Q331.4400 643.7400 330.8100 644.3700Q330.1800 645 329.2800 645L329.2800 645ZM392.7300 645.9000L392.7300 645.9000Q388.0500 645.9000 384.4950 644.3250Q380.9400 642.7500 378.6000 639.8700Q376.2600 636.9900 375.0000 633.0750Q373.7400 629.1600 373.5600 624.4800L373.5600 624.4800Q373.4700 622.8600 373.4700 621.5550Q373.4700 620.2500 373.5600 618.6300L373.5600 618.6300Q373.7400 614.1300 374.9550 610.2600Q376.1700 606.3900 378.5550 603.4650Q380.9400 600.5400 384.4950 598.9200Q388.0500 597.3000 392.7300 597.3000L392.7300 597.3000Q397.5900 597.3000 400.9650 598.9650Q404.3400 600.6300 406.5900 603.2400L406.5900 603.2400L406.5900 583.2600Q406.5900 582.3600 407.1750 581.7300Q407.7600 581.1000 408.7500 581.1000L408.7500 581.1000L416.4000 581.1000Q417.3000 581.1000 417.9300 581.7300Q418.5600 582.3600 418.5600 583.2600L418.5600 583.2600L418.5600 642.8400Q418.5600 643.7400 417.9300 644.3700Q417.3000 645 416.4000 645L416.4000 645L409.2900 645Q408.3000 645 407.7150 644.3700Q407.1300 643.7400 407.1300 642.8400L407.1300 642.8400L407.1300 639.5100Q404.8800 642.3000 401.4150 644.1000Q397.9500 645.9000 392.7300 645.9000ZM396.0600 636.2700L396.0600 636.2700Q399.8400 636.2700 402.0900 634.5600Q404.3400 632.8500 405.4200 630.1950Q406.5000 627.5400 406.5900 624.7500L406.5900 624.7500Q406.6800 623.1300 406.6800 621.2850Q406.6800 619.4400 406.5900 617.8200L406.5900 617.8200Q406.5000 615.1200 405.3300 612.6450Q404.1600 610.1700 401.9100 608.5500Q399.6600 606.9300 396.0600 606.9300L396.0600 606.9300Q392.2800 606.9300 390.0750 608.5950Q387.8700 610.2600 386.8800 612.9600Q385.8900 615.6600 385.7100 618.9000L385.7100 618.9000Q385.6200 621.6000 385.7100 624.3000L385.7100 624.3000Q385.8900 627.5400 386.8800 630.2400Q387.8700 632.9400 390.0750 634.6050Q392.2800 636.2700 396.0600 636.2700ZM444.1200 645.9000L444.1200 645.9000Q439.4400 645.9000 435.6600 644.0550Q431.8800 642.2100 429.6750 639.1050Q427.4700 636 427.4700 632.1300L427.4700 632.1300Q427.4700 625.8300 432.6000 622.0950Q437.7300 618.3600 446.0100 617.1000L446.0100 617.1000L458.3400 615.3000L458.3400 613.4100Q458.3400 609.6300 456.4500 607.5600Q454.5600 605.4900 449.9700 605.4900L449.9700 605.4900Q446.7300 605.4900 444.7050 606.7950Q442.6800 608.1000 441.6900 610.2600L441.6900 610.2600Q440.9700 611.4300 439.6200 611.4300L439.6200 611.4300L432.5100 611.4300Q431.5200 611.4300 431.0250 610.8900Q430.5300 610.3500 430.5300 609.4500L430.5300 609.4500Q430.6200 608.0100 431.7450 605.9400Q432.8700 603.8700 435.1650 601.9350Q437.4600 600 441.1500 598.6500Q444.8400 597.3000 450.0600 597.3000L450.0600 597.3000Q455.7300 597.3000 459.6450 598.6950Q463.5600 600.0900 465.9000 602.4300Q468.2400 604.7700 469.3200 607.9200Q470.4000 611.0700 470.4000 614.5800L470.4000 614.5800L470.4000 642.8400Q470.4000 643.7400 469.7700 644.3700Q469.1400 645 468.2400 645L468.2400 645L460.9500 645Q459.9600 645 459.3750 644.3700Q458.7900 643.7400 458.7900 642.8400L458.7900 642.8400L458.7900 639.3300Q457.6200 640.9500 455.6400 642.4800Q453.6600 644.0100 450.8250 644.9550Q447.9900 645.9000 444.1200 645.9000ZM447.1800 637.3500L447.1800 637.3500Q450.3300 637.3500 452.8950 636Q455.4600 634.6500 456.9450 631.8150Q458.4300 628.9800 458.4300 624.6600L458.4300 624.6600L458.4300 622.7700L449.4300 624.2100Q444.1200 625.0200 441.5100 626.8200Q438.9000 628.6200 438.9000 631.2300L438.9000 631.2300Q438.9000 633.2100 440.1150 634.6050Q441.3300 636 443.2200 636.6750Q445.1100 637.3500 447.1800 637.3500ZM510.3600 645L503.0700 645Q497.6700 645 493.9800 643.1100Q490.2900 641.2200 488.4900 637.4850Q486.6900 633.7500 486.6900 628.1700L486.6900 628.1700L486.6900 607.7400L479.5800 607.7400Q478.6800 607.7400 478.0500 607.1100Q477.4200 606.4800 477.4200 605.4900L477.4200 605.4900L477.4200 600.3600Q477.4200 599.4600 478.0500 598.8300Q478.6800 598.2000 479.5800 598.2000L479.5800 598.2000L486.6900 598.2000L486.6900 583.2600Q486.6900 582.3600 487.2750 581.7300Q487.8600 581.1000 488.8500 581.1000L488.8500 581.1000L496.1400 581.1000Q497.0400 581.1000 497.6700 581.7300Q498.3000 582.3600 498.3000 583.2600L498.3000 583.2600L498.3000 598.2000L509.5500 598.2000Q510.4500 598.2000 511.0800 598.8300Q511.7100 599.4600 511.7100 600.3600L511.7100 600.3600L511.7100 605.4900Q511.7100 606.4800 511.0800 607.1100Q510.4500 607.7400 509.5500 607.7400L509.5500 607.7400L498.3000 607.7400L498.3000 627.2700Q498.3000 630.9600 499.6050 633.0300Q500.9100 635.1000 504.1500 635.1000L504.1500 635.1000L510.3600 635.1000Q511.2600 635.1000 511.8900 635.7300Q512.5200 636.3600 512.5200 637.2600L512.5200 637.2600L512.5200 642.8400Q512.5200 643.7400 511.8900 644.3700Q511.2600 645 510.3600 645L510.3600 645ZM530.1600 645L522.6900 645Q521.7900 645 521.1600 644.3700Q520.5300 643.7400 520.5300 642.8400L520.5300 642.8400L520.5300 600.3600Q520.5300 599.4600 521.1600 598.8300Q521.7900 598.2000 522.6900 598.2000L522.6900 598.2000L530.1600 598.2000Q531.1500 598.2000 531.7350 598.8300Q532.3200 599.4600 532.3200 600.3600L532.3200 600.3600L532.3200 642.8400Q532.3200 643.7400 531.7350 644.3700Q531.1500 645 530.1600 645L530.1600 645ZM530.5200 590.4600L522.3300 590.4600Q521.4300 590.4600 520.8000 589.8300Q520.1700 589.2000 520.1700 588.3000L520.1700 588.3000L520.1700 581.8200Q520.1700 580.9200 520.8000 580.2900Q521.4300 579.6600 522.3300 579.6600L522.3300 579.6600L530.5200 579.6600Q531.5100 579.6600 532.1400 580.2900Q532.7700 580.9200 532.7700 581.8200L532.7700 581.8200L532.7700 588.3000Q532.7700 589.2000 532.1400 589.8300Q531.5100 590.4600 530.5200 590.4600L530.5200 590.4600ZM564.9900 645.9000L564.9900 645.9000Q557.7900 645.9000 552.8850 643.3800Q547.9800 640.8600 545.4150 636.2700Q542.8500 631.6800 542.4900 625.5600L542.4900 625.5600Q542.4000 623.9400 542.4000 621.6000Q542.4000 619.2600 542.4900 617.6400L542.4900 617.6400Q542.8500 611.4300 545.5050 606.8850Q548.1600 602.3400 553.0650 599.8200Q557.9700 597.3000 564.9900 597.3000L564.9900 597.3000Q572.0100 597.3000 576.9150 599.8200Q581.8200 602.3400 584.4750 606.8850Q587.1300 611.4300 587.4900 617.6400L587.4900 617.6400Q587.5800 619.2600 587.5800 621.6000Q587.5800 623.9400 587.4900 625.5600L587.4900 625.5600Q587.1300 631.6800 584.5650 636.2700Q582.0000 640.8600 577.0950 643.3800Q572.1900 645.9000 564.9900 645.9000ZM564.9900 636.9900L564.9900 636.9900Q569.7600 636.9900 572.3700 633.9750Q574.9800 630.9600 575.2500 625.1100L575.2500 625.1100Q575.3400 623.7600 575.3400 621.6000Q575.3400 619.4400 575.2500 618.0900L575.2500 618.0900Q574.9800 612.2400 572.3700 609.2250Q569.7600 606.2100 564.9900 606.2100L564.9900 606.2100Q560.2200 606.2100 557.6100 609.2250Q555.0000 612.2400 554.7300 618.0900L554.7300 618.0900Q554.6400 619.4400 554.6400 621.6000Q554.6400 623.7600 554.7300 625.1100L554.7300 625.1100Q555.0000 630.9600 557.6100 633.9750Q560.2200 636.9900 564.9900 636.9900ZM607.6500 645L599.7300 645Q598.8300 645 598.2000 644.3700Q597.5700 643.7400 597.5700 642.8400L597.5700 642.8400L597.5700 600.3600Q597.5700 599.4600 598.2000 598.8300Q598.8300 598.2000 599.7300 598.2000L599.7300 598.2000L607.1100 598.2000Q608.0100 598.2000 608.6400 598.8300Q609.2700 599.4600 609.2700 600.3600L609.2700 600.3600L609.2700 604.0500Q611.6100 601.1700 615.2550 599.2350Q618.9000 597.3000 624.3000 597.3000L624.3000 597.3000Q629.7900 597.3000 633.8400 599.7750Q637.8900 602.2500 640.0950 606.7500Q642.3000 611.2500 642.3000 617.5500L642.3000 617.5500L642.3000 642.8400Q642.3000 643.7400 641.6700 644.3700Q641.0400 645 640.1400 645L640.1400 645L632.2200 645Q631.3200 645 630.6900 644.3700Q630.0600 643.7400 630.0600 642.8400L630.0600 642.8400L630.0600 618.0900Q630.0600 612.8700 627.4950 609.9000Q624.9300 606.9300 620.0700 606.9300L620.0700 606.9300Q615.3900 606.9300 612.6000 609.9000Q609.8100 612.8700 609.8100 618.0900L609.8100 618.0900L609.8100 642.8400Q609.8100 643.7400 609.1800 644.3700Q608.5500 645 607.6500 645L607.6500 645Z" id="title"/><path d="M1408.9600 640L1388.9400 640Q1386.5200 640 1385.0900 638.4600Q1383.6600 636.9200 1383.6600 634.7200L1383.6600 634.7200L1383.6600 520.7600L1350.2200 546.5000Q1348.2400 547.8200 1346.2600 547.4900Q1344.2800 547.1600 1342.7400 545.1800L1342.7400 545.1800L1333.5000 533.3000Q1332.1800 531.3200 1332.5100 529.1200Q1332.8400 526.9200 1334.8200 525.6000L1334.8200 525.6000L1384.1000 487.5400Q1385.4200 486.4400 1386.7400 486.2200Q1388.0600 486 1389.6000 486L1389.6000 486L1408.9600 486Q1411.1600 486 1412.7000 487.5400Q1414.2400 489.0800 1414.2400 491.2800L1414.2400 491.2800L1414.2400 634.7200Q1414.2400 636.9200 1412.7000 638.4600Q1411.1600 640 1408.9600 640L1408.9600 640ZM1550.2000 640L1445.0400 640Q1442.8400 640 1441.3000 638.4600Q1439.7600 636.9200 1439.7600 634.7200L1439.7600 634.7200L1439.7600 623.5000Q1439.7600 621.5200 1440.7500 618.7700Q1441.7400 616.0200 1445.2600 613.1600L1445.2600 613.1600L1480.0200 578.6200Q1494.5400 567.1800 1503.4500 559.1500Q1512.3600 551.1200 1516.4300 544.4100Q1520.5000 537.7000 1520.5000 531.1000L1520.5000 531.1000Q1520.5000 521.2000 1515.1100 515.0400Q1509.7200 508.8800 1498.0600 508.8800L1498.0600 508.8800Q1490.3600 508.8800 1485.0800 512.0700Q1479.8000 515.2600 1476.8300 520.5400Q1473.8600 525.8200 1472.7600 532.2000L1472.7600 532.2000Q1472.3200 535.0600 1470.3400 536.1600Q1468.3600 537.2600 1466.3800 537.2600L1466.3800 537.2600L1446.8000 537.2600Q1444.8200 537.2600 1443.5000 535.9400Q1442.1800 534.6200 1442.1800 532.8600L1442.1800 532.8600Q1442.4000 523.4000 1446.1400 514.4900Q1449.8800 505.5800 1457.0300 498.6500Q1464.1800 491.7200 1474.5200 487.5400Q1484.8600 483.3600 1497.8400 483.3600L1497.8400 483.3600Q1516.1000 483.3600 1528.0900 489.5200Q1540.0800 495.6800 1546.1300 506.2400Q1552.1800 516.8000 1552.1800 530L1552.1800 530Q1552.1800 540.3400 1548.2200 549.0300Q1544.2600 557.7200 1536.7800 565.7500Q1529.3000 573.7800 1518.7400 582.1400L1518.7400 582.1400L1487.5000 613.8200L1550.2000 613.8200Q1552.6200 613.8200 1554.0500 615.2500Q1555.4800 616.6800 1555.4800 619.1000L1555.4800 619.1000L1555.4800 634.7200Q1555.4800 636.9200 1554.0500 638.4600Q1552.6200 640 1550.2000 640L1550.2000 640ZM1606.5200 640L1584.5200 640Q1582.3200 640 1580.7800 638.4600Q1579.2400 636.9200 1579.2400 634.7200L1579.2400 634.7200L1579.2400 612.9400Q1579.2400 610.5200 1580.7800 608.9800Q1582.3200 607.4400 1584.5200 607.4400L1584.5200 607.4400L1606.5200 607.4400Q1608.7200 607.4400 1610.2600 608.9800Q1611.8000 610.5200 1611.8000 612.9400L1611.8000 612.9400L1611.8000 634.7200Q1611.8000 636.9200 1610.2600 638.4600Q1608.7200 640 1606.5200 640L1606.5200 640ZM1745.3400 640L1640.1800 640Q1637.9800 640 1636.4400 638.4600Q1634.9000 636.9200 1634.9000 634.7200L1634.9000 634.7200L1634.9000 623.5000Q1634.9000 621.5200 1635.8900 618.7700Q1636.8800 616.0200 1640.4000 613.1600L1640.4000 613.1600L1675.1600 578.6200Q1689.6800 567.1800 1698.5900 559.1500Q1707.5000 551.1200 1711.5700 544.4100Q1715.6400 537.7000 1715.6400 531.1000L1715.6400 531.1000Q1715.6400 521.2000 1710.2500 515.0400Q1704.8600 508.8800 1693.2000 508.8800L1693.2000 508.8800Q1685.5000 508.8800 1680.2200 512.0700Q1674.9400 515.2600 1671.9700 520.5400Q1669 525.8200 1667.9000 532.2000L1667.9000 532.2000Q1667.4600 535.0600 1665.4800 536.1600Q1663.5000 537.2600 1661.5200 537.2600L1661.5200 537.2600L1641.9400 537.2600Q1639.9600 537.2600 1638.6400 535.9400Q1637.3200 534.6200 1637.3200 532.8600L1637.3200 532.8600Q1637.5400 523.4000 1641.2800 514.4900Q1645.0200 505.5800 1652.1700 498.6500Q1659.3200 491.7200 1669.6600 487.5400Q1680 483.3600 1692.9800 483.3600L1692.9800 483.3600Q1711.2400 483.3600 1723.2300 489.5200Q1735.2200 495.6800 1741.2700 506.2400Q1747.3200 516.8000 1747.3200 530L1747.3200 530Q1747.3200 540.3400 1743.3600 549.0300Q1739.4000 557.7200 1731.9200 565.7500Q1724.4400 573.7800 1713.8800 582.1400L1713.8800 582.1400L1682.6400 613.8200L1745.3400 613.8200Q1747.7600 613.8200 1749.1900 615.2500Q1750.6200 616.6800 1750.6200 619.1000L1750.6200 619.1000L1750.6200 634.7200Q1750.6200 636.9200 1749.1900 638.4600Q1747.7600 640 1745.3400 640L1745.3400 640Z" id="lecture-full-number"/></g></svg>