<svg xmlns="http://www.w3.org/2000/svg" version="1.1" xmlns:xlink="http://www.w3.org/1999/xlink" xmlns:svgjs="http://svgjs.dev/svgjs" viewBox="0 0 1920 1080" id="hidden-cover-svg"><g><rect width="1920" height="1080" fill="#d295bf"/></g><g fill="#d1cba9"><path d="M716 244.687C1027.07 244.687 1278.69 -7.55189 1278.69 -318L1842 -318C1842 303.522 1338.15 807.374 716 807.374L716 244.687Z"/></g><g fill="#ffffff" opacity="0.4"><path d="M59.4553 1025.44C74.0358 1034.58 78.4304 1053.77 69.2841 1068.35C60.1377 1082.93 40.9502 1087.32 26.3697 1078.18C11.7893 1069.03 7.39469 1049.85 16.5411 1035.27C25.6874 1020.69 44.8749 1016.29 59.4553 1025.44ZM115.48 877.553C106.334 892.133 110.729 911.319 125.309 920.464C139.89 929.608 159.077 925.213 168.224 910.634C177.37 896.054 172.975 876.869 158.395 867.724C143.815 858.579 124.627 862.974 115.48 877.553ZM214.42 719.84C205.274 734.42 209.668 753.605 224.249 762.75C238.829 771.895 258.017 767.5 267.163 752.921C276.31 738.341 271.915 719.155 257.335 710.01C242.754 700.865 223.566 705.26 214.42 719.84ZM313.36 562.127C304.213 576.706 308.608 595.892 323.188 605.037C337.769 614.182 356.956 609.787 366.103 595.207C375.249 580.628 370.855 561.442 356.274 552.297C341.694 543.152 322.506 547.547 313.36 562.127ZM412.299 404.414C403.153 418.993 407.547 438.179 422.128 447.324C436.708 456.469 455.896 452.074 465.042 437.494C474.189 422.915 469.794 403.729 455.214 394.584C440.633 385.439 421.446 389.834 412.299 404.414ZM174.263 1134.19C165.117 1148.77 169.512 1167.96 184.092 1177.1C198.673 1186.25 217.86 1181.85 227.007 1167.27C236.153 1152.69 231.758 1133.51 217.178 1124.36C202.597 1115.22 183.41 1119.61 174.263 1134.19ZM273.203 976.477C264.056 991.057 268.451 1010.24 283.032 1019.39C297.612 1028.53 316.8 1024.14 325.946 1009.56C335.093 994.979 330.698 975.792 316.117 966.648C301.537 957.503 282.349 961.898 273.203 976.477ZM372.143 818.764C362.996 833.344 367.391 852.53 381.971 861.675C396.552 870.82 415.739 866.425 424.886 851.845C434.032 837.266 429.638 818.08 415.057 808.935C400.477 799.79 381.289 804.185 372.143 818.764ZM471.082 661.051C461.936 675.631 466.33 694.817 480.911 703.962C495.491 713.106 514.679 708.711 523.825 694.132C532.972 679.552 528.577 660.367 513.997 651.222C499.416 642.077 480.228 646.472 471.082 661.051ZM570.022 503.338C560.875 517.918 565.27 537.103 579.85 546.248C594.431 555.393 613.619 550.998 622.765 536.419C631.911 521.839 627.517 502.653 612.936 493.508C598.356 484.363 579.168 488.758 570.022 503.338ZM331.986 1233.11C322.84 1247.69 327.234 1266.88 341.815 1276.03C356.395 1285.17 375.583 1280.78 384.729 1266.2C393.875 1251.62 389.481 1232.43 374.9 1223.29C360.32 1214.14 341.132 1218.54 331.986 1233.11ZM430.925 1075.4C421.779 1089.98 426.174 1109.17 440.754 1118.31C455.335 1127.46 474.522 1123.06 483.669 1108.48C492.815 1093.9 488.42 1074.72 473.84 1065.57C459.26 1056.43 440.072 1060.82 430.925 1075.4ZM529.865 917.688C520.719 932.268 525.113 951.454 539.694 960.599C554.274 969.744 573.462 965.349 582.608 950.77C591.755 936.19 587.36 917.004 572.78 907.859C558.199 898.714 539.011 903.109 529.865 917.688ZM628.805 759.976C619.658 774.555 624.053 793.741 638.633 802.886C653.214 812.031 672.402 807.636 681.548 793.056C690.694 778.477 686.3 759.291 671.719 750.146C657.139 741.001 637.951 745.396 628.805 759.976ZM727.744 602.263C718.598 616.842 722.992 636.028 737.573 645.173C752.153 654.318 771.341 649.923 780.487 635.343C789.634 620.764 785.239 601.578 770.659 592.433C756.078 583.288 736.787 587.707 727.744 602.263ZM489.708 1332.04C480.562 1346.62 484.957 1365.81 499.537 1374.95C514.118 1384.1 533.305 1379.7 542.452 1365.12C551.598 1350.54 547.203 1331.35 532.623 1322.21C518.042 1313.06 498.855 1317.46 489.708 1332.04ZM588.648 1174.33C579.502 1188.91 583.896 1208.09 598.477 1217.24C613.057 1226.38 632.245 1221.99 641.391 1207.41C650.538 1192.83 646.143 1173.64 631.563 1164.5C616.982 1155.35 597.794 1159.75 588.648 1174.33ZM687.587 1016.61C678.441 1031.19 682.836 1050.38 697.416 1059.52C711.997 1068.67 731.185 1064.27 740.331 1049.69C749.477 1035.11 745.083 1015.93 730.502 1006.78C715.922 997.638 696.734 1002.03 687.587 1016.61ZM786.527 858.9C777.381 873.479 781.775 892.666 796.356 901.811C810.936 910.956 830.124 906.561 839.27 891.981C848.417 877.401 844.022 858.215 829.442 849.07C814.861 839.925 795.57 844.344 786.527 858.9ZM885.467 701.187C876.32 715.767 880.715 734.952 895.295 744.097C909.876 753.242 929.064 748.847 938.21 734.268C947.356 719.688 942.962 700.502 928.381 691.357C913.801 682.212 894.51 686.631 885.467 701.187ZM647.431 1430.96C638.285 1445.54 642.679 1464.73 657.26 1473.87C671.84 1483.02 691.028 1478.62 700.174 1464.05C709.321 1449.47 704.926 1430.28 690.345 1421.13C675.765 1411.99 656.577 1416.38 647.431 1430.96ZM746.37 1273.25C737.224 1287.83 741.619 1307.02 756.199 1316.16C770.78 1325.31 789.967 1320.91 799.114 1306.33C808.26 1291.75 803.866 1272.57 789.285 1263.42C774.705 1254.28 755.517 1258.67 746.37 1273.25ZM845.31 1115.54C836.164 1130.12 840.558 1149.3 855.139 1158.45C869.719 1167.59 888.907 1163.2 898.053 1148.62C907.2 1134.04 902.805 1114.85 888.225 1105.71C873.644 1096.56 854.353 1100.98 845.31 1115.54ZM944.25 957.824C935.103 972.404 939.498 991.59 954.078 1000.74C968.659 1009.88 987.847 1005.49 996.993 990.905C1006.14 976.326 1001.74 957.14 987.164 947.995C972.584 938.85 953.293 943.268 944.25 957.824ZM1043.09 800.135C1033.94 814.714 1038.33 833.901 1052.91 843.046C1067.5 852.19 1086.68 847.795 1095.83 833.216C1104.98 818.636 1100.58 799.45 1086 790.305C1071.52 781.136 1052.23 785.555 1043.09 800.135Z"/></g><g><path d="M178.635 139.281L184.422 144.246V166.626H215.704L219.958 172.147L215.69 177.397H184.422V198.795L178.635 203.747L173 198.795V144.232L178.635 139.281ZM195.554 195.68H219.406L223.397 200.915L219.143 206.45H195.554L191.7 201.342L195.554 195.68ZM196.382 138H219.129L223.383 143.52L219.129 148.77H196.659L192.115 143.677L196.382 138ZM323.155 148.628L328.251 154.291L323.155 159.968H246.13L241.172 154.291L246.13 148.628H323.155ZM237.043 172.147L241.849 167.893L246.669 172.147V178.393C246.669 188.879 249.417 197.515 261.668 197.515H264.14C275.147 197.515 281.197 189.86 281.197 177.952V172.005L285.879 167.75L290.699 171.862V178.379C290.699 189.007 293.723 196.946 305.56 196.946H307.618C319.178 196.946 321.235 187.869 321.373 177.952V171.578L326.056 167.608L331 171.72V178.094C330.862 191.838 327.285 207.574 308.032 207.574H305.974C294.552 207.574 288.365 202.324 285.892 195.808C283.006 202.466 275.299 208.286 264.844 208.286H262.358C242.553 208.286 237.194 195.964 237.056 178.663V172.147H237.043ZM276.391 274.744L273.642 267.089L280.796 264.969L305.974 276.721V252.491L311.07 248.095L316.291 252.491V281.829L325.641 286.226L328.251 293.311L320.959 296L276.391 274.744ZM321.235 223.011L328.113 226.27L325.917 233.497L264.002 263.119L256.571 260.146L259.596 252.776L321.235 223.011ZM231.905 263.404L237.954 268.512C237.402 286.51 222.403 296 204.669 296H202.874C194.062 296 183.759 292.6 177.157 286.083L177.834 278.855L184.298 278.002C189.118 282.256 195.858 285.229 202.183 285.229H204.117C216.091 285.229 225.303 280.136 226.27 268.085L231.905 263.404ZM226.256 251.638C225.704 239.16 216.629 234.209 204.103 234.209H202.169C194.739 234.209 189.104 237.182 184.284 241.436L177.834 240.583L177.143 233.355C183.745 226.696 192.957 223.58 202.597 223.58H204.517C222.403 223.58 237.402 232.942 237.94 251.211L231.891 256.176L226.256 251.638Z" fill="#000000"/></g><path d="M1171 781L1171 339L1187 339L1187 781L1171 781Z" fill="#000000"/><g fill="#000000" id="info-group"><path d="M167.3700 600L159.1800 600Q158.2800 600 157.6500 599.4150Q157.0200 598.8300 157.0200 597.8400L157.0200 597.8400L157.0200 539.2500Q157.0200 538.2600 157.6500 537.6300Q158.2800 537 159.1800 537L159.1800 537L167.3700 537Q168.3600 537 168.9450 537.6300Q169.5300 538.2600 169.5300 539.2500L169.5300 539.2500L169.5300 562.4700L196.0800 562.4700L196.0800 539.2500Q196.0800 538.2600 196.7100 537.6300Q197.3400 537 198.2400 537L198.2400 537L206.3400 537Q207.3300 537 207.9600 537.6300Q208.5900 538.2600 208.5900 539.2500L208.5900 539.2500L208.5900 597.8400Q208.5900 598.7400 207.9600 599.3700Q207.3300 600 206.3400 600L206.3400 600L198.2400 600Q197.3400 600 196.7100 599.3700Q196.0800 598.7400 196.0800 597.8400L196.0800 597.8400L196.0800 573.7200L169.5300 573.7200L169.5300 597.8400Q169.5300 598.7400 168.9450 599.3700Q168.3600 600 167.3700 600L167.3700 600ZM246.9300 600L238.6500 600Q237.7500 600 237.1200 599.3700Q236.4900 598.7400 236.4900 597.8400L236.4900 597.8400L236.4900 548.0700L219.8400 548.0700Q218.9400 548.0700 218.3100 547.4400Q217.6800 546.8100 217.6800 545.9100L217.6800 545.9100L217.6800 539.2500Q217.6800 538.2600 218.3100 537.6300Q218.9400 537 219.8400 537L219.8400 537L265.7400 537Q266.7300 537 267.3600 537.6300Q267.9900 538.2600 267.9900 539.2500L267.9900 539.2500L267.9900 545.9100Q267.9900 546.8100 267.3600 547.4400Q266.7300 548.0700 265.7400 548.0700L265.7400 548.0700L249.1800 548.0700L249.1800 597.8400Q249.1800 598.7400 248.5500 599.3700Q247.9200 600 246.9300 600L246.9300 600ZM286.8900 600L279.3300 600Q278.3400 600 277.7100 599.3700Q277.0800 598.7400 277.0800 597.8400L277.0800 597.8400L277.0800 539.2500Q277.0800 538.2600 277.7100 537.6300Q278.3400 537 279.3300 537L279.3300 537L286.4400 537Q287.7000 537 288.3300 537.6750Q288.9600 538.3500 289.1400 538.7100L289.1400 538.7100L306.5100 571.1100L324.0600 538.7100Q324.2400 538.3500 324.8700 537.6750Q325.5000 537 326.7600 537L326.7600 537L333.7800 537Q334.7700 537 335.4000 537.6300Q336.0300 538.2600 336.0300 539.2500L336.0300 539.2500L336.0300 597.8400Q336.0300 598.7400 335.4000 599.3700Q334.7700 600 333.7800 600L333.7800 600L326.2200 600Q325.2300 600 324.6450 599.3700Q324.0600 598.7400 324.0600 597.8400L324.0600 597.8400L324.0600 558.8700L311.4600 582.9000Q311.0100 583.7100 310.2900 584.2950Q309.5700 584.8800 308.4000 584.8800L308.4000 584.8800L304.7100 584.8800Q303.4500 584.8800 302.7750 584.2950Q302.1000 583.7100 301.6500 582.9000L301.6500 582.9000L289.0500 558.8700L289.0500 597.8400Q289.0500 598.7400 288.4200 599.3700Q287.7900 600 286.8900 600L286.8900 600ZM391.2900 600L352.2300 600Q351.3300 600 350.7000 599.3700Q350.0700 598.7400 350.0700 597.8400L350.0700 597.8400L350.0700 539.1600Q350.0700 538.2600 350.7000 537.6300Q351.3300 537 352.2300 537L352.2300 537L360.6000 537Q361.5000 537 362.1300 537.6300Q362.7600 538.2600 362.7600 539.1600L362.7600 539.1600L362.7600 589.2900L391.2900 589.2900Q392.2800 589.2900 392.9100 589.9200Q393.5400 590.5500 393.5400 591.5400L393.5400 591.5400L393.5400 597.8400Q393.5400 598.7400 392.9100 599.3700Q392.2800 600 391.2900 600L391.2900 600ZM433.5900 600L425.0400 600Q424.1400 600 423.5100 599.3700Q422.8800 598.7400 422.8800 597.8400L422.8800 597.8400L422.8800 539.2500Q422.8800 538.2600 423.5100 537.6300Q424.1400 537 425.0400 537L425.0400 537L449.1600 537Q456.1800 537 461.4000 539.2050Q466.6200 541.4100 469.5000 545.8650Q472.3800 550.3200 472.3800 556.9800L472.3800 556.9800Q472.3800 563.7300 469.5000 568.0950Q466.6200 572.4600 461.4000 574.6200Q456.1800 576.7800 449.1600 576.7800L449.1600 576.7800L435.7500 576.7800L435.7500 597.8400Q435.7500 598.7400 435.1650 599.3700Q434.5800 600 433.5900 600L433.5900 600ZM435.5700 546.9900L435.5700 566.7900L448.7100 566.7900Q453.9300 566.7900 456.7200 564.3150Q459.5100 561.8400 459.5100 556.9800L459.5100 556.9800Q459.5100 552.4800 456.9000 549.7350Q454.2900 546.9900 448.7100 546.9900L448.7100 546.9900L435.5700 546.9900ZM491.1000 600L483.2700 600Q482.3700 600 481.7400 599.3700Q481.1100 598.7400 481.1100 597.8400L481.1100 597.8400L481.1100 555.4500Q481.1100 554.4600 481.7400 553.8300Q482.3700 553.2000 483.2700 553.2000L483.2700 553.2000L490.5600 553.2000Q491.4600 553.2000 492.1350 553.8300Q492.8100 554.4600 492.8100 555.4500L492.8100 555.4500L492.8100 559.1400Q494.8800 556.2600 498.1650 554.7300Q501.4500 553.2000 505.7700 553.2000L505.7700 553.2000L509.4600 553.2000Q510.4500 553.2000 511.0350 553.8300Q511.6200 554.4600 511.6200 555.3600L511.6200 555.3600L511.6200 561.8400Q511.6200 562.7400 511.0350 563.3700Q510.4500 564 509.4600 564L509.4600 564L502.4400 564Q498.1200 564 495.7350 566.3850Q493.3500 568.7700 493.3500 573.0900L493.3500 573.0900L493.3500 597.8400Q493.3500 598.7400 492.7200 599.3700Q492.0900 600 491.1000 600L491.1000 600ZM539.3400 600.9000L539.3400 600.9000Q532.1400 600.9000 527.2350 598.3800Q522.3300 595.8600 519.7650 591.2700Q517.2000 586.6800 516.8400 580.5600L516.8400 580.5600Q516.7500 578.9400 516.7500 576.6000Q516.7500 574.2600 516.8400 572.6400L516.8400 572.6400Q517.2000 566.4300 519.8550 561.8850Q522.5100 557.3400 527.4150 554.8200Q532.3200 552.3000 539.3400 552.3000L539.3400 552.3000Q546.3600 552.3000 551.2650 554.8200Q556.1700 557.3400 558.8250 561.8850Q561.4800 566.4300 561.8400 572.6400L561.8400 572.6400Q561.9300 574.2600 561.9300 576.6000Q561.9300 578.9400 561.8400 580.5600L561.8400 580.5600Q561.4800 586.6800 558.9150 591.2700Q556.3500 595.8600 551.4450 598.3800Q546.5400 600.9000 539.3400 600.9000ZM539.3400 591.9900L539.3400 591.9900Q544.1100 591.9900 546.7200 588.9750Q549.3300 585.9600 549.6000 580.1100L549.6000 580.1100Q549.6900 578.7600 549.6900 576.6000Q549.6900 574.4400 549.6000 573.0900L549.6000 573.0900Q549.3300 567.2400 546.7200 564.2250Q544.1100 561.2100 539.3400 561.2100L539.3400 561.2100Q534.5700 561.2100 531.9600 564.2250Q529.3500 567.2400 529.0800 573.0900L529.0800 573.0900Q528.9900 574.4400 528.9900 576.6000Q528.9900 578.7600 529.0800 580.1100L529.0800 580.1100Q529.3500 585.9600 531.9600 588.9750Q534.5700 591.9900 539.3400 591.9900ZM593.0700 619.8000L593.0700 619.8000Q586.5000 619.8000 582.2700 618.0900Q578.0400 616.3800 575.6100 613.9500Q573.1800 611.5200 572.1450 609.1350Q571.1100 606.7500 571.0200 605.4000L571.0200 605.4000Q570.9300 604.5000 571.6050 603.8250Q572.2800 603.1500 573.1800 603.1500L573.1800 603.1500L581.0100 603.1500Q581.9100 603.1500 582.4500 603.5550Q582.9900 603.9600 583.3500 605.0400L583.3500 605.0400Q583.8900 606.2100 584.7900 607.5600Q585.6900 608.9100 587.5350 609.8550Q589.3800 610.8000 592.6200 610.8000L592.6200 610.8000Q596.0400 610.8000 598.3800 609.8100Q600.7200 608.8200 601.9350 606.4800Q603.1500 604.1400 603.1500 600L603.1500 600L603.1500 593.8800Q600.9900 596.4900 597.6150 598.1100Q594.2400 599.7300 589.2900 599.7300L589.2900 599.7300Q584.5200 599.7300 580.9650 598.1550Q577.4100 596.5800 575.0700 593.7450Q572.7300 590.9100 571.5150 587.0400Q570.3000 583.1700 570.1200 578.4900L570.1200 578.4900Q570.0300 576.0600 570.1200 573.6300L570.1200 573.6300Q570.3000 569.1300 571.5150 565.2600Q572.7300 561.3900 575.0700 558.4650Q577.4100 555.5400 580.9650 553.9200Q584.5200 552.3000 589.2900 552.3000L589.2900 552.3000Q594.4200 552.3000 597.9300 554.2350Q601.4400 556.1700 603.6900 559.0500L603.6900 559.0500L603.6900 555.4500Q603.6900 554.4600 604.3200 553.8300Q604.9500 553.2000 605.8500 553.2000L605.8500 553.2000L613.1400 553.2000Q614.0400 553.2000 614.6700 553.8300Q615.3000 554.4600 615.3000 555.4500L615.3000 555.4500L615.3900 598.8300Q615.3900 605.3100 612.9600 609.9900Q610.5300 614.6700 605.6250 617.2350Q600.7200 619.8000 593.0700 619.8000ZM592.6200 590.1900L592.6200 590.1900Q596.3100 590.1900 598.5600 588.5700Q600.8100 586.9500 601.8900 584.3400Q602.9700 581.7300 603.1500 579.0300L603.1500 579.0300Q603.2400 577.8600 603.2400 576.0600Q603.2400 574.2600 603.1500 573.1800L603.1500 573.1800Q602.9700 570.3900 601.8900 567.8250Q600.8100 565.2600 598.5600 563.5950Q596.3100 561.9300 592.6200 561.9300L592.6200 561.9300Q588.9300 561.9300 586.6800 563.5950Q584.4300 565.2600 583.4850 567.9600Q582.5400 570.6600 582.3600 573.9000L582.3600 573.9000Q582.1800 576.0600 582.3600 578.3100L582.3600 578.3100Q582.5400 581.4600 583.4850 584.2050Q584.4300 586.9500 586.6800 588.5700Q588.9300 590.1900 592.6200 590.1900ZM637.3500 600L629.5200 600Q628.6200 600 627.9900 599.3700Q627.3600 598.7400 627.3600 597.8400L627.3600 597.8400L627.3600 555.4500Q627.3600 554.4600 627.9900 553.8300Q628.6200 553.2000 629.5200 553.2000L629.5200 553.2000L636.8100 553.2000Q637.7100 553.2000 638.3850 553.8300Q639.0600 554.4600 639.0600 555.4500L639.0600 555.4500L639.0600 559.1400Q641.1300 556.2600 644.4150 554.7300Q647.7000 553.2000 652.0200 553.2000L652.0200 553.2000L655.7100 553.2000Q656.7000 553.2000 657.2850 553.8300Q657.8700 554.4600 657.8700 555.3600L657.8700 555.3600L657.8700 561.8400Q657.8700 562.7400 657.2850 563.3700Q656.7000 564 655.7100 564L655.7100 564L648.6900 564Q644.3700 564 641.9850 566.3850Q639.6000 568.7700 639.6000 573.0900L639.6000 573.0900L639.6000 597.8400Q639.6000 598.7400 638.9700 599.3700Q638.3400 600 637.3500 600L637.3500 600ZM678.4800 600.9000L678.4800 600.9000Q673.8000 600.9000 670.0200 599.0550Q666.2400 597.2100 664.0350 594.1050Q661.8300 591 661.8300 587.1300L661.8300 587.1300Q661.8300 580.8300 666.9600 577.0950Q672.0900 573.3600 680.3700 572.1000L680.3700 572.1000L692.7000 570.3000L692.7000 568.4100Q692.7000 564.6300 690.8100 562.5600Q688.9200 560.4900 684.3300 560.4900L684.3300 560.4900Q681.0900 560.4900 679.0650 561.7950Q677.0400 563.1000 676.0500 565.2600L676.0500 565.2600Q675.3300 566.4300 673.9800 566.4300L673.9800 566.4300L666.8700 566.4300Q665.8800 566.4300 665.3850 565.8900Q664.8900 565.3500 664.8900 564.4500L664.8900 564.4500Q664.9800 563.0100 666.1050 560.9400Q667.2300 558.8700 669.5250 556.9350Q671.8200 555 675.5100 553.6500Q679.2000 552.3000 684.4200 552.3000L684.4200 552.3000Q690.0900 552.3000 694.0050 553.6950Q697.9200 555.0900 700.2600 557.4300Q702.6000 559.7700 703.6800 562.9200Q704.7600 566.0700 704.7600 569.5800L704.7600 569.5800L704.7600 597.8400Q704.7600 598.7400 704.1300 599.3700Q703.5000 600 702.6000 600L702.6000 600L695.3100 600Q694.3200 600 693.7350 599.3700Q693.1500 598.7400 693.1500 597.8400L693.1500 597.8400L693.1500 594.3300Q691.9800 595.9500 690 597.4800Q688.0200 599.0100 685.1850 599.9550Q682.3500 600.9000 678.4800 600.9000ZM681.5400 592.3500L681.5400 592.3500Q684.6900 592.3500 687.2550 591Q689.8200 589.6500 691.3050 586.8150Q692.7900 583.9800 692.7900 579.6600L692.7900 579.6600L692.7900 577.7700L683.7900 579.2100Q678.4800 580.0200 675.8700 581.8200Q673.2600 583.6200 673.2600 586.2300L673.2600 586.2300Q673.2600 588.2100 674.4750 589.6050Q675.6900 591 677.5800 591.6750Q679.4700 592.3500 681.5400 592.3500ZM726 600L718.4400 600Q717.5400 600 716.9100 599.3700Q716.2800 598.7400 716.2800 597.8400L716.2800 597.8400L716.2800 555.3600Q716.2800 554.4600 716.9100 553.8300Q717.5400 553.2000 718.4400 553.2000L718.4400 553.2000L725.4600 553.2000Q726.3600 553.2000 726.9900 553.8300Q727.6200 554.4600 727.6200 555.3600L727.6200 555.3600L727.6200 558.4200Q729.5100 555.9000 732.7050 554.1450Q735.9000 552.3900 740.3100 552.3000L740.3100 552.3000Q750.5700 552.1200 754.6200 560.3100L754.6200 560.3100Q756.6900 556.7100 760.6050 554.5050Q764.5200 552.3000 769.2900 552.3000L769.2900 552.3000Q773.9700 552.3000 777.7950 554.4600Q781.6200 556.6200 783.8250 560.9850Q786.0300 565.3500 786.0300 572.0100L786.0300 572.0100L786.0300 597.8400Q786.0300 598.7400 785.4000 599.3700Q784.7700 600 783.8700 600L783.8700 600L776.4900 600Q775.5900 600 774.9600 599.3700Q774.3300 598.7400 774.3300 597.8400L774.3300 597.8400L774.3300 572.7300Q774.3300 568.6800 773.1600 566.2950Q771.9900 563.9100 770.0100 562.9200Q768.0300 561.9300 765.6000 561.9300L765.6000 561.9300Q763.6200 561.9300 761.6400 562.9200Q759.6600 563.9100 758.4000 566.2950Q757.1400 568.6800 757.1400 572.7300L757.1400 572.7300L757.1400 597.8400Q757.1400 598.7400 756.5100 599.3700Q755.8800 600 754.9800 600L754.9800 600L747.6000 600Q746.7000 600 746.0700 599.3700Q745.4400 598.7400 745.4400 597.8400L745.4400 597.8400L745.4400 572.7300Q745.4400 568.6800 744.1800 566.2950Q742.9200 563.9100 740.9400 562.9200Q738.9600 561.9300 736.7100 561.9300L736.7100 561.9300Q734.6400 561.9300 732.6600 562.9650Q730.6800 564 729.4200 566.3400Q728.1600 568.6800 728.1600 572.7300L728.1600 572.7300L728.1600 597.8400Q728.1600 598.7400 727.5300 599.3700Q726.9000 600 726 600L726 600ZM807.1800 600L799.6200 600Q798.7200 600 798.0900 599.3700Q797.4600 598.7400 797.4600 597.8400L797.4600 597.8400L797.4600 555.3600Q797.4600 554.4600 798.0900 553.8300Q798.7200 553.2000 799.6200 553.2000L799.6200 553.2000L806.6400 553.2000Q807.5400 553.2000 808.1700 553.8300Q808.8000 554.4600 808.8000 555.3600L808.8000 555.3600L808.8000 558.4200Q810.6900 555.9000 813.8850 554.1450Q817.0800 552.3900 821.4900 552.3000L821.4900 552.3000Q831.7500 552.1200 835.8000 560.3100L835.8000 560.3100Q837.8700 556.7100 841.7850 554.5050Q845.7000 552.3000 850.4700 552.3000L850.4700 552.3000Q855.1500 552.3000 858.9750 554.4600Q862.8000 556.6200 865.0050 560.9850Q867.2100 565.3500 867.2100 572.0100L867.2100 572.0100L867.2100 597.8400Q867.2100 598.7400 866.5800 599.3700Q865.9500 600 865.0500 600L865.0500 600L857.6700 600Q856.7700 600 856.1400 599.3700Q855.5100 598.7400 855.5100 597.8400L855.5100 597.8400L855.5100 572.7300Q855.5100 568.6800 854.3400 566.2950Q853.1700 563.9100 851.1900 562.9200Q849.2100 561.9300 846.7800 561.9300L846.7800 561.9300Q844.8000 561.9300 842.8200 562.9200Q840.8400 563.9100 839.5800 566.2950Q838.3200 568.6800 838.3200 572.7300L838.3200 572.7300L838.3200 597.8400Q838.3200 598.7400 837.6900 599.3700Q837.0600 600 836.1600 600L836.1600 600L828.7800 600Q827.8800 600 827.2500 599.3700Q826.6200 598.7400 826.6200 597.8400L826.6200 597.8400L826.6200 572.7300Q826.6200 568.6800 825.3600 566.2950Q824.1000 563.9100 822.1200 562.9200Q820.1400 561.9300 817.8900 561.9300L817.8900 561.9300Q815.8200 561.9300 813.8400 562.9650Q811.8600 564 810.6000 566.3400Q809.3400 568.6800 809.3400 572.7300L809.3400 572.7300L809.3400 597.8400Q809.3400 598.7400 808.7100 599.3700Q808.0800 600 807.1800 600L807.1800 600ZM888.2700 600L880.8000 600Q879.9000 600 879.2700 599.3700Q878.6400 598.7400 878.6400 597.8400L878.6400 597.8400L878.6400 555.3600Q878.6400 554.4600 879.2700 553.8300Q879.9000 553.2000 880.8000 553.2000L880.8000 553.2000L888.2700 553.2000Q889.2600 553.2000 889.8450 553.8300Q890.4300 554.4600 890.4300 555.3600L890.4300 555.3600L890.4300 597.8400Q890.4300 598.7400 889.8450 599.3700Q889.2600 600 888.2700 600L888.2700 600ZM888.6300 545.4600L880.4400 545.4600Q879.5400 545.4600 878.9100 544.8300Q878.2800 544.2000 878.2800 543.3000L878.2800 543.3000L878.2800 536.8200Q878.2800 535.9200 878.9100 535.2900Q879.5400 534.6600 880.4400 534.6600L880.4400 534.6600L888.6300 534.6600Q889.6200 534.6600 890.2500 535.2900Q890.8800 535.9200 890.8800 536.8200L890.8800 536.8200L890.8800 543.3000Q890.8800 544.2000 890.2500 544.8300Q889.6200 545.4600 888.6300 545.4600L888.6300 545.4600ZM912.4800 600L904.5600 600Q903.6600 600 903.0300 599.3700Q902.4000 598.7400 902.4000 597.8400L902.4000 597.8400L902.4000 555.3600Q902.4000 554.4600 903.0300 553.8300Q903.6600 553.2000 904.5600 553.2000L904.5600 553.2000L911.9400 553.2000Q912.8400 553.2000 913.4700 553.8300Q914.1000 554.4600 914.1000 555.3600L914.1000 555.3600L914.1000 559.0500Q916.4400 556.1700 920.0850 554.2350Q923.7300 552.3000 929.1300 552.3000L929.1300 552.3000Q934.6200 552.3000 938.6700 554.7750Q942.7200 557.2500 944.9250 561.7500Q947.1300 566.2500 947.1300 572.5500L947.1300 572.5500L947.1300 597.8400Q947.1300 598.7400 946.5000 599.3700Q945.8700 600 944.9700 600L944.9700 600L937.0500 600Q936.1500 600 935.5200 599.3700Q934.8900 598.7400 934.8900 597.8400L934.8900 597.8400L934.8900 573.0900Q934.8900 567.8700 932.3250 564.9000Q929.7600 561.9300 924.9000 561.9300L924.9000 561.9300Q920.2200 561.9300 917.4300 564.9000Q914.6400 567.8700 914.6400 573.0900L914.6400 573.0900L914.6400 597.8400Q914.6400 598.7400 914.0100 599.3700Q913.3800 600 912.4800 600L912.4800 600ZM979.7100 619.8000L979.7100 619.8000Q973.1400 619.8000 968.9100 618.0900Q964.6800 616.3800 962.2500 613.9500Q959.8200 611.5200 958.7850 609.1350Q957.7500 606.7500 957.6600 605.4000L957.6600 605.4000Q957.5700 604.5000 958.2450 603.8250Q958.9200 603.1500 959.8200 603.1500L959.8200 603.1500L967.6500 603.1500Q968.5500 603.1500 969.0900 603.5550Q969.6300 603.9600 969.9900 605.0400L969.9900 605.0400Q970.5300 606.2100 971.4300 607.5600Q972.3300 608.9100 974.1750 609.8550Q976.0200 610.8000 979.2600 610.8000L979.2600 610.8000Q982.6800 610.8000 985.0200 609.8100Q987.3600 608.8200 988.5750 606.4800Q989.7900 604.1400 989.7900 600L989.7900 600L989.7900 593.8800Q987.6300 596.4900 984.2550 598.1100Q980.8800 599.7300 975.9300 599.7300L975.9300 599.7300Q971.1600 599.7300 967.6050 598.1550Q964.0500 596.5800 961.7100 593.7450Q959.3700 590.9100 958.1550 587.0400Q956.9400 583.1700 956.7600 578.4900L956.7600 578.4900Q956.6700 576.0600 956.7600 573.6300L956.7600 573.6300Q956.9400 569.1300 958.1550 565.2600Q959.3700 561.3900 961.7100 558.4650Q964.0500 555.5400 967.6050 553.9200Q971.1600 552.3000 975.9300 552.3000L975.9300 552.3000Q981.0600 552.3000 984.5700 554.2350Q988.0800 556.1700 990.3300 559.0500L990.3300 559.0500L990.3300 555.4500Q990.3300 554.4600 990.9600 553.8300Q991.5900 553.2000 992.4900 553.2000L992.4900 553.2000L999.7800 553.2000Q1000.6800 553.2000 1001.3100 553.8300Q1001.9400 554.4600 1001.9400 555.4500L1001.9400 555.4500L1002.0300 598.8300Q1002.0300 605.3100 999.6000 609.9900Q997.1700 614.6700 992.2650 617.2350Q987.3600 619.8000 979.7100 619.8000ZM979.2600 590.1900L979.2600 590.1900Q982.9500 590.1900 985.2000 588.5700Q987.4500 586.9500 988.5300 584.3400Q989.6100 581.7300 989.7900 579.0300L989.7900 579.0300Q989.8800 577.8600 989.8800 576.0600Q989.8800 574.2600 989.7900 573.1800L989.7900 573.1800Q989.6100 570.3900 988.5300 567.8250Q987.4500 565.2600 985.2000 563.5950Q982.9500 561.9300 979.2600 561.9300L979.2600 561.9300Q975.5700 561.9300 973.3200 563.5950Q971.0700 565.2600 970.1250 567.9600Q969.1800 570.6600 969.0000 573.9000L969.0000 573.9000Q968.8200 576.0600 969.0000 578.3100L969.0000 578.3100Q969.1800 581.4600 970.1250 584.2050Q971.0700 586.9500 973.3200 588.5700Q975.5700 590.1900 979.2600 590.1900Z" id="title"/><path d="M1434.6400 652.4000L1434.6400 652.4000Q1417.8400 652.4000 1405.6000 648.3200Q1393.3600 644.2400 1385.3200 637.6400Q1377.2800 631.0400 1373.2000 623.2400Q1369.1200 615.4400 1368.8800 607.7600L1368.8800 607.7600Q1368.8800 605.6000 1370.4400 604.2800Q1372 602.9600 1374.1600 602.9600L1374.1600 602.9600L1395.7600 602.9600Q1398.1600 602.9600 1399.8400 603.9200Q1401.5200 604.8800 1402.7200 607.7600L1402.7200 607.7600Q1404.8800 614.2400 1409.8000 618.0800Q1414.7200 621.9200 1421.2000 623.4800Q1427.6800 625.0400 1434.8800 625.0400L1434.8800 625.0400Q1449.2800 625.0400 1457.8000 618.2000Q1466.3200 611.3600 1466.3200 598.6400L1466.3200 598.6400Q1466.3200 585.9200 1458.4000 580.2800Q1450.4800 574.6400 1436.3200 574.6400L1436.3200 574.6400L1411.6000 574.6400Q1408.9600 574.6400 1407.2800 573.0800Q1405.6000 571.5200 1405.6000 568.8800L1405.6000 568.8800L1405.6000 558.8000Q1405.6000 556.4000 1406.6800 554.6000Q1407.7600 552.8000 1408.9600 551.6000L1408.9600 551.6000L1451.9200 509.6000L1383.2800 509.6000Q1380.6400 509.6000 1379.0800 507.9200Q1377.5200 506.2400 1377.5200 503.8400L1377.5200 503.8400L1377.5200 488Q1377.5200 485.3600 1379.0800 483.6800Q1380.6400 482 1383.2800 482L1383.2800 482L1486.2400 482Q1488.8800 482 1490.5600 483.6800Q1492.2400 485.3600 1492.2400 488L1492.2400 488L1492.2400 502.4000Q1492.2400 504.5600 1491.2800 506.2400Q1490.3200 507.9200 1489.1200 509.1200L1489.1200 509.1200L1447.6000 551.8400L1450.4800 552.0800Q1465.1200 553.2800 1476.5200 558.6800Q1487.9200 564.0800 1494.2800 574.4000Q1500.6400 584.7200 1500.6400 600.3200L1500.6400 600.3200Q1500.6400 616.6400 1492.1200 628.2800Q1483.6000 639.9200 1468.7200 646.1600Q1453.8400 652.4000 1434.6400 652.4000ZM1555.3600 650L1531.3600 650Q1528.9600 650 1527.2800 648.3200Q1525.6000 646.6400 1525.6000 644.2400L1525.6000 644.2400L1525.6000 620.4800Q1525.6000 617.8400 1527.2800 616.1600Q1528.9600 614.4800 1531.3600 614.4800L1531.3600 614.4800L1555.3600 614.4800Q1557.7600 614.4800 1559.4400 616.1600Q1561.1200 617.8400 1561.1200 620.4800L1561.1200 620.4800L1561.1200 644.2400Q1561.1200 646.6400 1559.4400 648.3200Q1557.7600 650 1555.3600 650L1555.3600 650ZM1648 650L1626.1600 650Q1623.5200 650 1621.9600 648.3200Q1620.4000 646.6400 1620.4000 644.2400L1620.4000 644.2400L1620.4000 519.9200L1583.9200 548Q1581.7600 549.4400 1579.6000 549.0800Q1577.4400 548.7200 1575.7600 546.5600L1575.7600 546.5600L1565.6800 533.6000Q1564.2400 531.4400 1564.6000 529.0400Q1564.9600 526.6400 1567.1200 525.2000L1567.1200 525.2000L1620.8800 483.6800Q1622.3200 482.4800 1623.7600 482.2400Q1625.2000 482 1626.8800 482L1626.8800 482L1648 482Q1650.4000 482 1652.0800 483.6800Q1653.7600 485.3600 1653.7600 487.7600L1653.7600 487.7600L1653.7600 644.2400Q1653.7600 646.6400 1652.0800 648.3200Q1650.4000 650 1648 650L1648 650Z" id="lecture-full-number"/></g></svg>