<svg xmlns="http://www.w3.org/2000/svg" version="1.1" xmlns:xlink="http://www.w3.org/1999/xlink" xmlns:svgjs="http://svgjs.dev/svgjs" viewBox="0 0 1920 1080" id="hidden-cover-svg"><g><rect width="1920" height="1080" fill="#3f4739"/></g><g fill="#905994"><path d="M716 244.687C1027.07 244.687 1278.69 -7.55189 1278.69 -318L1842 -318C1842 303.522 1338.15 807.374 716 807.374L716 244.687Z"/></g><g fill="#ffffff" opacity="0.2"><path d="M59.4553 1025.44C74.0358 1034.58 78.4304 1053.77 69.2841 1068.35C60.1377 1082.93 40.9502 1087.32 26.3697 1078.18C11.7893 1069.03 7.39469 1049.85 16.5411 1035.27C25.6874 1020.69 44.8749 1016.29 59.4553 1025.44ZM115.48 877.553C106.334 892.133 110.729 911.319 125.309 920.464C139.89 929.608 159.077 925.213 168.224 910.634C177.37 896.054 172.975 876.869 158.395 867.724C143.815 858.579 124.627 862.974 115.48 877.553ZM214.42 719.84C205.274 734.42 209.668 753.605 224.249 762.75C238.829 771.895 258.017 767.5 267.163 752.921C276.31 738.341 271.915 719.155 257.335 710.01C242.754 700.865 223.566 705.26 214.42 719.84ZM313.36 562.127C304.213 576.706 308.608 595.892 323.188 605.037C337.769 614.182 356.956 609.787 366.103 595.207C375.249 580.628 370.855 561.442 356.274 552.297C341.694 543.152 322.506 547.547 313.36 562.127ZM412.299 404.414C403.153 418.993 407.547 438.179 422.128 447.324C436.708 456.469 455.896 452.074 465.042 437.494C474.189 422.915 469.794 403.729 455.214 394.584C440.633 385.439 421.446 389.834 412.299 404.414ZM174.263 1134.19C165.117 1148.77 169.512 1167.96 184.092 1177.1C198.673 1186.25 217.86 1181.85 227.007 1167.27C236.153 1152.69 231.758 1133.51 217.178 1124.36C202.597 1115.22 183.41 1119.61 174.263 1134.19ZM273.203 976.477C264.056 991.057 268.451 1010.24 283.032 1019.39C297.612 1028.53 316.8 1024.14 325.946 1009.56C335.093 994.979 330.698 975.792 316.117 966.648C301.537 957.503 282.349 961.898 273.203 976.477ZM372.143 818.764C362.996 833.344 367.391 852.53 381.971 861.675C396.552 870.82 415.739 866.425 424.886 851.845C434.032 837.266 429.638 818.08 415.057 808.935C400.477 799.79 381.289 804.185 372.143 818.764ZM471.082 661.051C461.936 675.631 466.33 694.817 480.911 703.962C495.491 713.106 514.679 708.711 523.825 694.132C532.972 679.552 528.577 660.367 513.997 651.222C499.416 642.077 480.228 646.472 471.082 661.051ZM570.022 503.338C560.875 517.918 565.27 537.103 579.85 546.248C594.431 555.393 613.619 550.998 622.765 536.419C631.911 521.839 627.517 502.653 612.936 493.508C598.356 484.363 579.168 488.758 570.022 503.338ZM331.986 1233.11C322.84 1247.69 327.234 1266.88 341.815 1276.03C356.395 1285.17 375.583 1280.78 384.729 1266.2C393.875 1251.62 389.481 1232.43 374.9 1223.29C360.32 1214.14 341.132 1218.54 331.986 1233.11ZM430.925 1075.4C421.779 1089.98 426.174 1109.17 440.754 1118.31C455.335 1127.46 474.522 1123.06 483.669 1108.48C492.815 1093.9 488.42 1074.72 473.84 1065.57C459.26 1056.43 440.072 1060.82 430.925 1075.4ZM529.865 917.688C520.719 932.268 525.113 951.454 539.694 960.599C554.274 969.744 573.462 965.349 582.608 950.77C591.755 936.19 587.36 917.004 572.78 907.859C558.199 898.714 539.011 903.109 529.865 917.688ZM628.805 759.976C619.658 774.555 624.053 793.741 638.633 802.886C653.214 812.031 672.402 807.636 681.548 793.056C690.694 778.477 686.3 759.291 671.719 750.146C657.139 741.001 637.951 745.396 628.805 759.976ZM727.744 602.263C718.598 616.842 722.992 636.028 737.573 645.173C752.153 654.318 771.341 649.923 780.487 635.343C789.634 620.764 785.239 601.578 770.659 592.433C756.078 583.288 736.787 587.707 727.744 602.263ZM489.708 1332.04C480.562 1346.62 484.957 1365.81 499.537 1374.95C514.118 1384.1 533.305 1379.7 542.452 1365.12C551.598 1350.54 547.203 1331.35 532.623 1322.21C518.042 1313.06 498.855 1317.46 489.708 1332.04ZM588.648 1174.33C579.502 1188.91 583.896 1208.09 598.477 1217.24C613.057 1226.38 632.245 1221.99 641.391 1207.41C650.538 1192.83 646.143 1173.64 631.563 1164.5C616.982 1155.35 597.794 1159.75 588.648 1174.33ZM687.587 1016.61C678.441 1031.19 682.836 1050.38 697.416 1059.52C711.997 1068.67 731.185 1064.27 740.331 1049.69C749.477 1035.11 745.083 1015.93 730.502 1006.78C715.922 997.638 696.734 1002.03 687.587 1016.61ZM786.527 858.9C777.381 873.479 781.775 892.666 796.356 901.811C810.936 910.956 830.124 906.561 839.27 891.981C848.417 877.401 844.022 858.215 829.442 849.07C814.861 839.925 795.57 844.344 786.527 858.9ZM885.467 701.187C876.32 715.767 880.715 734.952 895.295 744.097C909.876 753.242 929.064 748.847 938.21 734.268C947.356 719.688 942.962 700.502 928.381 691.357C913.801 682.212 894.51 686.631 885.467 701.187ZM647.431 1430.96C638.285 1445.54 642.679 1464.73 657.26 1473.87C671.84 1483.02 691.028 1478.62 700.174 1464.05C709.321 1449.47 704.926 1430.28 690.345 1421.13C675.765 1411.99 656.577 1416.38 647.431 1430.96ZM746.37 1273.25C737.224 1287.83 741.619 1307.02 756.199 1316.16C770.78 1325.31 789.967 1320.91 799.114 1306.33C808.26 1291.75 803.866 1272.57 789.285 1263.42C774.705 1254.28 755.517 1258.67 746.37 1273.25ZM845.31 1115.54C836.164 1130.12 840.558 1149.3 855.139 1158.45C869.719 1167.59 888.907 1163.2 898.053 1148.62C907.2 1134.04 902.805 1114.85 888.225 1105.71C873.644 1096.56 854.353 1100.98 845.31 1115.54ZM944.25 957.824C935.103 972.404 939.498 991.59 954.078 1000.74C968.659 1009.88 987.847 1005.49 996.993 990.905C1006.14 976.326 1001.74 957.14 987.164 947.995C972.584 938.85 953.293 943.268 944.25 957.824ZM1043.09 800.135C1033.94 814.714 1038.33 833.901 1052.91 843.046C1067.5 852.19 1086.68 847.795 1095.83 833.216C1104.98 818.636 1100.58 799.45 1086 790.305C1071.52 781.136 1052.23 785.555 1043.09 800.135Z"/></g><g><path d="M178.635 139.281L184.422 144.246V166.626H215.704L219.958 172.147L215.69 177.397H184.422V198.795L178.635 203.747L173 198.795V144.232L178.635 139.281ZM195.554 195.68H219.406L223.397 200.915L219.143 206.45H195.554L191.7 201.342L195.554 195.68ZM196.382 138H219.129L223.383 143.52L219.129 148.77H196.659L192.115 143.677L196.382 138ZM323.155 148.628L328.251 154.291L323.155 159.968H246.13L241.172 154.291L246.13 148.628H323.155ZM237.043 172.147L241.849 167.893L246.669 172.147V178.393C246.669 188.879 249.417 197.515 261.668 197.515H264.14C275.147 197.515 281.197 189.86 281.197 177.952V172.005L285.879 167.75L290.699 171.862V178.379C290.699 189.007 293.723 196.946 305.56 196.946H307.618C319.178 196.946 321.235 187.869 321.373 177.952V171.578L326.056 167.608L331 171.72V178.094C330.862 191.838 327.285 207.574 308.032 207.574H305.974C294.552 207.574 288.365 202.324 285.892 195.808C283.006 202.466 275.299 208.286 264.844 208.286H262.358C242.553 208.286 237.194 195.964 237.056 178.663V172.147H237.043ZM276.391 274.744L273.642 267.089L280.796 264.969L305.974 276.721V252.491L311.07 248.095L316.291 252.491V281.829L325.641 286.226L328.251 293.311L320.959 296L276.391 274.744ZM321.235 223.011L328.113 226.27L325.917 233.497L264.002 263.119L256.571 260.146L259.596 252.776L321.235 223.011ZM231.905 263.404L237.954 268.512C237.402 286.51 222.403 296 204.669 296H202.874C194.062 296 183.759 292.6 177.157 286.083L177.834 278.855L184.298 278.002C189.118 282.256 195.858 285.229 202.183 285.229H204.117C216.091 285.229 225.303 280.136 226.27 268.085L231.905 263.404ZM226.256 251.638C225.704 239.16 216.629 234.209 204.103 234.209H202.169C194.739 234.209 189.104 237.182 184.284 241.436L177.834 240.583L177.143 233.355C183.745 226.696 192.957 223.58 202.597 223.58H204.517C222.403 223.58 237.402 232.942 237.94 251.211L231.891 256.176L226.256 251.638Z" fill="#ffffff"/></g><path d="M1171 781L1171 339L1187 339L1187 781L1171 781Z" fill="#ffffff"/><g fill="#ffffff" id="info-group"><path d="M181.5900 600L159.1800 600Q158.2800 600 157.6500 599.3700Q157.0200 598.7400 157.0200 597.8400L157.0200 597.8400L157.0200 539.2500Q157.0200 538.2600 157.6500 537.6300Q158.2800 537 159.1800 537L159.1800 537L181.1400 537Q190.2300 537 196.1250 539.7900Q202.0200 542.5800 205.0350 548.0700Q208.0500 553.5600 208.1400 561.4800L208.1400 561.4800Q208.3200 565.4400 208.3200 568.5000Q208.3200 571.5600 208.1400 575.4300L208.1400 575.4300Q207.9600 583.8000 205.0800 589.2450Q202.2000 594.6900 196.3950 597.3450Q190.5900 600 181.5900 600L181.5900 600ZM169.5300 547.3500L169.5300 589.6500L181.1400 589.6500Q186.1800 589.6500 189.3300 588.2100Q192.4800 586.7700 193.9650 583.5750Q195.4500 580.3800 195.5400 575.1600L195.5400 575.1600Q195.6300 572.4600 195.6750 570.4350Q195.7200 568.4100 195.6750 566.3850Q195.6300 564.3600 195.5400 561.7500L195.5400 561.7500Q195.3600 554.3700 191.8500 550.8600Q188.3400 547.3500 180.6900 547.3500L180.6900 547.3500L169.5300 547.3500ZM239.3700 600.9000L239.3700 600.9000Q229.3800 600.9000 223.5300 595.1400Q217.6800 589.3800 217.2300 578.7600L217.2300 578.7600Q217.1400 577.8600 217.1400 576.4650Q217.1400 575.0700 217.2300 574.2600L217.2300 574.2600Q217.5900 567.4200 220.3350 562.5150Q223.0800 557.6100 227.9400 554.9550Q232.8000 552.3000 239.3700 552.3000L239.3700 552.3000Q246.6600 552.3000 251.6100 555.3150Q256.5600 558.3300 259.0800 563.6850Q261.6000 569.0400 261.6000 576.0600L261.6000 576.0600L261.6000 577.9500Q261.6000 578.8500 260.9700 579.4800Q260.3400 580.1100 259.3500 580.1100L259.3500 580.1100L229.4700 580.1100Q229.4700 580.1100 229.4700 580.3800Q229.4700 580.6500 229.4700 580.8300L229.4700 580.8300Q229.5600 583.9800 230.6850 586.6350Q231.8100 589.2900 234.0150 590.9100Q236.2200 592.5300 239.2800 592.5300L239.2800 592.5300Q241.8000 592.5300 243.5100 591.7650Q245.2200 591 246.3000 590.0100Q247.3800 589.0200 247.8300 588.3900L247.8300 588.3900Q248.6400 587.3100 249.1350 587.0850Q249.6300 586.8600 250.6200 586.8600L250.6200 586.8600L258.3600 586.8600Q259.2600 586.8600 259.8450 587.4000Q260.4300 587.9400 260.3400 588.7500L260.3400 588.7500Q260.2500 590.1900 258.8550 592.2600Q257.4600 594.3300 254.8500 596.3100Q252.2400 598.2900 248.3250 599.5950Q244.4100 600.9000 239.3700 600.9000ZM229.4700 572.2800L229.4700 572.5500L249.3600 572.5500L249.3600 572.2800Q249.3600 568.7700 248.1900 566.1150Q247.0200 563.4600 244.7700 561.9750Q242.5200 560.4900 239.3700 560.4900L239.3700 560.4900Q236.2200 560.4900 233.9700 561.9750Q231.7200 563.4600 230.5950 566.1150Q229.4700 568.7700 229.4700 572.2800L229.4700 572.2800ZM288.8700 600.9000L288.8700 600.9000Q283.4700 600.9000 279.6450 599.6400Q275.8200 598.3800 273.3900 596.4900Q270.9600 594.6000 269.7900 592.7100Q268.6200 590.8200 268.5300 589.5600L268.5300 589.5600Q268.4400 588.5700 269.1150 587.9850Q269.7900 587.4000 270.6000 587.4000L270.6000 587.4000L277.7100 587.4000Q278.0700 587.4000 278.3400 587.4900Q278.6100 587.5800 279.0600 588.0300L279.0600 588.0300Q280.2300 589.0200 281.5350 590.1000Q282.8400 591.1800 284.6400 591.9450Q286.4400 592.7100 289.1400 592.7100L289.1400 592.7100Q292.6500 592.7100 295.0350 591.3150Q297.4200 589.9200 297.4200 587.3100L297.4200 587.3100Q297.4200 585.4200 296.3850 584.2500Q295.3500 583.0800 292.5600 582.1350Q289.7700 581.1900 284.6400 580.1100L284.6400 580.1100Q279.6000 578.9400 276.2700 577.1400Q272.9400 575.3400 271.3200 572.6400Q269.7000 569.9400 269.7000 566.3400L269.7000 566.3400Q269.7000 562.8300 271.8150 559.6350Q273.9300 556.4400 278.1150 554.3700Q282.3000 552.3000 288.5100 552.3000L288.5100 552.3000Q293.3700 552.3000 296.9700 553.5150Q300.5700 554.7300 302.9550 556.5300Q305.3400 558.3300 306.6000 560.1750Q307.8600 562.0200 307.9500 563.3700L307.9500 563.3700Q308.0400 564.3600 307.4100 564.9450Q306.7800 565.5300 305.9700 565.5300L305.9700 565.5300L299.3100 565.5300Q298.8600 565.5300 298.5000 565.3500Q298.1400 565.1700 297.7800 564.9000L297.7800 564.9000Q296.7900 564 295.6200 562.9650Q294.4500 561.9300 292.7850 561.2100Q291.1200 560.4900 288.4200 560.4900L288.4200 560.4900Q285 560.4900 283.2000 561.9750Q281.4000 563.4600 281.4000 565.7100L281.4000 565.7100Q281.4000 567.2400 282.2550 568.3650Q283.1100 569.4900 285.7200 570.4800Q288.3300 571.4700 293.6400 572.5500L293.6400 572.5500Q299.6700 573.6300 303.2250 575.7450Q306.7800 577.8600 308.2650 580.6050Q309.7500 583.3500 309.7500 586.6800L309.7500 586.6800Q309.7500 590.7300 307.3650 593.9700Q304.9800 597.2100 300.3450 599.0550Q295.7100 600.9000 288.8700 600.9000ZM328.6500 600L321.1800 600Q320.2800 600 319.6500 599.3700Q319.0200 598.7400 319.0200 597.8400L319.0200 597.8400L319.0200 555.3600Q319.0200 554.4600 319.6500 553.8300Q320.2800 553.2000 321.1800 553.2000L321.1800 553.2000L328.6500 553.2000Q329.6400 553.2000 330.2250 553.8300Q330.8100 554.4600 330.8100 555.3600L330.8100 555.3600L330.8100 597.8400Q330.8100 598.7400 330.2250 599.3700Q329.6400 600 328.6500 600L328.6500 600ZM329.0100 545.4600L320.8200 545.4600Q319.9200 545.4600 319.2900 544.8300Q318.6600 544.2000 318.6600 543.3000L318.6600 543.3000L318.6600 536.8200Q318.6600 535.9200 319.2900 535.2900Q319.9200 534.6600 320.8200 534.6600L320.8200 534.6600L329.0100 534.6600Q330 534.6600 330.6300 535.2900Q331.2600 535.9200 331.2600 536.8200L331.2600 536.8200L331.2600 543.3000Q331.2600 544.2000 330.6300 544.8300Q330 545.4600 329.0100 545.4600L329.0100 545.4600ZM363.9300 619.8000L363.9300 619.8000Q357.3600 619.8000 353.1300 618.0900Q348.9000 616.3800 346.4700 613.9500Q344.0400 611.5200 343.0050 609.1350Q341.9700 606.7500 341.8800 605.4000L341.8800 605.4000Q341.7900 604.5000 342.4650 603.8250Q343.1400 603.1500 344.0400 603.1500L344.0400 603.1500L351.8700 603.1500Q352.7700 603.1500 353.3100 603.5550Q353.8500 603.9600 354.2100 605.0400L354.2100 605.0400Q354.7500 606.2100 355.6500 607.5600Q356.5500 608.9100 358.3950 609.8550Q360.2400 610.8000 363.4800 610.8000L363.4800 610.8000Q366.9000 610.8000 369.2400 609.8100Q371.5800 608.8200 372.7950 606.4800Q374.0100 604.1400 374.0100 600L374.0100 600L374.0100 593.8800Q371.8500 596.4900 368.4750 598.1100Q365.1000 599.7300 360.1500 599.7300L360.1500 599.7300Q355.3800 599.7300 351.8250 598.1550Q348.2700 596.5800 345.9300 593.7450Q343.5900 590.9100 342.3750 587.0400Q341.1600 583.1700 340.9800 578.4900L340.9800 578.4900Q340.8900 576.0600 340.9800 573.6300L340.9800 573.6300Q341.1600 569.1300 342.3750 565.2600Q343.5900 561.3900 345.9300 558.4650Q348.2700 555.5400 351.8250 553.9200Q355.3800 552.3000 360.1500 552.3000L360.1500 552.3000Q365.2800 552.3000 368.7900 554.2350Q372.3000 556.1700 374.5500 559.0500L374.5500 559.0500L374.5500 555.4500Q374.5500 554.4600 375.1800 553.8300Q375.8100 553.2000 376.7100 553.2000L376.7100 553.2000L384 553.2000Q384.9000 553.2000 385.5300 553.8300Q386.1600 554.4600 386.1600 555.4500L386.1600 555.4500L386.2500 598.8300Q386.2500 605.3100 383.8200 609.9900Q381.3900 614.6700 376.4850 617.2350Q371.5800 619.8000 363.9300 619.8000ZM363.4800 590.1900L363.4800 590.1900Q367.1700 590.1900 369.4200 588.5700Q371.6700 586.9500 372.7500 584.3400Q373.8300 581.7300 374.0100 579.0300L374.0100 579.0300Q374.1000 577.8600 374.1000 576.0600Q374.1000 574.2600 374.0100 573.1800L374.0100 573.1800Q373.8300 570.3900 372.7500 567.8250Q371.6700 565.2600 369.4200 563.5950Q367.1700 561.9300 363.4800 561.9300L363.4800 561.9300Q359.7900 561.9300 357.5400 563.5950Q355.2900 565.2600 354.3450 567.9600Q353.4000 570.6600 353.2200 573.9000L353.2200 573.9000Q353.0400 576.0600 353.2200 578.3100L353.2200 578.3100Q353.4000 581.4600 354.3450 584.2050Q355.2900 586.9500 357.5400 588.5700Q359.7900 590.1900 363.4800 590.1900ZM408.3000 600L400.3800 600Q399.4800 600 398.8500 599.3700Q398.2200 598.7400 398.2200 597.8400L398.2200 597.8400L398.2200 555.3600Q398.2200 554.4600 398.8500 553.8300Q399.4800 553.2000 400.3800 553.2000L400.3800 553.2000L407.7600 553.2000Q408.6600 553.2000 409.2900 553.8300Q409.9200 554.4600 409.9200 555.3600L409.9200 555.3600L409.9200 559.0500Q412.2600 556.1700 415.9050 554.2350Q419.5500 552.3000 424.9500 552.3000L424.9500 552.3000Q430.4400 552.3000 434.4900 554.7750Q438.5400 557.2500 440.7450 561.7500Q442.9500 566.2500 442.9500 572.5500L442.9500 572.5500L442.9500 597.8400Q442.9500 598.7400 442.3200 599.3700Q441.6900 600 440.7900 600L440.7900 600L432.8700 600Q431.9700 600 431.3400 599.3700Q430.7100 598.7400 430.7100 597.8400L430.7100 597.8400L430.7100 573.0900Q430.7100 567.8700 428.1450 564.9000Q425.5800 561.9300 420.7200 561.9300L420.7200 561.9300Q416.0400 561.9300 413.2500 564.9000Q410.4600 567.8700 410.4600 573.0900L410.4600 573.0900L410.4600 597.8400Q410.4600 598.7400 409.8300 599.3700Q409.2000 600 408.3000 600L408.3000 600ZM500.3700 600.9000L500.3700 600.9000Q492.0000 600.9000 486.1950 597.9750Q480.3900 595.0500 477.3300 589.6050Q474.2700 584.1600 473.9100 576.5100L473.9100 576.5100Q473.8200 572.8200 473.8200 568.5900Q473.8200 564.3600 473.9100 560.4900L473.9100 560.4900Q474.2700 552.9300 477.3750 547.4400Q480.4800 541.9500 486.2850 539.0250Q492.0900 536.1000 500.3700 536.1000L500.3700 536.1000Q506.4900 536.1000 511.3500 537.7200Q516.2100 539.3400 519.6300 542.1750Q523.0500 545.0100 524.9400 548.7900Q526.8300 552.5700 526.9200 556.9800L526.9200 556.9800Q527.0100 557.7900 526.4250 558.3300Q525.8400 558.8700 525.0300 558.8700L525.0300 558.8700L516.4800 558.8700Q515.4900 558.8700 514.8600 558.3750Q514.2300 557.8800 513.9600 556.7100L513.9600 556.7100Q512.5200 550.7700 509.0100 548.6100Q505.5000 546.4500 500.2800 546.4500L500.2800 546.4500Q494.2500 546.4500 490.6500 549.8250Q487.0500 553.2000 486.7800 560.9400L486.7800 560.9400Q486.5100 568.3200 486.7800 576.0600L486.7800 576.0600Q487.0500 583.8000 490.6500 587.1750Q494.2500 590.5500 500.2800 590.5500L500.2800 590.5500Q505.5000 590.5500 509.0550 588.3450Q512.6100 586.1400 513.9600 580.2900L513.9600 580.2900Q514.2300 579.0300 514.8600 578.5800Q515.4900 578.1300 516.4800 578.1300L516.4800 578.1300L525.0300 578.1300Q525.8400 578.1300 526.4250 578.6700Q527.0100 579.2100 526.9200 580.0200L526.9200 580.0200Q526.8300 584.4300 524.9400 588.2100Q523.0500 591.9900 519.6300 594.8250Q516.2100 597.6600 511.3500 599.2800Q506.4900 600.9000 500.3700 600.9000ZM557.2500 600.9000L557.2500 600.9000Q550.0500 600.9000 545.1450 598.3800Q540.2400 595.8600 537.6750 591.2700Q535.1100 586.6800 534.7500 580.5600L534.7500 580.5600Q534.6600 578.9400 534.6600 576.6000Q534.6600 574.2600 534.7500 572.6400L534.7500 572.6400Q535.1100 566.4300 537.7650 561.8850Q540.4200 557.3400 545.3250 554.8200Q550.2300 552.3000 557.2500 552.3000L557.2500 552.3000Q564.2700 552.3000 569.1750 554.8200Q574.0800 557.3400 576.7350 561.8850Q579.3900 566.4300 579.7500 572.6400L579.7500 572.6400Q579.8400 574.2600 579.8400 576.6000Q579.8400 578.9400 579.7500 580.5600L579.7500 580.5600Q579.3900 586.6800 576.8250 591.2700Q574.2600 595.8600 569.3550 598.3800Q564.4500 600.9000 557.2500 600.9000ZM557.2500 591.9900L557.2500 591.9900Q562.0200 591.9900 564.6300 588.9750Q567.2400 585.9600 567.5100 580.1100L567.5100 580.1100Q567.6000 578.7600 567.6000 576.6000Q567.6000 574.4400 567.5100 573.0900L567.5100 573.0900Q567.2400 567.2400 564.6300 564.2250Q562.0200 561.2100 557.2500 561.2100L557.2500 561.2100Q552.4800 561.2100 549.8700 564.2250Q547.2600 567.2400 546.9900 573.0900L546.9900 573.0900Q546.9000 574.4400 546.9000 576.6000Q546.9000 578.7600 546.9900 580.1100L546.9900 580.1100Q547.2600 585.9600 549.8700 588.9750Q552.4800 591.9900 557.2500 591.9900ZM599.9100 600L591.9900 600Q591.0900 600 590.4600 599.3700Q589.8300 598.7400 589.8300 597.8400L589.8300 597.8400L589.8300 555.3600Q589.8300 554.4600 590.4600 553.8300Q591.0900 553.2000 591.9900 553.2000L591.9900 553.2000L599.3700 553.2000Q600.2700 553.2000 600.9000 553.8300Q601.5300 554.4600 601.5300 555.3600L601.5300 555.3600L601.5300 559.0500Q603.8700 556.1700 607.5150 554.2350Q611.1600 552.3000 616.5600 552.3000L616.5600 552.3000Q622.0500 552.3000 626.1000 554.7750Q630.1500 557.2500 632.3550 561.7500Q634.5600 566.2500 634.5600 572.5500L634.5600 572.5500L634.5600 597.8400Q634.5600 598.7400 633.9300 599.3700Q633.3000 600 632.4000 600L632.4000 600L624.4800 600Q623.5800 600 622.9500 599.3700Q622.3200 598.7400 622.3200 597.8400L622.3200 597.8400L622.3200 573.0900Q622.3200 567.8700 619.7550 564.9000Q617.1900 561.9300 612.3300 561.9300L612.3300 561.9300Q607.6500 561.9300 604.8600 564.9000Q602.0700 567.8700 602.0700 573.0900L602.0700 573.0900L602.0700 597.8400Q602.0700 598.7400 601.4400 599.3700Q600.8100 600 599.9100 600L599.9100 600ZM666.2400 600.9000L666.2400 600.9000Q659.7600 600.9000 654.8550 598.4700Q649.9500 596.0400 647.2050 591.4050Q644.4600 586.7700 644.1900 580.2000L644.1900 580.2000Q644.1000 578.8500 644.1000 576.6450Q644.1000 574.4400 644.1900 573L644.1900 573Q644.4600 566.4300 647.2050 561.7950Q649.9500 557.1600 654.8550 554.7300Q659.7600 552.3000 666.2400 552.3000L666.2400 552.3000Q672.0000 552.3000 676.0500 553.8750Q680.1000 555.4500 682.7100 557.9250Q685.3200 560.4000 686.6250 563.0550Q687.9300 565.7100 688.0200 567.8700L688.0200 567.8700Q688.1100 568.8600 687.4350 569.4450Q686.7600 570.0300 685.8600 570.0300L685.8600 570.0300L677.9400 570.0300Q677.0400 570.0300 676.5450 569.5800Q676.0500 569.1300 675.6000 568.2300L675.6000 568.2300Q674.2500 564.6300 672.0450 563.1450Q669.8400 561.6600 666.4200 561.6600L666.4200 561.6600Q661.9200 561.6600 659.2650 564.4950Q656.6100 567.3300 656.4300 573.4500L656.4300 573.4500Q656.2500 576.8700 656.4300 579.7500L656.4300 579.7500Q656.6100 585.9600 659.2650 588.7500Q661.9200 591.5400 666.4200 591.5400L666.4200 591.5400Q669.9300 591.5400 672.0900 590.0550Q674.2500 588.5700 675.6000 584.9700L675.6000 584.9700Q676.0500 584.0700 676.5450 583.6200Q677.0400 583.1700 677.9400 583.1700L677.9400 583.1700L685.8600 583.1700Q686.7600 583.1700 687.4350 583.7550Q688.1100 584.3400 688.0200 585.3300L688.0200 585.3300Q687.9300 586.9500 687.1650 588.9750Q686.4000 591 684.7350 593.1150Q683.0700 595.2300 680.5500 596.9850Q678.0300 598.7400 674.4750 599.8200Q670.9200 600.9000 666.2400 600.9000ZM717.5400 600.9000L717.5400 600.9000Q707.5500 600.9000 701.7000 595.1400Q695.8500 589.3800 695.4000 578.7600L695.4000 578.7600Q695.3100 577.8600 695.3100 576.4650Q695.3100 575.0700 695.4000 574.2600L695.4000 574.2600Q695.7600 567.4200 698.5050 562.5150Q701.2500 557.6100 706.1100 554.9550Q710.9700 552.3000 717.5400 552.3000L717.5400 552.3000Q724.8300 552.3000 729.7800 555.3150Q734.7300 558.3300 737.2500 563.6850Q739.7700 569.0400 739.7700 576.0600L739.7700 576.0600L739.7700 577.9500Q739.7700 578.8500 739.1400 579.4800Q738.5100 580.1100 737.5200 580.1100L737.5200 580.1100L707.6400 580.1100Q707.6400 580.1100 707.6400 580.3800Q707.6400 580.6500 707.6400 580.8300L707.6400 580.8300Q707.7300 583.9800 708.8550 586.6350Q709.9800 589.2900 712.1850 590.9100Q714.3900 592.5300 717.4500 592.5300L717.4500 592.5300Q719.9700 592.5300 721.6800 591.7650Q723.3900 591 724.4700 590.0100Q725.5500 589.0200 726.0000 588.3900L726.0000 588.3900Q726.8100 587.3100 727.3050 587.0850Q727.8000 586.8600 728.7900 586.8600L728.7900 586.8600L736.5300 586.8600Q737.4300 586.8600 738.0150 587.4000Q738.6000 587.9400 738.5100 588.7500L738.5100 588.7500Q738.4200 590.1900 737.0250 592.2600Q735.6300 594.3300 733.0200 596.3100Q730.4100 598.2900 726.4950 599.5950Q722.5800 600.9000 717.5400 600.9000ZM707.6400 572.2800L707.6400 572.5500L727.5300 572.5500L727.5300 572.2800Q727.5300 568.7700 726.3600 566.1150Q725.1900 563.4600 722.9400 561.9750Q720.6900 560.4900 717.5400 560.4900L717.5400 560.4900Q714.3900 560.4900 712.1400 561.9750Q709.8900 563.4600 708.7650 566.1150Q707.6400 568.7700 707.6400 572.2800L707.6400 572.2800ZM759.2100 617.1000L751.5600 617.1000Q750.6600 617.1000 750.0300 616.4700Q749.4000 615.8400 749.4000 614.9400L749.4000 614.9400L749.4000 555.3600Q749.4000 554.4600 750.0300 553.8300Q750.6600 553.2000 751.5600 553.2000L751.5600 553.2000L758.6700 553.2000Q759.6600 553.2000 760.2450 553.8300Q760.8300 554.4600 760.8300 555.3600L760.8300 555.3600L760.8300 558.9600Q762.9900 556.0800 766.5000 554.1900Q770.0100 552.3000 775.2300 552.3000L775.2300 552.3000Q780.0000 552.3000 783.5100 553.8300Q787.0200 555.3600 789.3600 558.1950Q791.7000 561.0300 792.9600 564.9000Q794.2200 568.7700 794.4000 573.4500L794.4000 573.4500Q794.4900 574.9800 794.4900 576.6000Q794.4900 578.2200 794.4000 579.8400L794.4000 579.8400Q794.3100 584.3400 793.0500 588.1650Q791.7900 591.9900 789.4050 594.8250Q787.0200 597.6600 783.5100 599.2800Q780.0000 600.9000 775.2300 600.9000L775.2300 600.9000Q770.3700 600.9000 766.9500 599.1450Q763.5300 597.3900 761.3700 594.5100L761.3700 594.5100L761.3700 614.9400Q761.3700 615.8400 760.7850 616.4700Q760.2000 617.1000 759.2100 617.1000L759.2100 617.1000ZM771.9000 591.2700L771.9000 591.2700Q775.7700 591.2700 777.9300 589.6050Q780.0900 587.9400 781.0800 585.2400Q782.0700 582.5400 782.2500 579.3000L782.2500 579.3000Q782.3400 576.6000 782.2500 573.9000L782.2500 573.9000Q782.0700 570.6600 781.0800 567.9600Q780.0900 565.2600 777.9300 563.5950Q775.7700 561.9300 771.9000 561.9300L771.9000 561.9300Q768.2100 561.9300 765.9150 563.6400Q763.6200 565.3500 762.5850 568.0050Q761.5500 570.6600 761.3700 573.4500L761.3700 573.4500Q761.2800 575.0700 761.2800 576.8700Q761.2800 578.6700 761.3700 580.3800L761.3700 580.3800Q761.4600 583.0800 762.6300 585.5550Q763.8000 588.0300 766.0500 589.6500Q768.3000 591.2700 771.9000 591.2700ZM833.0100 600L825.7200 600Q820.3200 600 816.6300 598.1100Q812.9400 596.2200 811.1400 592.4850Q809.3400 588.7500 809.3400 583.1700L809.3400 583.1700L809.3400 562.7400L802.2300 562.7400Q801.3300 562.7400 800.7000 562.1100Q800.0700 561.4800 800.0700 560.4900L800.0700 560.4900L800.0700 555.3600Q800.0700 554.4600 800.7000 553.8300Q801.3300 553.2000 802.2300 553.2000L802.2300 553.2000L809.3400 553.2000L809.3400 538.2600Q809.3400 537.3600 809.9250 536.7300Q810.5100 536.1000 811.5000 536.1000L811.5000 536.1000L818.7900 536.1000Q819.6900 536.1000 820.3200 536.7300Q820.9500 537.3600 820.9500 538.2600L820.9500 538.2600L820.9500 553.2000L832.2000 553.2000Q833.1000 553.2000 833.7300 553.8300Q834.3600 554.4600 834.3600 555.3600L834.3600 555.3600L834.3600 560.4900Q834.3600 561.4800 833.7300 562.1100Q833.1000 562.7400 832.2000 562.7400L832.2000 562.7400L820.9500 562.7400L820.9500 582.2700Q820.9500 585.9600 822.2550 588.0300Q823.5600 590.1000 826.8000 590.1000L826.8000 590.1000L833.0100 590.1000Q833.9100 590.1000 834.5400 590.7300Q835.1700 591.3600 835.1700 592.2600L835.1700 592.2600L835.1700 597.8400Q835.1700 598.7400 834.5400 599.3700Q833.9100 600 833.0100 600L833.0100 600ZM860.9100 600.9000L860.9100 600.9000Q855.5100 600.9000 851.6850 599.6400Q847.8600 598.3800 845.4300 596.4900Q843.0000 594.6000 841.8300 592.7100Q840.6600 590.8200 840.5700 589.5600L840.5700 589.5600Q840.4800 588.5700 841.1550 587.9850Q841.8300 587.4000 842.6400 587.4000L842.6400 587.4000L849.7500 587.4000Q850.1100 587.4000 850.3800 587.4900Q850.6500 587.5800 851.1000 588.0300L851.1000 588.0300Q852.2700 589.0200 853.5750 590.1000Q854.8800 591.1800 856.6800 591.9450Q858.4800 592.7100 861.1800 592.7100L861.1800 592.7100Q864.6900 592.7100 867.0750 591.3150Q869.4600 589.9200 869.4600 587.3100L869.4600 587.3100Q869.4600 585.4200 868.4250 584.2500Q867.3900 583.0800 864.6000 582.1350Q861.8100 581.1900 856.6800 580.1100L856.6800 580.1100Q851.6400 578.9400 848.3100 577.1400Q844.9800 575.3400 843.3600 572.6400Q841.7400 569.9400 841.7400 566.3400L841.7400 566.3400Q841.7400 562.8300 843.8550 559.6350Q845.9700 556.4400 850.1550 554.3700Q854.3400 552.3000 860.5500 552.3000L860.5500 552.3000Q865.4100 552.3000 869.0100 553.5150Q872.6100 554.7300 874.9950 556.5300Q877.3800 558.3300 878.6400 560.1750Q879.9000 562.0200 879.9900 563.3700L879.9900 563.3700Q880.0800 564.3600 879.4500 564.9450Q878.8200 565.5300 878.0100 565.5300L878.0100 565.5300L871.3500 565.5300Q870.9000 565.5300 870.5400 565.3500Q870.1800 565.1700 869.8200 564.9000L869.8200 564.9000Q868.8300 564 867.6600 562.9650Q866.4900 561.9300 864.8250 561.2100Q863.1600 560.4900 860.4600 560.4900L860.4600 560.4900Q857.0400 560.4900 855.2400 561.9750Q853.4400 563.4600 853.4400 565.7100L853.4400 565.7100Q853.4400 567.2400 854.2950 568.3650Q855.1500 569.4900 857.7600 570.4800Q860.3700 571.4700 865.6800 572.5500L865.6800 572.5500Q871.7100 573.6300 875.2650 575.7450Q878.8200 577.8600 880.3050 580.6050Q881.7900 583.3500 881.7900 586.6800L881.7900 586.6800Q881.7900 590.7300 879.4050 593.9700Q877.0200 597.2100 872.3850 599.0550Q867.7500 600.9000 860.9100 600.9000Z" id="title"/><path d="M1433.4400 652.6400L1433.4400 652.6400Q1412.8000 652.6400 1398.6400 645.8000Q1384.4800 638.9600 1377.1600 627.9200Q1369.8400 616.8800 1369.3600 604.4000L1369.3600 604.4000Q1369.1200 602.2400 1370.6800 600.9200Q1372.2400 599.6000 1374.4000 599.6000L1374.4000 599.6000L1396.7200 599.6000Q1399.3600 599.6000 1401.1600 600.6800Q1402.9600 601.7600 1403.9200 604.4000L1403.9200 604.4000Q1406.3200 611.6000 1410.7600 616.1600Q1415.2000 620.7200 1421.0800 622.8800Q1426.9600 625.0400 1433.4400 625.0400L1433.4400 625.0400Q1442.0800 625.0400 1449.1600 621.5600Q1456.2400 618.0800 1460.5600 611.1200Q1464.8800 604.1600 1464.8800 594.0800L1464.8800 594.0800Q1464.8800 585.2000 1460.8000 578.7200Q1456.7200 572.2400 1449.6400 568.5200Q1442.5600 564.8000 1433.4400 564.8000L1433.4400 564.8000Q1426.7200 564.8000 1422.4000 566.4800Q1418.0800 568.1600 1415.0800 570.3200Q1412.0800 572.4800 1409.8000 574.1600Q1407.5200 575.8400 1404.6400 575.8400L1404.6400 575.8400L1382.5600 575.8400Q1380.4000 575.8400 1378.8400 574.2800Q1377.2800 572.7200 1377.2800 570.5600L1377.2800 570.5600L1385.6800 488.4800Q1385.9200 485.3600 1387.8400 483.6800Q1389.7600 482 1392.4000 482L1392.4000 482L1482.6400 482Q1485.0400 482 1486.7200 483.6800Q1488.4000 485.3600 1488.4000 487.7600L1488.4000 487.7600L1488.4000 503.8400Q1488.4000 506.2400 1486.7200 507.9200Q1485.0400 509.6000 1482.6400 509.6000L1482.6400 509.6000L1413.2800 509.6000L1409.4400 548.7200Q1413.7600 545.8400 1420.9600 543.2000Q1428.1600 540.5600 1440.8800 540.5600L1440.8800 540.5600Q1452.4000 540.5600 1462.8400 544.2800Q1473.2800 548 1481.4400 555.0800Q1489.6000 562.1600 1494.2800 572.1200Q1498.9600 582.0800 1498.9600 594.8000L1498.9600 594.8000Q1498.9600 612.3200 1490.8000 625.2800Q1482.6400 638.2400 1468 645.4400Q1453.3600 652.6400 1433.4400 652.6400ZM1551.2800 650L1527.2800 650Q1524.8800 650 1523.2000 648.3200Q1521.5200 646.6400 1521.5200 644.2400L1521.5200 644.2400L1521.5200 620.4800Q1521.5200 617.8400 1523.2000 616.1600Q1524.8800 614.4800 1527.2800 614.4800L1527.2800 614.4800L1551.2800 614.4800Q1553.6800 614.4800 1555.3600 616.1600Q1557.0400 617.8400 1557.0400 620.4800L1557.0400 620.4800L1557.0400 644.2400Q1557.0400 646.6400 1555.3600 648.3200Q1553.6800 650 1551.2800 650L1551.2800 650ZM1643.9200 650L1622.0800 650Q1619.4400 650 1617.8800 648.3200Q1616.3200 646.6400 1616.3200 644.2400L1616.3200 644.2400L1616.3200 519.9200L1579.8400 548Q1577.6800 549.4400 1575.5200 549.0800Q1573.3600 548.7200 1571.6800 546.5600L1571.6800 546.5600L1561.6000 533.6000Q1560.1600 531.4400 1560.5200 529.0400Q1560.8800 526.6400 1563.0400 525.2000L1563.0400 525.2000L1616.8000 483.6800Q1618.2400 482.4800 1619.6800 482.2400Q1621.1200 482 1622.8000 482L1622.8000 482L1643.9200 482Q1646.3200 482 1648 483.6800Q1649.6800 485.3600 1649.6800 487.7600L1649.6800 487.7600L1649.6800 644.2400Q1649.6800 646.6400 1648 648.3200Q1646.3200 650 1643.9200 650L1643.9200 650Z" id="lecture-full-number"/></g></svg>