<svg xmlns="http://www.w3.org/2000/svg" version="1.1" xmlns:xlink="http://www.w3.org/1999/xlink" xmlns:svgjs="http://svgjs.dev/svgjs" viewBox="0 0 1920 1080" id="17e291d3-2401-4a9c-b17f-f4803d378cca"><g><rect width="1920" height="1080" fill="#cdcdcd"/></g><g fill="#c6ebd7"><path d="M1772.03 -272.371L588.972 1365.72L-152.596 264.737L1772.03 -272.371Z"/></g><g fill="#ffffff" opacity="0.4"><path d="M1506.02 1200.21L1546.07 1148L1100.37 1206.71L1152.58 1246.76L1506.02 1200.21Z"/><path d="M1633.72 1033.77L1005.65 1116.8L997.065 1127.98L1038.42 1159.71L1593.67 1085.97L1633.72 1033.77Z"/><path d="M1680.72 971.813L1720.77 919.609L1093.03 1002.9L1052.98 1055.1L1680.72 971.813Z"/><path d="M1768.1 857.918L1808.15 805.715L1180.08 888.745L1140.03 940.948L1768.1 857.918Z"/><path d="M1855.49 744.015L1895.54 691.812L1267.47 774.843L1227.41 827.046L1855.49 744.015Z"/><path d="M1888.02 637.039L1835.56 597.326L1207.48 680.356L1259.95 720.069L1888.02 637.039Z"/><path d="M1773.86 549.992L1721.66 509.94L1093.59 592.97L1145.79 633.022L1773.86 549.992Z"/><path d="M1659.96 462.605L1607.76 422.554L979.688 505.584L1031.89 545.636L1659.96 462.605Z"/><path d="M1493.52 334.907L939.474 408.492L907.485 450.187L917.993 458.249L1546.07 375.219L1493.52 334.907Z"/><path d="M1431.83 287.574L1379.63 247.522L1026.86 294.596L986.809 346.799L1431.83 287.574Z"/><path d="M1317.93 200.191L1265.47 160.478L1114.17 180.102L1073.86 232.644L1317.93 200.191Z"/><path d="M1161.5 118.408L1203.77 113.145L1179.71 94.6791L1161.5 118.408Z"/><path d="M154.022 1244.21L194.074 1192L-251.626 1250.71L-199.423 1290.76L154.022 1244.21Z"/><path d="M281.72 1077.77L-346.353 1160.8L-354.935 1171.98L-313.579 1203.71L241.669 1129.97L281.72 1077.77Z"/><path d="M328.716 1015.81L368.768 963.609L-258.966 1046.9L-299.018 1099.1L328.716 1015.81Z"/><path d="M416.101 901.918L456.153 849.715L-171.92 932.745L-211.972 984.948L416.101 901.918Z"/><path d="M503.487 788.015L543.539 735.812L-84.5345 818.843L-124.586 871.046L503.487 788.015Z"/><path d="M536.02 681.039L483.557 641.326L-144.517 724.356L-92.0533 764.069L536.02 681.039Z"/><path d="M421.862 593.992L369.659 553.94L-258.414 636.97L-206.211 677.022L421.862 593.992Z"/><path d="M307.964 506.605L255.761 466.554L-372.312 549.584L-320.109 589.636L307.964 506.605Z"/><path d="M141.524 378.907L-412.526 452.492L-444.515 494.187L-434.007 502.249L194.066 419.219L141.524 378.907Z"/><path d="M79.83 331.574L27.6271 291.522L-325.139 338.596L-365.191 390.799L79.83 331.574Z"/></g><g><path d="M178.635 139.281L184.422 144.246V166.626H215.704L219.958 172.147L215.69 177.397H184.422V198.795L178.635 203.747L173 198.795V144.232L178.635 139.281ZM195.554 195.68H219.406L223.397 200.915L219.143 206.45H195.554L191.7 201.342L195.554 195.68ZM196.382 138H219.129L223.383 143.52L219.129 148.77H196.659L192.115 143.677L196.382 138ZM323.155 148.628L328.251 154.291L323.155 159.968H246.13L241.172 154.291L246.13 148.628H323.155ZM237.043 172.147L241.849 167.893L246.669 172.147V178.393C246.669 188.879 249.417 197.515 261.668 197.515H264.14C275.147 197.515 281.197 189.86 281.197 177.952V172.005L285.879 167.75L290.699 171.862V178.379C290.699 189.007 293.723 196.946 305.56 196.946H307.618C319.178 196.946 321.235 187.869 321.373 177.952V171.578L326.056 167.608L331 171.72V178.094C330.862 191.838 327.285 207.574 308.032 207.574H305.974C294.552 207.574 288.365 202.324 285.892 195.808C283.006 202.466 275.299 208.286 264.844 208.286H262.358C242.553 208.286 237.194 195.964 237.056 178.663V172.147H237.043ZM276.391 274.744L273.642 267.089L280.796 264.969L305.974 276.721V252.491L311.07 248.095L316.291 252.491V281.829L325.641 286.226L328.251 293.311L320.959 296L276.391 274.744ZM321.235 223.011L328.113 226.27L325.917 233.497L264.002 263.119L256.571 260.146L259.596 252.776L321.235 223.011ZM231.905 263.404L237.954 268.512C237.402 286.51 222.403 296 204.669 296H202.874C194.062 296 183.759 292.6 177.157 286.083L177.834 278.855L184.298 278.002C189.118 282.256 195.858 285.229 202.183 285.229H204.117C216.091 285.229 225.303 280.136 226.27 268.085L231.905 263.404ZM226.256 251.638C225.704 239.16 216.629 234.209 204.103 234.209H202.169C194.739 234.209 189.104 237.182 184.284 241.436L177.834 240.583L177.143 233.355C183.745 226.696 192.957 223.58 202.597 223.58H204.517C222.403 223.58 237.402 232.942 237.94 251.211L231.891 256.176L226.256 251.638Z" fill="#000000"/></g><path d="M1171 781L1171 339L1187 339L1187 781L1171 781Z" fill="#000000"/><g fill="#000000" id="info-group"><path d="M178.8900 600.9000L178.8900 600.9000Q170.5200 600.9000 164.8950 598.4250Q159.2700 595.9500 156.3450 591.9450Q153.4200 587.9400 153.2400 583.5300L153.2400 583.5300Q153.2400 582.7200 153.7800 582.1800Q154.3200 581.6400 155.1300 581.6400L155.1300 581.6400L163.1400 581.6400Q164.3100 581.6400 164.8950 582.1350Q165.4800 582.6300 165.9300 583.3500L165.9300 583.3500Q166.4700 585.0600 168 586.7250Q169.5300 588.3900 172.1850 589.4700Q174.8400 590.5500 178.8900 590.5500L178.8900 590.5500Q185.3700 590.5500 188.5650 588.3900Q191.7600 586.2300 191.7600 582.5400L191.7600 582.5400Q191.7600 579.9300 190.0500 578.3550Q188.3400 576.7800 184.7850 575.4750Q181.2300 574.1700 175.3800 572.7300L175.3800 572.7300Q168.6300 571.1100 164.0850 568.8150Q159.5400 566.5200 157.2450 563.0100Q154.9500 559.5000 154.9500 554.1000L154.9500 554.1000Q154.9500 548.8800 157.7850 544.8300Q160.6200 540.7800 165.8850 538.4400Q171.1500 536.1000 178.4400 536.1000L178.4400 536.1000Q184.2900 536.1000 188.7900 537.6750Q193.2900 539.2500 196.2600 541.8150Q199.2300 544.3800 200.8050 547.3050Q202.3800 550.2300 202.4700 553.0200L202.4700 553.0200Q202.4700 553.7400 201.9750 554.3250Q201.4800 554.9100 200.5800 554.9100L200.5800 554.9100L192.2100 554.9100Q191.4900 554.9100 190.7700 554.5500Q190.0500 554.1900 189.6000 553.2000L189.6000 553.2000Q189.0600 550.4100 186.0900 548.4300Q183.1200 546.4500 178.4400 546.4500L178.4400 546.4500Q173.5800 546.4500 170.6100 548.2500Q167.6400 550.0500 167.6400 553.8300L167.6400 553.8300Q167.6400 556.3500 169.1250 558.0150Q170.6100 559.6800 173.8950 560.9400Q177.1800 562.2000 182.5800 563.6400L182.5800 563.6400Q190.2300 565.3500 195.0900 567.6000Q199.9500 569.8500 202.2000 573.3150Q204.4500 576.7800 204.4500 582.0900L204.4500 582.0900Q204.4500 588.0300 201.2550 592.2150Q198.0600 596.4000 192.3000 598.6500Q186.5400 600.9000 178.8900 600.9000ZM227.3100 600.9000L227.3100 600.9000Q222.6300 600.9000 218.8500 599.0550Q215.0700 597.2100 212.8650 594.1050Q210.6600 591 210.6600 587.1300L210.6600 587.1300Q210.6600 580.8300 215.7900 577.0950Q220.9200 573.3600 229.2000 572.1000L229.2000 572.1000L241.5300 570.3000L241.5300 568.4100Q241.5300 564.6300 239.6400 562.5600Q237.7500 560.4900 233.1600 560.4900L233.1600 560.4900Q229.9200 560.4900 227.8950 561.7950Q225.8700 563.1000 224.8800 565.2600L224.8800 565.2600Q224.1600 566.4300 222.8100 566.4300L222.8100 566.4300L215.7000 566.4300Q214.7100 566.4300 214.2150 565.8900Q213.7200 565.3500 213.7200 564.4500L213.7200 564.4500Q213.8100 563.0100 214.9350 560.9400Q216.0600 558.8700 218.3550 556.9350Q220.6500 555 224.3400 553.6500Q228.0300 552.3000 233.2500 552.3000L233.2500 552.3000Q238.9200 552.3000 242.8350 553.6950Q246.7500 555.0900 249.0900 557.4300Q251.4300 559.7700 252.5100 562.9200Q253.5900 566.0700 253.5900 569.5800L253.5900 569.5800L253.5900 597.8400Q253.5900 598.7400 252.9600 599.3700Q252.3300 600 251.4300 600L251.4300 600L244.1400 600Q243.1500 600 242.5650 599.3700Q241.9800 598.7400 241.9800 597.8400L241.9800 597.8400L241.9800 594.3300Q240.8100 595.9500 238.8300 597.4800Q236.8500 599.0100 234.0150 599.9550Q231.1800 600.9000 227.3100 600.9000ZM230.3700 592.3500L230.3700 592.3500Q233.5200 592.3500 236.0850 591Q238.6500 589.6500 240.1350 586.8150Q241.6200 583.9800 241.6200 579.6600L241.6200 579.6600L241.6200 577.7700L232.6200 579.2100Q227.3100 580.0200 224.7000 581.8200Q222.0900 583.6200 222.0900 586.2300L222.0900 586.2300Q222.0900 588.2100 223.3050 589.6050Q224.5200 591 226.4100 591.6750Q228.3000 592.3500 230.3700 592.3500ZM282.8400 600.9000L282.8400 600.9000Q277.4400 600.9000 273.6150 599.6400Q269.7900 598.3800 267.3600 596.4900Q264.9300 594.6000 263.7600 592.7100Q262.5900 590.8200 262.5000 589.5600L262.5000 589.5600Q262.4100 588.5700 263.0850 587.9850Q263.7600 587.4000 264.5700 587.4000L264.5700 587.4000L271.6800 587.4000Q272.0400 587.4000 272.3100 587.4900Q272.5800 587.5800 273.0300 588.0300L273.0300 588.0300Q274.2000 589.0200 275.5050 590.1000Q276.8100 591.1800 278.6100 591.9450Q280.4100 592.7100 283.1100 592.7100L283.1100 592.7100Q286.6200 592.7100 289.0050 591.3150Q291.3900 589.9200 291.3900 587.3100L291.3900 587.3100Q291.3900 585.4200 290.3550 584.2500Q289.3200 583.0800 286.5300 582.1350Q283.7400 581.1900 278.6100 580.1100L278.6100 580.1100Q273.5700 578.9400 270.2400 577.1400Q266.9100 575.3400 265.2900 572.6400Q263.6700 569.9400 263.6700 566.3400L263.6700 566.3400Q263.6700 562.8300 265.7850 559.6350Q267.9000 556.4400 272.0850 554.3700Q276.2700 552.3000 282.4800 552.3000L282.4800 552.3000Q287.3400 552.3000 290.9400 553.5150Q294.5400 554.7300 296.9250 556.5300Q299.3100 558.3300 300.5700 560.1750Q301.8300 562.0200 301.9200 563.3700L301.9200 563.3700Q302.0100 564.3600 301.3800 564.9450Q300.7500 565.5300 299.9400 565.5300L299.9400 565.5300L293.2800 565.5300Q292.8300 565.5300 292.4700 565.3500Q292.1100 565.1700 291.7500 564.9000L291.7500 564.9000Q290.7600 564 289.5900 562.9650Q288.4200 561.9300 286.7550 561.2100Q285.0900 560.4900 282.3900 560.4900L282.3900 560.4900Q278.9700 560.4900 277.1700 561.9750Q275.3700 563.4600 275.3700 565.7100L275.3700 565.7100Q275.3700 567.2400 276.2250 568.3650Q277.0800 569.4900 279.6900 570.4800Q282.3000 571.4700 287.6100 572.5500L287.6100 572.5500Q293.6400 573.6300 297.1950 575.7450Q300.7500 577.8600 302.2350 580.6050Q303.7200 583.3500 303.7200 586.6800L303.7200 586.6800Q303.7200 590.7300 301.3350 593.9700Q298.9500 597.2100 294.3150 599.0550Q289.6800 600.9000 282.8400 600.9000ZM330.7200 600.9000L330.7200 600.9000Q325.3200 600.9000 321.4950 599.6400Q317.6700 598.3800 315.2400 596.4900Q312.8100 594.6000 311.6400 592.7100Q310.4700 590.8200 310.3800 589.5600L310.3800 589.5600Q310.2900 588.5700 310.9650 587.9850Q311.6400 587.4000 312.4500 587.4000L312.4500 587.4000L319.5600 587.4000Q319.9200 587.4000 320.1900 587.4900Q320.4600 587.5800 320.9100 588.0300L320.9100 588.0300Q322.0800 589.0200 323.3850 590.1000Q324.6900 591.1800 326.4900 591.9450Q328.2900 592.7100 330.9900 592.7100L330.9900 592.7100Q334.5000 592.7100 336.8850 591.3150Q339.2700 589.9200 339.2700 587.3100L339.2700 587.3100Q339.2700 585.4200 338.2350 584.2500Q337.2000 583.0800 334.4100 582.1350Q331.6200 581.1900 326.4900 580.1100L326.4900 580.1100Q321.4500 578.9400 318.1200 577.1400Q314.7900 575.3400 313.1700 572.6400Q311.5500 569.9400 311.5500 566.3400L311.5500 566.3400Q311.5500 562.8300 313.6650 559.6350Q315.7800 556.4400 319.9650 554.3700Q324.1500 552.3000 330.3600 552.3000L330.3600 552.3000Q335.2200 552.3000 338.8200 553.5150Q342.4200 554.7300 344.8050 556.5300Q347.1900 558.3300 348.4500 560.1750Q349.7100 562.0200 349.8000 563.3700L349.8000 563.3700Q349.8900 564.3600 349.2600 564.9450Q348.6300 565.5300 347.8200 565.5300L347.8200 565.5300L341.1600 565.5300Q340.7100 565.5300 340.3500 565.3500Q339.9900 565.1700 339.6300 564.9000L339.6300 564.9000Q338.6400 564 337.4700 562.9650Q336.3000 561.9300 334.6350 561.2100Q332.9700 560.4900 330.2700 560.4900L330.2700 560.4900Q326.8500 560.4900 325.0500 561.9750Q323.2500 563.4600 323.2500 565.7100L323.2500 565.7100Q323.2500 567.2400 324.1050 568.3650Q324.9600 569.4900 327.5700 570.4800Q330.1800 571.4700 335.4900 572.5500L335.4900 572.5500Q341.5200 573.6300 345.0750 575.7450Q348.6300 577.8600 350.1150 580.6050Q351.6000 583.3500 351.6000 586.6800L351.6000 586.6800Q351.6000 590.7300 349.2150 593.9700Q346.8300 597.2100 342.1950 599.0550Q337.5600 600.9000 330.7200 600.9000Z" id="title"/><path d="M1448.3400 640L1343.1800 640Q1340.9800 640 1339.4400 638.4600Q1337.9000 636.9200 1337.9000 634.7200L1337.9000 634.7200L1337.9000 623.5000Q1337.9000 621.5200 1338.8900 618.7700Q1339.8800 616.0200 1343.4000 613.1600L1343.4000 613.1600L1378.1600 578.6200Q1392.6800 567.1800 1401.5900 559.1500Q1410.5000 551.1200 1414.5700 544.4100Q1418.6400 537.7000 1418.6400 531.1000L1418.6400 531.1000Q1418.6400 521.2000 1413.2500 515.0400Q1407.8600 508.8800 1396.2000 508.8800L1396.2000 508.8800Q1388.5000 508.8800 1383.2200 512.0700Q1377.9400 515.2600 1374.9700 520.5400Q1372 525.8200 1370.9000 532.2000L1370.9000 532.2000Q1370.4600 535.0600 1368.4800 536.1600Q1366.5000 537.2600 1364.5200 537.2600L1364.5200 537.2600L1344.9400 537.2600Q1342.9600 537.2600 1341.6400 535.9400Q1340.3200 534.6200 1340.3200 532.8600L1340.3200 532.8600Q1340.5400 523.4000 1344.2800 514.4900Q1348.0200 505.5800 1355.1700 498.6500Q1362.3200 491.7200 1372.6600 487.5400Q1383 483.3600 1395.9800 483.3600L1395.9800 483.3600Q1414.2400 483.3600 1426.2300 489.5200Q1438.2200 495.6800 1444.2700 506.2400Q1450.3200 516.8000 1450.3200 530L1450.3200 530Q1450.3200 540.3400 1446.3600 549.0300Q1442.4000 557.7200 1434.9200 565.7500Q1427.4400 573.7800 1416.8800 582.1400L1416.8800 582.1400L1385.6400 613.8200L1448.3400 613.8200Q1450.7600 613.8200 1452.1900 615.2500Q1453.6200 616.6800 1453.6200 619.1000L1453.6200 619.1000L1453.6200 634.7200Q1453.6200 636.9200 1452.1900 638.4600Q1450.7600 640 1448.3400 640L1448.3400 640ZM1536.3400 642.2000L1536.3400 642.2000Q1520.7200 642.2000 1509.7200 637.5800Q1498.7200 632.9600 1491.6800 624.8200Q1484.6400 616.6800 1481.1200 606.0100Q1477.6000 595.3400 1476.9400 583.2400L1476.9400 583.2400Q1476.7200 577.3000 1476.6100 570.1500Q1476.5000 563 1476.6100 555.7400Q1476.7200 548.4800 1476.9400 542.3200L1476.9400 542.3200Q1477.3800 530.2200 1481.1200 519.5500Q1484.8600 508.8800 1492.0100 500.9600Q1499.1600 493.0400 1510.1600 488.4200Q1521.1600 483.8000 1536.3400 483.8000L1536.3400 483.8000Q1551.7400 483.8000 1562.7400 488.4200Q1573.7400 493.0400 1580.8900 500.9600Q1588.0400 508.8800 1591.6700 519.5500Q1595.3000 530.2200 1595.7400 542.3200L1595.7400 542.3200Q1596.1800 548.4800 1596.1800 555.7400Q1596.1800 563 1596.1800 570.1500Q1596.1800 577.3000 1595.7400 583.2400L1595.7400 583.2400Q1595.3000 595.3400 1591.7800 606.0100Q1588.2600 616.6800 1581.2200 624.8200Q1574.1800 632.9600 1563.0700 637.5800Q1551.9600 642.2000 1536.3400 642.2000ZM1536.3400 616.9000L1536.3400 616.9000Q1550.6400 616.9000 1557.3500 607.5500Q1564.0600 598.2000 1564.2800 582.1400L1564.2800 582.1400Q1564.7200 575.7600 1564.7200 569.2700Q1564.7200 562.7800 1564.7200 556.1800Q1564.7200 549.5800 1564.2800 543.6400L1564.2800 543.6400Q1564.0600 528.0200 1557.3500 518.4500Q1550.6400 508.8800 1536.3400 508.8800L1536.3400 508.8800Q1522.2600 508.8800 1515.5500 518.4500Q1508.8400 528.0200 1508.4000 543.6400L1508.4000 543.6400Q1508.4000 549.5800 1508.2900 556.1800Q1508.1800 562.7800 1508.2900 569.2700Q1508.4000 575.7600 1508.4000 582.1400L1508.4000 582.1400Q1508.8400 598.2000 1515.6600 607.5500Q1522.4800 616.9000 1536.3400 616.9000ZM1646.7800 640L1624.7800 640Q1622.5800 640 1621.0400 638.4600Q1619.5000 636.9200 1619.5000 634.7200L1619.5000 634.7200L1619.5000 612.9400Q1619.5000 610.5200 1621.0400 608.9800Q1622.5800 607.4400 1624.7800 607.4400L1624.7800 607.4400L1646.7800 607.4400Q1648.9800 607.4400 1650.5200 608.9800Q1652.0600 610.5200 1652.0600 612.9400L1652.0600 612.9400L1652.0600 634.7200Q1652.0600 636.9200 1650.5200 638.4600Q1648.9800 640 1646.7800 640L1646.7800 640ZM1785.6000 640L1680.4400 640Q1678.2400 640 1676.7000 638.4600Q1675.1600 636.9200 1675.1600 634.7200L1675.1600 634.7200L1675.1600 623.5000Q1675.1600 621.5200 1676.1500 618.7700Q1677.1400 616.0200 1680.6600 613.1600L1680.6600 613.1600L1715.4200 578.6200Q1729.9400 567.1800 1738.8500 559.1500Q1747.7600 551.1200 1751.8300 544.4100Q1755.9000 537.7000 1755.9000 531.1000L1755.9000 531.1000Q1755.9000 521.2000 1750.5100 515.0400Q1745.1200 508.8800 1733.4600 508.8800L1733.4600 508.8800Q1725.7600 508.8800 1720.4800 512.0700Q1715.2000 515.2600 1712.2300 520.5400Q1709.2600 525.8200 1708.1600 532.2000L1708.1600 532.2000Q1707.7200 535.0600 1705.7400 536.1600Q1703.7600 537.2600 1701.7800 537.2600L1701.7800 537.2600L1682.2000 537.2600Q1680.2200 537.2600 1678.9000 535.9400Q1677.5800 534.6200 1677.5800 532.8600L1677.5800 532.8600Q1677.8000 523.4000 1681.5400 514.4900Q1685.2800 505.5800 1692.4300 498.6500Q1699.5800 491.7200 1709.9200 487.5400Q1720.2600 483.3600 1733.2400 483.3600L1733.2400 483.3600Q1751.5000 483.3600 1763.4900 489.5200Q1775.4800 495.6800 1781.5300 506.2400Q1787.5800 516.8000 1787.5800 530L1787.5800 530Q1787.5800 540.3400 1783.6200 549.0300Q1779.6600 557.7200 1772.1800 565.7500Q1764.7000 573.7800 1754.1400 582.1400L1754.1400 582.1400L1722.9000 613.8200L1785.6000 613.8200Q1788.0200 613.8200 1789.4500 615.2500Q1790.8800 616.6800 1790.8800 619.1000L1790.8800 619.1000L1790.8800 634.7200Q1790.8800 636.9200 1789.4500 638.4600Q1788.0200 640 1785.6000 640L1785.6000 640Z" id="lecture-full-number"/></g></svg>