<svg xmlns="http://www.w3.org/2000/svg" version="1.1" xmlns:xlink="http://www.w3.org/1999/xlink" xmlns:svgjs="http://svgjs.dev/svgjs" viewBox="0 0 1920 1080" id="82a1a802-bd66-4894-8b1a-f3fcfff40b59"><g><rect width="1920" height="1080" fill="#3b5c7c"/></g><g fill="#757d2f"><path d="M1772.03 -272.371L588.972 1365.72L-152.596 264.737L1772.03 -272.371Z"/></g><g fill="#ffffff" opacity="0.2"><path d="M1506.02 1200.21L1546.07 1148L1100.37 1206.71L1152.58 1246.76L1506.02 1200.21Z"/><path d="M1633.72 1033.77L1005.65 1116.8L997.065 1127.98L1038.42 1159.71L1593.67 1085.97L1633.72 1033.77Z"/><path d="M1680.72 971.813L1720.77 919.609L1093.03 1002.9L1052.98 1055.1L1680.72 971.813Z"/><path d="M1768.1 857.918L1808.15 805.715L1180.08 888.745L1140.03 940.948L1768.1 857.918Z"/><path d="M1855.49 744.015L1895.54 691.812L1267.47 774.843L1227.41 827.046L1855.49 744.015Z"/><path d="M1888.02 637.039L1835.56 597.326L1207.48 680.356L1259.95 720.069L1888.02 637.039Z"/><path d="M1773.86 549.992L1721.66 509.94L1093.59 592.97L1145.79 633.022L1773.86 549.992Z"/><path d="M1659.96 462.605L1607.76 422.554L979.688 505.584L1031.89 545.636L1659.96 462.605Z"/><path d="M1493.52 334.907L939.474 408.492L907.485 450.187L917.993 458.249L1546.07 375.219L1493.52 334.907Z"/><path d="M1431.83 287.574L1379.63 247.522L1026.86 294.596L986.809 346.799L1431.83 287.574Z"/><path d="M1317.93 200.191L1265.47 160.478L1114.17 180.102L1073.86 232.644L1317.93 200.191Z"/><path d="M1161.5 118.408L1203.77 113.145L1179.71 94.6791L1161.5 118.408Z"/><path d="M154.022 1244.21L194.074 1192L-251.626 1250.71L-199.423 1290.76L154.022 1244.21Z"/><path d="M281.72 1077.77L-346.353 1160.8L-354.935 1171.98L-313.579 1203.71L241.669 1129.97L281.72 1077.77Z"/><path d="M328.716 1015.81L368.768 963.609L-258.966 1046.9L-299.018 1099.1L328.716 1015.81Z"/><path d="M416.101 901.918L456.153 849.715L-171.92 932.745L-211.972 984.948L416.101 901.918Z"/><path d="M503.487 788.015L543.539 735.812L-84.5345 818.843L-124.586 871.046L503.487 788.015Z"/><path d="M536.02 681.039L483.557 641.326L-144.517 724.356L-92.0533 764.069L536.02 681.039Z"/><path d="M421.862 593.992L369.659 553.94L-258.414 636.97L-206.211 677.022L421.862 593.992Z"/><path d="M307.964 506.605L255.761 466.554L-372.312 549.584L-320.109 589.636L307.964 506.605Z"/><path d="M141.524 378.907L-412.526 452.492L-444.515 494.187L-434.007 502.249L194.066 419.219L141.524 378.907Z"/><path d="M79.83 331.574L27.6271 291.522L-325.139 338.596L-365.191 390.799L79.83 331.574Z"/></g><g><path d="M178.635 139.281L184.422 144.246V166.626H215.704L219.958 172.147L215.69 177.397H184.422V198.795L178.635 203.747L173 198.795V144.232L178.635 139.281ZM195.554 195.68H219.406L223.397 200.915L219.143 206.45H195.554L191.7 201.342L195.554 195.68ZM196.382 138H219.129L223.383 143.52L219.129 148.77H196.659L192.115 143.677L196.382 138ZM323.155 148.628L328.251 154.291L323.155 159.968H246.13L241.172 154.291L246.13 148.628H323.155ZM237.043 172.147L241.849 167.893L246.669 172.147V178.393C246.669 188.879 249.417 197.515 261.668 197.515H264.14C275.147 197.515 281.197 189.86 281.197 177.952V172.005L285.879 167.75L290.699 171.862V178.379C290.699 189.007 293.723 196.946 305.56 196.946H307.618C319.178 196.946 321.235 187.869 321.373 177.952V171.578L326.056 167.608L331 171.72V178.094C330.862 191.838 327.285 207.574 308.032 207.574H305.974C294.552 207.574 288.365 202.324 285.892 195.808C283.006 202.466 275.299 208.286 264.844 208.286H262.358C242.553 208.286 237.194 195.964 237.056 178.663V172.147H237.043ZM276.391 274.744L273.642 267.089L280.796 264.969L305.974 276.721V252.491L311.07 248.095L316.291 252.491V281.829L325.641 286.226L328.251 293.311L320.959 296L276.391 274.744ZM321.235 223.011L328.113 226.27L325.917 233.497L264.002 263.119L256.571 260.146L259.596 252.776L321.235 223.011ZM231.905 263.404L237.954 268.512C237.402 286.51 222.403 296 204.669 296H202.874C194.062 296 183.759 292.6 177.157 286.083L177.834 278.855L184.298 278.002C189.118 282.256 195.858 285.229 202.183 285.229H204.117C216.091 285.229 225.303 280.136 226.27 268.085L231.905 263.404ZM226.256 251.638C225.704 239.16 216.629 234.209 204.103 234.209H202.169C194.739 234.209 189.104 237.182 184.284 241.436L177.834 240.583L177.143 233.355C183.745 226.696 192.957 223.58 202.597 223.58H204.517C222.403 223.58 237.402 232.942 237.94 251.211L231.891 256.176L226.256 251.638Z" fill="#ffffff"/></g><path d="M1171 781L1171 339L1187 339L1187 781L1171 781Z" fill="#ffffff"/><g fill="#ffffff" id="info-group"><path d="M181.5000 600.9000L181.5000 600.9000Q173.2200 600.9000 167.4150 598.0200Q161.6100 595.1400 158.4150 589.6950Q155.2200 584.2500 154.9500 576.6900L154.9500 576.6900Q154.8600 572.8200 154.8600 568.3650Q154.8600 563.9100 154.9500 559.9500L154.9500 559.9500Q155.2200 552.4800 158.4150 547.1700Q161.6100 541.8600 167.5050 538.9800Q173.4000 536.1000 181.5000 536.1000L181.5000 536.1000Q188.0700 536.1000 193.0200 537.8550Q197.9700 539.6100 201.2550 542.3550Q204.5400 545.1000 206.2050 548.2500Q207.8700 551.4000 207.9600 554.1000L207.9600 554.1000Q208.0500 554.9100 207.5100 555.4500Q206.9700 555.9900 206.0700 555.9900L206.0700 555.9900L196.8000 555.9900Q195.9000 555.9900 195.4500 555.6300Q195 555.2700 194.6400 554.5500L194.6400 554.5500Q193.9200 552.6600 192.3900 550.8150Q190.8600 548.9700 188.2500 547.7100Q185.6400 546.4500 181.5000 546.4500L181.5000 546.4500Q175.3800 546.4500 171.7350 549.6900Q168.0900 552.9300 167.8200 560.4000L167.8200 560.4000Q167.5500 568.2300 167.8200 576.2400L167.8200 576.2400Q168.0900 583.8900 171.8250 587.2200Q175.5600 590.5500 181.6800 590.5500L181.6800 590.5500Q185.7300 590.5500 188.9250 589.1100Q192.1200 587.6700 193.9650 584.6100Q195.8100 581.5500 195.8100 576.7800L195.8100 576.7800L195.8100 573.9900L184.8300 573.9900Q183.9300 573.9900 183.3000 573.3600Q182.6700 572.7300 182.6700 571.7400L182.6700 571.7400L182.6700 566.9700Q182.6700 565.9800 183.3000 565.3500Q183.9300 564.7200 184.8300 564.7200L184.8300 564.7200L206.3400 564.7200Q207.3300 564.7200 207.9150 565.3500Q208.5000 565.9800 208.5000 566.9700L208.5000 566.9700L208.5000 576.4200Q208.5000 583.9800 205.2150 589.4700Q201.9300 594.9600 195.8550 597.9300Q189.7800 600.9000 181.5000 600.9000ZM236.3100 600.9000L236.3100 600.9000Q230.8200 600.9000 226.8150 598.4250Q222.8100 595.9500 220.6500 591.4050Q218.4900 586.8600 218.4900 580.6500L218.4900 580.6500L218.4900 555.3600Q218.4900 554.4600 219.1200 553.8300Q219.7500 553.2000 220.6500 553.2000L220.6500 553.2000L228.5700 553.2000Q229.5600 553.2000 230.1450 553.8300Q230.7300 554.4600 230.7300 555.3600L230.7300 555.3600L230.7300 580.1100Q230.7300 591.2700 240.5400 591.2700L240.5400 591.2700Q245.2200 591.2700 247.9650 588.3000Q250.7100 585.3300 250.7100 580.1100L250.7100 580.1100L250.7100 555.3600Q250.7100 554.4600 251.3400 553.8300Q251.9700 553.2000 252.8700 553.2000L252.8700 553.2000L260.7900 553.2000Q261.6900 553.2000 262.3200 553.8300Q262.9500 554.4600 262.9500 555.3600L262.9500 555.3600L262.9500 597.8400Q262.9500 598.7400 262.3200 599.3700Q261.6900 600 260.7900 600L260.7900 600L253.5000 600Q252.5100 600 251.9250 599.3700Q251.3400 598.7400 251.3400 597.8400L251.3400 597.8400L251.3400 594.1500Q248.9100 597.3000 245.3100 599.1000Q241.7100 600.9000 236.3100 600.9000ZM284.5500 600L277.0800 600Q276.1800 600 275.5500 599.3700Q274.9200 598.7400 274.9200 597.8400L274.9200 597.8400L274.9200 538.2600Q274.9200 537.3600 275.5500 536.7300Q276.1800 536.1000 277.0800 536.1000L277.0800 536.1000L284.5500 536.1000Q285.4500 536.1000 286.0800 536.7300Q286.7100 537.3600 286.7100 538.2600L286.7100 538.2600L286.7100 597.8400Q286.7100 598.7400 286.0800 599.3700Q285.4500 600 284.5500 600L284.5500 600ZM308.5800 617.1000L300.9300 617.1000Q300.0300 617.1000 299.4000 616.4700Q298.7700 615.8400 298.7700 614.9400L298.7700 614.9400L298.7700 555.3600Q298.7700 554.4600 299.4000 553.8300Q300.0300 553.2000 300.9300 553.2000L300.9300 553.2000L308.0400 553.2000Q309.0300 553.2000 309.6150 553.8300Q310.2000 554.4600 310.2000 555.3600L310.2000 555.3600L310.2000 558.9600Q312.3600 556.0800 315.8700 554.1900Q319.3800 552.3000 324.6000 552.3000L324.6000 552.3000Q329.3700 552.3000 332.8800 553.8300Q336.3900 555.3600 338.7300 558.1950Q341.0700 561.0300 342.3300 564.9000Q343.5900 568.7700 343.7700 573.4500L343.7700 573.4500Q343.8600 574.9800 343.8600 576.6000Q343.8600 578.2200 343.7700 579.8400L343.7700 579.8400Q343.6800 584.3400 342.4200 588.1650Q341.1600 591.9900 338.7750 594.8250Q336.3900 597.6600 332.8800 599.2800Q329.3700 600.9000 324.6000 600.9000L324.6000 600.9000Q319.7400 600.9000 316.3200 599.1450Q312.9000 597.3900 310.7400 594.5100L310.7400 594.5100L310.7400 614.9400Q310.7400 615.8400 310.1550 616.4700Q309.5700 617.1000 308.5800 617.1000L308.5800 617.1000ZM321.2700 591.2700L321.2700 591.2700Q325.1400 591.2700 327.3000 589.6050Q329.4600 587.9400 330.4500 585.2400Q331.4400 582.5400 331.6200 579.3000L331.6200 579.3000Q331.7100 576.6000 331.6200 573.9000L331.6200 573.9000Q331.4400 570.6600 330.4500 567.9600Q329.4600 565.2600 327.3000 563.5950Q325.1400 561.9300 321.2700 561.9300L321.2700 561.9300Q317.5800 561.9300 315.2850 563.6400Q312.9900 565.3500 311.9550 568.0050Q310.9200 570.6600 310.7400 573.4500L310.7400 573.4500Q310.6500 575.0700 310.6500 576.8700Q310.6500 578.6700 310.7400 580.3800L310.7400 580.3800Q310.8300 583.0800 312 585.5550Q313.1700 588.0300 315.4200 589.6500Q317.6700 591.2700 321.2700 591.2700ZM386.2500 600L377.7900 600Q376.8900 600 376.2600 599.3700Q375.6300 598.7400 375.6300 597.8400L375.6300 597.8400L375.6300 539.1600Q375.6300 538.2600 376.2600 537.6300Q376.8900 537 377.7900 537L377.7900 537L386.2500 537Q387.2400 537 387.8250 537.6300Q388.4100 538.2600 388.4100 539.1600L388.4100 539.1600L388.4100 597.8400Q388.4100 598.7400 387.8250 599.3700Q387.2400 600 386.2500 600L386.2500 600ZM413.1600 600L404.7000 600Q403.8000 600 403.1700 599.3700Q402.5400 598.7400 402.5400 597.8400L402.5400 597.8400L402.5400 539.1600Q402.5400 538.2600 403.1700 537.6300Q403.8000 537 404.7000 537L404.7000 537L413.1600 537Q414.1500 537 414.7350 537.6300Q415.3200 538.2600 415.3200 539.1600L415.3200 539.1600L415.3200 597.8400Q415.3200 598.7400 414.7350 599.3700Q414.1500 600 413.1600 600L413.1600 600Z" id="title"/><path d="M1408.9600 640L1388.9400 640Q1386.5200 640 1385.0900 638.4600Q1383.6600 636.9200 1383.6600 634.7200L1383.6600 634.7200L1383.6600 520.7600L1350.2200 546.5000Q1348.2400 547.8200 1346.2600 547.4900Q1344.2800 547.1600 1342.7400 545.1800L1342.7400 545.1800L1333.5000 533.3000Q1332.1800 531.3200 1332.5100 529.1200Q1332.8400 526.9200 1334.8200 525.6000L1334.8200 525.6000L1384.1000 487.5400Q1385.4200 486.4400 1386.7400 486.2200Q1388.0600 486 1389.6000 486L1389.6000 486L1408.9600 486Q1411.1600 486 1412.7000 487.5400Q1414.2400 489.0800 1414.2400 491.2800L1414.2400 491.2800L1414.2400 634.7200Q1414.2400 636.9200 1412.7000 638.4600Q1411.1600 640 1408.9600 640L1408.9600 640ZM1490.8000 640L1470.3400 640Q1468.3600 640 1467.0400 638.5700Q1465.7200 637.1400 1465.7200 635.1600L1465.7200 635.1600Q1465.7200 634.0600 1466.0500 633.4000Q1466.3800 632.7400 1466.6000 632.3000L1466.6000 632.3000L1498.9400 587.6400Q1494.7600 588.7400 1489.9200 588.5200L1489.9200 588.5200Q1478.7000 588.3000 1469.1300 584.2300Q1459.5600 580.1600 1452.4100 573.2300Q1445.2600 566.3000 1441.1900 557.1700Q1437.1200 548.0400 1437.1200 537.2600L1437.1200 537.2600Q1437.1200 527.3600 1440.8600 517.7900Q1444.6000 508.2200 1451.9700 500.5200Q1459.3400 492.8200 1470.4500 488.3100Q1481.5600 483.8000 1496.5200 483.8000L1496.5200 483.8000Q1511.2600 483.8000 1522.4800 487.9800Q1533.7000 492.1600 1541.2900 499.5300Q1548.8800 506.9000 1552.7300 516.3600Q1556.5800 525.8200 1556.5800 536.3800L1556.5800 536.3800Q1556.5800 545.8400 1553.5000 553.9800Q1550.4200 562.1200 1545.9100 568.8300Q1541.4000 575.5400 1537 581.9200L1537 581.9200L1498.2800 635.6000Q1497.4000 636.7000 1495.7500 638.3500Q1494.1000 640 1490.8000 640L1490.8000 640ZM1496.7400 565.2000L1496.7400 565.2000Q1504.6600 565.2000 1511.1500 561.7900Q1517.6400 558.3800 1521.4900 552.1100Q1525.3400 545.8400 1525.3400 537.2600L1525.3400 537.2600Q1525.3400 528.4600 1521.4900 522.1900Q1517.6400 515.9200 1511.0400 512.5100Q1504.4400 509.1000 1496.7400 509.1000L1496.7400 509.1000Q1488.8200 509.1000 1482.3300 512.5100Q1475.8400 515.9200 1471.9900 522.1900Q1468.1400 528.4600 1468.1400 537.2600L1468.1400 537.2600Q1468.1400 545.8400 1471.9900 552.1100Q1475.8400 558.3800 1482.3300 561.7900Q1488.8200 565.2000 1496.7400 565.2000ZM1593.3200 640L1571.3200 640Q1569.1200 640 1567.5800 638.4600Q1566.0400 636.9200 1566.0400 634.7200L1566.0400 634.7200L1566.0400 612.9400Q1566.0400 610.5200 1567.5800 608.9800Q1569.1200 607.4400 1571.3200 607.4400L1571.3200 607.4400L1593.3200 607.4400Q1595.5200 607.4400 1597.0600 608.9800Q1598.6000 610.5200 1598.6000 612.9400L1598.6000 612.9400L1598.6000 634.7200Q1598.6000 636.9200 1597.0600 638.4600Q1595.5200 640 1593.3200 640L1593.3200 640ZM1732.1400 640L1626.9800 640Q1624.7800 640 1623.2400 638.4600Q1621.7000 636.9200 1621.7000 634.7200L1621.7000 634.7200L1621.7000 623.5000Q1621.7000 621.5200 1622.6900 618.7700Q1623.6800 616.0200 1627.2000 613.1600L1627.2000 613.1600L1661.9600 578.6200Q1676.4800 567.1800 1685.3900 559.1500Q1694.3000 551.1200 1698.3700 544.4100Q1702.4400 537.7000 1702.4400 531.1000L1702.4400 531.1000Q1702.4400 521.2000 1697.0500 515.0400Q1691.6600 508.8800 1680 508.8800L1680 508.8800Q1672.3000 508.8800 1667.0200 512.0700Q1661.7400 515.2600 1658.7700 520.5400Q1655.8000 525.8200 1654.7000 532.2000L1654.7000 532.2000Q1654.2600 535.0600 1652.2800 536.1600Q1650.3000 537.2600 1648.3200 537.2600L1648.3200 537.2600L1628.7400 537.2600Q1626.7600 537.2600 1625.4400 535.9400Q1624.1200 534.6200 1624.1200 532.8600L1624.1200 532.8600Q1624.3400 523.4000 1628.0800 514.4900Q1631.8200 505.5800 1638.9700 498.6500Q1646.1200 491.7200 1656.4600 487.5400Q1666.8000 483.3600 1679.7800 483.3600L1679.7800 483.3600Q1698.0400 483.3600 1710.0300 489.5200Q1722.0200 495.6800 1728.0700 506.2400Q1734.1200 516.8000 1734.1200 530L1734.1200 530Q1734.1200 540.3400 1730.1600 549.0300Q1726.2000 557.7200 1718.7200 565.7500Q1711.2400 573.7800 1700.6800 582.1400L1700.6800 582.1400L1669.4400 613.8200L1732.1400 613.8200Q1734.5600 613.8200 1735.9900 615.2500Q1737.4200 616.6800 1737.4200 619.1000L1737.4200 619.1000L1737.4200 634.7200Q1737.4200 636.9200 1735.9900 638.4600Q1734.5600 640 1732.1400 640L1732.1400 640Z" id="lecture-full-number"/></g></svg>