<svg xmlns="http://www.w3.org/2000/svg" version="1.1" xmlns:xlink="http://www.w3.org/1999/xlink" xmlns:svgjs="http://svgjs.dev/svgjs" viewBox="0 0 1920 1080" id="aaf78881-1e47-43eb-b329-89ef02be7f03"><g><rect width="1920" height="1080" fill="#0267c1"/></g><g fill="#d65108"><path d="M1772.03 -272.371L588.972 1365.72L-152.596 264.737L1772.03 -272.371Z"/></g><g fill="#ffffff" opacity="0.2"><path d="M1506.02 1200.21L1546.07 1148L1100.37 1206.71L1152.58 1246.76L1506.02 1200.21Z"/><path d="M1633.72 1033.77L1005.65 1116.8L997.065 1127.98L1038.42 1159.71L1593.67 1085.97L1633.72 1033.77Z"/><path d="M1680.72 971.813L1720.77 919.609L1093.03 1002.9L1052.98 1055.1L1680.72 971.813Z"/><path d="M1768.1 857.918L1808.15 805.715L1180.08 888.745L1140.03 940.948L1768.1 857.918Z"/><path d="M1855.49 744.015L1895.54 691.812L1267.47 774.843L1227.41 827.046L1855.49 744.015Z"/><path d="M1888.02 637.039L1835.56 597.326L1207.48 680.356L1259.95 720.069L1888.02 637.039Z"/><path d="M1773.86 549.992L1721.66 509.94L1093.59 592.97L1145.79 633.022L1773.86 549.992Z"/><path d="M1659.96 462.605L1607.76 422.554L979.688 505.584L1031.89 545.636L1659.96 462.605Z"/><path d="M1493.52 334.907L939.474 408.492L907.485 450.187L917.993 458.249L1546.07 375.219L1493.52 334.907Z"/><path d="M1431.83 287.574L1379.63 247.522L1026.86 294.596L986.809 346.799L1431.83 287.574Z"/><path d="M1317.93 200.191L1265.47 160.478L1114.17 180.102L1073.86 232.644L1317.93 200.191Z"/><path d="M1161.5 118.408L1203.77 113.145L1179.71 94.6791L1161.5 118.408Z"/><path d="M154.022 1244.21L194.074 1192L-251.626 1250.71L-199.423 1290.76L154.022 1244.21Z"/><path d="M281.72 1077.77L-346.353 1160.8L-354.935 1171.98L-313.579 1203.71L241.669 1129.97L281.72 1077.77Z"/><path d="M328.716 1015.81L368.768 963.609L-258.966 1046.9L-299.018 1099.1L328.716 1015.81Z"/><path d="M416.101 901.918L456.153 849.715L-171.92 932.745L-211.972 984.948L416.101 901.918Z"/><path d="M503.487 788.015L543.539 735.812L-84.5345 818.843L-124.586 871.046L503.487 788.015Z"/><path d="M536.02 681.039L483.557 641.326L-144.517 724.356L-92.0533 764.069L536.02 681.039Z"/><path d="M421.862 593.992L369.659 553.94L-258.414 636.97L-206.211 677.022L421.862 593.992Z"/><path d="M307.964 506.605L255.761 466.554L-372.312 549.584L-320.109 589.636L307.964 506.605Z"/><path d="M141.524 378.907L-412.526 452.492L-444.515 494.187L-434.007 502.249L194.066 419.219L141.524 378.907Z"/><path d="M79.83 331.574L27.6271 291.522L-325.139 338.596L-365.191 390.799L79.83 331.574Z"/></g><g><path d="M178.635 139.281L184.422 144.246V166.626H215.704L219.958 172.147L215.69 177.397H184.422V198.795L178.635 203.747L173 198.795V144.232L178.635 139.281ZM195.554 195.68H219.406L223.397 200.915L219.143 206.45H195.554L191.7 201.342L195.554 195.68ZM196.382 138H219.129L223.383 143.52L219.129 148.77H196.659L192.115 143.677L196.382 138ZM323.155 148.628L328.251 154.291L323.155 159.968H246.13L241.172 154.291L246.13 148.628H323.155ZM237.043 172.147L241.849 167.893L246.669 172.147V178.393C246.669 188.879 249.417 197.515 261.668 197.515H264.14C275.147 197.515 281.197 189.86 281.197 177.952V172.005L285.879 167.75L290.699 171.862V178.379C290.699 189.007 293.723 196.946 305.56 196.946H307.618C319.178 196.946 321.235 187.869 321.373 177.952V171.578L326.056 167.608L331 171.72V178.094C330.862 191.838 327.285 207.574 308.032 207.574H305.974C294.552 207.574 288.365 202.324 285.892 195.808C283.006 202.466 275.299 208.286 264.844 208.286H262.358C242.553 208.286 237.194 195.964 237.056 178.663V172.147H237.043ZM276.391 274.744L273.642 267.089L280.796 264.969L305.974 276.721V252.491L311.07 248.095L316.291 252.491V281.829L325.641 286.226L328.251 293.311L320.959 296L276.391 274.744ZM321.235 223.011L328.113 226.27L325.917 233.497L264.002 263.119L256.571 260.146L259.596 252.776L321.235 223.011ZM231.905 263.404L237.954 268.512C237.402 286.51 222.403 296 204.669 296H202.874C194.062 296 183.759 292.6 177.157 286.083L177.834 278.855L184.298 278.002C189.118 282.256 195.858 285.229 202.183 285.229H204.117C216.091 285.229 225.303 280.136 226.27 268.085L231.905 263.404ZM226.256 251.638C225.704 239.16 216.629 234.209 204.103 234.209H202.169C194.739 234.209 189.104 237.182 184.284 241.436L177.834 240.583L177.143 233.355C183.745 226.696 192.957 223.58 202.597 223.58H204.517C222.403 223.58 237.402 232.942 237.94 251.211L231.891 256.176L226.256 251.638Z" fill="#ffffff"/></g><path d="M1171 781L1171 339L1187 339L1187 781L1171 781Z" fill="#ffffff"/><g fill="#ffffff" id="info-group"><path d="M177.3600 600.9000L177.3600 600.9000Q172.5000 600.9000 168.1350 599.6850Q163.7700 598.4700 160.3500 595.9500Q156.9300 593.4300 154.9050 589.7400Q152.8800 586.0500 152.7900 581.0100L152.7900 581.0100Q152.7900 580.2000 153.3300 579.6150Q153.8700 579.0300 154.6800 579.0300L154.6800 579.0300L163.2300 579.0300Q164.4000 579.0300 164.9850 579.6600Q165.5700 580.2900 165.9300 581.3700L165.9300 581.3700Q166.3800 584.6100 168 586.6350Q169.6200 588.6600 172.0950 589.6050Q174.5700 590.5500 177.6300 590.5500L177.6300 590.5500Q183.3000 590.5500 186.3150 586.8600Q189.3300 583.1700 189.3300 576.6000L189.3300 576.6000L189.3300 547.6200L158.8200 547.6200Q157.8300 547.6200 157.2450 546.9900Q156.6600 546.3600 156.6600 545.4600L156.6600 545.4600L156.6600 539.1600Q156.6600 538.2600 157.2450 537.6300Q157.8300 537 158.8200 537L158.8200 537L199.9500 537Q200.9400 537 201.5700 537.6300Q202.2000 538.2600 202.2000 539.2500L202.2000 539.2500L202.2000 576.9600Q202.2000 584.4300 199.0950 589.8300Q195.9900 595.2300 190.4550 598.0650Q184.9200 600.9000 177.3600 600.9000ZM264.4800 605.8500L256.1100 605.8500Q254.8500 605.8500 254.0850 605.0850Q253.3200 604.3200 252.8700 603.7800L252.8700 603.7800L249.5400 599.2800Q245.3100 600.9000 239.9100 600.9000L239.9100 600.9000Q231.9000 600.9000 226.0950 598.2450Q220.2900 595.5900 217.0950 590.0550Q213.9000 584.5200 213.5400 576.2400L213.5400 576.2400Q213.4500 572.3700 213.4500 568.5900Q213.4500 564.8100 213.5400 560.8500L213.5400 560.8500Q213.9000 552.6600 217.1850 547.1700Q220.4700 541.6800 226.3200 538.8900Q232.1700 536.1000 239.9100 536.1000L239.9100 536.1000Q247.6500 536.1000 253.5000 538.8900Q259.3500 541.6800 262.6800 547.1700Q266.0100 552.6600 266.1900 560.8500L266.1900 560.8500Q266.3700 564.8100 266.3700 568.5900Q266.3700 572.3700 266.1900 576.2400L266.1900 576.2400Q265.7400 588.0300 259.7100 594.1500L259.7100 594.1500L266.0100 603.0600Q266.1000 603.1500 266.1900 603.3750Q266.2800 603.6000 266.2800 603.9600L266.2800 603.9600Q266.3700 604.7700 265.7850 605.3100Q265.2000 605.8500 264.4800 605.8500L264.4800 605.8500ZM239.9100 590.5500L239.9100 590.5500Q245.6700 590.5500 249.3600 587.0850Q253.0500 583.6200 253.3200 575.7900L253.3200 575.7900Q253.5000 571.8300 253.5000 568.4550Q253.5000 565.0800 253.3200 561.2100L253.3200 561.2100Q253.2300 555.9900 251.4300 552.7050Q249.6300 549.4200 246.7050 547.9350Q243.7800 546.4500 239.9100 546.4500L239.9100 546.4500Q236.1300 546.4500 233.1600 547.9350Q230.1900 549.4200 228.4350 552.7050Q226.6800 555.9900 226.4100 561.2100L226.4100 561.2100Q226.3200 565.0800 226.3200 568.4550Q226.3200 571.8300 226.4100 575.7900L226.4100 575.7900Q226.7700 583.6200 230.4600 587.0850Q234.1500 590.5500 239.9100 590.5500ZM294.5400 600.9000L294.5400 600.9000Q289.0500 600.9000 285.0450 598.4250Q281.0400 595.9500 278.8800 591.4050Q276.7200 586.8600 276.7200 580.6500L276.7200 580.6500L276.7200 555.3600Q276.7200 554.4600 277.3500 553.8300Q277.9800 553.2000 278.8800 553.2000L278.8800 553.2000L286.8000 553.2000Q287.7900 553.2000 288.3750 553.8300Q288.9600 554.4600 288.9600 555.3600L288.9600 555.3600L288.9600 580.1100Q288.9600 591.2700 298.7700 591.2700L298.7700 591.2700Q303.4500 591.2700 306.1950 588.3000Q308.9400 585.3300 308.9400 580.1100L308.9400 580.1100L308.9400 555.3600Q308.9400 554.4600 309.5700 553.8300Q310.2000 553.2000 311.1000 553.2000L311.1000 553.2000L319.0200 553.2000Q319.9200 553.2000 320.5500 553.8300Q321.1800 554.4600 321.1800 555.3600L321.1800 555.3600L321.1800 597.8400Q321.1800 598.7400 320.5500 599.3700Q319.9200 600 319.0200 600L319.0200 600L311.7300 600Q310.7400 600 310.1550 599.3700Q309.5700 598.7400 309.5700 597.8400L309.5700 597.8400L309.5700 594.1500Q307.1400 597.3000 303.5400 599.1000Q299.9400 600.9000 294.5400 600.9000ZM353.2200 600.9000L353.2200 600.9000Q343.2300 600.9000 337.3800 595.1400Q331.5300 589.3800 331.0800 578.7600L331.0800 578.7600Q330.9900 577.8600 330.9900 576.4650Q330.9900 575.0700 331.0800 574.2600L331.0800 574.2600Q331.4400 567.4200 334.1850 562.5150Q336.9300 557.6100 341.7900 554.9550Q346.6500 552.3000 353.2200 552.3000L353.2200 552.3000Q360.5100 552.3000 365.4600 555.3150Q370.4100 558.3300 372.9300 563.6850Q375.4500 569.0400 375.4500 576.0600L375.4500 576.0600L375.4500 577.9500Q375.4500 578.8500 374.8200 579.4800Q374.1900 580.1100 373.2000 580.1100L373.2000 580.1100L343.3200 580.1100Q343.3200 580.1100 343.3200 580.3800Q343.3200 580.6500 343.3200 580.8300L343.3200 580.8300Q343.4100 583.9800 344.5350 586.6350Q345.6600 589.2900 347.8650 590.9100Q350.0700 592.5300 353.1300 592.5300L353.1300 592.5300Q355.6500 592.5300 357.3600 591.7650Q359.0700 591 360.1500 590.0100Q361.2300 589.0200 361.6800 588.3900L361.6800 588.3900Q362.4900 587.3100 362.9850 587.0850Q363.4800 586.8600 364.4700 586.8600L364.4700 586.8600L372.2100 586.8600Q373.1100 586.8600 373.6950 587.4000Q374.2800 587.9400 374.1900 588.7500L374.1900 588.7500Q374.1000 590.1900 372.7050 592.2600Q371.3100 594.3300 368.7000 596.3100Q366.0900 598.2900 362.1750 599.5950Q358.2600 600.9000 353.2200 600.9000ZM343.3200 572.2800L343.3200 572.5500L363.2100 572.5500L363.2100 572.2800Q363.2100 568.7700 362.0400 566.1150Q360.8700 563.4600 358.6200 561.9750Q356.3700 560.4900 353.2200 560.4900L353.2200 560.4900Q350.0700 560.4900 347.8200 561.9750Q345.5700 563.4600 344.4450 566.1150Q343.3200 568.7700 343.3200 572.2800L343.3200 572.2800ZM394.9800 600L387.1500 600Q386.2500 600 385.6200 599.3700Q384.9900 598.7400 384.9900 597.8400L384.9900 597.8400L384.9900 555.4500Q384.9900 554.4600 385.6200 553.8300Q386.2500 553.2000 387.1500 553.2000L387.1500 553.2000L394.4400 553.2000Q395.3400 553.2000 396.0150 553.8300Q396.6900 554.4600 396.6900 555.4500L396.6900 555.4500L396.6900 559.1400Q398.7600 556.2600 402.0450 554.7300Q405.3300 553.2000 409.6500 553.2000L409.6500 553.2000L413.3400 553.2000Q414.3300 553.2000 414.9150 553.8300Q415.5000 554.4600 415.5000 555.3600L415.5000 555.3600L415.5000 561.8400Q415.5000 562.7400 414.9150 563.3700Q414.3300 564 413.3400 564L413.3400 564L406.3200 564Q402 564 399.6150 566.3850Q397.2300 568.7700 397.2300 573.0900L397.2300 573.0900L397.2300 597.8400Q397.2300 598.7400 396.6000 599.3700Q395.9700 600 394.9800 600L394.9800 600ZM438.0900 617.1000L430.9800 617.1000Q430.2600 617.1000 429.7200 616.5600Q429.1800 616.0200 429.1800 615.3000L429.1800 615.3000Q429.1800 614.9400 429.2250 614.6250Q429.2700 614.3100 429.5400 613.8600L429.5400 613.8600L436.5600 597.2100L419.2800 556.4400Q418.9200 555.5400 418.9200 555.1800L418.9200 555.1800Q419.0100 554.3700 419.5500 553.7850Q420.0900 553.2000 420.9000 553.2000L420.9000 553.2000L428.1900 553.2000Q429.2700 553.2000 429.8100 553.7400Q430.3500 554.2800 430.6200 554.9100L430.6200 554.9100L442.5900 584.3400L454.9200 554.9100Q455.1900 554.1900 455.7300 553.6950Q456.2700 553.2000 457.3500 553.2000L457.3500 553.2000L464.5500 553.2000Q465.2700 553.2000 465.8550 553.7400Q466.4400 554.2800 466.4400 555L466.4400 555Q466.4400 555.5400 466.0800 556.4400L466.0800 556.4400L440.6100 615.3900Q440.2500 616.1100 439.7100 616.6050Q439.1700 617.1000 438.0900 617.1000L438.0900 617.1000Z" id="title"/><path d="M1408.9600 640L1388.9400 640Q1386.5200 640 1385.0900 638.4600Q1383.6600 636.9200 1383.6600 634.7200L1383.6600 634.7200L1383.6600 520.7600L1350.2200 546.5000Q1348.2400 547.8200 1346.2600 547.4900Q1344.2800 547.1600 1342.7400 545.1800L1342.7400 545.1800L1333.5000 533.3000Q1332.1800 531.3200 1332.5100 529.1200Q1332.8400 526.9200 1334.8200 525.6000L1334.8200 525.6000L1384.1000 487.5400Q1385.4200 486.4400 1386.7400 486.2200Q1388.0600 486 1389.6000 486L1389.6000 486L1408.9600 486Q1411.1600 486 1412.7000 487.5400Q1414.2400 489.0800 1414.2400 491.2800L1414.2400 491.2800L1414.2400 634.7200Q1414.2400 636.9200 1412.7000 638.4600Q1411.1600 640 1408.9600 640L1408.9600 640ZM1481.7800 640L1461.7600 640Q1459.7800 640 1458.4600 638.5700Q1457.1400 637.1400 1457.1400 635.1600L1457.1400 635.1600Q1457.1400 634.2800 1457.5800 633.1800L1457.5800 633.1800L1510.6000 512.1800L1441.5200 512.1800Q1439.1000 512.1800 1437.6700 510.6400Q1436.2400 509.1000 1436.2400 506.9000L1436.2400 506.9000L1436.2400 491.5000Q1436.2400 489.0800 1437.6700 487.5400Q1439.1000 486 1441.5200 486L1441.5200 486L1538.1000 486Q1540.5200 486 1541.9500 487.5400Q1543.3800 489.0800 1543.3800 491.5000L1543.3800 491.5000L1543.3800 505.1400Q1543.3800 508.2200 1542.8300 510.3100Q1542.2800 512.4000 1541.4000 514.6000L1541.4000 514.6000L1488.8200 634.7200Q1488.1600 636.2600 1486.5100 638.1300Q1484.8600 640 1481.7800 640L1481.7800 640ZM1576.3800 640L1554.3800 640Q1552.1800 640 1550.6400 638.4600Q1549.1000 636.9200 1549.1000 634.7200L1549.1000 634.7200L1549.1000 612.9400Q1549.1000 610.5200 1550.6400 608.9800Q1552.1800 607.4400 1554.3800 607.4400L1554.3800 607.4400L1576.3800 607.4400Q1578.5800 607.4400 1580.1200 608.9800Q1581.6600 610.5200 1581.6600 612.9400L1581.6600 612.9400L1581.6600 634.7200Q1581.6600 636.9200 1580.1200 638.4600Q1578.5800 640 1576.3800 640L1576.3800 640ZM1663.2800 642.2000L1663.2800 642.2000Q1647.8800 642.2000 1636.6600 638.4600Q1625.4400 634.7200 1618.0700 628.6700Q1610.7000 622.6200 1606.9600 615.4700Q1603.2200 608.3200 1603 601.2800L1603 601.2800Q1603 599.3000 1604.4300 598.0900Q1605.8600 596.8800 1607.8400 596.8800L1607.8400 596.8800L1627.6400 596.8800Q1629.8400 596.8800 1631.3800 597.7600Q1632.9200 598.6400 1634.0200 601.2800L1634.0200 601.2800Q1636 607.2200 1640.5100 610.7400Q1645.0200 614.2600 1650.9600 615.6900Q1656.9000 617.1200 1663.5000 617.1200L1663.5000 617.1200Q1676.7000 617.1200 1684.5100 610.8500Q1692.3200 604.5800 1692.3200 592.9200L1692.3200 592.9200Q1692.3200 581.2600 1685.0600 576.0900Q1677.8000 570.9200 1664.8200 570.9200L1664.8200 570.9200L1642.1600 570.9200Q1639.7400 570.9200 1638.2000 569.4900Q1636.6600 568.0600 1636.6600 565.6400L1636.6600 565.6400L1636.6600 556.4000Q1636.6600 554.2000 1637.6500 552.5500Q1638.6400 550.9000 1639.7400 549.8000L1639.7400 549.8000L1679.1200 511.3000L1616.2000 511.3000Q1613.7800 511.3000 1612.3500 509.7600Q1610.9200 508.2200 1610.9200 506.0200L1610.9200 506.0200L1610.9200 491.5000Q1610.9200 489.0800 1612.3500 487.5400Q1613.7800 486 1616.2000 486L1616.2000 486L1710.5800 486Q1713 486 1714.5400 487.5400Q1716.0800 489.0800 1716.0800 491.5000L1716.0800 491.5000L1716.0800 504.7000Q1716.0800 506.6800 1715.2000 508.2200Q1714.3200 509.7600 1713.2200 510.8600L1713.2200 510.8600L1675.1600 550.0200L1677.8000 550.2400Q1691.2200 551.3400 1701.6700 556.2900Q1712.1200 561.2400 1717.9500 570.7000Q1723.7800 580.1600 1723.7800 594.4600L1723.7800 594.4600Q1723.7800 609.4200 1715.9700 620.0900Q1708.1600 630.7600 1694.5200 636.4800Q1680.8800 642.2000 1663.2800 642.2000Z" id="lecture-full-number"/></g></svg>