<svg xmlns="http://www.w3.org/2000/svg" version="1.1" xmlns:xlink="http://www.w3.org/1999/xlink" xmlns:svgjs="http://svgjs.dev/svgjs" viewBox="0 0 1920 1080" id="hidden-cover-svg"><g><rect width="1920" height="1080" fill="#c0e6de"/></g><g fill="#e6c9be"><path d="M716 244.687C1027.07 244.687 1278.69 -7.55189 1278.69 -318L1842 -318C1842 303.522 1338.15 807.374 716 807.374L716 244.687Z"/></g><g fill="#ffffff" opacity="0.4"><path d="M59.4553 1025.44C74.0358 1034.58 78.4304 1053.77 69.2841 1068.35C60.1377 1082.93 40.9502 1087.32 26.3697 1078.18C11.7893 1069.03 7.39469 1049.85 16.5411 1035.27C25.6874 1020.69 44.8749 1016.29 59.4553 1025.44ZM115.48 877.553C106.334 892.133 110.729 911.319 125.309 920.464C139.89 929.608 159.077 925.213 168.224 910.634C177.37 896.054 172.975 876.869 158.395 867.724C143.815 858.579 124.627 862.974 115.48 877.553ZM214.42 719.84C205.274 734.42 209.668 753.605 224.249 762.75C238.829 771.895 258.017 767.5 267.163 752.921C276.31 738.341 271.915 719.155 257.335 710.01C242.754 700.865 223.566 705.26 214.42 719.84ZM313.36 562.127C304.213 576.706 308.608 595.892 323.188 605.037C337.769 614.182 356.956 609.787 366.103 595.207C375.249 580.628 370.855 561.442 356.274 552.297C341.694 543.152 322.506 547.547 313.36 562.127ZM412.299 404.414C403.153 418.993 407.547 438.179 422.128 447.324C436.708 456.469 455.896 452.074 465.042 437.494C474.189 422.915 469.794 403.729 455.214 394.584C440.633 385.439 421.446 389.834 412.299 404.414ZM174.263 1134.19C165.117 1148.77 169.512 1167.96 184.092 1177.1C198.673 1186.25 217.86 1181.85 227.007 1167.27C236.153 1152.69 231.758 1133.51 217.178 1124.36C202.597 1115.22 183.41 1119.61 174.263 1134.19ZM273.203 976.477C264.056 991.057 268.451 1010.24 283.032 1019.39C297.612 1028.53 316.8 1024.14 325.946 1009.56C335.093 994.979 330.698 975.792 316.117 966.648C301.537 957.503 282.349 961.898 273.203 976.477ZM372.143 818.764C362.996 833.344 367.391 852.53 381.971 861.675C396.552 870.82 415.739 866.425 424.886 851.845C434.032 837.266 429.638 818.08 415.057 808.935C400.477 799.79 381.289 804.185 372.143 818.764ZM471.082 661.051C461.936 675.631 466.33 694.817 480.911 703.962C495.491 713.106 514.679 708.711 523.825 694.132C532.972 679.552 528.577 660.367 513.997 651.222C499.416 642.077 480.228 646.472 471.082 661.051ZM570.022 503.338C560.875 517.918 565.27 537.103 579.85 546.248C594.431 555.393 613.619 550.998 622.765 536.419C631.911 521.839 627.517 502.653 612.936 493.508C598.356 484.363 579.168 488.758 570.022 503.338ZM331.986 1233.11C322.84 1247.69 327.234 1266.88 341.815 1276.03C356.395 1285.17 375.583 1280.78 384.729 1266.2C393.875 1251.62 389.481 1232.43 374.9 1223.29C360.32 1214.14 341.132 1218.54 331.986 1233.11ZM430.925 1075.4C421.779 1089.98 426.174 1109.17 440.754 1118.31C455.335 1127.46 474.522 1123.06 483.669 1108.48C492.815 1093.9 488.42 1074.72 473.84 1065.57C459.26 1056.43 440.072 1060.82 430.925 1075.4ZM529.865 917.688C520.719 932.268 525.113 951.454 539.694 960.599C554.274 969.744 573.462 965.349 582.608 950.77C591.755 936.19 587.36 917.004 572.78 907.859C558.199 898.714 539.011 903.109 529.865 917.688ZM628.805 759.976C619.658 774.555 624.053 793.741 638.633 802.886C653.214 812.031 672.402 807.636 681.548 793.056C690.694 778.477 686.3 759.291 671.719 750.146C657.139 741.001 637.951 745.396 628.805 759.976ZM727.744 602.263C718.598 616.842 722.992 636.028 737.573 645.173C752.153 654.318 771.341 649.923 780.487 635.343C789.634 620.764 785.239 601.578 770.659 592.433C756.078 583.288 736.787 587.707 727.744 602.263ZM489.708 1332.04C480.562 1346.62 484.957 1365.81 499.537 1374.95C514.118 1384.1 533.305 1379.7 542.452 1365.12C551.598 1350.54 547.203 1331.35 532.623 1322.21C518.042 1313.06 498.855 1317.46 489.708 1332.04ZM588.648 1174.33C579.502 1188.91 583.896 1208.09 598.477 1217.24C613.057 1226.38 632.245 1221.99 641.391 1207.41C650.538 1192.83 646.143 1173.64 631.563 1164.5C616.982 1155.35 597.794 1159.75 588.648 1174.33ZM687.587 1016.61C678.441 1031.19 682.836 1050.38 697.416 1059.52C711.997 1068.67 731.185 1064.27 740.331 1049.69C749.477 1035.11 745.083 1015.93 730.502 1006.78C715.922 997.638 696.734 1002.03 687.587 1016.61ZM786.527 858.9C777.381 873.479 781.775 892.666 796.356 901.811C810.936 910.956 830.124 906.561 839.27 891.981C848.417 877.401 844.022 858.215 829.442 849.07C814.861 839.925 795.57 844.344 786.527 858.9ZM885.467 701.187C876.32 715.767 880.715 734.952 895.295 744.097C909.876 753.242 929.064 748.847 938.21 734.268C947.356 719.688 942.962 700.502 928.381 691.357C913.801 682.212 894.51 686.631 885.467 701.187ZM647.431 1430.96C638.285 1445.54 642.679 1464.73 657.26 1473.87C671.84 1483.02 691.028 1478.62 700.174 1464.05C709.321 1449.47 704.926 1430.28 690.345 1421.13C675.765 1411.99 656.577 1416.38 647.431 1430.96ZM746.37 1273.25C737.224 1287.83 741.619 1307.02 756.199 1316.16C770.78 1325.31 789.967 1320.91 799.114 1306.33C808.26 1291.75 803.866 1272.57 789.285 1263.42C774.705 1254.28 755.517 1258.67 746.37 1273.25ZM845.31 1115.54C836.164 1130.12 840.558 1149.3 855.139 1158.45C869.719 1167.59 888.907 1163.2 898.053 1148.62C907.2 1134.04 902.805 1114.85 888.225 1105.71C873.644 1096.56 854.353 1100.98 845.31 1115.54ZM944.25 957.824C935.103 972.404 939.498 991.59 954.078 1000.74C968.659 1009.88 987.847 1005.49 996.993 990.905C1006.14 976.326 1001.74 957.14 987.164 947.995C972.584 938.85 953.293 943.268 944.25 957.824ZM1043.09 800.135C1033.94 814.714 1038.33 833.901 1052.91 843.046C1067.5 852.19 1086.68 847.795 1095.83 833.216C1104.98 818.636 1100.58 799.45 1086 790.305C1071.52 781.136 1052.23 785.555 1043.09 800.135Z"/></g><g><path d="M178.635 139.281L184.422 144.246V166.626H215.704L219.958 172.147L215.69 177.397H184.422V198.795L178.635 203.747L173 198.795V144.232L178.635 139.281ZM195.554 195.68H219.406L223.397 200.915L219.143 206.45H195.554L191.7 201.342L195.554 195.68ZM196.382 138H219.129L223.383 143.52L219.129 148.77H196.659L192.115 143.677L196.382 138ZM323.155 148.628L328.251 154.291L323.155 159.968H246.13L241.172 154.291L246.13 148.628H323.155ZM237.043 172.147L241.849 167.893L246.669 172.147V178.393C246.669 188.879 249.417 197.515 261.668 197.515H264.14C275.147 197.515 281.197 189.86 281.197 177.952V172.005L285.879 167.75L290.699 171.862V178.379C290.699 189.007 293.723 196.946 305.56 196.946H307.618C319.178 196.946 321.235 187.869 321.373 177.952V171.578L326.056 167.608L331 171.72V178.094C330.862 191.838 327.285 207.574 308.032 207.574H305.974C294.552 207.574 288.365 202.324 285.892 195.808C283.006 202.466 275.299 208.286 264.844 208.286H262.358C242.553 208.286 237.194 195.964 237.056 178.663V172.147H237.043ZM276.391 274.744L273.642 267.089L280.796 264.969L305.974 276.721V252.491L311.07 248.095L316.291 252.491V281.829L325.641 286.226L328.251 293.311L320.959 296L276.391 274.744ZM321.235 223.011L328.113 226.27L325.917 233.497L264.002 263.119L256.571 260.146L259.596 252.776L321.235 223.011ZM231.905 263.404L237.954 268.512C237.402 286.51 222.403 296 204.669 296H202.874C194.062 296 183.759 292.6 177.157 286.083L177.834 278.855L184.298 278.002C189.118 282.256 195.858 285.229 202.183 285.229H204.117C216.091 285.229 225.303 280.136 226.27 268.085L231.905 263.404ZM226.256 251.638C225.704 239.16 216.629 234.209 204.103 234.209H202.169C194.739 234.209 189.104 237.182 184.284 241.436L177.834 240.583L177.143 233.355C183.745 226.696 192.957 223.58 202.597 223.58H204.517C222.403 223.58 237.402 232.942 237.94 251.211L231.891 256.176L226.256 251.638Z" fill="#000000"/></g><path d="M1171 781L1171 339L1187 339L1187 781L1171 781Z" fill="#000000"/><g fill="#000000" id="info-group"><path d="M181.5000 600.9000L181.5000 600.9000Q173.2200 600.9000 167.4150 598.0200Q161.6100 595.1400 158.4150 589.6950Q155.2200 584.2500 154.9500 576.6900L154.9500 576.6900Q154.8600 572.8200 154.8600 568.3650Q154.8600 563.9100 154.9500 559.9500L154.9500 559.9500Q155.2200 552.4800 158.4150 547.1700Q161.6100 541.8600 167.5050 538.9800Q173.4000 536.1000 181.5000 536.1000L181.5000 536.1000Q188.0700 536.1000 193.0200 537.8550Q197.9700 539.6100 201.2550 542.3550Q204.5400 545.1000 206.2050 548.2500Q207.8700 551.4000 207.9600 554.1000L207.9600 554.1000Q208.0500 554.9100 207.5100 555.4500Q206.9700 555.9900 206.0700 555.9900L206.0700 555.9900L196.8000 555.9900Q195.9000 555.9900 195.4500 555.6300Q195 555.2700 194.6400 554.5500L194.6400 554.5500Q193.9200 552.6600 192.3900 550.8150Q190.8600 548.9700 188.2500 547.7100Q185.6400 546.4500 181.5000 546.4500L181.5000 546.4500Q175.3800 546.4500 171.7350 549.6900Q168.0900 552.9300 167.8200 560.4000L167.8200 560.4000Q167.5500 568.2300 167.8200 576.2400L167.8200 576.2400Q168.0900 583.8900 171.8250 587.2200Q175.5600 590.5500 181.6800 590.5500L181.6800 590.5500Q185.7300 590.5500 188.9250 589.1100Q192.1200 587.6700 193.9650 584.6100Q195.8100 581.5500 195.8100 576.7800L195.8100 576.7800L195.8100 573.9900L184.8300 573.9900Q183.9300 573.9900 183.3000 573.3600Q182.6700 572.7300 182.6700 571.7400L182.6700 571.7400L182.6700 566.9700Q182.6700 565.9800 183.3000 565.3500Q183.9300 564.7200 184.8300 564.7200L184.8300 564.7200L206.3400 564.7200Q207.3300 564.7200 207.9150 565.3500Q208.5000 565.9800 208.5000 566.9700L208.5000 566.9700L208.5000 576.4200Q208.5000 583.9800 205.2150 589.4700Q201.9300 594.9600 195.8550 597.9300Q189.7800 600.9000 181.5000 600.9000ZM230.6400 600L222.1800 600Q221.2800 600 220.6500 599.3700Q220.0200 598.7400 220.0200 597.8400L220.0200 597.8400L220.0200 539.1600Q220.0200 538.2600 220.6500 537.6300Q221.2800 537 222.1800 537L222.1800 537L230.6400 537Q231.6300 537 232.2150 537.6300Q232.8000 538.2600 232.8000 539.1600L232.8000 539.1600L232.8000 597.8400Q232.8000 598.7400 232.2150 599.3700Q231.6300 600 230.6400 600L230.6400 600ZM271.2300 600L262.9500 600Q262.0500 600 261.4200 599.3700Q260.7900 598.7400 260.7900 597.8400L260.7900 597.8400L260.7900 548.0700L244.1400 548.0700Q243.2400 548.0700 242.6100 547.4400Q241.9800 546.8100 241.9800 545.9100L241.9800 545.9100L241.9800 539.2500Q241.9800 538.2600 242.6100 537.6300Q243.2400 537 244.1400 537L244.1400 537L290.0400 537Q291.0300 537 291.6600 537.6300Q292.2900 538.2600 292.2900 539.2500L292.2900 539.2500L292.2900 545.9100Q292.2900 546.8100 291.6600 547.4400Q291.0300 548.0700 290.0400 548.0700L290.0400 548.0700L273.4800 548.0700L273.4800 597.8400Q273.4800 598.7400 272.8500 599.3700Q272.2200 600 271.2300 600L271.2300 600Z" id="title"/><path d="M1408.9600 640L1388.9400 640Q1386.5200 640 1385.0900 638.4600Q1383.6600 636.9200 1383.6600 634.7200L1383.6600 634.7200L1383.6600 520.7600L1350.2200 546.5000Q1348.2400 547.8200 1346.2600 547.4900Q1344.2800 547.1600 1342.7400 545.1800L1342.7400 545.1800L1333.5000 533.3000Q1332.1800 531.3200 1332.5100 529.1200Q1332.8400 526.9200 1334.8200 525.6000L1334.8200 525.6000L1384.1000 487.5400Q1385.4200 486.4400 1386.7400 486.2200Q1388.0600 486 1389.6000 486L1389.6000 486L1408.9600 486Q1411.1600 486 1412.7000 487.5400Q1414.2400 489.0800 1414.2400 491.2800L1414.2400 491.2800L1414.2400 634.7200Q1414.2400 636.9200 1412.7000 638.4600Q1411.1600 640 1408.9600 640L1408.9600 640ZM1502.0200 642.2000L1502.0200 642.2000Q1486.4000 642.2000 1475.4000 637.5800Q1464.4000 632.9600 1457.3600 624.8200Q1450.3200 616.6800 1446.8000 606.0100Q1443.2800 595.3400 1442.6200 583.2400L1442.6200 583.2400Q1442.4000 577.3000 1442.2900 570.1500Q1442.1800 563 1442.2900 555.7400Q1442.4000 548.4800 1442.6200 542.3200L1442.6200 542.3200Q1443.0600 530.2200 1446.8000 519.5500Q1450.5400 508.8800 1457.6900 500.9600Q1464.8400 493.0400 1475.8400 488.4200Q1486.8400 483.8000 1502.0200 483.8000L1502.0200 483.8000Q1517.4200 483.8000 1528.4200 488.4200Q1539.4200 493.0400 1546.5700 500.9600Q1553.7200 508.8800 1557.3500 519.5500Q1560.9800 530.2200 1561.4200 542.3200L1561.4200 542.3200Q1561.8600 548.4800 1561.8600 555.7400Q1561.8600 563 1561.8600 570.1500Q1561.8600 577.3000 1561.4200 583.2400L1561.4200 583.2400Q1560.9800 595.3400 1557.4600 606.0100Q1553.9400 616.6800 1546.9000 624.8200Q1539.8600 632.9600 1528.7500 637.5800Q1517.6400 642.2000 1502.0200 642.2000ZM1502.0200 616.9000L1502.0200 616.9000Q1516.3200 616.9000 1523.0300 607.5500Q1529.7400 598.2000 1529.9600 582.1400L1529.9600 582.1400Q1530.4000 575.7600 1530.4000 569.2700Q1530.4000 562.7800 1530.4000 556.1800Q1530.4000 549.5800 1529.9600 543.6400L1529.9600 543.6400Q1529.7400 528.0200 1523.0300 518.4500Q1516.3200 508.8800 1502.0200 508.8800L1502.0200 508.8800Q1487.9400 508.8800 1481.2300 518.4500Q1474.5200 528.0200 1474.0800 543.6400L1474.0800 543.6400Q1474.0800 549.5800 1473.9700 556.1800Q1473.8600 562.7800 1473.9700 569.2700Q1474.0800 575.7600 1474.0800 582.1400L1474.0800 582.1400Q1474.5200 598.2000 1481.3400 607.5500Q1488.1600 616.9000 1502.0200 616.9000ZM1612.4600 640L1590.4600 640Q1588.2600 640 1586.7200 638.4600Q1585.1800 636.9200 1585.1800 634.7200L1585.1800 634.7200L1585.1800 612.9400Q1585.1800 610.5200 1586.7200 608.9800Q1588.2600 607.4400 1590.4600 607.4400L1590.4600 607.4400L1612.4600 607.4400Q1614.6600 607.4400 1616.2000 608.9800Q1617.7400 610.5200 1617.7400 612.9400L1617.7400 612.9400L1617.7400 634.7200Q1617.7400 636.9200 1616.2000 638.4600Q1614.6600 640 1612.4600 640L1612.4600 640ZM1699.3600 642.2000L1699.3600 642.2000Q1683.9600 642.2000 1672.7400 638.4600Q1661.5200 634.7200 1654.1500 628.6700Q1646.7800 622.6200 1643.0400 615.4700Q1639.3000 608.3200 1639.0800 601.2800L1639.0800 601.2800Q1639.0800 599.3000 1640.5100 598.0900Q1641.9400 596.8800 1643.9200 596.8800L1643.9200 596.8800L1663.7200 596.8800Q1665.9200 596.8800 1667.4600 597.7600Q1669.0000 598.6400 1670.1000 601.2800L1670.1000 601.2800Q1672.0800 607.2200 1676.5900 610.7400Q1681.1000 614.2600 1687.0400 615.6900Q1692.9800 617.1200 1699.5800 617.1200L1699.5800 617.1200Q1712.7800 617.1200 1720.5900 610.8500Q1728.4000 604.5800 1728.4000 592.9200L1728.4000 592.9200Q1728.4000 581.2600 1721.1400 576.0900Q1713.8800 570.9200 1700.9000 570.9200L1700.9000 570.9200L1678.2400 570.9200Q1675.8200 570.9200 1674.2800 569.4900Q1672.7400 568.0600 1672.7400 565.6400L1672.7400 565.6400L1672.7400 556.4000Q1672.7400 554.2000 1673.7300 552.5500Q1674.7200 550.9000 1675.8200 549.8000L1675.8200 549.8000L1715.2000 511.3000L1652.2800 511.3000Q1649.8600 511.3000 1648.4300 509.7600Q1647.0000 508.2200 1647.0000 506.0200L1647.0000 506.0200L1647.0000 491.5000Q1647.0000 489.0800 1648.4300 487.5400Q1649.8600 486 1652.2800 486L1652.2800 486L1746.6600 486Q1749.0800 486 1750.6200 487.5400Q1752.1600 489.0800 1752.1600 491.5000L1752.1600 491.5000L1752.1600 504.7000Q1752.1600 506.6800 1751.2800 508.2200Q1750.4000 509.7600 1749.3000 510.8600L1749.3000 510.8600L1711.2400 550.0200L1713.8800 550.2400Q1727.3000 551.3400 1737.7500 556.2900Q1748.2000 561.2400 1754.0300 570.7000Q1759.8600 580.1600 1759.8600 594.4600L1759.8600 594.4600Q1759.8600 609.4200 1752.0500 620.0900Q1744.2400 630.7600 1730.6000 636.4800Q1716.9600 642.2000 1699.3600 642.2000Z" id="lecture-full-number"/></g></svg>