<svg xmlns="http://www.w3.org/2000/svg" version="1.1" xmlns:xlink="http://www.w3.org/1999/xlink" xmlns:svgjs="http://svgjs.dev/svgjs" viewBox="0 0 1920 1080" id="hidden-cover-svg"><g><rect width="1920" height="1080" fill="#7b769a"/></g><g fill="#6a9967"><path d="M716 244.687C1027.07 244.687 1278.69 -7.55189 1278.69 -318L1842 -318C1842 303.522 1338.15 807.374 716 807.374L716 244.687Z"/></g><g fill="#ffffff" opacity="0.2"><path d="M59.4553 1025.44C74.0358 1034.58 78.4304 1053.77 69.2841 1068.35C60.1377 1082.93 40.9502 1087.32 26.3697 1078.18C11.7893 1069.03 7.39469 1049.85 16.5411 1035.27C25.6874 1020.69 44.8749 1016.29 59.4553 1025.44ZM115.48 877.553C106.334 892.133 110.729 911.319 125.309 920.464C139.89 929.608 159.077 925.213 168.224 910.634C177.37 896.054 172.975 876.869 158.395 867.724C143.815 858.579 124.627 862.974 115.48 877.553ZM214.42 719.84C205.274 734.42 209.668 753.605 224.249 762.75C238.829 771.895 258.017 767.5 267.163 752.921C276.31 738.341 271.915 719.155 257.335 710.01C242.754 700.865 223.566 705.26 214.42 719.84ZM313.36 562.127C304.213 576.706 308.608 595.892 323.188 605.037C337.769 614.182 356.956 609.787 366.103 595.207C375.249 580.628 370.855 561.442 356.274 552.297C341.694 543.152 322.506 547.547 313.36 562.127ZM412.299 404.414C403.153 418.993 407.547 438.179 422.128 447.324C436.708 456.469 455.896 452.074 465.042 437.494C474.189 422.915 469.794 403.729 455.214 394.584C440.633 385.439 421.446 389.834 412.299 404.414ZM174.263 1134.19C165.117 1148.77 169.512 1167.96 184.092 1177.1C198.673 1186.25 217.86 1181.85 227.007 1167.27C236.153 1152.69 231.758 1133.51 217.178 1124.36C202.597 1115.22 183.41 1119.61 174.263 1134.19ZM273.203 976.477C264.056 991.057 268.451 1010.24 283.032 1019.39C297.612 1028.53 316.8 1024.14 325.946 1009.56C335.093 994.979 330.698 975.792 316.117 966.648C301.537 957.503 282.349 961.898 273.203 976.477ZM372.143 818.764C362.996 833.344 367.391 852.53 381.971 861.675C396.552 870.82 415.739 866.425 424.886 851.845C434.032 837.266 429.638 818.08 415.057 808.935C400.477 799.79 381.289 804.185 372.143 818.764ZM471.082 661.051C461.936 675.631 466.33 694.817 480.911 703.962C495.491 713.106 514.679 708.711 523.825 694.132C532.972 679.552 528.577 660.367 513.997 651.222C499.416 642.077 480.228 646.472 471.082 661.051ZM570.022 503.338C560.875 517.918 565.27 537.103 579.85 546.248C594.431 555.393 613.619 550.998 622.765 536.419C631.911 521.839 627.517 502.653 612.936 493.508C598.356 484.363 579.168 488.758 570.022 503.338ZM331.986 1233.11C322.84 1247.69 327.234 1266.88 341.815 1276.03C356.395 1285.17 375.583 1280.78 384.729 1266.2C393.875 1251.62 389.481 1232.43 374.9 1223.29C360.32 1214.14 341.132 1218.54 331.986 1233.11ZM430.925 1075.4C421.779 1089.98 426.174 1109.17 440.754 1118.31C455.335 1127.46 474.522 1123.06 483.669 1108.48C492.815 1093.9 488.42 1074.72 473.84 1065.57C459.26 1056.43 440.072 1060.82 430.925 1075.4ZM529.865 917.688C520.719 932.268 525.113 951.454 539.694 960.599C554.274 969.744 573.462 965.349 582.608 950.77C591.755 936.19 587.36 917.004 572.78 907.859C558.199 898.714 539.011 903.109 529.865 917.688ZM628.805 759.976C619.658 774.555 624.053 793.741 638.633 802.886C653.214 812.031 672.402 807.636 681.548 793.056C690.694 778.477 686.3 759.291 671.719 750.146C657.139 741.001 637.951 745.396 628.805 759.976ZM727.744 602.263C718.598 616.842 722.992 636.028 737.573 645.173C752.153 654.318 771.341 649.923 780.487 635.343C789.634 620.764 785.239 601.578 770.659 592.433C756.078 583.288 736.787 587.707 727.744 602.263ZM489.708 1332.04C480.562 1346.62 484.957 1365.81 499.537 1374.95C514.118 1384.1 533.305 1379.7 542.452 1365.12C551.598 1350.54 547.203 1331.35 532.623 1322.21C518.042 1313.06 498.855 1317.46 489.708 1332.04ZM588.648 1174.33C579.502 1188.91 583.896 1208.09 598.477 1217.24C613.057 1226.38 632.245 1221.99 641.391 1207.41C650.538 1192.83 646.143 1173.64 631.563 1164.5C616.982 1155.35 597.794 1159.75 588.648 1174.33ZM687.587 1016.61C678.441 1031.19 682.836 1050.38 697.416 1059.52C711.997 1068.67 731.185 1064.27 740.331 1049.69C749.477 1035.11 745.083 1015.93 730.502 1006.78C715.922 997.638 696.734 1002.03 687.587 1016.61ZM786.527 858.9C777.381 873.479 781.775 892.666 796.356 901.811C810.936 910.956 830.124 906.561 839.27 891.981C848.417 877.401 844.022 858.215 829.442 849.07C814.861 839.925 795.57 844.344 786.527 858.9ZM885.467 701.187C876.32 715.767 880.715 734.952 895.295 744.097C909.876 753.242 929.064 748.847 938.21 734.268C947.356 719.688 942.962 700.502 928.381 691.357C913.801 682.212 894.51 686.631 885.467 701.187ZM647.431 1430.96C638.285 1445.54 642.679 1464.73 657.26 1473.87C671.84 1483.02 691.028 1478.62 700.174 1464.05C709.321 1449.47 704.926 1430.28 690.345 1421.13C675.765 1411.99 656.577 1416.38 647.431 1430.96ZM746.37 1273.25C737.224 1287.83 741.619 1307.02 756.199 1316.16C770.78 1325.31 789.967 1320.91 799.114 1306.33C808.26 1291.75 803.866 1272.57 789.285 1263.42C774.705 1254.28 755.517 1258.67 746.37 1273.25ZM845.31 1115.54C836.164 1130.12 840.558 1149.3 855.139 1158.45C869.719 1167.59 888.907 1163.2 898.053 1148.62C907.2 1134.04 902.805 1114.85 888.225 1105.71C873.644 1096.56 854.353 1100.98 845.31 1115.54ZM944.25 957.824C935.103 972.404 939.498 991.59 954.078 1000.74C968.659 1009.88 987.847 1005.49 996.993 990.905C1006.14 976.326 1001.74 957.14 987.164 947.995C972.584 938.85 953.293 943.268 944.25 957.824ZM1043.09 800.135C1033.94 814.714 1038.33 833.901 1052.91 843.046C1067.5 852.19 1086.68 847.795 1095.83 833.216C1104.98 818.636 1100.58 799.45 1086 790.305C1071.52 781.136 1052.23 785.555 1043.09 800.135Z"/></g><g><path d="M178.635 139.281L184.422 144.246V166.626H215.704L219.958 172.147L215.69 177.397H184.422V198.795L178.635 203.747L173 198.795V144.232L178.635 139.281ZM195.554 195.68H219.406L223.397 200.915L219.143 206.45H195.554L191.7 201.342L195.554 195.68ZM196.382 138H219.129L223.383 143.52L219.129 148.77H196.659L192.115 143.677L196.382 138ZM323.155 148.628L328.251 154.291L323.155 159.968H246.13L241.172 154.291L246.13 148.628H323.155ZM237.043 172.147L241.849 167.893L246.669 172.147V178.393C246.669 188.879 249.417 197.515 261.668 197.515H264.14C275.147 197.515 281.197 189.86 281.197 177.952V172.005L285.879 167.75L290.699 171.862V178.379C290.699 189.007 293.723 196.946 305.56 196.946H307.618C319.178 196.946 321.235 187.869 321.373 177.952V171.578L326.056 167.608L331 171.72V178.094C330.862 191.838 327.285 207.574 308.032 207.574H305.974C294.552 207.574 288.365 202.324 285.892 195.808C283.006 202.466 275.299 208.286 264.844 208.286H262.358C242.553 208.286 237.194 195.964 237.056 178.663V172.147H237.043ZM276.391 274.744L273.642 267.089L280.796 264.969L305.974 276.721V252.491L311.07 248.095L316.291 252.491V281.829L325.641 286.226L328.251 293.311L320.959 296L276.391 274.744ZM321.235 223.011L328.113 226.27L325.917 233.497L264.002 263.119L256.571 260.146L259.596 252.776L321.235 223.011ZM231.905 263.404L237.954 268.512C237.402 286.51 222.403 296 204.669 296H202.874C194.062 296 183.759 292.6 177.157 286.083L177.834 278.855L184.298 278.002C189.118 282.256 195.858 285.229 202.183 285.229H204.117C216.091 285.229 225.303 280.136 226.27 268.085L231.905 263.404ZM226.256 251.638C225.704 239.16 216.629 234.209 204.103 234.209H202.169C194.739 234.209 189.104 237.182 184.284 241.436L177.834 240.583L177.143 233.355C183.745 226.696 192.957 223.58 202.597 223.58H204.517C222.403 223.58 237.402 232.942 237.94 251.211L231.891 256.176L226.256 251.638Z" fill="#ffffff"/></g><path d="M1171 781L1171 339L1187 339L1187 781L1171 781Z" fill="#ffffff"/><g fill="#ffffff" id="info-group"><path d="M173.4000 555L167.3700 555Q166.0200 555 165.2550 554.2350Q164.4900 553.4700 164.2200 552.3000L164.2200 552.3000L153.5100 494.6100Q153.5100 494.3400 153.4650 494.1600Q153.4200 493.9800 153.4200 493.8900L153.4200 493.8900Q153.4200 493.0800 154.0050 492.5400Q154.5900 492 155.3100 492L155.3100 492L163.2300 492Q165.4800 492 165.7500 493.8000L165.7500 493.8000L173.2200 534.5700L181.3200 508.2000Q181.5900 507.4800 182.2650 506.7150Q182.9400 505.9500 184.2900 505.9500L184.2900 505.9500L189.1500 505.9500Q190.5900 505.9500 191.2200 506.7150Q191.8500 507.4800 192.0300 508.2000L192.0300 508.2000L200.2200 534.4800L207.6900 493.8000Q207.9600 492 210.2100 492L210.2100 492L218.1300 492Q218.8500 492 219.3900 492.5400Q219.9300 493.0800 219.9300 493.8900L219.9300 493.8900Q219.9300 493.9800 219.9300 494.1600Q219.9300 494.3400 219.8400 494.6100L219.8400 494.6100L209.1300 552.3000Q208.9500 553.4700 208.1400 554.2350Q207.3300 555 205.9800 555L205.9800 555L199.9500 555Q198.6000 555 197.8350 554.2800Q197.0700 553.5600 196.8000 552.7500L196.8000 552.7500L186.7200 522.6900L176.6400 552.7500Q176.2800 553.5600 175.5600 554.2800Q174.8400 555 173.4000 555L173.4000 555ZM239.6400 555L231.6300 555Q230.7300 555 230.1000 554.3700Q229.4700 553.7400 229.4700 552.8400L229.4700 552.8400L229.4700 493.2600Q229.4700 492.3600 230.1000 491.7300Q230.7300 491.1000 231.6300 491.1000L231.6300 491.1000L239.6400 491.1000Q240.6300 491.1000 241.2150 491.7300Q241.8000 492.3600 241.8000 493.2600L241.8000 493.2600L241.8000 513.7800Q244.2300 510.9000 247.7400 509.1000Q251.2500 507.3000 256.3800 507.3000L256.3800 507.3000Q261.8700 507.3000 265.9650 509.7750Q270.0600 512.2500 272.3100 516.7500Q274.5600 521.2500 274.5600 527.5500L274.5600 527.5500L274.5600 552.8400Q274.5600 553.7400 273.9300 554.3700Q273.3000 555 272.4000 555L272.4000 555L264.3000 555Q263.4000 555 262.7700 554.3700Q262.1400 553.7400 262.1400 552.8400L262.1400 552.8400L262.1400 528.0900Q262.1400 522.8700 259.5750 519.9000Q257.0100 516.9300 252.1500 516.9300L252.1500 516.9300Q247.4700 516.9300 244.6350 519.9000Q241.8000 522.8700 241.8000 528.0900L241.8000 528.0900L241.8000 552.8400Q241.8000 553.7400 241.2150 554.3700Q240.6300 555 239.6400 555L239.6400 555ZM306.6900 555.9000L306.6900 555.9000Q299.4900 555.9000 294.5850 553.3800Q289.6800 550.8600 287.1150 546.2700Q284.5500 541.6800 284.1900 535.5600L284.1900 535.5600Q284.1000 533.9400 284.1000 531.6000Q284.1000 529.2600 284.1900 527.6400L284.1900 527.6400Q284.5500 521.4300 287.2050 516.8850Q289.8600 512.3400 294.7650 509.8200Q299.6700 507.3000 306.6900 507.3000L306.6900 507.3000Q313.7100 507.3000 318.6150 509.8200Q323.5200 512.3400 326.1750 516.8850Q328.8300 521.4300 329.1900 527.6400L329.1900 527.6400Q329.2800 529.2600 329.2800 531.6000Q329.2800 533.9400 329.1900 535.5600L329.1900 535.5600Q328.8300 541.6800 326.2650 546.2700Q323.7000 550.8600 318.7950 553.3800Q313.8900 555.9000 306.6900 555.9000ZM306.6900 546.9900L306.6900 546.9900Q311.4600 546.9900 314.0700 543.9750Q316.6800 540.9600 316.9500 535.1100L316.9500 535.1100Q317.0400 533.7600 317.0400 531.6000Q317.0400 529.4400 316.9500 528.0900L316.9500 528.0900Q316.6800 522.2400 314.0700 519.2250Q311.4600 516.2100 306.6900 516.2100L306.6900 516.2100Q301.9200 516.2100 299.3100 519.2250Q296.7000 522.2400 296.4300 528.0900L296.4300 528.0900Q296.3400 529.4400 296.3400 531.6000Q296.3400 533.7600 296.4300 535.1100L296.4300 535.1100Q296.7000 540.9600 299.3100 543.9750Q301.9200 546.9900 306.6900 546.9900ZM369.5100 555L362.0400 555Q361.1400 555 360.5100 554.3700Q359.8800 553.7400 359.8800 552.8400L359.8800 552.8400L359.8800 510.3600Q359.8800 509.4600 360.5100 508.8300Q361.1400 508.2000 362.0400 508.2000L362.0400 508.2000L369.5100 508.2000Q370.5000 508.2000 371.0850 508.8300Q371.6700 509.4600 371.6700 510.3600L371.6700 510.3600L371.6700 552.8400Q371.6700 553.7400 371.0850 554.3700Q370.5000 555 369.5100 555L369.5100 555ZM369.8700 500.4600L361.6800 500.4600Q360.7800 500.4600 360.1500 499.8300Q359.5200 499.2000 359.5200 498.3000L359.5200 498.3000L359.5200 491.8200Q359.5200 490.9200 360.1500 490.2900Q360.7800 489.6600 361.6800 489.6600L361.6800 489.6600L369.8700 489.6600Q370.8600 489.6600 371.4900 490.2900Q372.1200 490.9200 372.1200 491.8200L372.1200 491.8200L372.1200 498.3000Q372.1200 499.2000 371.4900 499.8300Q370.8600 500.4600 369.8700 500.4600L369.8700 500.4600ZM401.3700 555.9000L401.3700 555.9000Q395.9700 555.9000 392.1450 554.6400Q388.3200 553.3800 385.8900 551.4900Q383.4600 549.6000 382.2900 547.7100Q381.1200 545.8200 381.0300 544.5600L381.0300 544.5600Q380.9400 543.5700 381.6150 542.9850Q382.2900 542.4000 383.1000 542.4000L383.1000 542.4000L390.2100 542.4000Q390.5700 542.4000 390.8400 542.4900Q391.1100 542.5800 391.5600 543.0300L391.5600 543.0300Q392.7300 544.0200 394.0350 545.1000Q395.3400 546.1800 397.1400 546.9450Q398.9400 547.7100 401.6400 547.7100L401.6400 547.7100Q405.1500 547.7100 407.5350 546.3150Q409.9200 544.9200 409.9200 542.3100L409.9200 542.3100Q409.9200 540.4200 408.8850 539.2500Q407.8500 538.0800 405.0600 537.1350Q402.2700 536.1900 397.1400 535.1100L397.1400 535.1100Q392.1000 533.9400 388.7700 532.1400Q385.4400 530.3400 383.8200 527.6400Q382.2000 524.9400 382.2000 521.3400L382.2000 521.3400Q382.2000 517.8300 384.3150 514.6350Q386.4300 511.4400 390.6150 509.3700Q394.8000 507.3000 401.0100 507.3000L401.0100 507.3000Q405.8700 507.3000 409.4700 508.5150Q413.0700 509.7300 415.4550 511.5300Q417.8400 513.3300 419.1000 515.1750Q420.3600 517.0200 420.4500 518.3700L420.4500 518.3700Q420.5400 519.3600 419.9100 519.9450Q419.2800 520.5300 418.4700 520.5300L418.4700 520.5300L411.8100 520.5300Q411.3600 520.5300 411.0000 520.3500Q410.6400 520.1700 410.2800 519.9000L410.2800 519.9000Q409.2900 519 408.1200 517.9650Q406.9500 516.9300 405.2850 516.2100Q403.6200 515.4900 400.9200 515.4900L400.9200 515.4900Q397.5000 515.4900 395.7000 516.9750Q393.9000 518.4600 393.9000 520.7100L393.9000 520.7100Q393.9000 522.2400 394.7550 523.3650Q395.6100 524.4900 398.2200 525.4800Q400.8300 526.4700 406.1400 527.5500L406.1400 527.5500Q412.1700 528.6300 415.7250 530.7450Q419.2800 532.8600 420.7650 535.6050Q422.2500 538.3500 422.2500 541.6800L422.2500 541.6800Q422.2500 545.7300 419.8650 548.9700Q417.4800 552.2100 412.8450 554.0550Q408.2100 555.9000 401.3700 555.9000ZM466.7100 555L459.3300 555Q458.4300 555 457.8000 554.3700Q457.1700 553.7400 457.1700 552.8400L457.1700 552.8400L457.1700 517.7400L449.8800 517.7400Q448.9800 517.7400 448.3500 517.1100Q447.7200 516.4800 447.7200 515.4900L447.7200 515.4900L447.7200 510.3600Q447.7200 509.4600 448.3500 508.8300Q448.9800 508.2000 449.8800 508.2000L449.8800 508.2000L457.1700 508.2000L457.1700 504.5100Q457.1700 499.1100 459.1500 495.5550Q461.1300 492 465.0000 490.2000Q468.8700 488.4000 474.8100 488.4000L474.8100 488.4000L480.9300 488.4000Q481.9200 488.4000 482.5050 489.0300Q483.0900 489.6600 483.0900 490.5600L483.0900 490.5600L483.0900 495.6900Q483.0900 496.6800 482.5050 497.3100Q481.9200 497.9400 480.9300 497.9400L480.9300 497.9400L475.1700 497.9400Q471.5700 497.9400 470.2200 499.7400Q468.8700 501.5400 468.8700 504.9600L468.8700 504.9600L468.8700 508.2000L480.0300 508.2000Q481.0200 508.2000 481.6050 508.8300Q482.1900 509.4600 482.1900 510.3600L482.1900 510.3600L482.1900 515.4900Q482.1900 516.4800 481.6050 517.1100Q481.0200 517.7400 480.0300 517.7400L480.0300 517.7400L468.8700 517.7400L468.8700 552.8400Q468.8700 553.7400 468.2400 554.3700Q467.6100 555 466.7100 555L466.7100 555ZM499.3800 555L491.5500 555Q490.6500 555 490.0200 554.3700Q489.3900 553.7400 489.3900 552.8400L489.3900 552.8400L489.3900 510.4500Q489.3900 509.4600 490.0200 508.8300Q490.6500 508.2000 491.5500 508.2000L491.5500 508.2000L498.8400 508.2000Q499.7400 508.2000 500.4150 508.8300Q501.0900 509.4600 501.0900 510.4500L501.0900 510.4500L501.0900 514.1400Q503.1600 511.2600 506.4450 509.7300Q509.7300 508.2000 514.0500 508.2000L514.0500 508.2000L517.7400 508.2000Q518.7300 508.2000 519.3150 508.8300Q519.9000 509.4600 519.9000 510.3600L519.9000 510.3600L519.9000 516.8400Q519.9000 517.7400 519.3150 518.3700Q518.7300 519 517.7400 519L517.7400 519L510.7200 519Q506.4000 519 504.0150 521.3850Q501.6300 523.7700 501.6300 528.0900L501.6300 528.0900L501.6300 552.8400Q501.6300 553.7400 501.0000 554.3700Q500.3700 555 499.3800 555L499.3800 555ZM547.6200 555.9000L547.6200 555.9000Q540.4200 555.9000 535.5150 553.3800Q530.6100 550.8600 528.0450 546.2700Q525.4800 541.6800 525.1200 535.5600L525.1200 535.5600Q525.0300 533.9400 525.0300 531.6000Q525.0300 529.2600 525.1200 527.6400L525.1200 527.6400Q525.4800 521.4300 528.1350 516.8850Q530.7900 512.3400 535.6950 509.8200Q540.6000 507.3000 547.6200 507.3000L547.6200 507.3000Q554.6400 507.3000 559.5450 509.8200Q564.4500 512.3400 567.1050 516.8850Q569.7600 521.4300 570.1200 527.6400L570.1200 527.6400Q570.2100 529.2600 570.2100 531.6000Q570.2100 533.9400 570.1200 535.5600L570.1200 535.5600Q569.7600 541.6800 567.1950 546.2700Q564.6300 550.8600 559.7250 553.3800Q554.8200 555.9000 547.6200 555.9000ZM547.6200 546.9900L547.6200 546.9900Q552.3900 546.9900 555 543.9750Q557.6100 540.9600 557.8800 535.1100L557.8800 535.1100Q557.9700 533.7600 557.9700 531.6000Q557.9700 529.4400 557.8800 528.0900L557.8800 528.0900Q557.6100 522.2400 555 519.2250Q552.3900 516.2100 547.6200 516.2100L547.6200 516.2100Q542.8500 516.2100 540.2400 519.2250Q537.6300 522.2400 537.3600 528.0900L537.3600 528.0900Q537.2700 529.4400 537.2700 531.6000Q537.2700 533.7600 537.3600 535.1100L537.3600 535.1100Q537.6300 540.9600 540.2400 543.9750Q542.8500 546.9900 547.6200 546.9900ZM590.2800 555L582.3600 555Q581.4600 555 580.8300 554.3700Q580.2000 553.7400 580.2000 552.8400L580.2000 552.8400L580.2000 510.3600Q580.2000 509.4600 580.8300 508.8300Q581.4600 508.2000 582.3600 508.2000L582.3600 508.2000L589.7400 508.2000Q590.6400 508.2000 591.2700 508.8300Q591.9000 509.4600 591.9000 510.3600L591.9000 510.3600L591.9000 514.0500Q594.2400 511.1700 597.8850 509.2350Q601.5300 507.3000 606.9300 507.3000L606.9300 507.3000Q612.4200 507.3000 616.4700 509.7750Q620.5200 512.2500 622.7250 516.7500Q624.9300 521.2500 624.9300 527.5500L624.9300 527.5500L624.9300 552.8400Q624.9300 553.7400 624.3000 554.3700Q623.6700 555 622.7700 555L622.7700 555L614.8500 555Q613.9500 555 613.3200 554.3700Q612.6900 553.7400 612.6900 552.8400L612.6900 552.8400L612.6900 528.0900Q612.6900 522.8700 610.1250 519.9000Q607.5600 516.9300 602.7000 516.9300L602.7000 516.9300Q598.0200 516.9300 595.2300 519.9000Q592.4400 522.8700 592.4400 528.0900L592.4400 528.0900L592.4400 552.8400Q592.4400 553.7400 591.8100 554.3700Q591.1800 555 590.2800 555L590.2800 555ZM664.8000 555L657.5100 555Q652.1100 555 648.4200 553.1100Q644.7300 551.2200 642.9300 547.4850Q641.1300 543.7500 641.1300 538.1700L641.1300 538.1700L641.1300 517.7400L634.0200 517.7400Q633.1200 517.7400 632.4900 517.1100Q631.8600 516.4800 631.8600 515.4900L631.8600 515.4900L631.8600 510.3600Q631.8600 509.4600 632.4900 508.8300Q633.1200 508.2000 634.0200 508.2000L634.0200 508.2000L641.1300 508.2000L641.1300 493.2600Q641.1300 492.3600 641.7150 491.7300Q642.3000 491.1000 643.2900 491.1000L643.2900 491.1000L650.5800 491.1000Q651.4800 491.1000 652.1100 491.7300Q652.7400 492.3600 652.7400 493.2600L652.7400 493.2600L652.7400 508.2000L663.9900 508.2000Q664.8900 508.2000 665.5200 508.8300Q666.1500 509.4600 666.1500 510.3600L666.1500 510.3600L666.1500 515.4900Q666.1500 516.4800 665.5200 517.1100Q664.8900 517.7400 663.9900 517.7400L663.9900 517.7400L652.7400 517.7400L652.7400 537.2700Q652.7400 540.9600 654.0450 543.0300Q655.3500 545.1000 658.5900 545.1000L658.5900 545.1000L664.8000 545.1000Q665.7000 545.1000 666.3300 545.7300Q666.9600 546.3600 666.9600 547.2600L666.9600 547.2600L666.9600 552.8400Q666.9600 553.7400 666.3300 554.3700Q665.7000 555 664.8000 555L664.8000 555ZM695.1300 555.9000L695.1300 555.9000Q685.1400 555.9000 679.2900 550.1400Q673.4400 544.3800 672.9900 533.7600L672.9900 533.7600Q672.9000 532.8600 672.9000 531.4650Q672.9000 530.0700 672.9900 529.2600L672.9900 529.2600Q673.3500 522.4200 676.0950 517.5150Q678.8400 512.6100 683.7000 509.9550Q688.5600 507.3000 695.1300 507.3000L695.1300 507.3000Q702.4200 507.3000 707.3700 510.3150Q712.3200 513.3300 714.8400 518.6850Q717.3600 524.0400 717.3600 531.0600L717.3600 531.0600L717.3600 532.9500Q717.3600 533.8500 716.7300 534.4800Q716.1000 535.1100 715.1100 535.1100L715.1100 535.1100L685.2300 535.1100Q685.2300 535.1100 685.2300 535.3800Q685.2300 535.6500 685.2300 535.8300L685.2300 535.8300Q685.3200 538.9800 686.4450 541.6350Q687.5700 544.2900 689.7750 545.9100Q691.9800 547.5300 695.0400 547.5300L695.0400 547.5300Q697.5600 547.5300 699.2700 546.7650Q700.9800 546 702.0600 545.0100Q703.1400 544.0200 703.5900 543.3900L703.5900 543.3900Q704.4000 542.3100 704.8950 542.0850Q705.3900 541.8600 706.3800 541.8600L706.3800 541.8600L714.1200 541.8600Q715.0200 541.8600 715.6050 542.4000Q716.1900 542.9400 716.1000 543.7500L716.1000 543.7500Q716.0100 545.1900 714.6150 547.2600Q713.2200 549.3300 710.6100 551.3100Q708 553.2900 704.0850 554.5950Q700.1700 555.9000 695.1300 555.9000ZM685.2300 527.2800L685.2300 527.5500L705.1200 527.5500L705.1200 527.2800Q705.1200 523.7700 703.9500 521.1150Q702.7800 518.4600 700.5300 516.9750Q698.2800 515.4900 695.1300 515.4900L695.1300 515.4900Q691.9800 515.4900 689.7300 516.9750Q687.4800 518.4600 686.3550 521.1150Q685.2300 523.7700 685.2300 527.2800L685.2300 527.2800ZM736.9800 555L729.0600 555Q728.1600 555 727.5300 554.3700Q726.9000 553.7400 726.9000 552.8400L726.9000 552.8400L726.9000 510.3600Q726.9000 509.4600 727.5300 508.8300Q728.1600 508.2000 729.0600 508.2000L729.0600 508.2000L736.4400 508.2000Q737.3400 508.2000 737.9700 508.8300Q738.6000 509.4600 738.6000 510.3600L738.6000 510.3600L738.6000 514.0500Q740.9400 511.1700 744.5850 509.2350Q748.2300 507.3000 753.6300 507.3000L753.6300 507.3000Q759.1200 507.3000 763.1700 509.7750Q767.2200 512.2500 769.4250 516.7500Q771.6300 521.2500 771.6300 527.5500L771.6300 527.5500L771.6300 552.8400Q771.6300 553.7400 771.0000 554.3700Q770.3700 555 769.4700 555L769.4700 555L761.5500 555Q760.6500 555 760.0200 554.3700Q759.3900 553.7400 759.3900 552.8400L759.3900 552.8400L759.3900 528.0900Q759.3900 522.8700 756.8250 519.9000Q754.2600 516.9300 749.4000 516.9300L749.4000 516.9300Q744.7200 516.9300 741.9300 519.9000Q739.1400 522.8700 739.1400 528.0900L739.1400 528.0900L739.1400 552.8400Q739.1400 553.7400 738.5100 554.3700Q737.8800 555 736.9800 555L736.9800 555ZM800.4300 555.9000L800.4300 555.9000Q795.7500 555.9000 792.1950 554.3250Q788.6400 552.7500 786.3000 549.8700Q783.9600 546.9900 782.7000 543.0750Q781.4400 539.1600 781.2600 534.4800L781.2600 534.4800Q781.1700 532.8600 781.1700 531.5550Q781.1700 530.2500 781.2600 528.6300L781.2600 528.6300Q781.4400 524.1300 782.6550 520.2600Q783.8700 516.3900 786.2550 513.4650Q788.6400 510.5400 792.1950 508.9200Q795.7500 507.3000 800.4300 507.3000L800.4300 507.3000Q805.2900 507.3000 808.6650 508.9650Q812.0400 510.6300 814.2900 513.2400L814.2900 513.2400L814.2900 493.2600Q814.2900 492.3600 814.8750 491.7300Q815.4600 491.1000 816.4500 491.1000L816.4500 491.1000L824.1000 491.1000Q825.0000 491.1000 825.6300 491.7300Q826.2600 492.3600 826.2600 493.2600L826.2600 493.2600L826.2600 552.8400Q826.2600 553.7400 825.6300 554.3700Q825.0000 555 824.1000 555L824.1000 555L816.9900 555Q816.0000 555 815.4150 554.3700Q814.8300 553.7400 814.8300 552.8400L814.8300 552.8400L814.8300 549.5100Q812.5800 552.3000 809.1150 554.1000Q805.6500 555.9000 800.4300 555.9000ZM803.7600 546.2700L803.7600 546.2700Q807.5400 546.2700 809.7900 544.5600Q812.0400 542.8500 813.1200 540.1950Q814.2000 537.5400 814.2900 534.7500L814.2900 534.7500Q814.3800 533.1300 814.3800 531.2850Q814.3800 529.4400 814.2900 527.8200L814.2900 527.8200Q814.2000 525.1200 813.0300 522.6450Q811.8600 520.1700 809.6100 518.5500Q807.3600 516.9300 803.7600 516.9300L803.7600 516.9300Q799.9800 516.9300 797.7750 518.5950Q795.5700 520.2600 794.5800 522.9600Q793.5900 525.6600 793.4100 528.9000L793.4100 528.9000Q793.3200 531.6000 793.4100 534.3000L793.4100 534.3000Q793.5900 537.5400 794.5800 540.2400Q795.5700 542.9400 797.7750 544.6050Q799.9800 546.2700 803.7600 546.2700ZM173.3100 645.9000L173.3100 645.9000Q168.6300 645.9000 165.0750 644.3250Q161.5200 642.7500 159.1800 639.8700Q156.8400 636.9900 155.5800 633.0750Q154.3200 629.1600 154.1400 624.4800L154.1400 624.4800Q154.0500 622.8600 154.0500 621.5550Q154.0500 620.2500 154.1400 618.6300L154.1400 618.6300Q154.3200 614.1300 155.5350 610.2600Q156.7500 606.3900 159.1350 603.4650Q161.5200 600.5400 165.0750 598.9200Q168.6300 597.3000 173.3100 597.3000L173.3100 597.3000Q178.1700 597.3000 181.5450 598.9650Q184.9200 600.6300 187.1700 603.2400L187.1700 603.2400L187.1700 583.2600Q187.1700 582.3600 187.7550 581.7300Q188.3400 581.1000 189.3300 581.1000L189.3300 581.1000L196.9800 581.1000Q197.8800 581.1000 198.5100 581.7300Q199.1400 582.3600 199.1400 583.2600L199.1400 583.2600L199.1400 642.8400Q199.1400 643.7400 198.5100 644.3700Q197.8800 645 196.9800 645L196.9800 645L189.8700 645Q188.8800 645 188.2950 644.3700Q187.7100 643.7400 187.7100 642.8400L187.7100 642.8400L187.7100 639.5100Q185.4600 642.3000 181.9950 644.1000Q178.5300 645.9000 173.3100 645.9000ZM176.6400 636.2700L176.6400 636.2700Q180.4200 636.2700 182.6700 634.5600Q184.9200 632.8500 186 630.1950Q187.0800 627.5400 187.1700 624.7500L187.1700 624.7500Q187.2600 623.1300 187.2600 621.2850Q187.2600 619.4400 187.1700 617.8200L187.1700 617.8200Q187.0800 615.1200 185.9100 612.6450Q184.7400 610.1700 182.4900 608.5500Q180.2400 606.9300 176.6400 606.9300L176.6400 606.9300Q172.8600 606.9300 170.6550 608.5950Q168.4500 610.2600 167.4600 612.9600Q166.4700 615.6600 166.2900 618.9000L166.2900 618.9000Q166.2000 621.6000 166.2900 624.3000L166.2900 624.3000Q166.4700 627.5400 167.4600 630.2400Q168.4500 632.9400 170.6550 634.6050Q172.8600 636.2700 176.6400 636.2700ZM231.2700 645.9000L231.2700 645.9000Q221.2800 645.9000 215.4300 640.1400Q209.5800 634.3800 209.1300 623.7600L209.1300 623.7600Q209.0400 622.8600 209.0400 621.4650Q209.0400 620.0700 209.1300 619.2600L209.1300 619.2600Q209.4900 612.4200 212.2350 607.5150Q214.9800 602.6100 219.8400 599.9550Q224.7000 597.3000 231.2700 597.3000L231.2700 597.3000Q238.5600 597.3000 243.5100 600.3150Q248.4600 603.3300 250.9800 608.6850Q253.5000 614.0400 253.5000 621.0600L253.5000 621.0600L253.5000 622.9500Q253.5000 623.8500 252.8700 624.4800Q252.2400 625.1100 251.2500 625.1100L251.2500 625.1100L221.3700 625.1100Q221.3700 625.1100 221.3700 625.3800Q221.3700 625.6500 221.3700 625.8300L221.3700 625.8300Q221.4600 628.9800 222.5850 631.6350Q223.7100 634.2900 225.9150 635.9100Q228.1200 637.5300 231.1800 637.5300L231.1800 637.5300Q233.7000 637.5300 235.4100 636.7650Q237.1200 636 238.2000 635.0100Q239.2800 634.0200 239.7300 633.3900L239.7300 633.3900Q240.5400 632.3100 241.0350 632.0850Q241.5300 631.8600 242.5200 631.8600L242.5200 631.8600L250.2600 631.8600Q251.1600 631.8600 251.7450 632.4000Q252.3300 632.9400 252.2400 633.7500L252.2400 633.7500Q252.1500 635.1900 250.7550 637.2600Q249.3600 639.3300 246.7500 641.3100Q244.1400 643.2900 240.2250 644.5950Q236.3100 645.9000 231.2700 645.9000ZM221.3700 617.2800L221.3700 617.5500L241.2600 617.5500L241.2600 617.2800Q241.2600 613.7700 240.0900 611.1150Q238.9200 608.4600 236.6700 606.9750Q234.4200 605.4900 231.2700 605.4900L231.2700 605.4900Q228.1200 605.4900 225.8700 606.9750Q223.6200 608.4600 222.4950 611.1150Q221.3700 613.7700 221.3700 617.2800L221.3700 617.2800ZM286.2600 645L279.6000 645Q278.1600 645 277.4850 644.3250Q276.8100 643.6500 276.3600 642.7500L276.3600 642.7500L259.5300 600.9900Q259.3500 600.5400 259.3500 600.1800L259.3500 600.1800Q259.3500 599.3700 259.9350 598.7850Q260.5200 598.2000 261.3300 598.2000L261.3300 598.2000L268.6200 598.2000Q269.7000 598.2000 270.2400 598.7850Q270.7800 599.3700 270.9600 599.9100L270.9600 599.9100L282.9300 631.5000L294.9000 599.9100Q295.0800 599.3700 295.6200 598.7850Q296.1600 598.2000 297.2400 598.2000L297.2400 598.2000L304.6200 598.2000Q305.3400 598.2000 305.9250 598.7850Q306.5100 599.3700 306.5100 600.1800L306.5100 600.1800Q306.5100 600.5400 306.4200 600.9900L306.4200 600.9900L289.5000 642.7500Q289.1400 643.6500 288.4200 644.3250Q287.7000 645 286.2600 645L286.2600 645ZM334.8600 645.9000L334.8600 645.9000Q324.8700 645.9000 319.0200 640.1400Q313.1700 634.3800 312.7200 623.7600L312.7200 623.7600Q312.6300 622.8600 312.6300 621.4650Q312.6300 620.0700 312.7200 619.2600L312.7200 619.2600Q313.0800 612.4200 315.8250 607.5150Q318.5700 602.6100 323.4300 599.9550Q328.2900 597.3000 334.8600 597.3000L334.8600 597.3000Q342.1500 597.3000 347.1000 600.3150Q352.0500 603.3300 354.5700 608.6850Q357.0900 614.0400 357.0900 621.0600L357.0900 621.0600L357.0900 622.9500Q357.0900 623.8500 356.4600 624.4800Q355.8300 625.1100 354.8400 625.1100L354.8400 625.1100L324.9600 625.1100Q324.9600 625.1100 324.9600 625.3800Q324.9600 625.6500 324.9600 625.8300L324.9600 625.8300Q325.0500 628.9800 326.1750 631.6350Q327.3000 634.2900 329.5050 635.9100Q331.7100 637.5300 334.7700 637.5300L334.7700 637.5300Q337.2900 637.5300 339 636.7650Q340.7100 636 341.7900 635.0100Q342.8700 634.0200 343.3200 633.3900L343.3200 633.3900Q344.1300 632.3100 344.6250 632.0850Q345.1200 631.8600 346.1100 631.8600L346.1100 631.8600L353.8500 631.8600Q354.7500 631.8600 355.3350 632.4000Q355.9200 632.9400 355.8300 633.7500L355.8300 633.7500Q355.7400 635.1900 354.3450 637.2600Q352.9500 639.3300 350.3400 641.3100Q347.7300 643.2900 343.8150 644.5950Q339.9000 645.9000 334.8600 645.9000ZM324.9600 617.2800L324.9600 617.5500L344.8500 617.5500L344.8500 617.2800Q344.8500 613.7700 343.6800 611.1150Q342.5100 608.4600 340.2600 606.9750Q338.0100 605.4900 334.8600 605.4900L334.8600 605.4900Q331.7100 605.4900 329.4600 606.9750Q327.2100 608.4600 326.0850 611.1150Q324.9600 613.7700 324.9600 617.2800L324.9600 617.2800ZM376.3500 645L368.8800 645Q367.9800 645 367.3500 644.3700Q366.7200 643.7400 366.7200 642.8400L366.7200 642.8400L366.7200 583.2600Q366.7200 582.3600 367.3500 581.7300Q367.9800 581.1000 368.8800 581.1000L368.8800 581.1000L376.3500 581.1000Q377.2500 581.1000 377.8800 581.7300Q378.5100 582.3600 378.5100 583.2600L378.5100 583.2600L378.5100 642.8400Q378.5100 643.7400 377.8800 644.3700Q377.2500 645 376.3500 645L376.3500 645ZM411.1800 645.9000L411.1800 645.9000Q403.9800 645.9000 399.0750 643.3800Q394.1700 640.8600 391.6050 636.2700Q389.0400 631.6800 388.6800 625.5600L388.6800 625.5600Q388.5900 623.9400 388.5900 621.6000Q388.5900 619.2600 388.6800 617.6400L388.6800 617.6400Q389.0400 611.4300 391.6950 606.8850Q394.3500 602.3400 399.2550 599.8200Q404.1600 597.3000 411.1800 597.3000L411.1800 597.3000Q418.2000 597.3000 423.1050 599.8200Q428.0100 602.3400 430.6650 606.8850Q433.3200 611.4300 433.6800 617.6400L433.6800 617.6400Q433.7700 619.2600 433.7700 621.6000Q433.7700 623.9400 433.6800 625.5600L433.6800 625.5600Q433.3200 631.6800 430.7550 636.2700Q428.1900 640.8600 423.2850 643.3800Q418.3800 645.9000 411.1800 645.9000ZM411.1800 636.9900L411.1800 636.9900Q415.9500 636.9900 418.5600 633.9750Q421.1700 630.9600 421.4400 625.1100L421.4400 625.1100Q421.5300 623.7600 421.5300 621.6000Q421.5300 619.4400 421.4400 618.0900L421.4400 618.0900Q421.1700 612.2400 418.5600 609.2250Q415.9500 606.2100 411.1800 606.2100L411.1800 606.2100Q406.4100 606.2100 403.8000 609.2250Q401.1900 612.2400 400.9200 618.0900L400.9200 618.0900Q400.8300 619.4400 400.8300 621.6000Q400.8300 623.7600 400.9200 625.1100L400.9200 625.1100Q401.1900 630.9600 403.8000 633.9750Q406.4100 636.9900 411.1800 636.9900ZM453.6600 662.1000L446.0100 662.1000Q445.1100 662.1000 444.4800 661.4700Q443.8500 660.8400 443.8500 659.9400L443.8500 659.9400L443.8500 600.3600Q443.8500 599.4600 444.4800 598.8300Q445.1100 598.2000 446.0100 598.2000L446.0100 598.2000L453.1200 598.2000Q454.1100 598.2000 454.6950 598.8300Q455.2800 599.4600 455.2800 600.3600L455.2800 600.3600L455.2800 603.9600Q457.4400 601.0800 460.9500 599.1900Q464.4600 597.3000 469.6800 597.3000L469.6800 597.3000Q474.4500 597.3000 477.9600 598.8300Q481.4700 600.3600 483.8100 603.1950Q486.1500 606.0300 487.4100 609.9000Q488.6700 613.7700 488.8500 618.4500L488.8500 618.4500Q488.9400 619.9800 488.9400 621.6000Q488.9400 623.2200 488.8500 624.8400L488.8500 624.8400Q488.7600 629.3400 487.5000 633.1650Q486.2400 636.9900 483.8550 639.8250Q481.4700 642.6600 477.9600 644.2800Q474.4500 645.9000 469.6800 645.9000L469.6800 645.9000Q464.8200 645.9000 461.4000 644.1450Q457.9800 642.3900 455.8200 639.5100L455.8200 639.5100L455.8200 659.9400Q455.8200 660.8400 455.2350 661.4700Q454.6500 662.1000 453.6600 662.1000L453.6600 662.1000ZM466.3500 636.2700L466.3500 636.2700Q470.2200 636.2700 472.3800 634.6050Q474.5400 632.9400 475.5300 630.2400Q476.5200 627.5400 476.7000 624.3000L476.7000 624.3000Q476.7900 621.6000 476.7000 618.9000L476.7000 618.9000Q476.5200 615.6600 475.5300 612.9600Q474.5400 610.2600 472.3800 608.5950Q470.2200 606.9300 466.3500 606.9300L466.3500 606.9300Q462.6600 606.9300 460.3650 608.6400Q458.0700 610.3500 457.0350 613.0050Q456.0000 615.6600 455.8200 618.4500L455.8200 618.4500Q455.7300 620.0700 455.7300 621.8700Q455.7300 623.6700 455.8200 625.3800L455.8200 625.3800Q455.9100 628.0800 457.0800 630.5550Q458.2500 633.0300 460.5000 634.6500Q462.7500 636.2700 466.3500 636.2700ZM519.1800 645.9000L519.1800 645.9000Q509.1900 645.9000 503.3400 640.1400Q497.4900 634.3800 497.0400 623.7600L497.0400 623.7600Q496.9500 622.8600 496.9500 621.4650Q496.9500 620.0700 497.0400 619.2600L497.0400 619.2600Q497.4000 612.4200 500.1450 607.5150Q502.8900 602.6100 507.7500 599.9550Q512.6100 597.3000 519.1800 597.3000L519.1800 597.3000Q526.4700 597.3000 531.4200 600.3150Q536.3700 603.3300 538.8900 608.6850Q541.4100 614.0400 541.4100 621.0600L541.4100 621.0600L541.4100 622.9500Q541.4100 623.8500 540.7800 624.4800Q540.1500 625.1100 539.1600 625.1100L539.1600 625.1100L509.2800 625.1100Q509.2800 625.1100 509.2800 625.3800Q509.2800 625.6500 509.2800 625.8300L509.2800 625.8300Q509.3700 628.9800 510.4950 631.6350Q511.6200 634.2900 513.8250 635.9100Q516.0300 637.5300 519.0900 637.5300L519.0900 637.5300Q521.6100 637.5300 523.3200 636.7650Q525.0300 636 526.1100 635.0100Q527.1900 634.0200 527.6400 633.3900L527.6400 633.3900Q528.4500 632.3100 528.9450 632.0850Q529.4400 631.8600 530.4300 631.8600L530.4300 631.8600L538.1700 631.8600Q539.0700 631.8600 539.6550 632.4000Q540.2400 632.9400 540.1500 633.7500L540.1500 633.7500Q540.0600 635.1900 538.6650 637.2600Q537.2700 639.3300 534.6600 641.3100Q532.0500 643.2900 528.1350 644.5950Q524.2200 645.9000 519.1800 645.9000ZM509.2800 617.2800L509.2800 617.5500L529.1700 617.5500L529.1700 617.2800Q529.1700 613.7700 528 611.1150Q526.8300 608.4600 524.5800 606.9750Q522.3300 605.4900 519.1800 605.4900L519.1800 605.4900Q516.0300 605.4900 513.7800 606.9750Q511.5300 608.4600 510.4050 611.1150Q509.2800 613.7700 509.2800 617.2800L509.2800 617.2800ZM560.9400 645L553.1100 645Q552.2100 645 551.5800 644.3700Q550.9500 643.7400 550.9500 642.8400L550.9500 642.8400L550.9500 600.4500Q550.9500 599.4600 551.5800 598.8300Q552.2100 598.2000 553.1100 598.2000L553.1100 598.2000L560.4000 598.2000Q561.3000 598.2000 561.9750 598.8300Q562.6500 599.4600 562.6500 600.4500L562.6500 600.4500L562.6500 604.1400Q564.7200 601.2600 568.0050 599.7300Q571.2900 598.2000 575.6100 598.2000L575.6100 598.2000L579.3000 598.2000Q580.2900 598.2000 580.8750 598.8300Q581.4600 599.4600 581.4600 600.3600L581.4600 600.3600L581.4600 606.8400Q581.4600 607.7400 580.8750 608.3700Q580.2900 609 579.3000 609L579.3000 609L572.2800 609Q567.9600 609 565.5750 611.3850Q563.1900 613.7700 563.1900 618.0900L563.1900 618.0900L563.1900 642.8400Q563.1900 643.7400 562.5600 644.3700Q561.9300 645 560.9400 645L560.9400 645ZM612.7800 628.0800L603.9600 628.0800Q603.2400 628.0800 602.7000 627.5850Q602.1600 627.0900 602.1600 626.2800L602.1600 626.2800Q602.1600 625.5600 602.1600 624.8400Q602.1600 624.1200 602.1600 623.4000L602.1600 623.4000Q602.5200 619.8900 604.0950 617.1450Q605.6700 614.4000 607.7850 612.1050Q609.9000 609.8100 612.0150 607.7400Q614.1300 605.6700 615.6150 603.6450Q617.1000 601.6200 617.3700 599.4600L617.3700 599.4600Q617.6400 596.8500 616.3350 595.0500Q615.0300 593.2500 612.8250 592.3050Q610.6200 591.3600 608.1900 591.3600L608.1900 591.3600Q603.9600 591.3600 601.2600 593.4300Q598.5600 595.5000 597.5700 600.0900L597.5700 600.0900Q597.3000 601.1700 596.6700 601.6650Q596.0400 602.1600 594.9600 602.1600L594.9600 602.1600L587.3100 602.1600Q586.5000 602.1600 585.9150 601.5750Q585.3300 600.9900 585.3300 600L585.3300 600Q585.4200 596.4000 586.9950 593.0250Q588.5700 589.6500 591.5850 586.9500Q594.6000 584.2500 598.9200 582.6750Q603.2400 581.1000 608.8200 581.1000L608.8200 581.1000Q614.9400 581.1000 619.1250 582.6750Q623.3100 584.2500 625.7850 586.7700Q628.2600 589.2900 629.3400 592.2150Q630.4200 595.1400 630.3300 597.9300L630.3300 597.9300Q630.1500 601.3500 628.8000 604.0500Q627.4500 606.7500 625.4700 609.0450Q623.4900 611.3400 621.4200 613.5450Q619.3500 615.7500 617.7750 618Q616.2000 620.2500 615.6600 622.7700L615.6600 622.7700Q615.4800 623.5800 615.3900 624.3450Q615.3000 625.1100 615.2100 625.8300L615.2100 625.8300Q614.8500 626.9100 614.3100 627.4950Q613.7700 628.0800 612.7800 628.0800L612.7800 628.0800ZM612.4200 645L603.6900 645Q602.7900 645 602.1600 644.3700Q601.5300 643.7400 601.5300 642.8400L601.5300 642.8400L601.5300 635.0100Q601.5300 634.0200 602.1600 633.3900Q602.7900 632.7600 603.6900 632.7600L603.6900 632.7600L612.4200 632.7600Q613.4100 632.7600 614.0400 633.3900Q614.6700 634.0200 614.6700 635.0100L614.6700 635.0100L614.6700 642.8400Q614.6700 643.7400 614.0400 644.3700Q613.4100 645 612.4200 645L612.4200 645Z" id="title"/><path d="M1491.2800 650L1376.5600 650Q1374.1600 650 1372.4800 648.3200Q1370.8000 646.6400 1370.8000 644.2400L1370.8000 644.2400L1370.8000 632Q1370.8000 629.8400 1371.8800 626.8400Q1372.9600 623.8400 1376.8000 620.7200L1376.8000 620.7200L1414.7200 583.0400Q1430.5600 570.5600 1440.2800 561.8000Q1450 553.0400 1454.4400 545.7200Q1458.8800 538.4000 1458.8800 531.2000L1458.8800 531.2000Q1458.8800 520.4000 1453 513.6800Q1447.1200 506.9600 1434.4000 506.9600L1434.4000 506.9600Q1426 506.9600 1420.2400 510.4400Q1414.4800 513.9200 1411.2400 519.6800Q1408 525.4400 1406.8000 532.4000L1406.8000 532.4000Q1406.3200 535.5200 1404.1600 536.7200Q1402 537.9200 1399.8400 537.9200L1399.8400 537.9200L1378.4800 537.9200Q1376.3200 537.9200 1374.8800 536.4800Q1373.4400 535.0400 1373.4400 533.1200L1373.4400 533.1200Q1373.6800 522.8000 1377.7600 513.0800Q1381.8400 503.3600 1389.6400 495.8000Q1397.4400 488.2400 1408.7200 483.6800Q1420 479.1200 1434.1600 479.1200L1434.1600 479.1200Q1454.0800 479.1200 1467.1600 485.8400Q1480.2400 492.5600 1486.8400 504.0800Q1493.4400 515.6000 1493.4400 530L1493.4400 530Q1493.4400 541.2800 1489.1200 550.7600Q1484.8000 560.2400 1476.6400 569Q1468.4800 577.7600 1456.9600 586.8800L1456.9600 586.8800L1422.8800 621.4400L1491.2800 621.4400Q1493.9200 621.4400 1495.4800 623Q1497.0400 624.5600 1497.0400 627.2000L1497.0400 627.2000L1497.0400 644.2400Q1497.0400 646.6400 1495.4800 648.3200Q1493.9200 650 1491.2800 650L1491.2800 650ZM1552.7200 650L1528.7200 650Q1526.3200 650 1524.6400 648.3200Q1522.9600 646.6400 1522.9600 644.2400L1522.9600 644.2400L1522.9600 620.4800Q1522.9600 617.8400 1524.6400 616.1600Q1526.3200 614.4800 1528.7200 614.4800L1528.7200 614.4800L1552.7200 614.4800Q1555.1200 614.4800 1556.8000 616.1600Q1558.4800 617.8400 1558.4800 620.4800L1558.4800 620.4800L1558.4800 644.2400Q1558.4800 646.6400 1556.8000 648.3200Q1555.1200 650 1552.7200 650L1552.7200 650ZM1685.9200 650L1665.0400 650Q1662.6400 650 1660.9600 648.3200Q1659.2800 646.6400 1659.2800 644.2400L1659.2800 644.2400L1659.2800 613.5200L1583.2000 613.5200Q1580.5600 613.5200 1579.0000 611.8400Q1577.4400 610.1600 1577.4400 607.7600L1577.4400 607.7600L1577.4400 591.4400Q1577.4400 590 1578.0400 587.9600Q1578.6400 585.9200 1580.0800 584.2400L1580.0800 584.2400L1650.8800 486.0800Q1654.0000 482 1659.7600 482L1659.7600 482L1685.9200 482Q1688.3200 482 1690.0000 483.6800Q1691.6800 485.3600 1691.6800 487.7600L1691.6800 487.7600L1691.6800 585.2000L1713.0400 585.2000Q1715.9200 585.2000 1717.4800 586.7600Q1719.0400 588.3200 1719.0400 590.9600L1719.0400 590.9600L1719.0400 607.7600Q1719.0400 610.1600 1717.3600 611.8400Q1715.6800 613.5200 1713.2800 613.5200L1713.2800 613.5200L1691.6800 613.5200L1691.6800 644.2400Q1691.6800 646.6400 1690.0000 648.3200Q1688.3200 650 1685.9200 650L1685.9200 650ZM1660.0000 516.8000L1610.8000 586.1600L1660.0000 586.1600L1660.0000 516.8000Z" id="lecture-full-number"/></g></svg>