<svg xmlns="http://www.w3.org/2000/svg" version="1.1" xmlns:xlink="http://www.w3.org/1999/xlink" xmlns:svgjs="http://svgjs.dev/svgjs" viewBox="0 0 1920 1080" id="hidden-cover-svg"><g><rect width="1920" height="1080" fill="#c46d5e"/></g><g fill="#7e56a6"><path d="M716 244.687C1027.07 244.687 1278.69 -7.55189 1278.69 -318L1842 -318C1842 303.522 1338.15 807.374 716 807.374L716 244.687Z"/></g><g fill="#ffffff" opacity="0.2"><path d="M59.4553 1025.44C74.0358 1034.58 78.4304 1053.77 69.2841 1068.35C60.1377 1082.93 40.9502 1087.32 26.3697 1078.18C11.7893 1069.03 7.39469 1049.85 16.5411 1035.27C25.6874 1020.69 44.8749 1016.29 59.4553 1025.44ZM115.48 877.553C106.334 892.133 110.729 911.319 125.309 920.464C139.89 929.608 159.077 925.213 168.224 910.634C177.37 896.054 172.975 876.869 158.395 867.724C143.815 858.579 124.627 862.974 115.48 877.553ZM214.42 719.84C205.274 734.42 209.668 753.605 224.249 762.75C238.829 771.895 258.017 767.5 267.163 752.921C276.31 738.341 271.915 719.155 257.335 710.01C242.754 700.865 223.566 705.26 214.42 719.84ZM313.36 562.127C304.213 576.706 308.608 595.892 323.188 605.037C337.769 614.182 356.956 609.787 366.103 595.207C375.249 580.628 370.855 561.442 356.274 552.297C341.694 543.152 322.506 547.547 313.36 562.127ZM412.299 404.414C403.153 418.993 407.547 438.179 422.128 447.324C436.708 456.469 455.896 452.074 465.042 437.494C474.189 422.915 469.794 403.729 455.214 394.584C440.633 385.439 421.446 389.834 412.299 404.414ZM174.263 1134.19C165.117 1148.77 169.512 1167.96 184.092 1177.1C198.673 1186.25 217.86 1181.85 227.007 1167.27C236.153 1152.69 231.758 1133.51 217.178 1124.36C202.597 1115.22 183.41 1119.61 174.263 1134.19ZM273.203 976.477C264.056 991.057 268.451 1010.24 283.032 1019.39C297.612 1028.53 316.8 1024.14 325.946 1009.56C335.093 994.979 330.698 975.792 316.117 966.648C301.537 957.503 282.349 961.898 273.203 976.477ZM372.143 818.764C362.996 833.344 367.391 852.53 381.971 861.675C396.552 870.82 415.739 866.425 424.886 851.845C434.032 837.266 429.638 818.08 415.057 808.935C400.477 799.79 381.289 804.185 372.143 818.764ZM471.082 661.051C461.936 675.631 466.33 694.817 480.911 703.962C495.491 713.106 514.679 708.711 523.825 694.132C532.972 679.552 528.577 660.367 513.997 651.222C499.416 642.077 480.228 646.472 471.082 661.051ZM570.022 503.338C560.875 517.918 565.27 537.103 579.85 546.248C594.431 555.393 613.619 550.998 622.765 536.419C631.911 521.839 627.517 502.653 612.936 493.508C598.356 484.363 579.168 488.758 570.022 503.338ZM331.986 1233.11C322.84 1247.69 327.234 1266.88 341.815 1276.03C356.395 1285.17 375.583 1280.78 384.729 1266.2C393.875 1251.62 389.481 1232.43 374.9 1223.29C360.32 1214.14 341.132 1218.54 331.986 1233.11ZM430.925 1075.4C421.779 1089.98 426.174 1109.17 440.754 1118.31C455.335 1127.46 474.522 1123.06 483.669 1108.48C492.815 1093.9 488.42 1074.72 473.84 1065.57C459.26 1056.43 440.072 1060.82 430.925 1075.4ZM529.865 917.688C520.719 932.268 525.113 951.454 539.694 960.599C554.274 969.744 573.462 965.349 582.608 950.77C591.755 936.19 587.36 917.004 572.78 907.859C558.199 898.714 539.011 903.109 529.865 917.688ZM628.805 759.976C619.658 774.555 624.053 793.741 638.633 802.886C653.214 812.031 672.402 807.636 681.548 793.056C690.694 778.477 686.3 759.291 671.719 750.146C657.139 741.001 637.951 745.396 628.805 759.976ZM727.744 602.263C718.598 616.842 722.992 636.028 737.573 645.173C752.153 654.318 771.341 649.923 780.487 635.343C789.634 620.764 785.239 601.578 770.659 592.433C756.078 583.288 736.787 587.707 727.744 602.263ZM489.708 1332.04C480.562 1346.62 484.957 1365.81 499.537 1374.95C514.118 1384.1 533.305 1379.7 542.452 1365.12C551.598 1350.54 547.203 1331.35 532.623 1322.21C518.042 1313.06 498.855 1317.46 489.708 1332.04ZM588.648 1174.33C579.502 1188.91 583.896 1208.09 598.477 1217.24C613.057 1226.38 632.245 1221.99 641.391 1207.41C650.538 1192.83 646.143 1173.64 631.563 1164.5C616.982 1155.35 597.794 1159.75 588.648 1174.33ZM687.587 1016.61C678.441 1031.19 682.836 1050.38 697.416 1059.52C711.997 1068.67 731.185 1064.27 740.331 1049.69C749.477 1035.11 745.083 1015.93 730.502 1006.78C715.922 997.638 696.734 1002.03 687.587 1016.61ZM786.527 858.9C777.381 873.479 781.775 892.666 796.356 901.811C810.936 910.956 830.124 906.561 839.27 891.981C848.417 877.401 844.022 858.215 829.442 849.07C814.861 839.925 795.57 844.344 786.527 858.9ZM885.467 701.187C876.32 715.767 880.715 734.952 895.295 744.097C909.876 753.242 929.064 748.847 938.21 734.268C947.356 719.688 942.962 700.502 928.381 691.357C913.801 682.212 894.51 686.631 885.467 701.187ZM647.431 1430.96C638.285 1445.54 642.679 1464.73 657.26 1473.87C671.84 1483.02 691.028 1478.62 700.174 1464.05C709.321 1449.47 704.926 1430.28 690.345 1421.13C675.765 1411.99 656.577 1416.38 647.431 1430.96ZM746.37 1273.25C737.224 1287.83 741.619 1307.02 756.199 1316.16C770.78 1325.31 789.967 1320.91 799.114 1306.33C808.26 1291.75 803.866 1272.57 789.285 1263.42C774.705 1254.28 755.517 1258.67 746.37 1273.25ZM845.31 1115.54C836.164 1130.12 840.558 1149.3 855.139 1158.45C869.719 1167.59 888.907 1163.2 898.053 1148.62C907.2 1134.04 902.805 1114.85 888.225 1105.71C873.644 1096.56 854.353 1100.98 845.31 1115.54ZM944.25 957.824C935.103 972.404 939.498 991.59 954.078 1000.74C968.659 1009.88 987.847 1005.49 996.993 990.905C1006.14 976.326 1001.74 957.14 987.164 947.995C972.584 938.85 953.293 943.268 944.25 957.824ZM1043.09 800.135C1033.94 814.714 1038.33 833.901 1052.91 843.046C1067.5 852.19 1086.68 847.795 1095.83 833.216C1104.98 818.636 1100.58 799.45 1086 790.305C1071.52 781.136 1052.23 785.555 1043.09 800.135Z"/></g><g><path d="M178.635 139.281L184.422 144.246V166.626H215.704L219.958 172.147L215.69 177.397H184.422V198.795L178.635 203.747L173 198.795V144.232L178.635 139.281ZM195.554 195.68H219.406L223.397 200.915L219.143 206.45H195.554L191.7 201.342L195.554 195.68ZM196.382 138H219.129L223.383 143.52L219.129 148.77H196.659L192.115 143.677L196.382 138ZM323.155 148.628L328.251 154.291L323.155 159.968H246.13L241.172 154.291L246.13 148.628H323.155ZM237.043 172.147L241.849 167.893L246.669 172.147V178.393C246.669 188.879 249.417 197.515 261.668 197.515H264.14C275.147 197.515 281.197 189.86 281.197 177.952V172.005L285.879 167.75L290.699 171.862V178.379C290.699 189.007 293.723 196.946 305.56 196.946H307.618C319.178 196.946 321.235 187.869 321.373 177.952V171.578L326.056 167.608L331 171.72V178.094C330.862 191.838 327.285 207.574 308.032 207.574H305.974C294.552 207.574 288.365 202.324 285.892 195.808C283.006 202.466 275.299 208.286 264.844 208.286H262.358C242.553 208.286 237.194 195.964 237.056 178.663V172.147H237.043ZM276.391 274.744L273.642 267.089L280.796 264.969L305.974 276.721V252.491L311.07 248.095L316.291 252.491V281.829L325.641 286.226L328.251 293.311L320.959 296L276.391 274.744ZM321.235 223.011L328.113 226.27L325.917 233.497L264.002 263.119L256.571 260.146L259.596 252.776L321.235 223.011ZM231.905 263.404L237.954 268.512C237.402 286.51 222.403 296 204.669 296H202.874C194.062 296 183.759 292.6 177.157 286.083L177.834 278.855L184.298 278.002C189.118 282.256 195.858 285.229 202.183 285.229H204.117C216.091 285.229 225.303 280.136 226.27 268.085L231.905 263.404ZM226.256 251.638C225.704 239.16 216.629 234.209 204.103 234.209H202.169C194.739 234.209 189.104 237.182 184.284 241.436L177.834 240.583L177.143 233.355C183.745 226.696 192.957 223.58 202.597 223.58H204.517C222.403 223.58 237.402 232.942 237.94 251.211L231.891 256.176L226.256 251.638Z" fill="#ffffff"/></g><path d="M1171 781L1171 339L1187 339L1187 781L1171 781Z" fill="#ffffff"/><g fill="#ffffff" id="info-group"><path d="M167.6400 555L159.1800 555Q158.2800 555 157.6500 554.3700Q157.0200 553.7400 157.0200 552.8400L157.0200 552.8400L157.0200 494.1600Q157.0200 493.2600 157.6500 492.6300Q158.2800 492 159.1800 492L159.1800 492L167.6400 492Q168.6300 492 169.2150 492.6300Q169.8000 493.2600 169.8000 494.1600L169.8000 494.1600L169.8000 552.8400Q169.8000 553.7400 169.2150 554.3700Q168.6300 555 167.6400 555L167.6400 555ZM192.9300 555L185.0100 555Q184.1100 555 183.4800 554.3700Q182.8500 553.7400 182.8500 552.8400L182.8500 552.8400L182.8500 510.3600Q182.8500 509.4600 183.4800 508.8300Q184.1100 508.2000 185.0100 508.2000L185.0100 508.2000L192.3900 508.2000Q193.2900 508.2000 193.9200 508.8300Q194.5500 509.4600 194.5500 510.3600L194.5500 510.3600L194.5500 514.0500Q196.8900 511.1700 200.5350 509.2350Q204.1800 507.3000 209.5800 507.3000L209.5800 507.3000Q215.0700 507.3000 219.1200 509.7750Q223.1700 512.2500 225.3750 516.7500Q227.5800 521.2500 227.5800 527.5500L227.5800 527.5500L227.5800 552.8400Q227.5800 553.7400 226.9500 554.3700Q226.3200 555 225.4200 555L225.4200 555L217.5000 555Q216.6000 555 215.9700 554.3700Q215.3400 553.7400 215.3400 552.8400L215.3400 552.8400L215.3400 528.0900Q215.3400 522.8700 212.7750 519.9000Q210.2100 516.9300 205.3500 516.9300L205.3500 516.9300Q200.6700 516.9300 197.8800 519.9000Q195.0900 522.8700 195.0900 528.0900L195.0900 528.0900L195.0900 552.8400Q195.0900 553.7400 194.4600 554.3700Q193.8300 555 192.9300 555L192.9300 555ZM267.4500 555L260.1600 555Q254.7600 555 251.0700 553.1100Q247.3800 551.2200 245.5800 547.4850Q243.7800 543.7500 243.7800 538.1700L243.7800 538.1700L243.7800 517.7400L236.6700 517.7400Q235.7700 517.7400 235.1400 517.1100Q234.5100 516.4800 234.5100 515.4900L234.5100 515.4900L234.5100 510.3600Q234.5100 509.4600 235.1400 508.8300Q235.7700 508.2000 236.6700 508.2000L236.6700 508.2000L243.7800 508.2000L243.7800 493.2600Q243.7800 492.3600 244.3650 491.7300Q244.9500 491.1000 245.9400 491.1000L245.9400 491.1000L253.2300 491.1000Q254.1300 491.1000 254.7600 491.7300Q255.3900 492.3600 255.3900 493.2600L255.3900 493.2600L255.3900 508.2000L266.6400 508.2000Q267.5400 508.2000 268.1700 508.8300Q268.8000 509.4600 268.8000 510.3600L268.8000 510.3600L268.8000 515.4900Q268.8000 516.4800 268.1700 517.1100Q267.5400 517.7400 266.6400 517.7400L266.6400 517.7400L255.3900 517.7400L255.3900 537.2700Q255.3900 540.9600 256.6950 543.0300Q258 545.1000 261.2400 545.1000L261.2400 545.1000L267.4500 545.1000Q268.3500 545.1000 268.9800 545.7300Q269.6100 546.3600 269.6100 547.2600L269.6100 547.2600L269.6100 552.8400Q269.6100 553.7400 268.9800 554.3700Q268.3500 555 267.4500 555L267.4500 555ZM287.6100 555L279.7800 555Q278.8800 555 278.2500 554.3700Q277.6200 553.7400 277.6200 552.8400L277.6200 552.8400L277.6200 510.4500Q277.6200 509.4600 278.2500 508.8300Q278.8800 508.2000 279.7800 508.2000L279.7800 508.2000L287.0700 508.2000Q287.9700 508.2000 288.6450 508.8300Q289.3200 509.4600 289.3200 510.4500L289.3200 510.4500L289.3200 514.1400Q291.3900 511.2600 294.6750 509.7300Q297.9600 508.2000 302.2800 508.2000L302.2800 508.2000L305.9700 508.2000Q306.9600 508.2000 307.5450 508.8300Q308.1300 509.4600 308.1300 510.3600L308.1300 510.3600L308.1300 516.8400Q308.1300 517.7400 307.5450 518.3700Q306.9600 519 305.9700 519L305.9700 519L298.9500 519Q294.6300 519 292.2450 521.3850Q289.8600 523.7700 289.8600 528.0900L289.8600 528.0900L289.8600 552.8400Q289.8600 553.7400 289.2300 554.3700Q288.6000 555 287.6100 555L287.6100 555ZM335.8500 555.9000L335.8500 555.9000Q328.6500 555.9000 323.7450 553.3800Q318.8400 550.8600 316.2750 546.2700Q313.7100 541.6800 313.3500 535.5600L313.3500 535.5600Q313.2600 533.9400 313.2600 531.6000Q313.2600 529.2600 313.3500 527.6400L313.3500 527.6400Q313.7100 521.4300 316.3650 516.8850Q319.0200 512.3400 323.9250 509.8200Q328.8300 507.3000 335.8500 507.3000L335.8500 507.3000Q342.8700 507.3000 347.7750 509.8200Q352.6800 512.3400 355.3350 516.8850Q357.9900 521.4300 358.3500 527.6400L358.3500 527.6400Q358.4400 529.2600 358.4400 531.6000Q358.4400 533.9400 358.3500 535.5600L358.3500 535.5600Q357.9900 541.6800 355.4250 546.2700Q352.8600 550.8600 347.9550 553.3800Q343.0500 555.9000 335.8500 555.9000ZM335.8500 546.9900L335.8500 546.9900Q340.6200 546.9900 343.2300 543.9750Q345.8400 540.9600 346.1100 535.1100L346.1100 535.1100Q346.2000 533.7600 346.2000 531.6000Q346.2000 529.4400 346.1100 528.0900L346.1100 528.0900Q345.8400 522.2400 343.2300 519.2250Q340.6200 516.2100 335.8500 516.2100L335.8500 516.2100Q331.0800 516.2100 328.4700 519.2250Q325.8600 522.2400 325.5900 528.0900L325.5900 528.0900Q325.5000 529.4400 325.5000 531.6000Q325.5000 533.7600 325.5900 535.1100L325.5900 535.1100Q325.8600 540.9600 328.4700 543.9750Q331.0800 546.9900 335.8500 546.9900ZM385.8000 555.9000L385.8000 555.9000Q381.1200 555.9000 377.5650 554.3250Q374.0100 552.7500 371.6700 549.8700Q369.3300 546.9900 368.0700 543.0750Q366.8100 539.1600 366.6300 534.4800L366.6300 534.4800Q366.5400 532.8600 366.5400 531.5550Q366.5400 530.2500 366.6300 528.6300L366.6300 528.6300Q366.8100 524.1300 368.0250 520.2600Q369.2400 516.3900 371.6250 513.4650Q374.0100 510.5400 377.5650 508.9200Q381.1200 507.3000 385.8000 507.3000L385.8000 507.3000Q390.6600 507.3000 394.0350 508.9650Q397.4100 510.6300 399.6600 513.2400L399.6600 513.2400L399.6600 493.2600Q399.6600 492.3600 400.2450 491.7300Q400.8300 491.1000 401.8200 491.1000L401.8200 491.1000L409.4700 491.1000Q410.3700 491.1000 411 491.7300Q411.6300 492.3600 411.6300 493.2600L411.6300 493.2600L411.6300 552.8400Q411.6300 553.7400 411 554.3700Q410.3700 555 409.4700 555L409.4700 555L402.3600 555Q401.3700 555 400.7850 554.3700Q400.2000 553.7400 400.2000 552.8400L400.2000 552.8400L400.2000 549.5100Q397.9500 552.3000 394.4850 554.1000Q391.0200 555.9000 385.8000 555.9000ZM389.1300 546.2700L389.1300 546.2700Q392.9100 546.2700 395.1600 544.5600Q397.4100 542.8500 398.4900 540.1950Q399.5700 537.5400 399.6600 534.7500L399.6600 534.7500Q399.7500 533.1300 399.7500 531.2850Q399.7500 529.4400 399.6600 527.8200L399.6600 527.8200Q399.5700 525.1200 398.4000 522.6450Q397.2300 520.1700 394.9800 518.5500Q392.7300 516.9300 389.1300 516.9300L389.1300 516.9300Q385.3500 516.9300 383.1450 518.5950Q380.9400 520.2600 379.9500 522.9600Q378.9600 525.6600 378.7800 528.9000L378.7800 528.9000Q378.6900 531.6000 378.7800 534.3000L378.7800 534.3000Q378.9600 537.5400 379.9500 540.2400Q380.9400 542.9400 383.1450 544.6050Q385.3500 546.2700 389.1300 546.2700ZM440.9700 555.9000L440.9700 555.9000Q435.4800 555.9000 431.4750 553.4250Q427.4700 550.9500 425.3100 546.4050Q423.1500 541.8600 423.1500 535.6500L423.1500 535.6500L423.1500 510.3600Q423.1500 509.4600 423.7800 508.8300Q424.4100 508.2000 425.3100 508.2000L425.3100 508.2000L433.2300 508.2000Q434.2200 508.2000 434.8050 508.8300Q435.3900 509.4600 435.3900 510.3600L435.3900 510.3600L435.3900 535.1100Q435.3900 546.2700 445.2000 546.2700L445.2000 546.2700Q449.8800 546.2700 452.6250 543.3000Q455.3700 540.3300 455.3700 535.1100L455.3700 535.1100L455.3700 510.3600Q455.3700 509.4600 456 508.8300Q456.6300 508.2000 457.5300 508.2000L457.5300 508.2000L465.4500 508.2000Q466.3500 508.2000 466.9800 508.8300Q467.6100 509.4600 467.6100 510.3600L467.6100 510.3600L467.6100 552.8400Q467.6100 553.7400 466.9800 554.3700Q466.3500 555 465.4500 555L465.4500 555L458.1600 555Q457.1700 555 456.5850 554.3700Q456 553.7400 456 552.8400L456 552.8400L456 549.1500Q453.5700 552.3000 449.9700 554.1000Q446.3700 555.9000 440.9700 555.9000ZM499.6500 574.8000L499.6500 574.8000Q497.1300 574.7100 495.1950 573.9000Q493.2600 573.0900 492.4050 572.0100Q491.5500 570.9300 492.4500 570.2100L492.4500 570.2100L493.9800 568.8600Q494.7900 568.1400 495.3750 568.4550Q495.9600 568.7700 496.9050 569.3550Q497.8500 569.9400 499.6500 569.9400L499.6500 569.9400Q501 569.9400 501.9900 569.0850Q502.9800 568.2300 502.9800 566.8800L502.9800 566.8800Q502.9800 565.6200 502.0350 564.8100Q501.0900 564 499.6500 564L499.6500 564Q498.3900 564 497.4900 564.3150Q496.5900 564.6300 495.8700 564.7650Q495.1500 564.9000 494.4300 564.1800L494.4300 564.1800L492.8100 562.5600Q492.2700 561.9300 492.4500 561.2550Q492.6300 560.5800 492.9900 559.7700L492.9900 559.7700L494.8800 555.4500Q487.1400 554.2800 482.5500 549.0150Q477.9600 543.7500 477.6900 535.2000L477.6900 535.2000Q477.6000 533.8500 477.6000 531.6450Q477.6000 529.4400 477.6900 528L477.6900 528Q477.9600 521.4300 480.7050 516.7950Q483.4500 512.1600 488.3550 509.7300Q493.2600 507.3000 499.7400 507.3000L499.7400 507.3000Q505.5000 507.3000 509.5500 508.8750Q513.6000 510.4500 516.2100 512.9250Q518.8200 515.4000 520.1250 518.0550Q521.4300 520.7100 521.5200 522.8700L521.5200 522.8700Q521.6100 523.8600 520.9350 524.4450Q520.2600 525.0300 519.3600 525.0300L519.3600 525.0300L511.4400 525.0300Q510.5400 525.0300 510.0450 524.5800Q509.5500 524.1300 509.1000 523.2300L509.1000 523.2300Q507.7500 519.6300 505.5450 518.1450Q503.3400 516.6600 499.9200 516.6600L499.9200 516.6600Q495.4200 516.6600 492.7650 519.4950Q490.1100 522.3300 489.9300 528.4500L489.9300 528.4500Q489.7500 531.8700 489.9300 534.7500L489.9300 534.7500Q490.1100 540.9600 492.7650 543.7500Q495.4200 546.5400 499.9200 546.5400L499.9200 546.5400Q503.4300 546.5400 505.5900 545.0550Q507.7500 543.5700 509.1000 539.9700L509.1000 539.9700Q509.5500 539.0700 510.0450 538.6200Q510.5400 538.1700 511.4400 538.1700L511.4400 538.1700L519.3600 538.1700Q520.2600 538.1700 520.9350 538.7550Q521.6100 539.3400 521.5200 540.3300L521.5200 540.3300Q521.4300 542.3100 520.1700 544.9650Q518.9100 547.6200 516.3900 550.0950Q513.8700 552.5700 509.8200 554.2350Q505.7700 555.9000 500.0100 555.9000L500.0100 555.9000L498.1200 559.7700Q498.6600 559.5000 499.6050 559.3200Q500.5500 559.1400 501.2700 559.1400L501.2700 559.1400Q504.4200 559.1400 506.3550 561.3000Q508.2900 563.4600 508.2900 566.7900L508.2900 566.7900Q508.2900 570.2100 506.0400 572.5500Q503.7900 574.8900 499.6500 574.8000ZM544.4700 555.9000L544.4700 555.9000Q539.7900 555.9000 536.0100 554.0550Q532.2300 552.2100 530.0250 549.1050Q527.8200 546 527.8200 542.1300L527.8200 542.1300Q527.8200 535.8300 532.9500 532.0950Q538.0800 528.3600 546.3600 527.1000L546.3600 527.1000L558.6900 525.3000L558.6900 523.4100Q558.6900 519.6300 556.8000 517.5600Q554.9100 515.4900 550.3200 515.4900L550.3200 515.4900Q547.0800 515.4900 545.0550 516.7950Q543.0300 518.1000 542.0400 520.2600L542.0400 520.2600Q541.3200 521.4300 539.9700 521.4300L539.9700 521.4300L532.8600 521.4300Q531.8700 521.4300 531.3750 520.8900Q530.8800 520.3500 530.8800 519.4500L530.8800 519.4500Q530.9700 518.0100 532.0950 515.9400Q533.2200 513.8700 535.5150 511.9350Q537.8100 510 541.5000 508.6500Q545.1900 507.3000 550.4100 507.3000L550.4100 507.3000Q556.0800 507.3000 559.9950 508.6950Q563.9100 510.0900 566.2500 512.4300Q568.5900 514.7700 569.6700 517.9200Q570.7500 521.0700 570.7500 524.5800L570.7500 524.5800L570.7500 552.8400Q570.7500 553.7400 570.1200 554.3700Q569.4900 555 568.5900 555L568.5900 555L561.3000 555Q560.3100 555 559.7250 554.3700Q559.1400 553.7400 559.1400 552.8400L559.1400 552.8400L559.1400 549.3300Q557.9700 550.9500 555.9900 552.4800Q554.0100 554.0100 551.1750 554.9550Q548.3400 555.9000 544.4700 555.9000ZM547.5300 547.3500L547.5300 547.3500Q550.6800 547.3500 553.2450 546Q555.8100 544.6500 557.2950 541.8150Q558.7800 538.9800 558.7800 534.6600L558.7800 534.6600L558.7800 532.7700L549.7800 534.2100Q544.4700 535.0200 541.8600 536.8200Q539.2500 538.6200 539.2500 541.2300L539.2500 541.2300Q539.2500 543.2100 540.4650 544.6050Q541.6800 546 543.5700 546.6750Q545.4600 547.3500 547.5300 547.3500ZM555.3600 501.9000L555.3600 501.9000Q553.0200 501.9000 551.5800 501.1350Q550.1400 500.3700 548.9250 499.5600Q547.7100 498.7500 546.2700 498.7500L546.2700 498.7500Q545.1000 498.7500 544.6050 499.4250Q544.1100 500.1000 543.6600 500.7750Q543.2100 501.4500 542.2200 501.4500L542.2200 501.4500L538.0800 501.4500Q537.4500 501.4500 537 501Q536.5500 500.5500 536.5500 499.9200L536.5500 499.9200Q536.5500 498.5700 537.0450 496.9050Q537.5400 495.2400 538.6200 493.7100Q539.7000 492.1800 541.3650 491.2350Q543.0300 490.2900 545.2800 490.2900L545.2800 490.2900Q547.7100 490.2900 549.1500 491.0550Q550.5900 491.8200 551.8050 492.6300Q553.0200 493.4400 554.4600 493.4400L554.4600 493.4400Q555.6300 493.4400 556.1250 492.7200Q556.6200 492 557.0700 491.3250Q557.5200 490.6500 558.5100 490.6500L558.5100 490.6500L562.6500 490.6500Q563.3700 490.6500 563.7750 491.1450Q564.1800 491.6400 564.1800 492.2700L564.1800 492.2700Q564.1800 493.6200 563.6850 495.2850Q563.1900 496.9500 562.1100 498.4800Q561.0300 500.0100 559.3650 500.9550Q557.7000 501.9000 555.3600 501.9000ZM602.9700 555.9000L602.9700 555.9000Q595.7700 555.9000 590.8650 553.3800Q585.9600 550.8600 583.3950 546.2700Q580.8300 541.6800 580.4700 535.5600L580.4700 535.5600Q580.3800 533.9400 580.3800 531.6000Q580.3800 529.2600 580.4700 527.6400L580.4700 527.6400Q580.8300 521.4300 583.4850 516.8850Q586.1400 512.3400 591.0450 509.8200Q595.9500 507.3000 602.9700 507.3000L602.9700 507.3000Q609.9900 507.3000 614.8950 509.8200Q619.8000 512.3400 622.4550 516.8850Q625.1100 521.4300 625.4700 527.6400L625.4700 527.6400Q625.5600 529.2600 625.5600 531.6000Q625.5600 533.9400 625.4700 535.5600L625.4700 535.5600Q625.1100 541.6800 622.5450 546.2700Q619.9800 550.8600 615.0750 553.3800Q610.1700 555.9000 602.9700 555.9000ZM602.9700 546.9900L602.9700 546.9900Q607.7400 546.9900 610.3500 543.9750Q612.9600 540.9600 613.2300 535.1100L613.2300 535.1100Q613.3200 533.7600 613.3200 531.6000Q613.3200 529.4400 613.2300 528.0900L613.2300 528.0900Q612.9600 522.2400 610.3500 519.2250Q607.7400 516.2100 602.9700 516.2100L602.9700 516.2100Q598.2000 516.2100 595.5900 519.2250Q592.9800 522.2400 592.7100 528.0900L592.7100 528.0900Q592.6200 529.4400 592.6200 531.6000Q592.6200 533.7600 592.7100 535.1100L592.7100 535.1100Q592.9800 540.9600 595.5900 543.9750Q598.2000 546.9900 602.9700 546.9900ZM669.7500 555.9000L669.7500 555.9000Q665.0700 555.9000 661.2900 554.0550Q657.5100 552.2100 655.3050 549.1050Q653.1000 546 653.1000 542.1300L653.1000 542.1300Q653.1000 535.8300 658.2300 532.0950Q663.3600 528.3600 671.6400 527.1000L671.6400 527.1000L683.9700 525.3000L683.9700 523.4100Q683.9700 519.6300 682.0800 517.5600Q680.1900 515.4900 675.6000 515.4900L675.6000 515.4900Q672.3600 515.4900 670.3350 516.7950Q668.3100 518.1000 667.3200 520.2600L667.3200 520.2600Q666.6000 521.4300 665.2500 521.4300L665.2500 521.4300L658.1400 521.4300Q657.1500 521.4300 656.6550 520.8900Q656.1600 520.3500 656.1600 519.4500L656.1600 519.4500Q656.2500 518.0100 657.3750 515.9400Q658.5000 513.8700 660.7950 511.9350Q663.0900 510 666.7800 508.6500Q670.4700 507.3000 675.6900 507.3000L675.6900 507.3000Q681.3600 507.3000 685.2750 508.6950Q689.1900 510.0900 691.5300 512.4300Q693.8700 514.7700 694.9500 517.9200Q696.0300 521.0700 696.0300 524.5800L696.0300 524.5800L696.0300 552.8400Q696.0300 553.7400 695.4000 554.3700Q694.7700 555 693.8700 555L693.8700 555L686.5800 555Q685.5900 555 685.0050 554.3700Q684.4200 553.7400 684.4200 552.8400L684.4200 552.8400L684.4200 549.3300Q683.2500 550.9500 681.2700 552.4800Q679.2900 554.0100 676.4550 554.9550Q673.6200 555.9000 669.7500 555.9000ZM672.8100 547.3500L672.8100 547.3500Q675.9600 547.3500 678.5250 546Q681.0900 544.6500 682.5750 541.8150Q684.0600 538.9800 684.0600 534.6600L684.0600 534.6600L684.0600 532.7700L675.0600 534.2100Q669.7500 535.0200 667.1400 536.8200Q664.5300 538.6200 664.5300 541.2300L664.5300 541.2300Q664.5300 543.2100 665.7450 544.6050Q666.9600 546 668.8500 546.6750Q670.7400 547.3500 672.8100 547.3500ZM728.2500 555.9000L728.2500 555.9000Q721.0500 555.9000 716.1450 553.3800Q711.2400 550.8600 708.6750 546.2700Q706.1100 541.6800 705.7500 535.5600L705.7500 535.5600Q705.6600 533.9400 705.6600 531.6000Q705.6600 529.2600 705.7500 527.6400L705.7500 527.6400Q706.1100 521.4300 708.7650 516.8850Q711.4200 512.3400 716.3250 509.8200Q721.2300 507.3000 728.2500 507.3000L728.2500 507.3000Q735.2700 507.3000 740.1750 509.8200Q745.0800 512.3400 747.7350 516.8850Q750.3900 521.4300 750.7500 527.6400L750.7500 527.6400Q750.8400 529.2600 750.8400 531.6000Q750.8400 533.9400 750.7500 535.5600L750.7500 535.5600Q750.3900 541.6800 747.8250 546.2700Q745.2600 550.8600 740.3550 553.3800Q735.4500 555.9000 728.2500 555.9000ZM728.2500 546.9900L728.2500 546.9900Q733.0200 546.9900 735.6300 543.9750Q738.2400 540.9600 738.5100 535.1100L738.5100 535.1100Q738.6000 533.7600 738.6000 531.6000Q738.6000 529.4400 738.5100 528.0900L738.5100 528.0900Q738.2400 522.2400 735.6300 519.2250Q733.0200 516.2100 728.2500 516.2100L728.2500 516.2100Q723.4800 516.2100 720.8700 519.2250Q718.2600 522.2400 717.9900 528.0900L717.9900 528.0900Q717.9000 529.4400 717.9000 531.6000Q717.9000 533.7600 717.9900 535.1100L717.9900 535.1100Q718.2600 540.9600 720.8700 543.9750Q723.4800 546.9900 728.2500 546.9900ZM167.1000 645L159.1800 645Q158.2800 645 157.6500 644.3700Q157.0200 643.7400 157.0200 642.8400L157.0200 642.8400L157.0200 584.2500Q157.0200 583.2600 157.6500 582.6300Q158.2800 582 159.1800 582L159.1800 582L198.2400 582Q199.2300 582 199.8600 582.6300Q200.4900 583.2600 200.4900 584.2500L200.4900 584.2500L200.4900 590.5500Q200.4900 591.5400 199.8600 592.1250Q199.2300 592.7100 198.2400 592.7100L198.2400 592.7100L169.3500 592.7100L169.3500 609.8100L196.4400 609.8100Q197.4300 609.8100 198.0600 610.4400Q198.6900 611.0700 198.6900 612.0600L198.6900 612.0600L198.6900 618.3600Q198.6900 619.2600 198.0600 619.8900Q197.4300 620.5200 196.4400 620.5200L196.4400 620.5200L169.3500 620.5200L169.3500 642.8400Q169.3500 643.7400 168.7200 644.3700Q168.0900 645 167.1000 645L167.1000 645ZM220.0200 645L212.1900 645Q211.2900 645 210.6600 644.3700Q210.0300 643.7400 210.0300 642.8400L210.0300 642.8400L210.0300 600.4500Q210.0300 599.4600 210.6600 598.8300Q211.2900 598.2000 212.1900 598.2000L212.1900 598.2000L219.4800 598.2000Q220.3800 598.2000 221.0550 598.8300Q221.7300 599.4600 221.7300 600.4500L221.7300 600.4500L221.7300 604.1400Q223.8000 601.2600 227.0850 599.7300Q230.3700 598.2000 234.6900 598.2000L234.6900 598.2000L238.3800 598.2000Q239.3700 598.2000 239.9550 598.8300Q240.5400 599.4600 240.5400 600.3600L240.5400 600.3600L240.5400 606.8400Q240.5400 607.7400 239.9550 608.3700Q239.3700 609 238.3800 609L238.3800 609L231.3600 609Q227.0400 609 224.6550 611.3850Q222.2700 613.7700 222.2700 618.0900L222.2700 618.0900L222.2700 642.8400Q222.2700 643.7400 221.6400 644.3700Q221.0100 645 220.0200 645L220.0200 645ZM268.2600 645.9000L268.2600 645.9000Q261.0600 645.9000 256.1550 643.3800Q251.2500 640.8600 248.6850 636.2700Q246.1200 631.6800 245.7600 625.5600L245.7600 625.5600Q245.6700 623.9400 245.6700 621.6000Q245.6700 619.2600 245.7600 617.6400L245.7600 617.6400Q246.1200 611.4300 248.7750 606.8850Q251.4300 602.3400 256.3350 599.8200Q261.2400 597.3000 268.2600 597.3000L268.2600 597.3000Q275.2800 597.3000 280.1850 599.8200Q285.0900 602.3400 287.7450 606.8850Q290.4000 611.4300 290.7600 617.6400L290.7600 617.6400Q290.8500 619.2600 290.8500 621.6000Q290.8500 623.9400 290.7600 625.5600L290.7600 625.5600Q290.4000 631.6800 287.8350 636.2700Q285.2700 640.8600 280.3650 643.3800Q275.4600 645.9000 268.2600 645.9000ZM268.2600 636.9900L268.2600 636.9900Q273.0300 636.9900 275.6400 633.9750Q278.2500 630.9600 278.5200 625.1100L278.5200 625.1100Q278.6100 623.7600 278.6100 621.6000Q278.6100 619.4400 278.5200 618.0900L278.5200 618.0900Q278.2500 612.2400 275.6400 609.2250Q273.0300 606.2100 268.2600 606.2100L268.2600 606.2100Q263.4900 606.2100 260.8800 609.2250Q258.2700 612.2400 258 618.0900L258 618.0900Q257.9100 619.4400 257.9100 621.6000Q257.9100 623.7600 258 625.1100L258 625.1100Q258.2700 630.9600 260.8800 633.9750Q263.4900 636.9900 268.2600 636.9900ZM310.9200 645L303 645Q302.1000 645 301.4700 644.3700Q300.8400 643.7400 300.8400 642.8400L300.8400 642.8400L300.8400 600.3600Q300.8400 599.4600 301.4700 598.8300Q302.1000 598.2000 303 598.2000L303 598.2000L310.3800 598.2000Q311.2800 598.2000 311.9100 598.8300Q312.5400 599.4600 312.5400 600.3600L312.5400 600.3600L312.5400 604.0500Q314.8800 601.1700 318.5250 599.2350Q322.1700 597.3000 327.5700 597.3000L327.5700 597.3000Q333.0600 597.3000 337.1100 599.7750Q341.1600 602.2500 343.3650 606.7500Q345.5700 611.2500 345.5700 617.5500L345.5700 617.5500L345.5700 642.8400Q345.5700 643.7400 344.9400 644.3700Q344.3100 645 343.4100 645L343.4100 645L335.4900 645Q334.5900 645 333.9600 644.3700Q333.3300 643.7400 333.3300 642.8400L333.3300 642.8400L333.3300 618.0900Q333.3300 612.8700 330.7650 609.9000Q328.2000 606.9300 323.3400 606.9300L323.3400 606.9300Q318.6600 606.9300 315.8700 609.9000Q313.0800 612.8700 313.0800 618.0900L313.0800 618.0900L313.0800 642.8400Q313.0800 643.7400 312.4500 644.3700Q311.8200 645 310.9200 645L310.9200 645ZM385.4400 645L378.1500 645Q372.7500 645 369.0600 643.1100Q365.3700 641.2200 363.5700 637.4850Q361.7700 633.7500 361.7700 628.1700L361.7700 628.1700L361.7700 607.7400L354.6600 607.7400Q353.7600 607.7400 353.1300 607.1100Q352.5000 606.4800 352.5000 605.4900L352.5000 605.4900L352.5000 600.3600Q352.5000 599.4600 353.1300 598.8300Q353.7600 598.2000 354.6600 598.2000L354.6600 598.2000L361.7700 598.2000L361.7700 583.2600Q361.7700 582.3600 362.3550 581.7300Q362.9400 581.1000 363.9300 581.1000L363.9300 581.1000L371.2200 581.1000Q372.1200 581.1000 372.7500 581.7300Q373.3800 582.3600 373.3800 583.2600L373.3800 583.2600L373.3800 598.2000L384.6300 598.2000Q385.5300 598.2000 386.1600 598.8300Q386.7900 599.4600 386.7900 600.3600L386.7900 600.3600L386.7900 605.4900Q386.7900 606.4800 386.1600 607.1100Q385.5300 607.7400 384.6300 607.7400L384.6300 607.7400L373.3800 607.7400L373.3800 627.2700Q373.3800 630.9600 374.6850 633.0300Q375.9900 635.1000 379.2300 635.1000L379.2300 635.1000L385.4400 635.1000Q386.3400 635.1000 386.9700 635.7300Q387.6000 636.3600 387.6000 637.2600L387.6000 637.2600L387.6000 642.8400Q387.6000 643.7400 386.9700 644.3700Q386.3400 645 385.4400 645L385.4400 645ZM425.1300 623.1300L397.5000 623.1300Q396.5100 623.1300 395.9250 622.5000Q395.3400 621.8700 395.3400 620.9700L395.3400 620.9700L395.3400 615.0300Q395.3400 614.1300 395.9250 613.5000Q396.5100 612.8700 397.5000 612.8700L397.5000 612.8700L425.1300 612.8700Q426.0300 612.8700 426.6600 613.5000Q427.2900 614.1300 427.2900 615.0300L427.2900 615.0300L427.2900 620.9700Q427.2900 621.8700 426.6600 622.5000Q426.0300 623.1300 425.1300 623.1300L425.1300 623.1300ZM459.0600 645.9000L459.0600 645.9000Q449.0700 645.9000 443.2200 640.1400Q437.3700 634.3800 436.9200 623.7600L436.9200 623.7600Q436.8300 622.8600 436.8300 621.4650Q436.8300 620.0700 436.9200 619.2600L436.9200 619.2600Q437.2800 612.4200 440.0250 607.5150Q442.7700 602.6100 447.6300 599.9550Q452.4900 597.3000 459.0600 597.3000L459.0600 597.3000Q466.3500 597.3000 471.3000 600.3150Q476.2500 603.3300 478.7700 608.6850Q481.2900 614.0400 481.2900 621.0600L481.2900 621.0600L481.2900 622.9500Q481.2900 623.8500 480.6600 624.4800Q480.0300 625.1100 479.0400 625.1100L479.0400 625.1100L449.1600 625.1100Q449.1600 625.1100 449.1600 625.3800Q449.1600 625.6500 449.1600 625.8300L449.1600 625.8300Q449.2500 628.9800 450.3750 631.6350Q451.5000 634.2900 453.7050 635.9100Q455.9100 637.5300 458.9700 637.5300L458.9700 637.5300Q461.4900 637.5300 463.2000 636.7650Q464.9100 636 465.9900 635.0100Q467.0700 634.0200 467.5200 633.3900L467.5200 633.3900Q468.3300 632.3100 468.8250 632.0850Q469.3200 631.8600 470.3100 631.8600L470.3100 631.8600L478.0500 631.8600Q478.9500 631.8600 479.5350 632.4000Q480.1200 632.9400 480.0300 633.7500L480.0300 633.7500Q479.9400 635.1900 478.5450 637.2600Q477.1500 639.3300 474.5400 641.3100Q471.9300 643.2900 468.0150 644.5950Q464.1000 645.9000 459.0600 645.9000ZM449.1600 617.2800L449.1600 617.5500L469.0500 617.5500L469.0500 617.2800Q469.0500 613.7700 467.8800 611.1150Q466.7100 608.4600 464.4600 606.9750Q462.2100 605.4900 459.0600 605.4900L459.0600 605.4900Q455.9100 605.4900 453.6600 606.9750Q451.4100 608.4600 450.2850 611.1150Q449.1600 613.7700 449.1600 617.2800L449.1600 617.2800ZM500.9100 645L492.9900 645Q492.0900 645 491.4600 644.3700Q490.8300 643.7400 490.8300 642.8400L490.8300 642.8400L490.8300 600.3600Q490.8300 599.4600 491.4600 598.8300Q492.0900 598.2000 492.9900 598.2000L492.9900 598.2000L500.3700 598.2000Q501.2700 598.2000 501.9000 598.8300Q502.5300 599.4600 502.5300 600.3600L502.5300 600.3600L502.5300 604.0500Q504.8700 601.1700 508.5150 599.2350Q512.1600 597.3000 517.5600 597.3000L517.5600 597.3000Q523.0500 597.3000 527.1000 599.7750Q531.1500 602.2500 533.3550 606.7500Q535.5600 611.2500 535.5600 617.5500L535.5600 617.5500L535.5600 642.8400Q535.5600 643.7400 534.9300 644.3700Q534.3000 645 533.4000 645L533.4000 645L525.4800 645Q524.5800 645 523.9500 644.3700Q523.3200 643.7400 523.3200 642.8400L523.3200 642.8400L523.3200 618.0900Q523.3200 612.8700 520.7550 609.9000Q518.1900 606.9300 513.3300 606.9300L513.3300 606.9300Q508.6500 606.9300 505.8600 609.9000Q503.0700 612.8700 503.0700 618.0900L503.0700 618.0900L503.0700 642.8400Q503.0700 643.7400 502.4400 644.3700Q501.8100 645 500.9100 645L500.9100 645ZM564.3600 645.9000L564.3600 645.9000Q559.6800 645.9000 556.1250 644.3250Q552.5700 642.7500 550.2300 639.8700Q547.8900 636.9900 546.6300 633.0750Q545.3700 629.1600 545.1900 624.4800L545.1900 624.4800Q545.1000 622.8600 545.1000 621.5550Q545.1000 620.2500 545.1900 618.6300L545.1900 618.6300Q545.3700 614.1300 546.5850 610.2600Q547.8000 606.3900 550.1850 603.4650Q552.5700 600.5400 556.1250 598.9200Q559.6800 597.3000 564.3600 597.3000L564.3600 597.3000Q569.2200 597.3000 572.5950 598.9650Q575.9700 600.6300 578.2200 603.2400L578.2200 603.2400L578.2200 583.2600Q578.2200 582.3600 578.8050 581.7300Q579.3900 581.1000 580.3800 581.1000L580.3800 581.1000L588.0300 581.1000Q588.9300 581.1000 589.5600 581.7300Q590.1900 582.3600 590.1900 583.2600L590.1900 583.2600L590.1900 642.8400Q590.1900 643.7400 589.5600 644.3700Q588.9300 645 588.0300 645L588.0300 645L580.9200 645Q579.9300 645 579.3450 644.3700Q578.7600 643.7400 578.7600 642.8400L578.7600 642.8400L578.7600 639.5100Q576.5100 642.3000 573.0450 644.1000Q569.5800 645.9000 564.3600 645.9000ZM567.6900 636.2700L567.6900 636.2700Q571.4700 636.2700 573.7200 634.5600Q575.9700 632.8500 577.0500 630.1950Q578.1300 627.5400 578.2200 624.7500L578.2200 624.7500Q578.3100 623.1300 578.3100 621.2850Q578.3100 619.4400 578.2200 617.8200L578.2200 617.8200Q578.1300 615.1200 576.9600 612.6450Q575.7900 610.1700 573.5400 608.5500Q571.2900 606.9300 567.6900 606.9300L567.6900 606.9300Q563.9100 606.9300 561.7050 608.5950Q559.5000 610.2600 558.5100 612.9600Q557.5200 615.6600 557.3400 618.9000L557.3400 618.9000Q557.2500 621.6000 557.3400 624.3000L557.3400 624.3000Q557.5200 627.5400 558.5100 630.2400Q559.5000 632.9400 561.7050 634.6050Q563.9100 636.2700 567.6900 636.2700Z" id="title"/><path d="M1448.3200 650L1426.4800 650Q1423.8400 650 1422.2800 648.3200Q1420.7200 646.6400 1420.7200 644.2400L1420.7200 644.2400L1420.7200 519.9200L1384.2400 548Q1382.0800 549.4400 1379.9200 549.0800Q1377.7600 548.7200 1376.0800 546.5600L1376.0800 546.5600L1366 533.6000Q1364.5600 531.4400 1364.9200 529.0400Q1365.2800 526.6400 1367.4400 525.2000L1367.4400 525.2000L1421.2000 483.6800Q1422.6400 482.4800 1424.0800 482.2400Q1425.5200 482 1427.2000 482L1427.2000 482L1448.3200 482Q1450.7200 482 1452.4000 483.6800Q1454.0800 485.3600 1454.0800 487.7600L1454.0800 487.7600L1454.0800 644.2400Q1454.0800 646.6400 1452.4000 648.3200Q1450.7200 650 1448.3200 650L1448.3200 650ZM1515.2800 650L1491.2800 650Q1488.8800 650 1487.2000 648.3200Q1485.5200 646.6400 1485.5200 644.2400L1485.5200 644.2400L1485.5200 620.4800Q1485.5200 617.8400 1487.2000 616.1600Q1488.8800 614.4800 1491.2800 614.4800L1491.2800 614.4800L1515.2800 614.4800Q1517.6800 614.4800 1519.3600 616.1600Q1521.0400 617.8400 1521.0400 620.4800L1521.0400 620.4800L1521.0400 644.2400Q1521.0400 646.6400 1519.3600 648.3200Q1517.6800 650 1515.2800 650L1515.2800 650ZM1608.8800 652.6400L1608.8800 652.6400Q1588.2400 652.6400 1574.0800 645.8000Q1559.9200 638.9600 1552.6000 627.9200Q1545.2800 616.8800 1544.8000 604.4000L1544.8000 604.4000Q1544.5600 602.2400 1546.1200 600.9200Q1547.6800 599.6000 1549.8400 599.6000L1549.8400 599.6000L1572.1600 599.6000Q1574.8000 599.6000 1576.6000 600.6800Q1578.4000 601.7600 1579.3600 604.4000L1579.3600 604.4000Q1581.7600 611.6000 1586.2000 616.1600Q1590.6400 620.7200 1596.5200 622.8800Q1602.4000 625.0400 1608.8800 625.0400L1608.8800 625.0400Q1617.5200 625.0400 1624.6000 621.5600Q1631.6800 618.0800 1636.0000 611.1200Q1640.3200 604.1600 1640.3200 594.0800L1640.3200 594.0800Q1640.3200 585.2000 1636.2400 578.7200Q1632.1600 572.2400 1625.0800 568.5200Q1618.0000 564.8000 1608.8800 564.8000L1608.8800 564.8000Q1602.1600 564.8000 1597.8400 566.4800Q1593.5200 568.1600 1590.5200 570.3200Q1587.5200 572.4800 1585.2400 574.1600Q1582.9600 575.8400 1580.0800 575.8400L1580.0800 575.8400L1558.0000 575.8400Q1555.8400 575.8400 1554.2800 574.2800Q1552.7200 572.7200 1552.7200 570.5600L1552.7200 570.5600L1561.1200 488.4800Q1561.3600 485.3600 1563.2800 483.6800Q1565.2000 482 1567.8400 482L1567.8400 482L1658.0800 482Q1660.4800 482 1662.1600 483.6800Q1663.8400 485.3600 1663.8400 487.7600L1663.8400 487.7600L1663.8400 503.8400Q1663.8400 506.2400 1662.1600 507.9200Q1660.4800 509.6000 1658.0800 509.6000L1658.0800 509.6000L1588.7200 509.6000L1584.8800 548.7200Q1589.2000 545.8400 1596.4000 543.2000Q1603.6000 540.5600 1616.3200 540.5600L1616.3200 540.5600Q1627.8400 540.5600 1638.2800 544.2800Q1648.7200 548 1656.8800 555.0800Q1665.0400 562.1600 1669.7200 572.1200Q1674.4000 582.0800 1674.4000 594.8000L1674.4000 594.8000Q1674.4000 612.3200 1666.2400 625.2800Q1658.0800 638.2400 1643.4400 645.4400Q1628.8000 652.6400 1608.8800 652.6400Z" id="lecture-full-number"/></g></svg>