<svg xmlns="http://www.w3.org/2000/svg" version="1.1" xmlns:xlink="http://www.w3.org/1999/xlink" xmlns:svgjs="http://svgjs.dev/svgjs" viewBox="0 0 1920 1080" id="hidden-cover-svg"><g><rect width="1920" height="1080" fill="#8ee3ef"/></g><g fill="#f0c975"><path d="M716 244.687C1027.07 244.687 1278.69 -7.55189 1278.69 -318L1842 -318C1842 303.522 1338.15 807.374 716 807.374L716 244.687Z"/></g><g fill="#ffffff" opacity="0.4"><path d="M59.4553 1025.44C74.0358 1034.58 78.4304 1053.77 69.2841 1068.35C60.1377 1082.93 40.9502 1087.32 26.3697 1078.18C11.7893 1069.03 7.39469 1049.85 16.5411 1035.27C25.6874 1020.69 44.8749 1016.29 59.4553 1025.44ZM115.48 877.553C106.334 892.133 110.729 911.319 125.309 920.464C139.89 929.608 159.077 925.213 168.224 910.634C177.37 896.054 172.975 876.869 158.395 867.724C143.815 858.579 124.627 862.974 115.48 877.553ZM214.42 719.84C205.274 734.42 209.668 753.605 224.249 762.75C238.829 771.895 258.017 767.5 267.163 752.921C276.31 738.341 271.915 719.155 257.335 710.01C242.754 700.865 223.566 705.26 214.42 719.84ZM313.36 562.127C304.213 576.706 308.608 595.892 323.188 605.037C337.769 614.182 356.956 609.787 366.103 595.207C375.249 580.628 370.855 561.442 356.274 552.297C341.694 543.152 322.506 547.547 313.36 562.127ZM412.299 404.414C403.153 418.993 407.547 438.179 422.128 447.324C436.708 456.469 455.896 452.074 465.042 437.494C474.189 422.915 469.794 403.729 455.214 394.584C440.633 385.439 421.446 389.834 412.299 404.414ZM174.263 1134.19C165.117 1148.77 169.512 1167.96 184.092 1177.1C198.673 1186.25 217.86 1181.85 227.007 1167.27C236.153 1152.69 231.758 1133.51 217.178 1124.36C202.597 1115.22 183.41 1119.61 174.263 1134.19ZM273.203 976.477C264.056 991.057 268.451 1010.24 283.032 1019.39C297.612 1028.53 316.8 1024.14 325.946 1009.56C335.093 994.979 330.698 975.792 316.117 966.648C301.537 957.503 282.349 961.898 273.203 976.477ZM372.143 818.764C362.996 833.344 367.391 852.53 381.971 861.675C396.552 870.82 415.739 866.425 424.886 851.845C434.032 837.266 429.638 818.08 415.057 808.935C400.477 799.79 381.289 804.185 372.143 818.764ZM471.082 661.051C461.936 675.631 466.33 694.817 480.911 703.962C495.491 713.106 514.679 708.711 523.825 694.132C532.972 679.552 528.577 660.367 513.997 651.222C499.416 642.077 480.228 646.472 471.082 661.051ZM570.022 503.338C560.875 517.918 565.27 537.103 579.85 546.248C594.431 555.393 613.619 550.998 622.765 536.419C631.911 521.839 627.517 502.653 612.936 493.508C598.356 484.363 579.168 488.758 570.022 503.338ZM331.986 1233.11C322.84 1247.69 327.234 1266.88 341.815 1276.03C356.395 1285.17 375.583 1280.78 384.729 1266.2C393.875 1251.62 389.481 1232.43 374.9 1223.29C360.32 1214.14 341.132 1218.54 331.986 1233.11ZM430.925 1075.4C421.779 1089.98 426.174 1109.17 440.754 1118.31C455.335 1127.46 474.522 1123.06 483.669 1108.48C492.815 1093.9 488.42 1074.72 473.84 1065.57C459.26 1056.43 440.072 1060.82 430.925 1075.4ZM529.865 917.688C520.719 932.268 525.113 951.454 539.694 960.599C554.274 969.744 573.462 965.349 582.608 950.77C591.755 936.19 587.36 917.004 572.78 907.859C558.199 898.714 539.011 903.109 529.865 917.688ZM628.805 759.976C619.658 774.555 624.053 793.741 638.633 802.886C653.214 812.031 672.402 807.636 681.548 793.056C690.694 778.477 686.3 759.291 671.719 750.146C657.139 741.001 637.951 745.396 628.805 759.976ZM727.744 602.263C718.598 616.842 722.992 636.028 737.573 645.173C752.153 654.318 771.341 649.923 780.487 635.343C789.634 620.764 785.239 601.578 770.659 592.433C756.078 583.288 736.787 587.707 727.744 602.263ZM489.708 1332.04C480.562 1346.62 484.957 1365.81 499.537 1374.95C514.118 1384.1 533.305 1379.7 542.452 1365.12C551.598 1350.54 547.203 1331.35 532.623 1322.21C518.042 1313.06 498.855 1317.46 489.708 1332.04ZM588.648 1174.33C579.502 1188.91 583.896 1208.09 598.477 1217.24C613.057 1226.38 632.245 1221.99 641.391 1207.41C650.538 1192.83 646.143 1173.64 631.563 1164.5C616.982 1155.35 597.794 1159.75 588.648 1174.33ZM687.587 1016.61C678.441 1031.19 682.836 1050.38 697.416 1059.52C711.997 1068.67 731.185 1064.27 740.331 1049.69C749.477 1035.11 745.083 1015.93 730.502 1006.78C715.922 997.638 696.734 1002.03 687.587 1016.61ZM786.527 858.9C777.381 873.479 781.775 892.666 796.356 901.811C810.936 910.956 830.124 906.561 839.27 891.981C848.417 877.401 844.022 858.215 829.442 849.07C814.861 839.925 795.57 844.344 786.527 858.9ZM885.467 701.187C876.32 715.767 880.715 734.952 895.295 744.097C909.876 753.242 929.064 748.847 938.21 734.268C947.356 719.688 942.962 700.502 928.381 691.357C913.801 682.212 894.51 686.631 885.467 701.187ZM647.431 1430.96C638.285 1445.54 642.679 1464.73 657.26 1473.87C671.84 1483.02 691.028 1478.62 700.174 1464.05C709.321 1449.47 704.926 1430.28 690.345 1421.13C675.765 1411.99 656.577 1416.38 647.431 1430.96ZM746.37 1273.25C737.224 1287.83 741.619 1307.02 756.199 1316.16C770.78 1325.31 789.967 1320.91 799.114 1306.33C808.26 1291.75 803.866 1272.57 789.285 1263.42C774.705 1254.28 755.517 1258.67 746.37 1273.25ZM845.31 1115.54C836.164 1130.12 840.558 1149.3 855.139 1158.45C869.719 1167.59 888.907 1163.2 898.053 1148.62C907.2 1134.04 902.805 1114.85 888.225 1105.71C873.644 1096.56 854.353 1100.98 845.31 1115.54ZM944.25 957.824C935.103 972.404 939.498 991.59 954.078 1000.74C968.659 1009.88 987.847 1005.49 996.993 990.905C1006.14 976.326 1001.74 957.14 987.164 947.995C972.584 938.85 953.293 943.268 944.25 957.824ZM1043.09 800.135C1033.94 814.714 1038.33 833.901 1052.91 843.046C1067.5 852.19 1086.68 847.795 1095.83 833.216C1104.98 818.636 1100.58 799.45 1086 790.305C1071.52 781.136 1052.23 785.555 1043.09 800.135Z"/></g><g><path d="M178.635 139.281L184.422 144.246V166.626H215.704L219.958 172.147L215.69 177.397H184.422V198.795L178.635 203.747L173 198.795V144.232L178.635 139.281ZM195.554 195.68H219.406L223.397 200.915L219.143 206.45H195.554L191.7 201.342L195.554 195.68ZM196.382 138H219.129L223.383 143.52L219.129 148.77H196.659L192.115 143.677L196.382 138ZM323.155 148.628L328.251 154.291L323.155 159.968H246.13L241.172 154.291L246.13 148.628H323.155ZM237.043 172.147L241.849 167.893L246.669 172.147V178.393C246.669 188.879 249.417 197.515 261.668 197.515H264.14C275.147 197.515 281.197 189.86 281.197 177.952V172.005L285.879 167.75L290.699 171.862V178.379C290.699 189.007 293.723 196.946 305.56 196.946H307.618C319.178 196.946 321.235 187.869 321.373 177.952V171.578L326.056 167.608L331 171.72V178.094C330.862 191.838 327.285 207.574 308.032 207.574H305.974C294.552 207.574 288.365 202.324 285.892 195.808C283.006 202.466 275.299 208.286 264.844 208.286H262.358C242.553 208.286 237.194 195.964 237.056 178.663V172.147H237.043ZM276.391 274.744L273.642 267.089L280.796 264.969L305.974 276.721V252.491L311.07 248.095L316.291 252.491V281.829L325.641 286.226L328.251 293.311L320.959 296L276.391 274.744ZM321.235 223.011L328.113 226.27L325.917 233.497L264.002 263.119L256.571 260.146L259.596 252.776L321.235 223.011ZM231.905 263.404L237.954 268.512C237.402 286.51 222.403 296 204.669 296H202.874C194.062 296 183.759 292.6 177.157 286.083L177.834 278.855L184.298 278.002C189.118 282.256 195.858 285.229 202.183 285.229H204.117C216.091 285.229 225.303 280.136 226.27 268.085L231.905 263.404ZM226.256 251.638C225.704 239.16 216.629 234.209 204.103 234.209H202.169C194.739 234.209 189.104 237.182 184.284 241.436L177.834 240.583L177.143 233.355C183.745 226.696 192.957 223.58 202.597 223.58H204.517C222.403 223.58 237.402 232.942 237.94 251.211L231.891 256.176L226.256 251.638Z" fill="#000000"/></g><path d="M1171 781L1171 339L1187 339L1187 781L1171 781Z" fill="#000000"/><g fill="#000000" id="info-group"><path d="M173.4000 600L167.3700 600Q166.0200 600 165.2550 599.2350Q164.4900 598.4700 164.2200 597.3000L164.2200 597.3000L153.5100 539.6100Q153.5100 539.3400 153.4650 539.1600Q153.4200 538.9800 153.4200 538.8900L153.4200 538.8900Q153.4200 538.0800 154.0050 537.5400Q154.5900 537 155.3100 537L155.3100 537L163.2300 537Q165.4800 537 165.7500 538.8000L165.7500 538.8000L173.2200 579.5700L181.3200 553.2000Q181.5900 552.4800 182.2650 551.7150Q182.9400 550.9500 184.2900 550.9500L184.2900 550.9500L189.1500 550.9500Q190.5900 550.9500 191.2200 551.7150Q191.8500 552.4800 192.0300 553.2000L192.0300 553.2000L200.2200 579.4800L207.6900 538.8000Q207.9600 537 210.2100 537L210.2100 537L218.1300 537Q218.8500 537 219.3900 537.5400Q219.9300 538.0800 219.9300 538.8900L219.9300 538.8900Q219.9300 538.9800 219.9300 539.1600Q219.9300 539.3400 219.8400 539.6100L219.8400 539.6100L209.1300 597.3000Q208.9500 598.4700 208.1400 599.2350Q207.3300 600 205.9800 600L205.9800 600L199.9500 600Q198.6000 600 197.8350 599.2800Q197.0700 598.5600 196.8000 597.7500L196.8000 597.7500L186.7200 567.6900L176.6400 597.7500Q176.2800 598.5600 175.5600 599.2800Q174.8400 600 173.4000 600L173.4000 600ZM249.5400 600.9000L249.5400 600.9000Q239.5500 600.9000 233.7000 595.1400Q227.8500 589.3800 227.4000 578.7600L227.4000 578.7600Q227.3100 577.8600 227.3100 576.4650Q227.3100 575.0700 227.4000 574.2600L227.4000 574.2600Q227.7600 567.4200 230.5050 562.5150Q233.2500 557.6100 238.1100 554.9550Q242.9700 552.3000 249.5400 552.3000L249.5400 552.3000Q256.8300 552.3000 261.7800 555.3150Q266.7300 558.3300 269.2500 563.6850Q271.7700 569.0400 271.7700 576.0600L271.7700 576.0600L271.7700 577.9500Q271.7700 578.8500 271.1400 579.4800Q270.5100 580.1100 269.5200 580.1100L269.5200 580.1100L239.6400 580.1100Q239.6400 580.1100 239.6400 580.3800Q239.6400 580.6500 239.6400 580.8300L239.6400 580.8300Q239.7300 583.9800 240.8550 586.6350Q241.9800 589.2900 244.1850 590.9100Q246.3900 592.5300 249.4500 592.5300L249.4500 592.5300Q251.9700 592.5300 253.6800 591.7650Q255.3900 591 256.4700 590.0100Q257.5500 589.0200 258 588.3900L258 588.3900Q258.8100 587.3100 259.3050 587.0850Q259.8000 586.8600 260.7900 586.8600L260.7900 586.8600L268.5300 586.8600Q269.4300 586.8600 270.0150 587.4000Q270.6000 587.9400 270.5100 588.7500L270.5100 588.7500Q270.4200 590.1900 269.0250 592.2600Q267.6300 594.3300 265.0200 596.3100Q262.4100 598.2900 258.4950 599.5950Q254.5800 600.9000 249.5400 600.9000ZM239.6400 572.2800L239.6400 572.5500L259.5300 572.5500L259.5300 572.2800Q259.5300 568.7700 258.3600 566.1150Q257.1900 563.4600 254.9400 561.9750Q252.6900 560.4900 249.5400 560.4900L249.5400 560.4900Q246.3900 560.4900 244.1400 561.9750Q241.8900 563.4600 240.7650 566.1150Q239.6400 568.7700 239.6400 572.2800L239.6400 572.2800ZM307.2300 600.9000L307.2300 600.9000Q302.0100 600.9000 298.5450 599.1000Q295.0800 597.3000 292.8300 594.5100L292.8300 594.5100L292.8300 597.8400Q292.8300 598.7400 292.2450 599.3700Q291.6600 600 290.6700 600L290.6700 600L283.5600 600Q282.6600 600 282.0300 599.3700Q281.4000 598.7400 281.4000 597.8400L281.4000 597.8400L281.4000 538.2600Q281.4000 537.3600 282.0300 536.7300Q282.6600 536.1000 283.5600 536.1000L283.5600 536.1000L291.2100 536.1000Q292.2000 536.1000 292.7850 536.7300Q293.3700 537.3600 293.3700 538.2600L293.3700 538.2600L293.3700 558.2400Q295.6200 555.6300 298.9950 553.9650Q302.3700 552.3000 307.2300 552.3000L307.2300 552.3000Q312 552.3000 315.5100 553.9200Q319.0200 555.5400 321.4050 558.4650Q323.7900 561.3900 325.0500 565.2600Q326.3100 569.1300 326.4000 573.6300L326.4000 573.6300Q326.4900 575.2500 326.4900 576.5550Q326.4900 577.8600 326.4000 579.4800L326.4000 579.4800Q326.2200 584.1600 324.9600 588.0750Q323.7000 591.9900 321.3600 594.8700Q319.0200 597.7500 315.5100 599.3250Q312 600.9000 307.2300 600.9000ZM303.9000 591.2700L303.9000 591.2700Q307.7700 591.2700 309.9300 589.6050Q312.0900 587.9400 313.0800 585.2400Q314.0700 582.5400 314.2500 579.3000L314.2500 579.3000Q314.3400 576.6000 314.2500 573.9000L314.2500 573.9000Q314.0700 570.6600 313.0800 567.9600Q312.0900 565.2600 309.9300 563.5950Q307.7700 561.9300 303.9000 561.9300L303.9000 561.9300Q300.3000 561.9300 298.0500 563.5500Q295.8000 565.1700 294.6300 567.6450Q293.4600 570.1200 293.3700 572.8200L293.3700 572.8200Q293.2800 574.4400 293.2800 576.2850Q293.2800 578.1300 293.3700 579.7500L293.3700 579.7500Q293.5500 582.5400 294.5850 585.1950Q295.6200 587.8500 297.9150 589.5600Q300.2100 591.2700 303.9000 591.2700ZM399.3900 600L360.3300 600Q359.4300 600 358.8000 599.3700Q358.1700 598.7400 358.1700 597.8400L358.1700 597.8400L358.1700 539.1600Q358.1700 538.2600 358.8000 537.6300Q359.4300 537 360.3300 537L360.3300 537L368.7000 537Q369.6000 537 370.2300 537.6300Q370.8600 538.2600 370.8600 539.1600L370.8600 539.1600L370.8600 589.2900L399.3900 589.2900Q400.3800 589.2900 401.0100 589.9200Q401.6400 590.5500 401.6400 591.5400L401.6400 591.5400L401.6400 597.8400Q401.6400 598.7400 401.0100 599.3700Q400.3800 600 399.3900 600L399.3900 600ZM422.8800 600.9000L422.8800 600.9000Q418.2000 600.9000 414.4200 599.0550Q410.6400 597.2100 408.4350 594.1050Q406.2300 591 406.2300 587.1300L406.2300 587.1300Q406.2300 580.8300 411.3600 577.0950Q416.4900 573.3600 424.7700 572.1000L424.7700 572.1000L437.1000 570.3000L437.1000 568.4100Q437.1000 564.6300 435.2100 562.5600Q433.3200 560.4900 428.7300 560.4900L428.7300 560.4900Q425.4900 560.4900 423.4650 561.7950Q421.4400 563.1000 420.4500 565.2600L420.4500 565.2600Q419.7300 566.4300 418.3800 566.4300L418.3800 566.4300L411.2700 566.4300Q410.2800 566.4300 409.7850 565.8900Q409.2900 565.3500 409.2900 564.4500L409.2900 564.4500Q409.3800 563.0100 410.5050 560.9400Q411.6300 558.8700 413.9250 556.9350Q416.2200 555 419.9100 553.6500Q423.6000 552.3000 428.8200 552.3000L428.8200 552.3000Q434.4900 552.3000 438.4050 553.6950Q442.3200 555.0900 444.6600 557.4300Q447 559.7700 448.0800 562.9200Q449.1600 566.0700 449.1600 569.5800L449.1600 569.5800L449.1600 597.8400Q449.1600 598.7400 448.5300 599.3700Q447.9000 600 447 600L447 600L439.7100 600Q438.7200 600 438.1350 599.3700Q437.5500 598.7400 437.5500 597.8400L437.5500 597.8400L437.5500 594.3300Q436.3800 595.9500 434.4000 597.4800Q432.4200 599.0100 429.5850 599.9550Q426.7500 600.9000 422.8800 600.9000ZM425.9400 592.3500L425.9400 592.3500Q429.0900 592.3500 431.6550 591Q434.2200 589.6500 435.7050 586.8150Q437.1900 583.9800 437.1900 579.6600L437.1900 579.6600L437.1900 577.7700L428.1900 579.2100Q422.8800 580.0200 420.2700 581.8200Q417.6600 583.6200 417.6600 586.2300L417.6600 586.2300Q417.6600 588.2100 418.8750 589.6050Q420.0900 591 421.9800 591.6750Q423.8700 592.3500 425.9400 592.3500ZM476.2500 617.1000L469.1400 617.1000Q468.4200 617.1000 467.8800 616.5600Q467.3400 616.0200 467.3400 615.3000L467.3400 615.3000Q467.3400 614.9400 467.3850 614.6250Q467.4300 614.3100 467.7000 613.8600L467.7000 613.8600L474.7200 597.2100L457.4400 556.4400Q457.0800 555.5400 457.0800 555.1800L457.0800 555.1800Q457.1700 554.3700 457.7100 553.7850Q458.2500 553.2000 459.0600 553.2000L459.0600 553.2000L466.3500 553.2000Q467.4300 553.2000 467.9700 553.7400Q468.5100 554.2800 468.7800 554.9100L468.7800 554.9100L480.7500 584.3400L493.0800 554.9100Q493.3500 554.1900 493.8900 553.6950Q494.4300 553.2000 495.5100 553.2000L495.5100 553.2000L502.7100 553.2000Q503.4300 553.2000 504.0150 553.7400Q504.6000 554.2800 504.6000 555L504.6000 555Q504.6000 555.5400 504.2400 556.4400L504.2400 556.4400L478.7700 615.3900Q478.4100 616.1100 477.8700 616.6050Q477.3300 617.1000 476.2500 617.1000L476.2500 617.1000ZM533.0400 600.9000L533.0400 600.9000Q525.8400 600.9000 520.9350 598.3800Q516.0300 595.8600 513.4650 591.2700Q510.9000 586.6800 510.5400 580.5600L510.5400 580.5600Q510.4500 578.9400 510.4500 576.6000Q510.4500 574.2600 510.5400 572.6400L510.5400 572.6400Q510.9000 566.4300 513.5550 561.8850Q516.2100 557.3400 521.1150 554.8200Q526.0200 552.3000 533.0400 552.3000L533.0400 552.3000Q540.0600 552.3000 544.9650 554.8200Q549.8700 557.3400 552.5250 561.8850Q555.1800 566.4300 555.5400 572.6400L555.5400 572.6400Q555.6300 574.2600 555.6300 576.6000Q555.6300 578.9400 555.5400 580.5600L555.5400 580.5600Q555.1800 586.6800 552.6150 591.2700Q550.0500 595.8600 545.1450 598.3800Q540.2400 600.9000 533.0400 600.9000ZM533.0400 591.9900L533.0400 591.9900Q537.8100 591.9900 540.4200 588.9750Q543.0300 585.9600 543.3000 580.1100L543.3000 580.1100Q543.3900 578.7600 543.3900 576.6000Q543.3900 574.4400 543.3000 573.0900L543.3000 573.0900Q543.0300 567.2400 540.4200 564.2250Q537.8100 561.2100 533.0400 561.2100L533.0400 561.2100Q528.2700 561.2100 525.6600 564.2250Q523.0500 567.2400 522.7800 573.0900L522.7800 573.0900Q522.6900 574.4400 522.6900 576.6000Q522.6900 578.7600 522.7800 580.1100L522.7800 580.1100Q523.0500 585.9600 525.6600 588.9750Q528.2700 591.9900 533.0400 591.9900ZM582.9900 600.9000L582.9900 600.9000Q577.5000 600.9000 573.4950 598.4250Q569.4900 595.9500 567.3300 591.4050Q565.1700 586.8600 565.1700 580.6500L565.1700 580.6500L565.1700 555.3600Q565.1700 554.4600 565.8000 553.8300Q566.4300 553.2000 567.3300 553.2000L567.3300 553.2000L575.2500 553.2000Q576.2400 553.2000 576.8250 553.8300Q577.4100 554.4600 577.4100 555.3600L577.4100 555.3600L577.4100 580.1100Q577.4100 591.2700 587.2200 591.2700L587.2200 591.2700Q591.9000 591.2700 594.6450 588.3000Q597.3900 585.3300 597.3900 580.1100L597.3900 580.1100L597.3900 555.3600Q597.3900 554.4600 598.0200 553.8300Q598.6500 553.2000 599.5500 553.2000L599.5500 553.2000L607.4700 553.2000Q608.3700 553.2000 609 553.8300Q609.6300 554.4600 609.6300 555.3600L609.6300 555.3600L609.6300 597.8400Q609.6300 598.7400 609 599.3700Q608.3700 600 607.4700 600L607.4700 600L600.1800 600Q599.1900 600 598.6050 599.3700Q598.0200 598.7400 598.0200 597.8400L598.0200 597.8400L598.0200 594.1500Q595.5900 597.3000 591.9900 599.1000Q588.3900 600.9000 582.9900 600.9000ZM649.9500 600L642.6600 600Q637.2600 600 633.5700 598.1100Q629.8800 596.2200 628.0800 592.4850Q626.2800 588.7500 626.2800 583.1700L626.2800 583.1700L626.2800 562.7400L619.1700 562.7400Q618.2700 562.7400 617.6400 562.1100Q617.0100 561.4800 617.0100 560.4900L617.0100 560.4900L617.0100 555.3600Q617.0100 554.4600 617.6400 553.8300Q618.2700 553.2000 619.1700 553.2000L619.1700 553.2000L626.2800 553.2000L626.2800 538.2600Q626.2800 537.3600 626.8650 536.7300Q627.4500 536.1000 628.4400 536.1000L628.4400 536.1000L635.7300 536.1000Q636.6300 536.1000 637.2600 536.7300Q637.8900 537.3600 637.8900 538.2600L637.8900 538.2600L637.8900 553.2000L649.1400 553.2000Q650.0400 553.2000 650.6700 553.8300Q651.3000 554.4600 651.3000 555.3600L651.3000 555.3600L651.3000 560.4900Q651.3000 561.4800 650.6700 562.1100Q650.0400 562.7400 649.1400 562.7400L649.1400 562.7400L637.8900 562.7400L637.8900 582.2700Q637.8900 585.9600 639.1950 588.0300Q640.5000 590.1000 643.7400 590.1000L643.7400 590.1000L649.9500 590.1000Q650.8500 590.1000 651.4800 590.7300Q652.1100 591.3600 652.1100 592.2600L652.1100 592.2600L652.1100 597.8400Q652.1100 598.7400 651.4800 599.3700Q650.8500 600 649.9500 600L649.9500 600ZM677.8500 600.9000L677.8500 600.9000Q672.4500 600.9000 668.6250 599.6400Q664.8000 598.3800 662.3700 596.4900Q659.9400 594.6000 658.7700 592.7100Q657.6000 590.8200 657.5100 589.5600L657.5100 589.5600Q657.4200 588.5700 658.0950 587.9850Q658.7700 587.4000 659.5800 587.4000L659.5800 587.4000L666.6900 587.4000Q667.0500 587.4000 667.3200 587.4900Q667.5900 587.5800 668.0400 588.0300L668.0400 588.0300Q669.2100 589.0200 670.5150 590.1000Q671.8200 591.1800 673.6200 591.9450Q675.4200 592.7100 678.1200 592.7100L678.1200 592.7100Q681.6300 592.7100 684.0150 591.3150Q686.4000 589.9200 686.4000 587.3100L686.4000 587.3100Q686.4000 585.4200 685.3650 584.2500Q684.3300 583.0800 681.5400 582.1350Q678.7500 581.1900 673.6200 580.1100L673.6200 580.1100Q668.5800 578.9400 665.2500 577.1400Q661.9200 575.3400 660.3000 572.6400Q658.6800 569.9400 658.6800 566.3400L658.6800 566.3400Q658.6800 562.8300 660.7950 559.6350Q662.9100 556.4400 667.0950 554.3700Q671.2800 552.3000 677.4900 552.3000L677.4900 552.3000Q682.3500 552.3000 685.9500 553.5150Q689.5500 554.7300 691.9350 556.5300Q694.3200 558.3300 695.5800 560.1750Q696.8400 562.0200 696.9300 563.3700L696.9300 563.3700Q697.0200 564.3600 696.3900 564.9450Q695.7600 565.5300 694.9500 565.5300L694.9500 565.5300L688.2900 565.5300Q687.8400 565.5300 687.4800 565.3500Q687.1200 565.1700 686.7600 564.9000L686.7600 564.9000Q685.7700 564 684.6000 562.9650Q683.4300 561.9300 681.7650 561.2100Q680.1000 560.4900 677.4000 560.4900L677.4000 560.4900Q673.9800 560.4900 672.1800 561.9750Q670.3800 563.4600 670.3800 565.7100L670.3800 565.7100Q670.3800 567.2400 671.2350 568.3650Q672.0900 569.4900 674.7000 570.4800Q677.3100 571.4700 682.6200 572.5500L682.6200 572.5500Q688.6500 573.6300 692.2050 575.7450Q695.7600 577.8600 697.2450 580.6050Q698.7300 583.3500 698.7300 586.6800L698.7300 586.6800Q698.7300 590.7300 696.3450 593.9700Q693.9600 597.2100 689.3250 599.0550Q684.6900 600.9000 677.8500 600.9000ZM740.4000 600L731.8500 600Q730.9500 600 730.3200 599.3700Q729.6900 598.7400 729.6900 597.8400L729.6900 597.8400L729.6900 539.2500Q729.6900 538.2600 730.3200 537.6300Q730.9500 537 731.8500 537L731.8500 537L755.9700 537Q762.9900 537 768.2100 539.2050Q773.4300 541.4100 776.3100 545.8650Q779.1900 550.3200 779.1900 556.9800L779.1900 556.9800Q779.1900 563.7300 776.3100 568.0950Q773.4300 572.4600 768.2100 574.6200Q762.9900 576.7800 755.9700 576.7800L755.9700 576.7800L742.5600 576.7800L742.5600 597.8400Q742.5600 598.7400 741.9750 599.3700Q741.3900 600 740.4000 600L740.4000 600ZM742.3800 546.9900L742.3800 566.7900L755.5200 566.7900Q760.7400 566.7900 763.5300 564.3150Q766.3200 561.8400 766.3200 556.9800L766.3200 556.9800Q766.3200 552.4800 763.7100 549.7350Q761.1000 546.9900 755.5200 546.9900L755.5200 546.9900L742.3800 546.9900ZM801.5100 600.9000L801.5100 600.9000Q796.8300 600.9000 793.0500 599.0550Q789.2700 597.2100 787.0650 594.1050Q784.8600 591 784.8600 587.1300L784.8600 587.1300Q784.8600 580.8300 789.9900 577.0950Q795.1200 573.3600 803.4000 572.1000L803.4000 572.1000L815.7300 570.3000L815.7300 568.4100Q815.7300 564.6300 813.8400 562.5600Q811.9500 560.4900 807.3600 560.4900L807.3600 560.4900Q804.1200 560.4900 802.0950 561.7950Q800.0700 563.1000 799.0800 565.2600L799.0800 565.2600Q798.3600 566.4300 797.0100 566.4300L797.0100 566.4300L789.9000 566.4300Q788.9100 566.4300 788.4150 565.8900Q787.9200 565.3500 787.9200 564.4500L787.9200 564.4500Q788.0100 563.0100 789.1350 560.9400Q790.2600 558.8700 792.5550 556.9350Q794.8500 555 798.5400 553.6500Q802.2300 552.3000 807.4500 552.3000L807.4500 552.3000Q813.1200 552.3000 817.0350 553.6950Q820.9500 555.0900 823.2900 557.4300Q825.6300 559.7700 826.7100 562.9200Q827.7900 566.0700 827.7900 569.5800L827.7900 569.5800L827.7900 597.8400Q827.7900 598.7400 827.1600 599.3700Q826.5300 600 825.6300 600L825.6300 600L818.3400 600Q817.3500 600 816.7650 599.3700Q816.1800 598.7400 816.1800 597.8400L816.1800 597.8400L816.1800 594.3300Q815.0100 595.9500 813.0300 597.4800Q811.0500 599.0100 808.2150 599.9550Q805.3800 600.9000 801.5100 600.9000ZM804.5700 592.3500L804.5700 592.3500Q807.7200 592.3500 810.2850 591Q812.8500 589.6500 814.3350 586.8150Q815.8200 583.9800 815.8200 579.6600L815.8200 579.6600L815.8200 577.7700L806.8200 579.2100Q801.5100 580.0200 798.9000 581.8200Q796.2900 583.6200 796.2900 586.2300L796.2900 586.2300Q796.2900 588.2100 797.5050 589.6050Q798.7200 591 800.6100 591.6750Q802.5000 592.3500 804.5700 592.3500ZM849.3000 600L841.4700 600Q840.5700 600 839.9400 599.3700Q839.3100 598.7400 839.3100 597.8400L839.3100 597.8400L839.3100 555.4500Q839.3100 554.4600 839.9400 553.8300Q840.5700 553.2000 841.4700 553.2000L841.4700 553.2000L848.7600 553.2000Q849.6600 553.2000 850.3350 553.8300Q851.0100 554.4600 851.0100 555.4500L851.0100 555.4500L851.0100 559.1400Q853.0800 556.2600 856.3650 554.7300Q859.6500 553.2000 863.9700 553.2000L863.9700 553.2000L867.6600 553.2000Q868.6500 553.2000 869.2350 553.8300Q869.8200 554.4600 869.8200 555.3600L869.8200 555.3600L869.8200 561.8400Q869.8200 562.7400 869.2350 563.3700Q868.6500 564 867.6600 564L867.6600 564L860.6400 564Q856.3200 564 853.9350 566.3850Q851.5500 568.7700 851.5500 573.0900L851.5500 573.0900L851.5500 597.8400Q851.5500 598.7400 850.9200 599.3700Q850.2900 600 849.3000 600L849.3000 600ZM905.2800 600L897.9900 600Q892.5900 600 888.9000 598.1100Q885.2100 596.2200 883.4100 592.4850Q881.6100 588.7500 881.6100 583.1700L881.6100 583.1700L881.6100 562.7400L874.5000 562.7400Q873.6000 562.7400 872.9700 562.1100Q872.3400 561.4800 872.3400 560.4900L872.3400 560.4900L872.3400 555.3600Q872.3400 554.4600 872.9700 553.8300Q873.6000 553.2000 874.5000 553.2000L874.5000 553.2000L881.6100 553.2000L881.6100 538.2600Q881.6100 537.3600 882.1950 536.7300Q882.7800 536.1000 883.7700 536.1000L883.7700 536.1000L891.0600 536.1000Q891.9600 536.1000 892.5900 536.7300Q893.2200 537.3600 893.2200 538.2600L893.2200 538.2600L893.2200 553.2000L904.4700 553.2000Q905.3700 553.2000 906.0000 553.8300Q906.6300 554.4600 906.6300 555.3600L906.6300 555.3600L906.6300 560.4900Q906.6300 561.4800 906.0000 562.1100Q905.3700 562.7400 904.4700 562.7400L904.4700 562.7400L893.2200 562.7400L893.2200 582.2700Q893.2200 585.9600 894.5250 588.0300Q895.8300 590.1000 899.0700 590.1000L899.0700 590.1000L905.2800 590.1000Q906.1800 590.1000 906.8100 590.7300Q907.4400 591.3600 907.4400 592.2600L907.4400 592.2600L907.4400 597.8400Q907.4400 598.7400 906.8100 599.3700Q906.1800 600 905.2800 600L905.2800 600ZM935.6100 600.9000L935.6100 600.9000Q925.6200 600.9000 919.7700 595.1400Q913.9200 589.3800 913.4700 578.7600L913.4700 578.7600Q913.3800 577.8600 913.3800 576.4650Q913.3800 575.0700 913.4700 574.2600L913.4700 574.2600Q913.8300 567.4200 916.5750 562.5150Q919.3200 557.6100 924.1800 554.9550Q929.0400 552.3000 935.6100 552.3000L935.6100 552.3000Q942.9000 552.3000 947.8500 555.3150Q952.8000 558.3300 955.3200 563.6850Q957.8400 569.0400 957.8400 576.0600L957.8400 576.0600L957.8400 577.9500Q957.8400 578.8500 957.2100 579.4800Q956.5800 580.1100 955.5900 580.1100L955.5900 580.1100L925.7100 580.1100Q925.7100 580.1100 925.7100 580.3800Q925.7100 580.6500 925.7100 580.8300L925.7100 580.8300Q925.8000 583.9800 926.9250 586.6350Q928.0500 589.2900 930.2550 590.9100Q932.4600 592.5300 935.5200 592.5300L935.5200 592.5300Q938.0400 592.5300 939.7500 591.7650Q941.4600 591 942.5400 590.0100Q943.6200 589.0200 944.0700 588.3900L944.0700 588.3900Q944.8800 587.3100 945.3750 587.0850Q945.8700 586.8600 946.8600 586.8600L946.8600 586.8600L954.6000 586.8600Q955.5000 586.8600 956.0850 587.4000Q956.6700 587.9400 956.5800 588.7500L956.5800 588.7500Q956.4900 590.1900 955.0950 592.2600Q953.7000 594.3300 951.0900 596.3100Q948.4800 598.2900 944.5650 599.5950Q940.6500 600.9000 935.6100 600.9000ZM925.7100 572.2800L925.7100 572.5500L945.6000 572.5500L945.6000 572.2800Q945.6000 568.7700 944.4300 566.1150Q943.2600 563.4600 941.0100 561.9750Q938.7600 560.4900 935.6100 560.4900L935.6100 560.4900Q932.4600 560.4900 930.2100 561.9750Q927.9600 563.4600 926.8350 566.1150Q925.7100 568.7700 925.7100 572.2800L925.7100 572.2800ZM999.6900 600L991.2300 600Q990.3300 600 989.7000 599.3700Q989.0700 598.7400 989.0700 597.8400L989.0700 597.8400L989.0700 539.1600Q989.0700 538.2600 989.7000 537.6300Q990.3300 537 991.2300 537L991.2300 537L999.6900 537Q1000.6800 537 1001.2650 537.6300Q1001.8500 538.2600 1001.8500 539.1600L1001.8500 539.1600L1001.8500 597.8400Q1001.8500 598.7400 1001.2650 599.3700Q1000.6800 600 999.6900 600L999.6900 600ZM1026.6000 600L1018.1400 600Q1017.2400 600 1016.6100 599.3700Q1015.9800 598.7400 1015.9800 597.8400L1015.9800 597.8400L1015.9800 539.1600Q1015.9800 538.2600 1016.6100 537.6300Q1017.2400 537 1018.1400 537L1018.1400 537L1026.6000 537Q1027.5900 537 1028.1750 537.6300Q1028.7600 538.2600 1028.7600 539.1600L1028.7600 539.1600L1028.7600 597.8400Q1028.7600 598.7400 1028.1750 599.3700Q1027.5900 600 1026.6000 600L1026.6000 600Z" id="title"/><path d="M1426.4800 650L1404.1600 650Q1402 650 1400.5600 648.4400Q1399.1200 646.8800 1399.1200 644.7200L1399.1200 644.7200Q1399.1200 643.5200 1399.4800 642.8000Q1399.8400 642.0800 1400.0800 641.6000L1400.0800 641.6000L1435.3600 592.8800Q1430.8000 594.0800 1425.5200 593.8400L1425.5200 593.8400Q1413.2800 593.6000 1402.8400 589.1600Q1392.4000 584.7200 1384.6000 577.1600Q1376.8000 569.6000 1372.3600 559.6400Q1367.9200 549.6800 1367.9200 537.9200L1367.9200 537.9200Q1367.9200 527.1200 1372 516.6800Q1376.0800 506.2400 1384.1200 497.8400Q1392.1600 489.4400 1404.2800 484.5200Q1416.4000 479.6000 1432.7200 479.6000L1432.7200 479.6000Q1448.8000 479.6000 1461.0400 484.1600Q1473.2800 488.7200 1481.5600 496.7600Q1489.8400 504.8000 1494.0400 515.1200Q1498.2400 525.4400 1498.2400 536.9600L1498.2400 536.9600Q1498.2400 547.2800 1494.8800 556.1600Q1491.5200 565.0400 1486.6000 572.3600Q1481.6800 579.6800 1476.8800 586.6400L1476.8800 586.6400L1434.6400 645.2000Q1433.6800 646.4000 1431.8800 648.2000Q1430.0800 650 1426.4800 650L1426.4800 650ZM1432.9600 568.4000L1432.9600 568.4000Q1441.6000 568.4000 1448.6800 564.6800Q1455.7600 560.9600 1459.9600 554.1200Q1464.1600 547.2800 1464.1600 537.9200L1464.1600 537.9200Q1464.1600 528.3200 1459.9600 521.4800Q1455.7600 514.6400 1448.5600 510.9200Q1441.3600 507.2000 1432.9600 507.2000L1432.9600 507.2000Q1424.3200 507.2000 1417.2400 510.9200Q1410.1600 514.6400 1405.9600 521.4800Q1401.7600 528.3200 1401.7600 537.9200L1401.7600 537.9200Q1401.7600 547.2800 1405.9600 554.1200Q1410.1600 560.9600 1417.2400 564.6800Q1424.3200 568.4000 1432.9600 568.4000ZM1538.3200 650L1514.3200 650Q1511.9200 650 1510.2400 648.3200Q1508.5600 646.6400 1508.5600 644.2400L1508.5600 644.2400L1508.5600 620.4800Q1508.5600 617.8400 1510.2400 616.1600Q1511.9200 614.4800 1514.3200 614.4800L1514.3200 614.4800L1538.3200 614.4800Q1540.7200 614.4800 1542.4000 616.1600Q1544.0800 617.8400 1544.0800 620.4800L1544.0800 620.4800L1544.0800 644.2400Q1544.0800 646.6400 1542.4000 648.3200Q1540.7200 650 1538.3200 650L1538.3200 650ZM1633.1200 652.4000L1633.1200 652.4000Q1612.4800 652.4000 1597.6000 644.6000Q1582.7200 636.8000 1574.5600 623.4800Q1566.4000 610.1600 1566.4000 593.6000L1566.4000 593.6000Q1566.4000 586.1600 1568.3200 579.2000Q1570.2400 572.2400 1573.3600 566Q1576.4800 559.7600 1579.4800 554.8400Q1582.4800 549.9200 1584.8800 547.0400L1584.8800 547.0400L1628.8000 486.8000Q1629.7600 485.6000 1631.6800 483.8000Q1633.6000 482 1636.9600 482L1636.9600 482L1659.2800 482Q1661.4400 482 1662.8800 483.5600Q1664.3200 485.1200 1664.3200 487.2800L1664.3200 487.2800Q1664.3200 488.2400 1663.9600 489.0800Q1663.6000 489.9200 1663.1200 490.4000L1663.1200 490.4000L1629.5200 536.9600Q1631.6800 536.2400 1634.5600 536Q1637.4400 535.7600 1639.8400 535.7600L1639.8400 535.7600Q1651.8400 536 1662.6400 540.4400Q1673.4400 544.8800 1681.6000 552.5600Q1689.7600 560.2400 1694.4400 570.5600Q1699.1200 580.8800 1699.1200 593.1200L1699.1200 593.1200Q1699.1200 608.9600 1691.2000 622.5200Q1683.2800 636.0800 1668.5200 644.2400Q1653.7600 652.4000 1633.1200 652.4000ZM1632.8800 624.8000L1632.8800 624.8000Q1641.5200 624.8000 1648.8400 621.2000Q1656.1600 617.6000 1660.7200 610.6400Q1665.2800 603.6800 1665.2800 593.3600L1665.2800 593.3600Q1665.2800 583.2800 1660.7200 576.3200Q1656.1600 569.3600 1648.8400 565.7600Q1641.5200 562.1600 1632.8800 562.1600L1632.8800 562.1600Q1624.2400 562.1600 1616.9200 565.7600Q1609.6000 569.3600 1605.0400 576.3200Q1600.4800 583.2800 1600.4800 593.3600L1600.4800 593.3600Q1600.4800 603.6800 1605.0400 610.6400Q1609.6000 617.6000 1616.9200 621.2000Q1624.2400 624.8000 1632.8800 624.8000Z" id="lecture-full-number"/></g></svg>