<svg xmlns="http://www.w3.org/2000/svg" version="1.1" xmlns:xlink="http://www.w3.org/1999/xlink" xmlns:svgjs="http://svgjs.dev/svgjs" viewBox="0 0 1920 1080" id="73f7c3be-1893-440d-94e2-d06963d69ca8"><g><rect width="1920" height="1080" fill="#3f4739"/></g><g fill="#905994"><path d="M1772.03 -272.371L588.972 1365.72L-152.596 264.737L1772.03 -272.371Z"/></g><g fill="#ffffff" opacity="0.2"><path d="M1506.02 1200.21L1546.07 1148L1100.37 1206.71L1152.58 1246.76L1506.02 1200.21Z"/><path d="M1633.72 1033.77L1005.65 1116.8L997.065 1127.98L1038.42 1159.71L1593.67 1085.97L1633.72 1033.77Z"/><path d="M1680.72 971.813L1720.77 919.609L1093.03 1002.9L1052.98 1055.1L1680.72 971.813Z"/><path d="M1768.1 857.918L1808.15 805.715L1180.08 888.745L1140.03 940.948L1768.1 857.918Z"/><path d="M1855.49 744.015L1895.54 691.812L1267.47 774.843L1227.41 827.046L1855.49 744.015Z"/><path d="M1888.02 637.039L1835.56 597.326L1207.48 680.356L1259.95 720.069L1888.02 637.039Z"/><path d="M1773.86 549.992L1721.66 509.94L1093.59 592.97L1145.79 633.022L1773.86 549.992Z"/><path d="M1659.96 462.605L1607.76 422.554L979.688 505.584L1031.89 545.636L1659.96 462.605Z"/><path d="M1493.52 334.907L939.474 408.492L907.485 450.187L917.993 458.249L1546.07 375.219L1493.52 334.907Z"/><path d="M1431.83 287.574L1379.63 247.522L1026.86 294.596L986.809 346.799L1431.83 287.574Z"/><path d="M1317.93 200.191L1265.47 160.478L1114.17 180.102L1073.86 232.644L1317.93 200.191Z"/><path d="M1161.5 118.408L1203.77 113.145L1179.71 94.6791L1161.5 118.408Z"/><path d="M154.022 1244.21L194.074 1192L-251.626 1250.71L-199.423 1290.76L154.022 1244.21Z"/><path d="M281.72 1077.77L-346.353 1160.8L-354.935 1171.98L-313.579 1203.71L241.669 1129.97L281.72 1077.77Z"/><path d="M328.716 1015.81L368.768 963.609L-258.966 1046.9L-299.018 1099.1L328.716 1015.81Z"/><path d="M416.101 901.918L456.153 849.715L-171.92 932.745L-211.972 984.948L416.101 901.918Z"/><path d="M503.487 788.015L543.539 735.812L-84.5345 818.843L-124.586 871.046L503.487 788.015Z"/><path d="M536.02 681.039L483.557 641.326L-144.517 724.356L-92.0533 764.069L536.02 681.039Z"/><path d="M421.862 593.992L369.659 553.94L-258.414 636.97L-206.211 677.022L421.862 593.992Z"/><path d="M307.964 506.605L255.761 466.554L-372.312 549.584L-320.109 589.636L307.964 506.605Z"/><path d="M141.524 378.907L-412.526 452.492L-444.515 494.187L-434.007 502.249L194.066 419.219L141.524 378.907Z"/><path d="M79.83 331.574L27.6271 291.522L-325.139 338.596L-365.191 390.799L79.83 331.574Z"/></g><g><path d="M178.635 139.281L184.422 144.246V166.626H215.704L219.958 172.147L215.69 177.397H184.422V198.795L178.635 203.747L173 198.795V144.232L178.635 139.281ZM195.554 195.68H219.406L223.397 200.915L219.143 206.45H195.554L191.7 201.342L195.554 195.68ZM196.382 138H219.129L223.383 143.52L219.129 148.77H196.659L192.115 143.677L196.382 138ZM323.155 148.628L328.251 154.291L323.155 159.968H246.13L241.172 154.291L246.13 148.628H323.155ZM237.043 172.147L241.849 167.893L246.669 172.147V178.393C246.669 188.879 249.417 197.515 261.668 197.515H264.14C275.147 197.515 281.197 189.86 281.197 177.952V172.005L285.879 167.75L290.699 171.862V178.379C290.699 189.007 293.723 196.946 305.56 196.946H307.618C319.178 196.946 321.235 187.869 321.373 177.952V171.578L326.056 167.608L331 171.72V178.094C330.862 191.838 327.285 207.574 308.032 207.574H305.974C294.552 207.574 288.365 202.324 285.892 195.808C283.006 202.466 275.299 208.286 264.844 208.286H262.358C242.553 208.286 237.194 195.964 237.056 178.663V172.147H237.043ZM276.391 274.744L273.642 267.089L280.796 264.969L305.974 276.721V252.491L311.07 248.095L316.291 252.491V281.829L325.641 286.226L328.251 293.311L320.959 296L276.391 274.744ZM321.235 223.011L328.113 226.27L325.917 233.497L264.002 263.119L256.571 260.146L259.596 252.776L321.235 223.011ZM231.905 263.404L237.954 268.512C237.402 286.51 222.403 296 204.669 296H202.874C194.062 296 183.759 292.6 177.157 286.083L177.834 278.855L184.298 278.002C189.118 282.256 195.858 285.229 202.183 285.229H204.117C216.091 285.229 225.303 280.136 226.27 268.085L231.905 263.404ZM226.256 251.638C225.704 239.16 216.629 234.209 204.103 234.209H202.169C194.739 234.209 189.104 237.182 184.284 241.436L177.834 240.583L177.143 233.355C183.745 226.696 192.957 223.58 202.597 223.58H204.517C222.403 223.58 237.402 232.942 237.94 251.211L231.891 256.176L226.256 251.638Z" fill="#ffffff"/></g><path d="M1171 781L1171 339L1187 339L1187 781L1171 781Z" fill="#ffffff"/><g fill="#ffffff" id="info-group"><path d="M186 600L159.1800 600Q158.2800 600 157.6500 599.3700Q157.0200 598.7400 157.0200 597.8400L157.0200 597.8400L157.0200 539.2500Q157.0200 538.2600 157.6500 537.6300Q158.2800 537 159.1800 537L159.1800 537L185.2800 537Q192.5700 537 197.1600 539.2050Q201.7500 541.4100 203.9550 545.2800Q206.1600 549.1500 206.1600 554.2800L206.1600 554.2800Q206.1600 557.7000 204.9450 560.2650Q203.7300 562.8300 201.9750 564.4500Q200.2200 566.0700 198.5100 566.9700L198.5100 566.9700Q202.0200 568.5900 204.7200 572.3700Q207.4200 576.1500 207.4200 581.3700L207.4200 581.3700Q207.4200 586.7700 204.9900 591Q202.5600 595.2300 197.7900 597.6150Q193.0200 600 186 600L186 600ZM169.5300 572.1900L169.5300 590.4600L184.5600 590.4600Q189.4200 590.4600 191.9400 587.8050Q194.4600 585.1500 194.4600 581.3700L194.4600 581.3700Q194.4600 577.4100 191.8950 574.8000Q189.3300 572.1900 184.5600 572.1900L184.5600 572.1900L169.5300 572.1900ZM169.5300 546.4500L169.5300 562.8300L183.6600 562.8300Q188.4300 562.8300 190.8150 560.5350Q193.2000 558.2400 193.2000 554.5500L193.2000 554.5500Q193.2000 550.7700 190.8150 548.6100Q188.4300 546.4500 183.6600 546.4500L183.6600 546.4500L169.5300 546.4500ZM238.3800 600.9000L238.3800 600.9000Q231.1800 600.9000 226.2750 598.3800Q221.3700 595.8600 218.8050 591.2700Q216.2400 586.6800 215.8800 580.5600L215.8800 580.5600Q215.7900 578.9400 215.7900 576.6000Q215.7900 574.2600 215.8800 572.6400L215.8800 572.6400Q216.2400 566.4300 218.8950 561.8850Q221.5500 557.3400 226.4550 554.8200Q231.3600 552.3000 238.3800 552.3000L238.3800 552.3000Q245.4000 552.3000 250.3050 554.8200Q255.2100 557.3400 257.8650 561.8850Q260.5200 566.4300 260.8800 572.6400L260.8800 572.6400Q260.9700 574.2600 260.9700 576.6000Q260.9700 578.9400 260.8800 580.5600L260.8800 580.5600Q260.5200 586.6800 257.9550 591.2700Q255.3900 595.8600 250.4850 598.3800Q245.5800 600.9000 238.3800 600.9000ZM238.3800 591.9900L238.3800 591.9900Q243.1500 591.9900 245.7600 588.9750Q248.3700 585.9600 248.6400 580.1100L248.6400 580.1100Q248.7300 578.7600 248.7300 576.6000Q248.7300 574.4400 248.6400 573.0900L248.6400 573.0900Q248.3700 567.2400 245.7600 564.2250Q243.1500 561.2100 238.3800 561.2100L238.3800 561.2100Q233.6100 561.2100 231 564.2250Q228.3900 567.2400 228.1200 573.0900L228.1200 573.0900Q228.0300 574.4400 228.0300 576.6000Q228.0300 578.7600 228.1200 580.1100L228.1200 580.1100Q228.3900 585.9600 231 588.9750Q233.6100 591.9900 238.3800 591.9900ZM291.6600 600.9000L291.6600 600.9000Q284.4600 600.9000 279.5550 598.3800Q274.6500 595.8600 272.0850 591.2700Q269.5200 586.6800 269.1600 580.5600L269.1600 580.5600Q269.0700 578.9400 269.0700 576.6000Q269.0700 574.2600 269.1600 572.6400L269.1600 572.6400Q269.5200 566.4300 272.1750 561.8850Q274.8300 557.3400 279.7350 554.8200Q284.6400 552.3000 291.6600 552.3000L291.6600 552.3000Q298.6800 552.3000 303.5850 554.8200Q308.4900 557.3400 311.1450 561.8850Q313.8000 566.4300 314.1600 572.6400L314.1600 572.6400Q314.2500 574.2600 314.2500 576.6000Q314.2500 578.9400 314.1600 580.5600L314.1600 580.5600Q313.8000 586.6800 311.2350 591.2700Q308.6700 595.8600 303.7650 598.3800Q298.8600 600.9000 291.6600 600.9000ZM291.6600 591.9900L291.6600 591.9900Q296.4300 591.9900 299.0400 588.9750Q301.6500 585.9600 301.9200 580.1100L301.9200 580.1100Q302.0100 578.7600 302.0100 576.6000Q302.0100 574.4400 301.9200 573.0900L301.9200 573.0900Q301.6500 567.2400 299.0400 564.2250Q296.4300 561.2100 291.6600 561.2100L291.6600 561.2100Q286.8900 561.2100 284.2800 564.2250Q281.6700 567.2400 281.4000 573.0900L281.4000 573.0900Q281.3100 574.4400 281.3100 576.6000Q281.3100 578.7600 281.4000 580.1100L281.4000 580.1100Q281.6700 585.9600 284.2800 588.9750Q286.8900 591.9900 291.6600 591.9900ZM352.6800 600L345.3900 600Q339.9900 600 336.3000 598.1100Q332.6100 596.2200 330.8100 592.4850Q329.0100 588.7500 329.0100 583.1700L329.0100 583.1700L329.0100 562.7400L321.9000 562.7400Q321.0000 562.7400 320.3700 562.1100Q319.7400 561.4800 319.7400 560.4900L319.7400 560.4900L319.7400 555.3600Q319.7400 554.4600 320.3700 553.8300Q321.0000 553.2000 321.9000 553.2000L321.9000 553.2000L329.0100 553.2000L329.0100 538.2600Q329.0100 537.3600 329.5950 536.7300Q330.1800 536.1000 331.1700 536.1000L331.1700 536.1000L338.4600 536.1000Q339.3600 536.1000 339.9900 536.7300Q340.6200 537.3600 340.6200 538.2600L340.6200 538.2600L340.6200 553.2000L351.8700 553.2000Q352.7700 553.2000 353.4000 553.8300Q354.0300 554.4600 354.0300 555.3600L354.0300 555.3600L354.0300 560.4900Q354.0300 561.4800 353.4000 562.1100Q352.7700 562.7400 351.8700 562.7400L351.8700 562.7400L340.6200 562.7400L340.6200 582.2700Q340.6200 585.9600 341.9250 588.0300Q343.2300 590.1000 346.4700 590.1000L346.4700 590.1000L352.6800 590.1000Q353.5800 590.1000 354.2100 590.7300Q354.8400 591.3600 354.8400 592.2600L354.8400 592.2600L354.8400 597.8400Q354.8400 598.7400 354.2100 599.3700Q353.5800 600 352.6800 600L352.6800 600ZM380.5800 600.9000L380.5800 600.9000Q375.1800 600.9000 371.3550 599.6400Q367.5300 598.3800 365.1000 596.4900Q362.6700 594.6000 361.5000 592.7100Q360.3300 590.8200 360.2400 589.5600L360.2400 589.5600Q360.1500 588.5700 360.8250 587.9850Q361.5000 587.4000 362.3100 587.4000L362.3100 587.4000L369.4200 587.4000Q369.7800 587.4000 370.0500 587.4900Q370.3200 587.5800 370.7700 588.0300L370.7700 588.0300Q371.9400 589.0200 373.2450 590.1000Q374.5500 591.1800 376.3500 591.9450Q378.1500 592.7100 380.8500 592.7100L380.8500 592.7100Q384.3600 592.7100 386.7450 591.3150Q389.1300 589.9200 389.1300 587.3100L389.1300 587.3100Q389.1300 585.4200 388.0950 584.2500Q387.0600 583.0800 384.2700 582.1350Q381.4800 581.1900 376.3500 580.1100L376.3500 580.1100Q371.3100 578.9400 367.9800 577.1400Q364.6500 575.3400 363.0300 572.6400Q361.4100 569.9400 361.4100 566.3400L361.4100 566.3400Q361.4100 562.8300 363.5250 559.6350Q365.6400 556.4400 369.8250 554.3700Q374.0100 552.3000 380.2200 552.3000L380.2200 552.3000Q385.0800 552.3000 388.6800 553.5150Q392.2800 554.7300 394.6650 556.5300Q397.0500 558.3300 398.3100 560.1750Q399.5700 562.0200 399.6600 563.3700L399.6600 563.3700Q399.7500 564.3600 399.1200 564.9450Q398.4900 565.5300 397.6800 565.5300L397.6800 565.5300L391.0200 565.5300Q390.5700 565.5300 390.2100 565.3500Q389.8500 565.1700 389.4900 564.9000L389.4900 564.9000Q388.5000 564 387.3300 562.9650Q386.1600 561.9300 384.4950 561.2100Q382.8300 560.4900 380.1300 560.4900L380.1300 560.4900Q376.7100 560.4900 374.9100 561.9750Q373.1100 563.4600 373.1100 565.7100L373.1100 565.7100Q373.1100 567.2400 373.9650 568.3650Q374.8200 569.4900 377.4300 570.4800Q380.0400 571.4700 385.3500 572.5500L385.3500 572.5500Q391.3800 573.6300 394.9350 575.7450Q398.4900 577.8600 399.9750 580.6050Q401.4600 583.3500 401.4600 586.6800L401.4600 586.6800Q401.4600 590.7300 399.0750 593.9700Q396.6900 597.2100 392.0550 599.0550Q387.4200 600.9000 380.5800 600.9000ZM439.1700 600L431.8800 600Q426.4800 600 422.7900 598.1100Q419.1000 596.2200 417.3000 592.4850Q415.5000 588.7500 415.5000 583.1700L415.5000 583.1700L415.5000 562.7400L408.3900 562.7400Q407.4900 562.7400 406.8600 562.1100Q406.2300 561.4800 406.2300 560.4900L406.2300 560.4900L406.2300 555.3600Q406.2300 554.4600 406.8600 553.8300Q407.4900 553.2000 408.3900 553.2000L408.3900 553.2000L415.5000 553.2000L415.5000 538.2600Q415.5000 537.3600 416.0850 536.7300Q416.6700 536.1000 417.6600 536.1000L417.6600 536.1000L424.9500 536.1000Q425.8500 536.1000 426.4800 536.7300Q427.1100 537.3600 427.1100 538.2600L427.1100 538.2600L427.1100 553.2000L438.3600 553.2000Q439.2600 553.2000 439.8900 553.8300Q440.5200 554.4600 440.5200 555.3600L440.5200 555.3600L440.5200 560.4900Q440.5200 561.4800 439.8900 562.1100Q439.2600 562.7400 438.3600 562.7400L438.3600 562.7400L427.1100 562.7400L427.1100 582.2700Q427.1100 585.9600 428.4150 588.0300Q429.7200 590.1000 432.9600 590.1000L432.9600 590.1000L439.1700 590.1000Q440.0700 590.1000 440.7000 590.7300Q441.3300 591.3600 441.3300 592.2600L441.3300 592.2600L441.3300 597.8400Q441.3300 598.7400 440.7000 599.3700Q440.0700 600 439.1700 600L439.1700 600ZM459.3300 600L451.5000 600Q450.6000 600 449.9700 599.3700Q449.3400 598.7400 449.3400 597.8400L449.3400 597.8400L449.3400 555.4500Q449.3400 554.4600 449.9700 553.8300Q450.6000 553.2000 451.5000 553.2000L451.5000 553.2000L458.7900 553.2000Q459.6900 553.2000 460.3650 553.8300Q461.0400 554.4600 461.0400 555.4500L461.0400 555.4500L461.0400 559.1400Q463.1100 556.2600 466.3950 554.7300Q469.6800 553.2000 474 553.2000L474 553.2000L477.6900 553.2000Q478.6800 553.2000 479.2650 553.8300Q479.8500 554.4600 479.8500 555.3600L479.8500 555.3600L479.8500 561.8400Q479.8500 562.7400 479.2650 563.3700Q478.6800 564 477.6900 564L477.6900 564L470.6700 564Q466.3500 564 463.9650 566.3850Q461.5800 568.7700 461.5800 573.0900L461.5800 573.0900L461.5800 597.8400Q461.5800 598.7400 460.9500 599.3700Q460.3200 600 459.3300 600L459.3300 600ZM500.4600 600.9000L500.4600 600.9000Q495.7800 600.9000 492.0000 599.0550Q488.2200 597.2100 486.0150 594.1050Q483.8100 591 483.8100 587.1300L483.8100 587.1300Q483.8100 580.8300 488.9400 577.0950Q494.0700 573.3600 502.3500 572.1000L502.3500 572.1000L514.6800 570.3000L514.6800 568.4100Q514.6800 564.6300 512.7900 562.5600Q510.9000 560.4900 506.3100 560.4900L506.3100 560.4900Q503.0700 560.4900 501.0450 561.7950Q499.0200 563.1000 498.0300 565.2600L498.0300 565.2600Q497.3100 566.4300 495.9600 566.4300L495.9600 566.4300L488.8500 566.4300Q487.8600 566.4300 487.3650 565.8900Q486.8700 565.3500 486.8700 564.4500L486.8700 564.4500Q486.9600 563.0100 488.0850 560.9400Q489.2100 558.8700 491.5050 556.9350Q493.8000 555 497.4900 553.6500Q501.1800 552.3000 506.4000 552.3000L506.4000 552.3000Q512.0700 552.3000 515.9850 553.6950Q519.9000 555.0900 522.2400 557.4300Q524.5800 559.7700 525.6600 562.9200Q526.7400 566.0700 526.7400 569.5800L526.7400 569.5800L526.7400 597.8400Q526.7400 598.7400 526.1100 599.3700Q525.4800 600 524.5800 600L524.5800 600L517.2900 600Q516.3000 600 515.7150 599.3700Q515.1300 598.7400 515.1300 597.8400L515.1300 597.8400L515.1300 594.3300Q513.9600 595.9500 511.9800 597.4800Q510.0000 599.0100 507.1650 599.9550Q504.3300 600.9000 500.4600 600.9000ZM503.5200 592.3500L503.5200 592.3500Q506.6700 592.3500 509.2350 591Q511.8000 589.6500 513.2850 586.8150Q514.7700 583.9800 514.7700 579.6600L514.7700 579.6600L514.7700 577.7700L505.7700 579.2100Q500.4600 580.0200 497.8500 581.8200Q495.2400 583.6200 495.2400 586.2300L495.2400 586.2300Q495.2400 588.2100 496.4550 589.6050Q497.6700 591 499.5600 591.6750Q501.4500 592.3500 503.5200 592.3500ZM548.1600 617.1000L540.5100 617.1000Q539.6100 617.1000 538.9800 616.4700Q538.3500 615.8400 538.3500 614.9400L538.3500 614.9400L538.3500 555.3600Q538.3500 554.4600 538.9800 553.8300Q539.6100 553.2000 540.5100 553.2000L540.5100 553.2000L547.6200 553.2000Q548.6100 553.2000 549.1950 553.8300Q549.7800 554.4600 549.7800 555.3600L549.7800 555.3600L549.7800 558.9600Q551.9400 556.0800 555.4500 554.1900Q558.9600 552.3000 564.1800 552.3000L564.1800 552.3000Q568.9500 552.3000 572.4600 553.8300Q575.9700 555.3600 578.3100 558.1950Q580.6500 561.0300 581.9100 564.9000Q583.1700 568.7700 583.3500 573.4500L583.3500 573.4500Q583.4400 574.9800 583.4400 576.6000Q583.4400 578.2200 583.3500 579.8400L583.3500 579.8400Q583.2600 584.3400 582.0000 588.1650Q580.7400 591.9900 578.3550 594.8250Q575.9700 597.6600 572.4600 599.2800Q568.9500 600.9000 564.1800 600.9000L564.1800 600.9000Q559.3200 600.9000 555.9000 599.1450Q552.4800 597.3900 550.3200 594.5100L550.3200 594.5100L550.3200 614.9400Q550.3200 615.8400 549.7350 616.4700Q549.1500 617.1000 548.1600 617.1000L548.1600 617.1000ZM560.8500 591.2700L560.8500 591.2700Q564.7200 591.2700 566.8800 589.6050Q569.0400 587.9400 570.0300 585.2400Q571.0200 582.5400 571.2000 579.3000L571.2000 579.3000Q571.2900 576.6000 571.2000 573.9000L571.2000 573.9000Q571.0200 570.6600 570.0300 567.9600Q569.0400 565.2600 566.8800 563.5950Q564.7200 561.9300 560.8500 561.9300L560.8500 561.9300Q557.1600 561.9300 554.8650 563.6400Q552.5700 565.3500 551.5350 568.0050Q550.5000 570.6600 550.3200 573.4500L550.3200 573.4500Q550.2300 575.0700 550.2300 576.8700Q550.2300 578.6700 550.3200 580.3800L550.3200 580.3800Q550.4100 583.0800 551.5800 585.5550Q552.7500 588.0300 555.0000 589.6500Q557.2500 591.2700 560.8500 591.2700ZM625.8300 600L617.3700 600Q616.4700 600 615.8400 599.3700Q615.2100 598.7400 615.2100 597.8400L615.2100 597.8400L615.2100 539.1600Q615.2100 538.2600 615.8400 537.6300Q616.4700 537 617.3700 537L617.3700 537L625.8300 537Q626.8200 537 627.4050 537.6300Q627.9900 538.2600 627.9900 539.1600L627.9900 539.1600L627.9900 597.8400Q627.9900 598.7400 627.4050 599.3700Q626.8200 600 625.8300 600L625.8300 600Z" id="title"/><path d="M1408.9600 640L1388.9400 640Q1386.5200 640 1385.0900 638.4600Q1383.6600 636.9200 1383.6600 634.7200L1383.6600 634.7200L1383.6600 520.7600L1350.2200 546.5000Q1348.2400 547.8200 1346.2600 547.4900Q1344.2800 547.1600 1342.7400 545.1800L1342.7400 545.1800L1333.5000 533.3000Q1332.1800 531.3200 1332.5100 529.1200Q1332.8400 526.9200 1334.8200 525.6000L1334.8200 525.6000L1384.1000 487.5400Q1385.4200 486.4400 1386.7400 486.2200Q1388.0600 486 1389.6000 486L1389.6000 486L1408.9600 486Q1411.1600 486 1412.7000 487.5400Q1414.2400 489.0800 1414.2400 491.2800L1414.2400 491.2800L1414.2400 634.7200Q1414.2400 636.9200 1412.7000 638.4600Q1411.1600 640 1408.9600 640L1408.9600 640ZM1497.1800 642.4200L1497.1800 642.4200Q1478.2600 642.4200 1465.2800 636.1500Q1452.3000 629.8800 1445.5900 619.7600Q1438.8800 609.6400 1438.4400 598.2000L1438.4400 598.2000Q1438.2200 596.2200 1439.6500 595.0100Q1441.0800 593.8000 1443.0600 593.8000L1443.0600 593.8000L1463.5200 593.8000Q1465.9400 593.8000 1467.5900 594.7900Q1469.2400 595.7800 1470.1200 598.2000L1470.1200 598.2000Q1472.3200 604.8000 1476.3900 608.9800Q1480.4600 613.1600 1485.8500 615.1400Q1491.2400 617.1200 1497.1800 617.1200L1497.1800 617.1200Q1505.1000 617.1200 1511.5900 613.9300Q1518.0800 610.7400 1522.0400 604.3600Q1526 597.9800 1526 588.7400L1526 588.7400Q1526 580.6000 1522.2600 574.6600Q1518.5200 568.7200 1512.0300 565.3100Q1505.5400 561.9000 1497.1800 561.9000L1497.1800 561.9000Q1491.0200 561.9000 1487.0600 563.4400Q1483.1000 564.9800 1480.3500 566.9600Q1477.6000 568.9400 1475.5100 570.4800Q1473.4200 572.0200 1470.7800 572.0200L1470.7800 572.0200L1450.5400 572.0200Q1448.5600 572.0200 1447.1300 570.5900Q1445.7000 569.1600 1445.7000 567.1800L1445.7000 567.1800L1453.4000 491.9400Q1453.6200 489.0800 1455.3800 487.5400Q1457.1400 486 1459.5600 486L1459.5600 486L1542.2800 486Q1544.4800 486 1546.0200 487.5400Q1547.5600 489.0800 1547.5600 491.2800L1547.5600 491.2800L1547.5600 506.0200Q1547.5600 508.2200 1546.0200 509.7600Q1544.4800 511.3000 1542.2800 511.3000L1542.2800 511.3000L1478.7000 511.3000L1475.1800 547.1600Q1479.1400 544.5200 1485.7400 542.1000Q1492.3400 539.6800 1504 539.6800L1504 539.6800Q1514.5600 539.6800 1524.1300 543.0900Q1533.7000 546.5000 1541.1800 552.9900Q1548.6600 559.4800 1552.9500 568.6100Q1557.2400 577.7400 1557.2400 589.4000L1557.2400 589.4000Q1557.2400 605.4600 1549.7600 617.3400Q1542.2800 629.2200 1528.8600 635.8200Q1515.4400 642.4200 1497.1800 642.4200ZM1605.2000 640L1583.2000 640Q1581 640 1579.4600 638.4600Q1577.9200 636.9200 1577.9200 634.7200L1577.9200 634.7200L1577.9200 612.9400Q1577.9200 610.5200 1579.4600 608.9800Q1581 607.4400 1583.2000 607.4400L1583.2000 607.4400L1605.2000 607.4400Q1607.4000 607.4400 1608.9400 608.9800Q1610.4800 610.5200 1610.4800 612.9400L1610.4800 612.9400L1610.4800 634.7200Q1610.4800 636.9200 1608.9400 638.4600Q1607.4000 640 1605.2000 640L1605.2000 640ZM1744.0200 640L1638.8600 640Q1636.6600 640 1635.1200 638.4600Q1633.5800 636.9200 1633.5800 634.7200L1633.5800 634.7200L1633.5800 623.5000Q1633.5800 621.5200 1634.5700 618.7700Q1635.5600 616.0200 1639.0800 613.1600L1639.0800 613.1600L1673.8400 578.6200Q1688.3600 567.1800 1697.2700 559.1500Q1706.1800 551.1200 1710.2500 544.4100Q1714.3200 537.7000 1714.3200 531.1000L1714.3200 531.1000Q1714.3200 521.2000 1708.9300 515.0400Q1703.5400 508.8800 1691.8800 508.8800L1691.8800 508.8800Q1684.1800 508.8800 1678.9000 512.0700Q1673.6200 515.2600 1670.6500 520.5400Q1667.6800 525.8200 1666.5800 532.2000L1666.5800 532.2000Q1666.1400 535.0600 1664.1600 536.1600Q1662.1800 537.2600 1660.2000 537.2600L1660.2000 537.2600L1640.6200 537.2600Q1638.6400 537.2600 1637.3200 535.9400Q1636 534.6200 1636 532.8600L1636 532.8600Q1636.2200 523.4000 1639.9600 514.4900Q1643.7000 505.5800 1650.8500 498.6500Q1658 491.7200 1668.3400 487.5400Q1678.6800 483.3600 1691.6600 483.3600L1691.6600 483.3600Q1709.9200 483.3600 1721.9100 489.5200Q1733.9000 495.6800 1739.9500 506.2400Q1746 516.8000 1746 530L1746 530Q1746 540.3400 1742.0400 549.0300Q1738.0800 557.7200 1730.6000 565.7500Q1723.1200 573.7800 1712.5600 582.1400L1712.5600 582.1400L1681.3200 613.8200L1744.0200 613.8200Q1746.4400 613.8200 1747.8700 615.2500Q1749.3000 616.6800 1749.3000 619.1000L1749.3000 619.1000L1749.3000 634.7200Q1749.3000 636.9200 1747.8700 638.4600Q1746.4400 640 1744.0200 640L1744.0200 640Z" id="lecture-full-number"/></g></svg>