<svg xmlns="http://www.w3.org/2000/svg" version="1.1" xmlns:xlink="http://www.w3.org/1999/xlink" xmlns:svgjs="http://svgjs.dev/svgjs" viewBox="0 0 1920 1080" id="hidden-cover-svg"><g><rect width="1920" height="1080" fill="#e1f4cb"/></g><g fill="#f1bf98"><path d="M716 244.687C1027.07 244.687 1278.69 -7.55189 1278.69 -318L1842 -318C1842 303.522 1338.15 807.374 716 807.374L716 244.687Z"/></g><g fill="#ffffff" opacity="0.4"><path d="M59.4553 1025.44C74.0358 1034.58 78.4304 1053.77 69.2841 1068.35C60.1377 1082.93 40.9502 1087.32 26.3697 1078.18C11.7893 1069.03 7.39469 1049.85 16.5411 1035.27C25.6874 1020.69 44.8749 1016.29 59.4553 1025.44ZM115.48 877.553C106.334 892.133 110.729 911.319 125.309 920.464C139.89 929.608 159.077 925.213 168.224 910.634C177.37 896.054 172.975 876.869 158.395 867.724C143.815 858.579 124.627 862.974 115.48 877.553ZM214.42 719.84C205.274 734.42 209.668 753.605 224.249 762.75C238.829 771.895 258.017 767.5 267.163 752.921C276.31 738.341 271.915 719.155 257.335 710.01C242.754 700.865 223.566 705.26 214.42 719.84ZM313.36 562.127C304.213 576.706 308.608 595.892 323.188 605.037C337.769 614.182 356.956 609.787 366.103 595.207C375.249 580.628 370.855 561.442 356.274 552.297C341.694 543.152 322.506 547.547 313.36 562.127ZM412.299 404.414C403.153 418.993 407.547 438.179 422.128 447.324C436.708 456.469 455.896 452.074 465.042 437.494C474.189 422.915 469.794 403.729 455.214 394.584C440.633 385.439 421.446 389.834 412.299 404.414ZM174.263 1134.19C165.117 1148.77 169.512 1167.96 184.092 1177.1C198.673 1186.25 217.86 1181.85 227.007 1167.27C236.153 1152.69 231.758 1133.51 217.178 1124.36C202.597 1115.22 183.41 1119.61 174.263 1134.19ZM273.203 976.477C264.056 991.057 268.451 1010.24 283.032 1019.39C297.612 1028.53 316.8 1024.14 325.946 1009.56C335.093 994.979 330.698 975.792 316.117 966.648C301.537 957.503 282.349 961.898 273.203 976.477ZM372.143 818.764C362.996 833.344 367.391 852.53 381.971 861.675C396.552 870.82 415.739 866.425 424.886 851.845C434.032 837.266 429.638 818.08 415.057 808.935C400.477 799.79 381.289 804.185 372.143 818.764ZM471.082 661.051C461.936 675.631 466.33 694.817 480.911 703.962C495.491 713.106 514.679 708.711 523.825 694.132C532.972 679.552 528.577 660.367 513.997 651.222C499.416 642.077 480.228 646.472 471.082 661.051ZM570.022 503.338C560.875 517.918 565.27 537.103 579.85 546.248C594.431 555.393 613.619 550.998 622.765 536.419C631.911 521.839 627.517 502.653 612.936 493.508C598.356 484.363 579.168 488.758 570.022 503.338ZM331.986 1233.11C322.84 1247.69 327.234 1266.88 341.815 1276.03C356.395 1285.17 375.583 1280.78 384.729 1266.2C393.875 1251.62 389.481 1232.43 374.9 1223.29C360.32 1214.14 341.132 1218.54 331.986 1233.11ZM430.925 1075.4C421.779 1089.98 426.174 1109.17 440.754 1118.31C455.335 1127.46 474.522 1123.06 483.669 1108.48C492.815 1093.9 488.42 1074.72 473.84 1065.57C459.26 1056.43 440.072 1060.82 430.925 1075.4ZM529.865 917.688C520.719 932.268 525.113 951.454 539.694 960.599C554.274 969.744 573.462 965.349 582.608 950.77C591.755 936.19 587.36 917.004 572.78 907.859C558.199 898.714 539.011 903.109 529.865 917.688ZM628.805 759.976C619.658 774.555 624.053 793.741 638.633 802.886C653.214 812.031 672.402 807.636 681.548 793.056C690.694 778.477 686.3 759.291 671.719 750.146C657.139 741.001 637.951 745.396 628.805 759.976ZM727.744 602.263C718.598 616.842 722.992 636.028 737.573 645.173C752.153 654.318 771.341 649.923 780.487 635.343C789.634 620.764 785.239 601.578 770.659 592.433C756.078 583.288 736.787 587.707 727.744 602.263ZM489.708 1332.04C480.562 1346.62 484.957 1365.81 499.537 1374.95C514.118 1384.1 533.305 1379.7 542.452 1365.12C551.598 1350.54 547.203 1331.35 532.623 1322.21C518.042 1313.06 498.855 1317.46 489.708 1332.04ZM588.648 1174.33C579.502 1188.91 583.896 1208.09 598.477 1217.24C613.057 1226.38 632.245 1221.99 641.391 1207.41C650.538 1192.83 646.143 1173.64 631.563 1164.5C616.982 1155.35 597.794 1159.75 588.648 1174.33ZM687.587 1016.61C678.441 1031.19 682.836 1050.38 697.416 1059.52C711.997 1068.67 731.185 1064.27 740.331 1049.69C749.477 1035.11 745.083 1015.93 730.502 1006.78C715.922 997.638 696.734 1002.03 687.587 1016.61ZM786.527 858.9C777.381 873.479 781.775 892.666 796.356 901.811C810.936 910.956 830.124 906.561 839.27 891.981C848.417 877.401 844.022 858.215 829.442 849.07C814.861 839.925 795.57 844.344 786.527 858.9ZM885.467 701.187C876.32 715.767 880.715 734.952 895.295 744.097C909.876 753.242 929.064 748.847 938.21 734.268C947.356 719.688 942.962 700.502 928.381 691.357C913.801 682.212 894.51 686.631 885.467 701.187ZM647.431 1430.96C638.285 1445.54 642.679 1464.73 657.26 1473.87C671.84 1483.02 691.028 1478.62 700.174 1464.05C709.321 1449.47 704.926 1430.28 690.345 1421.13C675.765 1411.99 656.577 1416.38 647.431 1430.96ZM746.37 1273.25C737.224 1287.83 741.619 1307.02 756.199 1316.16C770.78 1325.31 789.967 1320.91 799.114 1306.33C808.26 1291.75 803.866 1272.57 789.285 1263.42C774.705 1254.28 755.517 1258.67 746.37 1273.25ZM845.31 1115.54C836.164 1130.12 840.558 1149.3 855.139 1158.45C869.719 1167.59 888.907 1163.2 898.053 1148.62C907.2 1134.04 902.805 1114.85 888.225 1105.71C873.644 1096.56 854.353 1100.98 845.31 1115.54ZM944.25 957.824C935.103 972.404 939.498 991.59 954.078 1000.74C968.659 1009.88 987.847 1005.49 996.993 990.905C1006.14 976.326 1001.74 957.14 987.164 947.995C972.584 938.85 953.293 943.268 944.25 957.824ZM1043.09 800.135C1033.94 814.714 1038.33 833.901 1052.91 843.046C1067.5 852.19 1086.68 847.795 1095.83 833.216C1104.98 818.636 1100.58 799.45 1086 790.305C1071.52 781.136 1052.23 785.555 1043.09 800.135Z"/></g><g><path d="M178.635 139.281L184.422 144.246V166.626H215.704L219.958 172.147L215.69 177.397H184.422V198.795L178.635 203.747L173 198.795V144.232L178.635 139.281ZM195.554 195.68H219.406L223.397 200.915L219.143 206.45H195.554L191.7 201.342L195.554 195.68ZM196.382 138H219.129L223.383 143.52L219.129 148.77H196.659L192.115 143.677L196.382 138ZM323.155 148.628L328.251 154.291L323.155 159.968H246.13L241.172 154.291L246.13 148.628H323.155ZM237.043 172.147L241.849 167.893L246.669 172.147V178.393C246.669 188.879 249.417 197.515 261.668 197.515H264.14C275.147 197.515 281.197 189.86 281.197 177.952V172.005L285.879 167.75L290.699 171.862V178.379C290.699 189.007 293.723 196.946 305.56 196.946H307.618C319.178 196.946 321.235 187.869 321.373 177.952V171.578L326.056 167.608L331 171.72V178.094C330.862 191.838 327.285 207.574 308.032 207.574H305.974C294.552 207.574 288.365 202.324 285.892 195.808C283.006 202.466 275.299 208.286 264.844 208.286H262.358C242.553 208.286 237.194 195.964 237.056 178.663V172.147H237.043ZM276.391 274.744L273.642 267.089L280.796 264.969L305.974 276.721V252.491L311.07 248.095L316.291 252.491V281.829L325.641 286.226L328.251 293.311L320.959 296L276.391 274.744ZM321.235 223.011L328.113 226.27L325.917 233.497L264.002 263.119L256.571 260.146L259.596 252.776L321.235 223.011ZM231.905 263.404L237.954 268.512C237.402 286.51 222.403 296 204.669 296H202.874C194.062 296 183.759 292.6 177.157 286.083L177.834 278.855L184.298 278.002C189.118 282.256 195.858 285.229 202.183 285.229H204.117C216.091 285.229 225.303 280.136 226.27 268.085L231.905 263.404ZM226.256 251.638C225.704 239.16 216.629 234.209 204.103 234.209H202.169C194.739 234.209 189.104 237.182 184.284 241.436L177.834 240.583L177.143 233.355C183.745 226.696 192.957 223.58 202.597 223.58H204.517C222.403 223.58 237.402 232.942 237.94 251.211L231.891 256.176L226.256 251.638Z" fill="#000000"/></g><path d="M1171 781L1171 339L1187 339L1187 781L1171 781Z" fill="#000000"/><g fill="#000000" id="info-group"><path d="M167.6400 555L159.1800 555Q158.2800 555 157.6500 554.3700Q157.0200 553.7400 157.0200 552.8400L157.0200 552.8400L157.0200 494.1600Q157.0200 493.2600 157.6500 492.6300Q158.2800 492 159.1800 492L159.1800 492L167.6400 492Q168.6300 492 169.2150 492.6300Q169.8000 493.2600 169.8000 494.1600L169.8000 494.1600L169.8000 552.8400Q169.8000 553.7400 169.2150 554.3700Q168.6300 555 167.6400 555L167.6400 555ZM192.9300 555L185.0100 555Q184.1100 555 183.4800 554.3700Q182.8500 553.7400 182.8500 552.8400L182.8500 552.8400L182.8500 510.3600Q182.8500 509.4600 183.4800 508.8300Q184.1100 508.2000 185.0100 508.2000L185.0100 508.2000L192.3900 508.2000Q193.2900 508.2000 193.9200 508.8300Q194.5500 509.4600 194.5500 510.3600L194.5500 510.3600L194.5500 514.0500Q196.8900 511.1700 200.5350 509.2350Q204.1800 507.3000 209.5800 507.3000L209.5800 507.3000Q215.0700 507.3000 219.1200 509.7750Q223.1700 512.2500 225.3750 516.7500Q227.5800 521.2500 227.5800 527.5500L227.5800 527.5500L227.5800 552.8400Q227.5800 553.7400 226.9500 554.3700Q226.3200 555 225.4200 555L225.4200 555L217.5000 555Q216.6000 555 215.9700 554.3700Q215.3400 553.7400 215.3400 552.8400L215.3400 552.8400L215.3400 528.0900Q215.3400 522.8700 212.7750 519.9000Q210.2100 516.9300 205.3500 516.9300L205.3500 516.9300Q200.6700 516.9300 197.8800 519.9000Q195.0900 522.8700 195.0900 528.0900L195.0900 528.0900L195.0900 552.8400Q195.0900 553.7400 194.4600 554.3700Q193.8300 555 192.9300 555L192.9300 555ZM264.9300 555.9000L264.9300 555.9000Q259.7100 555.9000 256.2450 554.1000Q252.7800 552.3000 250.5300 549.5100L250.5300 549.5100L250.5300 552.8400Q250.5300 553.7400 249.9450 554.3700Q249.3600 555 248.3700 555L248.3700 555L241.2600 555Q240.3600 555 239.7300 554.3700Q239.1000 553.7400 239.1000 552.8400L239.1000 552.8400L239.1000 493.2600Q239.1000 492.3600 239.7300 491.7300Q240.3600 491.1000 241.2600 491.1000L241.2600 491.1000L248.9100 491.1000Q249.9000 491.1000 250.4850 491.7300Q251.0700 492.3600 251.0700 493.2600L251.0700 493.2600L251.0700 513.2400Q253.3200 510.6300 256.6950 508.9650Q260.0700 507.3000 264.9300 507.3000L264.9300 507.3000Q269.7000 507.3000 273.2100 508.9200Q276.7200 510.5400 279.1050 513.4650Q281.4900 516.3900 282.7500 520.2600Q284.0100 524.1300 284.1000 528.6300L284.1000 528.6300Q284.1900 530.2500 284.1900 531.5550Q284.1900 532.8600 284.1000 534.4800L284.1000 534.4800Q283.9200 539.1600 282.6600 543.0750Q281.4000 546.9900 279.0600 549.8700Q276.7200 552.7500 273.2100 554.3250Q269.7000 555.9000 264.9300 555.9000ZM261.6000 546.2700L261.6000 546.2700Q265.4700 546.2700 267.6300 544.6050Q269.7900 542.9400 270.7800 540.2400Q271.7700 537.5400 271.9500 534.3000L271.9500 534.3000Q272.0400 531.6000 271.9500 528.9000L271.9500 528.9000Q271.7700 525.6600 270.7800 522.9600Q269.7900 520.2600 267.6300 518.5950Q265.4700 516.9300 261.6000 516.9300L261.6000 516.9300Q258 516.9300 255.7500 518.5500Q253.5000 520.1700 252.3300 522.6450Q251.1600 525.1200 251.0700 527.8200L251.0700 527.8200Q250.9800 529.4400 250.9800 531.2850Q250.9800 533.1300 251.0700 534.7500L251.0700 534.7500Q251.2500 537.5400 252.2850 540.1950Q253.3200 542.8500 255.6150 544.5600Q257.9100 546.2700 261.6000 546.2700ZM314.8800 555.9000L314.8800 555.9000Q307.6800 555.9000 302.7750 553.3800Q297.8700 550.8600 295.3050 546.2700Q292.7400 541.6800 292.3800 535.5600L292.3800 535.5600Q292.2900 533.9400 292.2900 531.6000Q292.2900 529.2600 292.3800 527.6400L292.3800 527.6400Q292.7400 521.4300 295.3950 516.8850Q298.0500 512.3400 302.9550 509.8200Q307.8600 507.3000 314.8800 507.3000L314.8800 507.3000Q321.9000 507.3000 326.8050 509.8200Q331.7100 512.3400 334.3650 516.8850Q337.0200 521.4300 337.3800 527.6400L337.3800 527.6400Q337.4700 529.2600 337.4700 531.6000Q337.4700 533.9400 337.3800 535.5600L337.3800 535.5600Q337.0200 541.6800 334.4550 546.2700Q331.8900 550.8600 326.9850 553.3800Q322.0800 555.9000 314.8800 555.9000ZM314.8800 546.9900L314.8800 546.9900Q319.6500 546.9900 322.2600 543.9750Q324.8700 540.9600 325.1400 535.1100L325.1400 535.1100Q325.2300 533.7600 325.2300 531.6000Q325.2300 529.4400 325.1400 528.0900L325.1400 528.0900Q324.8700 522.2400 322.2600 519.2250Q319.6500 516.2100 314.8800 516.2100L314.8800 516.2100Q310.1100 516.2100 307.5000 519.2250Q304.8900 522.2400 304.6200 528.0900L304.6200 528.0900Q304.5300 529.4400 304.5300 531.6000Q304.5300 533.7600 304.6200 535.1100L304.6200 535.1100Q304.8900 540.9600 307.5000 543.9750Q310.1100 546.9900 314.8800 546.9900ZM364.8300 555.9000L364.8300 555.9000Q359.3400 555.9000 355.3350 553.4250Q351.3300 550.9500 349.1700 546.4050Q347.0100 541.8600 347.0100 535.6500L347.0100 535.6500L347.0100 510.3600Q347.0100 509.4600 347.6400 508.8300Q348.2700 508.2000 349.1700 508.2000L349.1700 508.2000L357.0900 508.2000Q358.0800 508.2000 358.6650 508.8300Q359.2500 509.4600 359.2500 510.3600L359.2500 510.3600L359.2500 535.1100Q359.2500 546.2700 369.0600 546.2700L369.0600 546.2700Q373.7400 546.2700 376.4850 543.3000Q379.2300 540.3300 379.2300 535.1100L379.2300 535.1100L379.2300 510.3600Q379.2300 509.4600 379.8600 508.8300Q380.4900 508.2000 381.3900 508.2000L381.3900 508.2000L389.3100 508.2000Q390.2100 508.2000 390.8400 508.8300Q391.4700 509.4600 391.4700 510.3600L391.4700 510.3600L391.4700 552.8400Q391.4700 553.7400 390.8400 554.3700Q390.2100 555 389.3100 555L389.3100 555L382.0200 555Q381.0300 555 380.4450 554.3700Q379.8600 553.7400 379.8600 552.8400L379.8600 552.8400L379.8600 549.1500Q377.4300 552.3000 373.8300 554.1000Q370.2300 555.9000 364.8300 555.9000ZM413.4300 555L405.5100 555Q404.6100 555 403.9800 554.3700Q403.3500 553.7400 403.3500 552.8400L403.3500 552.8400L403.3500 510.3600Q403.3500 509.4600 403.9800 508.8300Q404.6100 508.2000 405.5100 508.2000L405.5100 508.2000L412.8900 508.2000Q413.7900 508.2000 414.4200 508.8300Q415.0500 509.4600 415.0500 510.3600L415.0500 510.3600L415.0500 514.0500Q417.3900 511.1700 421.0350 509.2350Q424.6800 507.3000 430.0800 507.3000L430.0800 507.3000Q435.5700 507.3000 439.6200 509.7750Q443.6700 512.2500 445.8750 516.7500Q448.0800 521.2500 448.0800 527.5500L448.0800 527.5500L448.0800 552.8400Q448.0800 553.7400 447.4500 554.3700Q446.8200 555 445.9200 555L445.9200 555L438.0000 555Q437.1000 555 436.4700 554.3700Q435.8400 553.7400 435.8400 552.8400L435.8400 552.8400L435.8400 528.0900Q435.8400 522.8700 433.2750 519.9000Q430.7100 516.9300 425.8500 516.9300L425.8500 516.9300Q421.1700 516.9300 418.3800 519.9000Q415.5900 522.8700 415.5900 528.0900L415.5900 528.0900L415.5900 552.8400Q415.5900 553.7400 414.9600 554.3700Q414.3300 555 413.4300 555L413.4300 555ZM476.8800 555.9000L476.8800 555.9000Q472.2000 555.9000 468.6450 554.3250Q465.0900 552.7500 462.7500 549.8700Q460.4100 546.9900 459.1500 543.0750Q457.8900 539.1600 457.7100 534.4800L457.7100 534.4800Q457.6200 532.8600 457.6200 531.5550Q457.6200 530.2500 457.7100 528.6300L457.7100 528.6300Q457.8900 524.1300 459.1050 520.2600Q460.3200 516.3900 462.7050 513.4650Q465.0900 510.5400 468.6450 508.9200Q472.2000 507.3000 476.8800 507.3000L476.8800 507.3000Q481.7400 507.3000 485.1150 508.9650Q488.4900 510.6300 490.7400 513.2400L490.7400 513.2400L490.7400 493.2600Q490.7400 492.3600 491.3250 491.7300Q491.9100 491.1000 492.9000 491.1000L492.9000 491.1000L500.5500 491.1000Q501.4500 491.1000 502.0800 491.7300Q502.7100 492.3600 502.7100 493.2600L502.7100 493.2600L502.7100 552.8400Q502.7100 553.7400 502.0800 554.3700Q501.4500 555 500.5500 555L500.5500 555L493.4400 555Q492.4500 555 491.8650 554.3700Q491.2800 553.7400 491.2800 552.8400L491.2800 552.8400L491.2800 549.5100Q489.0300 552.3000 485.5650 554.1000Q482.1000 555.9000 476.8800 555.9000ZM480.2100 546.2700L480.2100 546.2700Q483.9900 546.2700 486.2400 544.5600Q488.4900 542.8500 489.5700 540.1950Q490.6500 537.5400 490.7400 534.7500L490.7400 534.7500Q490.8300 533.1300 490.8300 531.2850Q490.8300 529.4400 490.7400 527.8200L490.7400 527.8200Q490.6500 525.1200 489.4800 522.6450Q488.3100 520.1700 486.0600 518.5500Q483.8100 516.9300 480.2100 516.9300L480.2100 516.9300Q476.4300 516.9300 474.2250 518.5950Q472.0200 520.2600 471.0300 522.9600Q470.0400 525.6600 469.8600 528.9000L469.8600 528.9000Q469.7700 531.6000 469.8600 534.3000L469.8600 534.3000Q470.0400 537.5400 471.0300 540.2400Q472.0200 542.9400 474.2250 544.6050Q476.4300 546.2700 480.2100 546.2700ZM546.1800 555L538.6200 555Q537.6300 555 537.0000 554.3700Q536.3700 553.7400 536.3700 552.8400L536.3700 552.8400L536.3700 494.2500Q536.3700 493.2600 537.0000 492.6300Q537.6300 492 538.6200 492L538.6200 492L545.7300 492Q546.9900 492 547.6200 492.6750Q548.2500 493.3500 548.4300 493.7100L548.4300 493.7100L565.8000 526.1100L583.3500 493.7100Q583.5300 493.3500 584.1600 492.6750Q584.7900 492 586.0500 492L586.0500 492L593.0700 492Q594.0600 492 594.6900 492.6300Q595.3200 493.2600 595.3200 494.2500L595.3200 494.2500L595.3200 552.8400Q595.3200 553.7400 594.6900 554.3700Q594.0600 555 593.0700 555L593.0700 555L585.5100 555Q584.5200 555 583.9350 554.3700Q583.3500 553.7400 583.3500 552.8400L583.3500 552.8400L583.3500 513.8700L570.7500 537.9000Q570.3000 538.7100 569.5800 539.2950Q568.8600 539.8800 567.6900 539.8800L567.6900 539.8800L564.0000 539.8800Q562.7400 539.8800 562.0650 539.2950Q561.3900 538.7100 560.9400 537.9000L560.9400 537.9000L548.3400 513.8700L548.3400 552.8400Q548.3400 553.7400 547.7100 554.3700Q547.0800 555 546.1800 555L546.1800 555ZM621.8700 555.9000L621.8700 555.9000Q617.1900 555.9000 613.4100 554.0550Q609.6300 552.2100 607.4250 549.1050Q605.2200 546 605.2200 542.1300L605.2200 542.1300Q605.2200 535.8300 610.3500 532.0950Q615.4800 528.3600 623.7600 527.1000L623.7600 527.1000L636.0900 525.3000L636.0900 523.4100Q636.0900 519.6300 634.2000 517.5600Q632.3100 515.4900 627.7200 515.4900L627.7200 515.4900Q624.4800 515.4900 622.4550 516.7950Q620.4300 518.1000 619.4400 520.2600L619.4400 520.2600Q618.7200 521.4300 617.3700 521.4300L617.3700 521.4300L610.2600 521.4300Q609.2700 521.4300 608.7750 520.8900Q608.2800 520.3500 608.2800 519.4500L608.2800 519.4500Q608.3700 518.0100 609.4950 515.9400Q610.6200 513.8700 612.9150 511.9350Q615.2100 510 618.9000 508.6500Q622.5900 507.3000 627.8100 507.3000L627.8100 507.3000Q633.4800 507.3000 637.3950 508.6950Q641.3100 510.0900 643.6500 512.4300Q645.9900 514.7700 647.0700 517.9200Q648.1500 521.0700 648.1500 524.5800L648.1500 524.5800L648.1500 552.8400Q648.1500 553.7400 647.5200 554.3700Q646.8900 555 645.9900 555L645.9900 555L638.7000 555Q637.7100 555 637.1250 554.3700Q636.5400 553.7400 636.5400 552.8400L636.5400 552.8400L636.5400 549.3300Q635.3700 550.9500 633.3900 552.4800Q631.4100 554.0100 628.5750 554.9550Q625.7400 555.9000 621.8700 555.9000ZM624.9300 547.3500L624.9300 547.3500Q628.0800 547.3500 630.6450 546Q633.2100 544.6500 634.6950 541.8150Q636.1800 538.9800 636.1800 534.6600L636.1800 534.6600L636.1800 532.7700L627.1800 534.2100Q621.8700 535.0200 619.2600 536.8200Q616.6500 538.6200 616.6500 541.2300L616.6500 541.2300Q616.6500 543.2100 617.8650 544.6050Q619.0800 546 620.9700 546.6750Q622.8600 547.3500 624.9300 547.3500ZM669.6600 555L661.8300 555Q660.9300 555 660.3000 554.3700Q659.6700 553.7400 659.6700 552.8400L659.6700 552.8400L659.6700 510.4500Q659.6700 509.4600 660.3000 508.8300Q660.9300 508.2000 661.8300 508.2000L661.8300 508.2000L669.1200 508.2000Q670.0200 508.2000 670.6950 508.8300Q671.3700 509.4600 671.3700 510.4500L671.3700 510.4500L671.3700 514.1400Q673.4400 511.2600 676.7250 509.7300Q680.0100 508.2000 684.3300 508.2000L684.3300 508.2000L688.0200 508.2000Q689.0100 508.2000 689.5950 508.8300Q690.1800 509.4600 690.1800 510.3600L690.1800 510.3600L690.1800 516.8400Q690.1800 517.7400 689.5950 518.3700Q689.0100 519 688.0200 519L688.0200 519L681.0000 519Q676.6800 519 674.2950 521.3850Q671.9100 523.7700 671.9100 528.0900L671.9100 528.0900L671.9100 552.8400Q671.9100 553.7400 671.2800 554.3700Q670.6500 555 669.6600 555L669.6600 555ZM706.7400 555L699.4500 555Q698.5500 555 697.9200 554.3700Q697.2900 553.7400 697.2900 552.8400L697.2900 552.8400L697.2900 493.2600Q697.2900 492.3600 697.9200 491.7300Q698.5500 491.1000 699.4500 491.1000L699.4500 491.1000L706.7400 491.1000Q707.7300 491.1000 708.3150 491.7300Q708.9000 492.3600 708.9000 493.2600L708.9000 493.2600L708.9000 524.0400L724.0200 509.7300Q724.9200 509.0100 725.5050 508.6050Q726.0900 508.2000 727.3500 508.2000L727.3500 508.2000L735.7200 508.2000Q736.6200 508.2000 737.1600 508.7400Q737.7000 509.2800 737.7000 510.1800L737.7000 510.1800Q737.7000 510.5400 737.5200 510.9900Q737.3400 511.4400 736.8000 511.8000L736.8000 511.8000L718.2600 529.1700L739.0500 551.4900Q739.9500 552.3900 739.9500 553.0200L739.9500 553.0200Q739.9500 553.9200 739.3650 554.4600Q738.7800 555 737.9700 555L737.9700 555L729.4200 555Q728.0700 555 727.4850 554.5950Q726.9000 554.1900 726.0900 553.4700L726.0900 553.4700L708.9000 535.3800L708.9000 552.8400Q708.9000 553.7400 708.3150 554.3700Q707.7300 555 706.7400 555L706.7400 555ZM766.8600 555.9000L766.8600 555.9000Q756.8700 555.9000 751.0200 550.1400Q745.1700 544.3800 744.7200 533.7600L744.7200 533.7600Q744.6300 532.8600 744.6300 531.4650Q744.6300 530.0700 744.7200 529.2600L744.7200 529.2600Q745.0800 522.4200 747.8250 517.5150Q750.5700 512.6100 755.4300 509.9550Q760.2900 507.3000 766.8600 507.3000L766.8600 507.3000Q774.1500 507.3000 779.1000 510.3150Q784.0500 513.3300 786.5700 518.6850Q789.0900 524.0400 789.0900 531.0600L789.0900 531.0600L789.0900 532.9500Q789.0900 533.8500 788.4600 534.4800Q787.8300 535.1100 786.8400 535.1100L786.8400 535.1100L756.9600 535.1100Q756.9600 535.1100 756.9600 535.3800Q756.9600 535.6500 756.9600 535.8300L756.9600 535.8300Q757.0500 538.9800 758.1750 541.6350Q759.3000 544.2900 761.5050 545.9100Q763.7100 547.5300 766.7700 547.5300L766.7700 547.5300Q769.2900 547.5300 771.0000 546.7650Q772.7100 546 773.7900 545.0100Q774.8700 544.0200 775.3200 543.3900L775.3200 543.3900Q776.1300 542.3100 776.6250 542.0850Q777.1200 541.8600 778.1100 541.8600L778.1100 541.8600L785.8500 541.8600Q786.7500 541.8600 787.3350 542.4000Q787.9200 542.9400 787.8300 543.7500L787.8300 543.7500Q787.7400 545.1900 786.3450 547.2600Q784.9500 549.3300 782.3400 551.3100Q779.7300 553.2900 775.8150 554.5950Q771.9000 555.9000 766.8600 555.9000ZM756.9600 527.2800L756.9600 527.5500L776.8500 527.5500L776.8500 527.2800Q776.8500 523.7700 775.6800 521.1150Q774.5100 518.4600 772.2600 516.9750Q770.0100 515.4900 766.8600 515.4900L766.8600 515.4900Q763.7100 515.4900 761.4600 516.9750Q759.2100 518.4600 758.0850 521.1150Q756.9600 523.7700 756.9600 527.2800L756.9600 527.2800ZM827.0700 555L819.7800 555Q814.3800 555 810.6900 553.1100Q807.0000 551.2200 805.2000 547.4850Q803.4000 543.7500 803.4000 538.1700L803.4000 538.1700L803.4000 517.7400L796.2900 517.7400Q795.3900 517.7400 794.7600 517.1100Q794.1300 516.4800 794.1300 515.4900L794.1300 515.4900L794.1300 510.3600Q794.1300 509.4600 794.7600 508.8300Q795.3900 508.2000 796.2900 508.2000L796.2900 508.2000L803.4000 508.2000L803.4000 493.2600Q803.4000 492.3600 803.9850 491.7300Q804.5700 491.1000 805.5600 491.1000L805.5600 491.1000L812.8500 491.1000Q813.7500 491.1000 814.3800 491.7300Q815.0100 492.3600 815.0100 493.2600L815.0100 493.2600L815.0100 508.2000L826.2600 508.2000Q827.1600 508.2000 827.7900 508.8300Q828.4200 509.4600 828.4200 510.3600L828.4200 510.3600L828.4200 515.4900Q828.4200 516.4800 827.7900 517.1100Q827.1600 517.7400 826.2600 517.7400L826.2600 517.7400L815.0100 517.7400L815.0100 537.2700Q815.0100 540.9600 816.3150 543.0300Q817.6200 545.1000 820.8600 545.1000L820.8600 545.1000L827.0700 545.1000Q827.9700 545.1000 828.6000 545.7300Q829.2300 546.3600 829.2300 547.2600L829.2300 547.2600L829.2300 552.8400Q829.2300 553.7400 828.6000 554.3700Q827.9700 555 827.0700 555L827.0700 555ZM846.8700 555L839.4000 555Q838.5000 555 837.8700 554.3700Q837.2400 553.7400 837.2400 552.8400L837.2400 552.8400L837.2400 510.3600Q837.2400 509.4600 837.8700 508.8300Q838.5000 508.2000 839.4000 508.2000L839.4000 508.2000L846.8700 508.2000Q847.8600 508.2000 848.4450 508.8300Q849.0300 509.4600 849.0300 510.3600L849.0300 510.3600L849.0300 552.8400Q849.0300 553.7400 848.4450 554.3700Q847.8600 555 846.8700 555L846.8700 555ZM847.2300 500.4600L839.0400 500.4600Q838.1400 500.4600 837.5100 499.8300Q836.8800 499.2000 836.8800 498.3000L836.8800 498.3000L836.8800 491.8200Q836.8800 490.9200 837.5100 490.2900Q838.1400 489.6600 839.0400 489.6600L839.0400 489.6600L847.2300 489.6600Q848.2200 489.6600 848.8500 490.2900Q849.4800 490.9200 849.4800 491.8200L849.4800 491.8200L849.4800 498.3000Q849.4800 499.2000 848.8500 499.8300Q848.2200 500.4600 847.2300 500.4600L847.2300 500.4600ZM871.0800 555L863.1600 555Q862.2600 555 861.6300 554.3700Q861.0000 553.7400 861.0000 552.8400L861.0000 552.8400L861.0000 510.3600Q861.0000 509.4600 861.6300 508.8300Q862.2600 508.2000 863.1600 508.2000L863.1600 508.2000L870.5400 508.2000Q871.4400 508.2000 872.0700 508.8300Q872.7000 509.4600 872.7000 510.3600L872.7000 510.3600L872.7000 514.0500Q875.0400 511.1700 878.6850 509.2350Q882.3300 507.3000 887.7300 507.3000L887.7300 507.3000Q893.2200 507.3000 897.2700 509.7750Q901.3200 512.2500 903.5250 516.7500Q905.7300 521.2500 905.7300 527.5500L905.7300 527.5500L905.7300 552.8400Q905.7300 553.7400 905.1000 554.3700Q904.4700 555 903.5700 555L903.5700 555L895.6500 555Q894.7500 555 894.1200 554.3700Q893.4900 553.7400 893.4900 552.8400L893.4900 552.8400L893.4900 528.0900Q893.4900 522.8700 890.9250 519.9000Q888.3600 516.9300 883.5000 516.9300L883.5000 516.9300Q878.8200 516.9300 876.0300 519.9000Q873.2400 522.8700 873.2400 528.0900L873.2400 528.0900L873.2400 552.8400Q873.2400 553.7400 872.6100 554.3700Q871.9800 555 871.0800 555L871.0800 555ZM938.3100 574.8000L938.3100 574.8000Q931.7400 574.8000 927.5100 573.0900Q923.2800 571.3800 920.8500 568.9500Q918.4200 566.5200 917.3850 564.1350Q916.3500 561.7500 916.2600 560.4000L916.2600 560.4000Q916.1700 559.5000 916.8450 558.8250Q917.5200 558.1500 918.4200 558.1500L918.4200 558.1500L926.2500 558.1500Q927.1500 558.1500 927.6900 558.5550Q928.2300 558.9600 928.5900 560.0400L928.5900 560.0400Q929.1300 561.2100 930.0300 562.5600Q930.9300 563.9100 932.7750 564.8550Q934.6200 565.8000 937.8600 565.8000L937.8600 565.8000Q941.2800 565.8000 943.6200 564.8100Q945.9600 563.8200 947.1750 561.4800Q948.3900 559.1400 948.3900 555L948.3900 555L948.3900 548.8800Q946.2300 551.4900 942.8550 553.1100Q939.4800 554.7300 934.5300 554.7300L934.5300 554.7300Q929.7600 554.7300 926.2050 553.1550Q922.6500 551.5800 920.3100 548.7450Q917.9700 545.9100 916.7550 542.0400Q915.5400 538.1700 915.3600 533.4900L915.3600 533.4900Q915.2700 531.0600 915.3600 528.6300L915.3600 528.6300Q915.5400 524.1300 916.7550 520.2600Q917.9700 516.3900 920.3100 513.4650Q922.6500 510.5400 926.2050 508.9200Q929.7600 507.3000 934.5300 507.3000L934.5300 507.3000Q939.6600 507.3000 943.1700 509.2350Q946.6800 511.1700 948.9300 514.0500L948.9300 514.0500L948.9300 510.4500Q948.9300 509.4600 949.5600 508.8300Q950.1900 508.2000 951.0900 508.2000L951.0900 508.2000L958.3800 508.2000Q959.2800 508.2000 959.9100 508.8300Q960.5400 509.4600 960.5400 510.4500L960.5400 510.4500L960.6300 553.8300Q960.6300 560.3100 958.2000 564.9900Q955.7700 569.6700 950.8650 572.2350Q945.9600 574.8000 938.3100 574.8000ZM937.8600 545.1900L937.8600 545.1900Q941.5500 545.1900 943.8000 543.5700Q946.0500 541.9500 947.1300 539.3400Q948.2100 536.7300 948.3900 534.0300L948.3900 534.0300Q948.4800 532.8600 948.4800 531.0600Q948.4800 529.2600 948.3900 528.1800L948.3900 528.1800Q948.2100 525.3900 947.1300 522.8250Q946.0500 520.2600 943.8000 518.5950Q941.5500 516.9300 937.8600 516.9300L937.8600 516.9300Q934.1700 516.9300 931.9200 518.5950Q929.6700 520.2600 928.7250 522.9600Q927.7800 525.6600 927.6000 528.9000L927.6000 528.9000Q927.4200 531.0600 927.6000 533.3100L927.6000 533.3100Q927.7800 536.4600 928.7250 539.2050Q929.6700 541.9500 931.9200 543.5700Q934.1700 545.1900 937.8600 545.1900ZM167.1000 645L159.1800 645Q158.2800 645 157.6500 644.3700Q157.0200 643.7400 157.0200 642.8400L157.0200 642.8400L157.0200 584.2500Q157.0200 583.2600 157.6500 582.6300Q158.2800 582 159.1800 582L159.1800 582L198.2400 582Q199.2300 582 199.8600 582.6300Q200.4900 583.2600 200.4900 584.2500L200.4900 584.2500L200.4900 590.5500Q200.4900 591.5400 199.8600 592.1250Q199.2300 592.7100 198.2400 592.7100L198.2400 592.7100L169.3500 592.7100L169.3500 609.8100L196.4400 609.8100Q197.4300 609.8100 198.0600 610.4400Q198.6900 611.0700 198.6900 612.0600L198.6900 612.0600L198.6900 618.3600Q198.6900 619.2600 198.0600 619.8900Q197.4300 620.5200 196.4400 620.5200L196.4400 620.5200L169.3500 620.5200L169.3500 642.8400Q169.3500 643.7400 168.7200 644.3700Q168.0900 645 167.1000 645L167.1000 645ZM219.7500 645L212.2800 645Q211.3800 645 210.7500 644.3700Q210.1200 643.7400 210.1200 642.8400L210.1200 642.8400L210.1200 583.2600Q210.1200 582.3600 210.7500 581.7300Q211.3800 581.1000 212.2800 581.1000L212.2800 581.1000L219.7500 581.1000Q220.6500 581.1000 221.2800 581.7300Q221.9100 582.3600 221.9100 583.2600L221.9100 583.2600L221.9100 642.8400Q221.9100 643.7400 221.2800 644.3700Q220.6500 645 219.7500 645L219.7500 645ZM254.5800 645.9000L254.5800 645.9000Q247.3800 645.9000 242.4750 643.3800Q237.5700 640.8600 235.0050 636.2700Q232.4400 631.6800 232.0800 625.5600L232.0800 625.5600Q231.9900 623.9400 231.9900 621.6000Q231.9900 619.2600 232.0800 617.6400L232.0800 617.6400Q232.4400 611.4300 235.0950 606.8850Q237.7500 602.3400 242.6550 599.8200Q247.5600 597.3000 254.5800 597.3000L254.5800 597.3000Q261.6000 597.3000 266.5050 599.8200Q271.4100 602.3400 274.0650 606.8850Q276.7200 611.4300 277.0800 617.6400L277.0800 617.6400Q277.1700 619.2600 277.1700 621.6000Q277.1700 623.9400 277.0800 625.5600L277.0800 625.5600Q276.7200 631.6800 274.1550 636.2700Q271.5900 640.8600 266.6850 643.3800Q261.7800 645.9000 254.5800 645.9000ZM254.5800 636.9900L254.5800 636.9900Q259.3500 636.9900 261.9600 633.9750Q264.5700 630.9600 264.8400 625.1100L264.8400 625.1100Q264.9300 623.7600 264.9300 621.6000Q264.9300 619.4400 264.8400 618.0900L264.8400 618.0900Q264.5700 612.2400 261.9600 609.2250Q259.3500 606.2100 254.5800 606.2100L254.5800 606.2100Q249.8100 606.2100 247.2000 609.2250Q244.5900 612.2400 244.3200 618.0900L244.3200 618.0900Q244.2300 619.4400 244.2300 621.6000Q244.2300 623.7600 244.3200 625.1100L244.3200 625.1100Q244.5900 630.9600 247.2000 633.9750Q249.8100 636.9900 254.5800 636.9900ZM305.7000 645L299.9400 645Q298.6800 645 298.0500 644.3700Q297.4200 643.7400 296.9700 642.7500L296.9700 642.7500L284.1000 600.9900Q284.0100 600.5400 284.0100 600.1800L284.0100 600.1800Q284.0100 599.3700 284.5950 598.7850Q285.1800 598.2000 285.9000 598.2000L285.9000 598.2000L292.5600 598.2000Q293.6400 598.2000 294.2700 598.7850Q294.9000 599.3700 294.9900 599.9100L294.9900 599.9100L303.8100 629.7000L313.1700 600.1800Q313.3500 599.5500 313.9800 598.8750Q314.6100 598.2000 315.8700 598.2000L315.8700 598.2000L320.3700 598.2000Q321.6300 598.2000 322.2600 598.8750Q322.8900 599.5500 323.0700 600.1800L323.0700 600.1800L332.4300 629.7000L341.2500 599.9100Q341.3400 599.3700 341.9250 598.7850Q342.5100 598.2000 343.5900 598.2000L343.5900 598.2000L350.2500 598.2000Q351.0600 598.2000 351.6450 598.7850Q352.2300 599.3700 352.2300 600.1800L352.2300 600.1800Q352.2300 600.5400 352.0500 600.9900L352.0500 600.9900L339.1800 642.7500Q338.9100 643.7400 338.2350 644.3700Q337.5600 645 336.3000 645L336.3000 645L330.4500 645Q329.2800 645 328.5150 644.3700Q327.7500 643.7400 327.4800 642.7500L327.4800 642.7500L318.1200 614.3100L308.7600 642.7500Q308.4000 643.7400 307.7250 644.3700Q307.0500 645 305.7000 645L305.7000 645Z" id="title"/><path d="M1408.9600 640L1388.9400 640Q1386.5200 640 1385.0900 638.4600Q1383.6600 636.9200 1383.6600 634.7200L1383.6600 634.7200L1383.6600 520.7600L1350.2200 546.5000Q1348.2400 547.8200 1346.2600 547.4900Q1344.2800 547.1600 1342.7400 545.1800L1342.7400 545.1800L1333.5000 533.3000Q1332.1800 531.3200 1332.5100 529.1200Q1332.8400 526.9200 1334.8200 525.6000L1334.8200 525.6000L1384.1000 487.5400Q1385.4200 486.4400 1386.7400 486.2200Q1388.0600 486 1389.6000 486L1389.6000 486L1408.9600 486Q1411.1600 486 1412.7000 487.5400Q1414.2400 489.0800 1414.2400 491.2800L1414.2400 491.2800L1414.2400 634.7200Q1414.2400 636.9200 1412.7000 638.4600Q1411.1600 640 1408.9600 640L1408.9600 640ZM1510.8200 640L1490.8000 640Q1488.3800 640 1486.9500 638.4600Q1485.5200 636.9200 1485.5200 634.7200L1485.5200 634.7200L1485.5200 520.7600L1452.0800 546.5000Q1450.1000 547.8200 1448.1200 547.4900Q1446.1400 547.1600 1444.6000 545.1800L1444.6000 545.1800L1435.3600 533.3000Q1434.0400 531.3200 1434.3700 529.1200Q1434.7000 526.9200 1436.6800 525.6000L1436.6800 525.6000L1485.9600 487.5400Q1487.2800 486.4400 1488.6000 486.2200Q1489.9200 486 1491.4600 486L1491.4600 486L1510.8200 486Q1513.0200 486 1514.5600 487.5400Q1516.1000 489.0800 1516.1000 491.2800L1516.1000 491.2800L1516.1000 634.7200Q1516.1000 636.9200 1514.5600 638.4600Q1513.0200 640 1510.8200 640L1510.8200 640ZM1572.2000 640L1550.2000 640Q1548.0000 640 1546.4600 638.4600Q1544.9200 636.9200 1544.9200 634.7200L1544.9200 634.7200L1544.9200 612.9400Q1544.9200 610.5200 1546.4600 608.9800Q1548.0000 607.4400 1550.2000 607.4400L1550.2000 607.4400L1572.2000 607.4400Q1574.4000 607.4400 1575.9400 608.9800Q1577.4800 610.5200 1577.4800 612.9400L1577.4800 612.9400L1577.4800 634.7200Q1577.4800 636.9200 1575.9400 638.4600Q1574.4000 640 1572.2000 640L1572.2000 640ZM1711.0200 640L1605.8600 640Q1603.6600 640 1602.1200 638.4600Q1600.5800 636.9200 1600.5800 634.7200L1600.5800 634.7200L1600.5800 623.5000Q1600.5800 621.5200 1601.5700 618.7700Q1602.5600 616.0200 1606.0800 613.1600L1606.0800 613.1600L1640.8400 578.6200Q1655.3600 567.1800 1664.2700 559.1500Q1673.1800 551.1200 1677.2500 544.4100Q1681.3200 537.7000 1681.3200 531.1000L1681.3200 531.1000Q1681.3200 521.2000 1675.9300 515.0400Q1670.5400 508.8800 1658.8800 508.8800L1658.8800 508.8800Q1651.1800 508.8800 1645.9000 512.0700Q1640.6200 515.2600 1637.6500 520.5400Q1634.6800 525.8200 1633.5800 532.2000L1633.5800 532.2000Q1633.1400 535.0600 1631.1600 536.1600Q1629.1800 537.2600 1627.2000 537.2600L1627.2000 537.2600L1607.6200 537.2600Q1605.6400 537.2600 1604.3200 535.9400Q1603.0000 534.6200 1603.0000 532.8600L1603.0000 532.8600Q1603.2200 523.4000 1606.9600 514.4900Q1610.7000 505.5800 1617.8500 498.6500Q1625.0000 491.7200 1635.3400 487.5400Q1645.6800 483.3600 1658.6600 483.3600L1658.6600 483.3600Q1676.9200 483.3600 1688.9100 489.5200Q1700.9000 495.6800 1706.9500 506.2400Q1713.0000 516.8000 1713.0000 530L1713.0000 530Q1713.0000 540.3400 1709.0400 549.0300Q1705.0800 557.7200 1697.6000 565.7500Q1690.1200 573.7800 1679.5600 582.1400L1679.5600 582.1400L1648.3200 613.8200L1711.0200 613.8200Q1713.4400 613.8200 1714.8700 615.2500Q1716.3000 616.6800 1716.3000 619.1000L1716.3000 619.1000L1716.3000 634.7200Q1716.3000 636.9200 1714.8700 638.4600Q1713.4400 640 1711.0200 640L1711.0200 640Z" id="lecture-full-number"/></g></svg>